0
SECTION
2
HEADER
9
$ACADVER
1
AC1006
0
ENDSEC
0
SECTION
2
ENTITIES
0
LINE
8
cut
62
1
10
299.1
20
0.0
11
299.1
21
150.0
0
LINE
8
crease
62
3
10
0.0
20
0.0
11
0.0
21
150.0
0
LINE
8
crease
62
3
10
100.0
20
0.0
11
100.0
21
150.0
0
LINE
8
crease
62
3
10
150.0
20
0.0
11
150.0
21
150.0
0
LINE
8
crease
62
3
10
250.0
20
0.0
11
250.0
21
150.0
0
TEXT
8
dimensions
62
255
10
40.53125
20
14.1071428571
11
59.46875
21
14.1071428571
40
10
72
0.0
50
0.0
1
100.00mm
0
LINE
8
dimensions
62
255
10
0.0
20
10.0
11
1.8660254038
21
10.5
0
LINE
8
dimensions
62
255
10
0.0
20
10.0
11
1.8660254038
21
9.5
0
LINE
8
dimensions
62
255
10
100.0
20
10.0
11
98.1339745962
21
9.5
0
LINE
8
dimensions
62
255
10
100.0
20
10.0
11
98.1339745962
21
10.5
0
LINE
8
dimensions
62
255
10
0.0
20
10.0
11
100.0
21
10.0
0
TEXT
8
dimensions
62
255
10
115.7890625
20
14.1071428571
11
134.2109375
21
14.1071428571
40
10
72
0.0
50
0.0
1
50.00mm
0
LINE
8
dimensions
62
255
10
100.0
20
10.0
11
101.8660254038
21
10.5
0
LINE
8
dimensions
62
255
10
100.0
20
10.0
11
101.8660254038
21
9.5
0
LINE
8
dimensions
62
255
10
150.0
20
10.0
11
148.1339745962
21
9.5
0
LINE
8
dimensions
62
255
10
150.0
20
10.0
11
148.1339745962
21
10.5
0
LINE
8
dimensions
62
255
10
100.0
20
10.0
11
150.0
21
10.0
0
TEXT
8
dimensions
62
255
10
270.8928571428
20
65.53125
11
270.8928571428
21
84.46875
40
10
72
0.0
50
90.0
1
150.00mm
0
LINE
8
dimensions
62
255
10
274.0
20
150.0
11
275.0
21
150.0
0
LINE
8
dimensions
62
255
10
274.0
20
0.0
11
275.0
21
0.0
0
LINE
8
dimensions
62
255
10
275.0
20
150.0
11
275.5
21
148.1339745962
0
LINE
8
dimensions
62
255
10
275.0
20
150.0
11
274.5
21
148.1339745962
0
LINE
8
dimensions
62
255
10
275.0
20
0.0
11
274.5
21
1.8660254038
0
LINE
8
dimensions
62
255
10
275.0
20
0.0
11
275.5
21
1.8660254038
0
LINE
8
dimensions
62
255
10
275.0
20
150.0
11
275.0
21
0.0
0
TEXT
8
dimensions
62
255
10
-34.1071428571
20
65.53125
11
-34.1071428571
21
84.46875
40
10
72
0.0
50
90.0
1
200.00mm
0
LINE
8
dimensions
62
255
10
-31.0
20
175.0
11
-23.0
21
175.0
0
LINE
8
dimensions
62
255
10
-31.0
20
-25.0
11
-23.0
21
-25.0
0
LINE
8
dimensions
62
255
10
-30.0
20
175.0
11
-29.5
21
173.1339745962
0
LINE
8
dimensions
62
255
10
-30.0
20
175.0
11
-30.5
21
173.1339745962
0
LINE
8
dimensions
62
255
10
-30.0
20
-25.0
11
-30.5
21
-23.1339745962
0
LINE
8
dimensions
62
255
10
-30.0
20
-25.0
11
-29.5
21
-23.1339745962
0
LINE
8
dimensions
62
255
10
-30.0
20
175.0
11
-30.0
21
-25.0
0
TEXT
8
dimensions
62
255
10
126.5890625
20
189.1071428572
11
152.5109375
21
189.1071428572
40
10
72
0.0
50
0.0
1
319.10mm
0
LINE
8
dimensions
62
255
10
-20.0
20
186.0
11
-20.0
21
178.0
0
LINE
8
dimensions
62
255
10
299.1
20
186.0
11
299.1
21
178.0
0
LINE
8
dimensions
62
255
10
-20.0
20
185.0
11
-18.1339745962
21
185.5
0
LINE
8
dimensions
62
255
10
-20.0
20
185.0
11
-18.1339745962
21
184.5
0
LINE
8
dimensions
62
255
10
299.1
20
185.0
11
297.2339745962
21
184.5
0
LINE
8
dimensions
62
255
10
299.1
20
185.0
11
297.2339745962
21
185.5
0
LINE
8
dimensions
62
255
10
-20.0
20
185.0
11
299.1
21
185.0
0
TEXT
8
dimensions
62
255
10
224.55
20
133.700000003
11
234.55
21
133.700000003
40
10
72
0.0
50
0.0
1
149.10mm
0
LINE
8
dimensions
62
255
10
299.1
20
130.0
11
150.0
21
130.0
0
LINE
8
dimensions
62
255
10
299.1
20
130.0
11
296.1
21
131.0
0
LINE
8
dimensions
62
255
10
299.1
20
130.0
11
296.1
21
129.0
0
LINE
8
dimensions
62
255
10
150.0
20
130.0
11
153.0
21
131.0
0
LINE
8
dimensions
62
255
10
150.0
20
130.0
11
153.0
21
129.0
0
TEXT
8
dimensions
62
255
10
75.0
20
133.700000003
11
85.0
21
133.700000003
40
10
72
0.0
50
0.0
1
150.00mm
0
LINE
8
dimensions
62
255
10
150.0
20
130.0
11
0.0
21
130.0
0
LINE
8
dimensions
62
255
10
150.0
20
130.0
11
147.0
21
131.0
0
LINE
8
dimensions
62
255
10
150.0
20
130.0
11
147.0
21
129.0
0
LINE
8
dimensions
62
255
10
0.0
20
130.0
11
3.0
21
131.0
0
LINE
8
dimensions
62
255
10
0.0
20
130.0
11
3.0
21
129.0
0
TEXT
8
dimensions
62
255
10
65.0
20
78.700000003
11
75.0
21
78.700000003
40
10
72
0.0
50
0.0
1
170.00mm
0
LINE
8
dimensions
62
255
10
150.0
20
75.0
11
-20.0
21
75.0
0
LINE
8
dimensions
62
255
10
150.0
20
75.0
11
147.0
21
76.0
0
LINE
8
dimensions
62
255
10
150.0
20
75.0
11
147.0
21
74.0
0
LINE
8
dimensions
62
255
10
-20.0
20
75.0
11
-17.0
21
76.0
0
LINE
8
dimensions
62
255
10
-20.0
20
75.0
11
-17.0
21
74.0
0
TEXT
8
dimensions
62
255
10
271.2999999971
20
162.5
11
271.2999999971
21
172.5
40
10
72
0.0
50
90.0
1
25.00mm
0
LINE
8
dimensions
62
255
10
275.0
20
175.0
11
275.0
21
150.0
0
LINE
8
dimensions
62
255
10
275.0
20
175.0
11
276.0
21
172.0
0
LINE
8
dimensions
62
255
10
275.0
20
175.0
11
274.0
21
172.0
0
LINE
8
dimensions
62
255
10
275.0
20
150.0
11
276.0
21
153.0
0
LINE
8
dimensions
62
255
10
275.0
20
150.0
11
274.0
21
153.0
0
LINE
8
cut
62
1
10
0.0
20
0.0
11
0.5176380902
21
-0.1387007082
0
LINE
8
cut
62
1
10
2.0
20
-2.0705523608
11
2.0
21
-25.0
0
LINE
8
cut
62
1
10
2.0
20
-25.0
11
98.0
21
-25.0
0
LINE
8
cut
62
1
10
98.0
20
-25.0
11
98.0
21
-2.0
0
LINE
8
cut
62
1
10
102.0
20
-2.0
11
102.0
21
-25.0
0
LINE
8
cut
62
1
10
102.0
20
-25.0
11
148.0
21
-25.0
0
LINE
8
cut
62
1
10
148.0
20
-25.0
11
148.0
21
-2.0
0
LINE
8
cut
62
1
10
152.0
20
-2.0
11
152.0
21
-25.0
0
LINE
8
cut
62
1
10
152.0
20
-25.0
11
248.0
21
-25.0
0
LINE
8
cut
62
1
10
248.0
20
-25.0
11
248.0
21
-2.0
0
LINE
8
cut
62
1
10
252.0
20
-2.0
11
252.0
21
-25.0
0
LINE
8
cut
62
1
10
252.0
20
-25.0
11
299.1
21
-25.0
0
LINE
8
cut
62
1
10
299.1
20
-25.0
11
299.1
21
0.0
0
LINE
8
crease
62
3
10
0.0
20
0.0
11
100.0
21
0.0
0
LINE
8
crease
62
3
10
100.0
20
0.0
11
150.0
21
0.0
0
LINE
8
crease
62
3
10
150.0
20
0.0
11
250.0
21
0.0
0
LINE
8
crease
62
3
10
250.0
20
0.0
11
299.1
21
0.0
0
ARC
8
cut
62
1
10
0.0
20
-2.0705523608
40
2.0
50
0.0
51
75.0000000003
0
ARC
8
cut
62
1
10
100.0
20
-2.0
40
2.0
50
0.0
51
180.0
0
ARC
8
cut
62
1
10
150.0
20
-2.0
40
2.0
50
0.0
51
180.0
0
ARC
8
cut
62
1
10
250.0
20
-2.0
40
2.0
50
0.0
51
180.0
0
LINE
8
cut
62
1
10
0.0
20
150.0
11
0.5176380902
21
150.1387007082
0
LINE
8
cut
62
1
10
2.0
20
152.0705523608
11
2.0
21
175.0
0
LINE
8
cut
62
1
10
2.0
20
175.0
11
98.0
21
175.0
0
LINE
8
cut
62
1
10
98.0
20
175.0
11
98.0
21
152.0
0
LINE
8
cut
62
1
10
102.0
20
152.0
11
102.0
21
175.0
0
LINE
8
cut
62
1
10
102.0
20
175.0
11
148.0
21
175.0
0
LINE
8
cut
62
1
10
148.0
20
175.0
11
148.0
21
152.0
0
LINE
8
cut
62
1
10
152.0
20
152.0
11
152.0
21
175.0
0
LINE
8
cut
62
1
10
152.0
20
175.0
11
248.0
21
175.0
0
LINE
8
cut
62
1
10
248.0
20
175.0
11
248.0
21
152.0
0
LINE
8
cut
62
1
10
252.0
20
152.0
11
252.0
21
175.0
0
LINE
8
cut
62
1
10
252.0
20
175.0
11
299.1
21
175.0
0
LINE
8
cut
62
1
10
299.1
20
175.0
11
299.1
21
150.0
0
LINE
8
crease
62
3
10
0.0
20
150.0
11
100.0
21
150.0
0
LINE
8
crease
62
3
10
100.0
20
150.0
11
150.0
21
150.0
0
LINE
8
crease
62
3
10
150.0
20
150.0
11
250.0
21
150.0
0
LINE
8
crease
62
3
10
250.0
20
150.0
11
299.1
21
150.0
0
ARC
8
cut
62
1
10
0.0
20
152.0705523608
40
2.0
50
284.9999999997
51
360.0
0
ARC
8
cut
62
1
10
100.0
20
152.0
40
2.0
50
180.0
51
360.0
0
ARC
8
cut
62
1
10
150.0
20
152.0
40
2.0
50
180.0
51
360.0
0
ARC
8
cut
62
1
10
250.0
20
152.0
40
2.0
50
180.0
51
360.0
0
LINE
8
cut
62
1
10
-20.0
20
144.6410161514
11
0.0
21
150.0
0
LINE
8
cut
62
1
10
-20.0
20
5.3589838486
11
0.0
21
0.0
0
LINE
8
cut
62
1
10
-20.0
20
5.3589838486
11
-20.0
21
144.6410161514
0
ENDSEC
0
EOF
