<?xml version="1.0" encoding="UTF-8"?>
<svg xmlns="http://www.w3.org/2000/svg" 
     width="1782" height="859" 
     viewBox="109 126 1782 859">
  <g transform="scale(1,-1) translate(0,-1111)">
  <path d="M 1890.72019 839.19312 L 1883.63357 846.27973 L 1869.46034 985.17737 L 1637.01940 985.17737 L 1622.81758 844.29379" fill="none" stroke="#000000" stroke-width="0.72" stroke-linecap="round" stroke-linejoin="round"/>
  <path d="M 1611.50758 844.86241 C 1611.50758 841.84196 1613.87557 839.35193 1616.89221 839.20027 C 1619.90885 839.04860 1622.51464 841.28857 1622.81758 844.29379" fill="none" stroke="#000000" stroke-width="0.72" stroke-linecap="round" stroke-linejoin="round"/>
  <path d="M 1611.50758 844.86241 L 1611.50758 985.17737 L 1044.57844 985.17737 L 1044.57844 844.86241" fill="none" stroke="#000000" stroke-width="0.72" stroke-linecap="round" stroke-linejoin="round"/>
  <path d="M 1033.26845 844.29379 C 1033.57139 841.28857 1036.17718 839.04860 1039.19382 839.20027 C 1042.21046 839.35193 1044.57844 841.84196 1044.57844 844.86241" fill="none" stroke="#000000" stroke-width="0.72" stroke-linecap="round" stroke-linejoin="round"/>
  <path d="M 1033.26845 844.29379 L 1019.06663 985.17737 L 786.62569 985.17737 L 772.42387 844.29379" fill="none" stroke="#000000" stroke-width="0.72" stroke-linecap="round" stroke-linejoin="round"/>
  <path d="M 761.11387 844.86241 C 761.11387 841.84196 763.48186 839.35193 766.49850 839.20027 C 769.51514 839.04860 772.12093 841.28857 772.42387 844.29379" fill="none" stroke="#000000" stroke-width="0.72" stroke-linecap="round" stroke-linejoin="round"/>
  <path d="M 761.11387 844.86241 L 761.11387 985.17737 L 194.18473 985.17737 L 194.18473 839.19312 L 109.14536 816.40689" fill="none" stroke="#000000" stroke-width="0.72" stroke-linecap="round" stroke-linejoin="round"/>
  <path d="M 1890.72019 839.19312 L 1890.72019 272.26398" fill="none" stroke="#000000" stroke-width="0.72" stroke-linecap="round" stroke-linejoin="round"/>
  <path d="M 1611.50758 844.01201 L 1611.50758 267.44508" fill="none" stroke="#000000" stroke-width="0.72" stroke-linecap="round" stroke-linejoin="round"/>
  <path d="M 1044.57844 844.01201 L 1044.57844 267.44508" fill="none" stroke="#000000" stroke-width="0.72" stroke-linecap="round" stroke-linejoin="round"/>
  <path d="M 761.11387 844.01201 L 761.11387 267.44508" fill="none" stroke="#000000" stroke-width="0.72" stroke-linecap="round" stroke-linejoin="round"/>
  <path d="M 194.18473 838.34272 L 194.18473 273.11437" fill="none" stroke="#000000" stroke-width="0.72" stroke-linecap="round" stroke-linejoin="round"/>
  <path d="M 109.14536 816.40689 L 109.14536 295.05021" fill="none" stroke="#000000" stroke-width="0.72" stroke-linecap="round" stroke-linejoin="round"/>
  <path d="M 1889.86979 839.19312 L 1618.02727 839.19312" fill="none" stroke="#000000" stroke-width="0.72" stroke-linecap="round" stroke-linejoin="round"/>
  <path d="M 1610.83721 843.44508 L 1045.24881 843.44508" fill="none" stroke="#000000" stroke-width="0.72" stroke-linecap="round" stroke-linejoin="round"/>
  <path d="M 1038.05876 839.19312 L 767.63356 839.19312" fill="none" stroke="#000000" stroke-width="0.72" stroke-linecap="round" stroke-linejoin="round"/>
  <path d="M 760.44350 843.44508 L 195.03513 843.44508" fill="none" stroke="#000000" stroke-width="0.72" stroke-linecap="round" stroke-linejoin="round"/>
  <path d="M 1890.72019 272.26398 L 1883.63357 265.17736 L 1869.46034 126.27972 L 1637.01940 126.27972 L 1622.81758 267.16330 C 1622.51464 270.16852 1619.90885 272.40849 1616.89221 272.25682 C 1613.87557 272.10516 1611.50758 269.61514 1611.50758 266.59468 L 1611.50758 126.27972 L 1044.57844 126.27972 L 1044.57844 266.59468 C 1044.57844 269.61514 1042.21046 272.10516 1039.19382 272.25682 C 1036.17718 272.40849 1033.57139 270.16852 1033.26845 267.16330 L 1019.06663 126.27972 L 786.62569 126.27972 L 772.42387 267.16330 C 772.12093 270.16852 769.51514 272.40849 766.49850 272.25682 C 763.48186 272.10516 761.11387 269.61514 761.11387 266.59468 L 761.11387 126.27972 L 194.18473 126.27972 L 194.18473 272.26398 L 109.14536 295.05021" fill="none" stroke="#000000" stroke-width="0.72" stroke-linecap="round" stroke-linejoin="round"/>
  <path d="M 1889.86979 272.26398 L 1618.02727 272.26398" fill="none" stroke="#000000" stroke-width="0.72" stroke-linecap="round" stroke-linejoin="round"/>
  <path d="M 1610.83721 268.01201 L 1045.24881 268.01201" fill="none" stroke="#000000" stroke-width="0.72" stroke-linecap="round" stroke-linejoin="round"/>
  <path d="M 1038.05876 272.26398 L 767.63356 272.26398" fill="none" stroke="#000000" stroke-width="0.72" stroke-linecap="round" stroke-linejoin="round"/>
  <path d="M 760.44350 268.01201 L 195.03513 268.01201" fill="none" stroke="#000000" stroke-width="0.72" stroke-linecap="round" stroke-linejoin="round"/>
  </g>
</svg>