<?xml version="1.0" encoding="UTF-8"?>
<svg xmlns="http://www.w3.org/2000/svg" 
     width="1767" height="1134" 
     viewBox="93 83 1767 1134">
  <g transform="scale(1,-1) translate(0,-1300)">
  <path d="M 1860.19272 295.51497 L 1718.46043 153.78269 L 1718.46043 106.44411" fill="none" stroke="#000000" stroke-width="0.72" stroke-linecap="round" stroke-linejoin="round"/>
  <path d="M 1694.93287 82.91655 C 1707.92008 82.91655 1718.46043 93.45689 1718.46043 106.44411" fill="none" stroke="#000000" stroke-width="0.72" stroke-linecap="round" stroke-linejoin="round"/>
  <path d="M 1694.93287 82.91655 L 1585.23208 82.91655 L 1585.23208 291.26301 C 1585.23208 292.98429 1584.18720 294.54274 1582.59487 295.19643 C 1581.00255 295.85011 1579.16404 295.47536 1577.95461 294.25058 L 1439.24783 153.78269 L 1439.24783 106.44411" fill="none" stroke="#000000" stroke-width="0.72" stroke-linecap="round" stroke-linejoin="round"/>
  <path d="M 1415.72027 82.91655 C 1428.70748 82.91655 1439.24783 93.45689 1439.24783 106.44411" fill="none" stroke="#000000" stroke-width="0.72" stroke-linecap="round" stroke-linejoin="round"/>
  <path d="M 1415.72027 82.91655 L 1179.31082 82.91655" fill="none" stroke="#000000" stroke-width="0.72" stroke-linecap="round" stroke-linejoin="round"/>
  <path d="M 1155.78326 106.44411 C 1155.78326 93.45689 1166.32361 82.91655 1179.31082 82.91655" fill="none" stroke="#000000" stroke-width="0.72" stroke-linecap="round" stroke-linejoin="round"/>
  <path d="M 1155.78326 106.44411 L 1155.78326 153.78269 L 1017.07648 294.25058 C 1015.86705 295.47536 1014.02854 295.85011 1012.43621 295.19643 C 1010.84389 294.54274 1009.79901 292.98429 1009.79901 291.26301 L 1009.79901 82.91655 L 900.09822 82.91655" fill="none" stroke="#000000" stroke-width="0.72" stroke-linecap="round" stroke-linejoin="round"/>
  <path d="M 876.57066 106.44411 C 876.57066 93.45689 887.11100 82.91655 900.09822 82.91655" fill="none" stroke="#000000" stroke-width="0.72" stroke-linecap="round" stroke-linejoin="round"/>
  <path d="M 876.57066 106.44411 L 876.57066 153.78269 L 733.56647 294.29590 C 732.34682 295.49430 730.51884 295.84540 728.94201 295.18413 C 727.36517 294.52285 726.33444 292.97289 726.33444 291.26301 L 726.33444 82.91655 L 615.21632 82.91655" fill="none" stroke="#000000" stroke-width="0.72" stroke-linecap="round" stroke-linejoin="round"/>
  <path d="M 591.68876 106.44411 C 591.68876 93.45689 602.22911 82.91655 615.21632 82.91655" fill="none" stroke="#000000" stroke-width="0.72" stroke-linecap="round" stroke-linejoin="round"/>
  <path d="M 591.68876 106.44411 L 591.68876 153.78269 L 302.55490 153.78269 L 302.55490 106.44411" fill="none" stroke="#000000" stroke-width="0.72" stroke-linecap="round" stroke-linejoin="round"/>
  <path d="M 279.02734 82.91655 C 292.01456 82.91655 302.55490 93.45689 302.55490 106.44411" fill="none" stroke="#000000" stroke-width="0.72" stroke-linecap="round" stroke-linejoin="round"/>
  <path d="M 279.02734 82.91655 L 167.90923 82.91655 L 167.90923 288.42836 L 163.65726 295.51497 L 92.79112 314.50350" fill="none" stroke="#000000" stroke-width="0.72" stroke-linecap="round" stroke-linejoin="round"/>
  <path d="M 1859.34232 295.51497 L 1581.83051 295.51497" fill="none" stroke="#000000" stroke-width="0.72" stroke-linecap="round" stroke-linejoin="round"/>
  <path d="M 1580.12972 295.51497 L 1014.90137 295.51497" fill="none" stroke="#000000" stroke-width="0.72" stroke-linecap="round" stroke-linejoin="round"/>
  <path d="M 1013.20058 295.51497 L 731.43680 295.51497" fill="none" stroke="#000000" stroke-width="0.72" stroke-linecap="round" stroke-linejoin="round"/>
  <path d="M 729.73601 295.51497 L 164.50766 295.51497" fill="none" stroke="#000000" stroke-width="0.72" stroke-linecap="round" stroke-linejoin="round"/>
  <path d="M 1860.19272 295.51497 L 1860.19272 862.44411 L 1853.10610 869.53073 L 1844.19265 1039.60947 L 1650.81450 1039.60947 C 1644.40536 1039.60947 1638.78302 1035.29529 1637.12421 1029.10454 L 1600.82263 893.62522 L 1589.48405 882.28663 L 1589.48405 862.44411 L 1325.86200 862.44411" fill="none" stroke="#000000" stroke-width="0.72" stroke-linecap="round" stroke-linejoin="round"/>
  <path d="M 1269.16909 862.44411 C 1270.70031 847.93784 1282.92868 836.93230 1297.51554 836.93230 C 1312.10241 836.93230 1324.33078 847.93784 1325.86200 862.44411" fill="none" stroke="#000000" stroke-width="0.72" stroke-linecap="round" stroke-linejoin="round"/>
  <path d="M 1269.16909 862.44411 L 1005.54704 862.44411 L 1005.54704 882.28663 L 994.20845 893.62522 L 957.90688 1029.10454 C 956.24807 1035.29529 950.62572 1039.60947 944.21659 1039.60947 L 750.91271 1039.60947 L 741.91723 867.81695" fill="none" stroke="#000000" stroke-width="0.72" stroke-linecap="round" stroke-linejoin="round"/>
  <path d="M 730.58640 868.11341 C 730.58640 865.04071 733.03578 862.52642 736.10742 862.44605 C 739.17906 862.36569 741.75656 864.74847 741.91723 867.81695" fill="none" stroke="#000000" stroke-width="0.72" stroke-linecap="round" stroke-linejoin="round"/>
  <path d="M 730.58640 868.11341 L 730.58640 1145.90868 L 728.98421 1176.48045 C 727.80043 1199.06822 709.14156 1216.77483 686.52279 1216.77483 L 207.72088 1216.77483 C 185.10210 1216.77483 166.44324 1199.06822 165.25946 1176.48045 L 163.65726 1145.90868 L 163.65726 862.44411 L 92.79112 843.45559 L 92.79112 314.50350" fill="none" stroke="#000000" stroke-width="0.72" stroke-linecap="round" stroke-linejoin="round"/>
  <path d="M 1580.98011 861.59372 L 1580.98011 296.36537" fill="none" stroke="#000000" stroke-width="0.72" stroke-linecap="round" stroke-linejoin="round"/>
  <path d="M 730.58640 861.59372 L 730.58640 296.36537" fill="none" stroke="#000000" stroke-width="0.72" stroke-linecap="round" stroke-linejoin="round"/>
  <path d="M 1014.05097 861.59372 L 1014.05097 296.36537" fill="none" stroke="#000000" stroke-width="0.72" stroke-linecap="round" stroke-linejoin="round"/>
  <path d="M 163.65726 861.59372 L 163.65726 296.36537" fill="none" stroke="#000000" stroke-width="0.72" stroke-linecap="round" stroke-linejoin="round"/>
  <path d="M 1859.34232 862.44411 L 1590.33444 862.44411" fill="none" stroke="#000000" stroke-width="0.72" stroke-linecap="round" stroke-linejoin="round"/>
  <path d="M 1004.69664 862.44411 L 737.10609 862.44411" fill="none" stroke="#000000" stroke-width="0.72" stroke-linecap="round" stroke-linejoin="round"/>
  <path d="M 729.73601 866.69608 L 164.50766 866.69608" fill="none" stroke="#000000" stroke-width="0.72" stroke-linecap="round" stroke-linejoin="round"/>
  <path d="M 729.73601 1145.90868 L 164.50766 1145.90868" fill="none" stroke="#000000" stroke-width="0.72" stroke-linecap="round" stroke-linejoin="round"/>
  </g>
</svg>