<?xml version="1.0" encoding="UTF-8" standalone="no"?>
<!-- Created with Inkscape (http://www.inkscape.org/) -->

<svg
   version="1.1"
   id="svg1"
   width="2356"
   height="1512"
   viewBox="0 0 2356 1512"
   sodipodi:docname="B형 하단조립.pdf"
   xmlns:inkscape="http://www.inkscape.org/namespaces/inkscape"
   xmlns:sodipodi="http://sodipodi.sourceforge.net/DTD/sodipodi-0.dtd"
   xmlns="http://www.w3.org/2000/svg"
   xmlns:svg="http://www.w3.org/2000/svg">
  <defs
     id="defs1" />
  <sodipodi:namedview
     id="namedview1"
     pagecolor="#ffffff"
     bordercolor="#000000"
     borderopacity="0.25"
     inkscape:showpageshadow="2"
     inkscape:pageopacity="0.0"
     inkscape:pagecheckerboard="0"
     inkscape:deskcolor="#d1d1d1">
    <inkscape:page
       x="0"
       y="0"
       inkscape:label="1"
       id="page1"
       width="2356"
       height="1512"
       margin="0"
       bleed="0" />
  </sodipodi:namedview>
  <g
     id="g1"
     inkscape:groupmode="layer"
     inkscape:label="1">
    <path
       id="path1"
       d="M 17671.9,2125.15 16254.6,707.828 V 234.441 M 16019.3,-0.835938 c 129.9,0 235.3,105.405938 235.3,235.276938 M 16019.3,-0.835938 h -1097 V 2082.63 c 0,17.21 -10.4,32.8 -26.4,39.33 -15.9,6.54 -34.3,2.79 -46.4,-9.45 L 13462.5,707.828 V 234.441 M 13227.2,-0.835938 c 129.9,0 235.3,105.405938 235.3,235.276938 M 13227.2,-0.835938 H 10863.1 M 10627.8,234.441 c 0,-129.871 105.4,-235.276938 235.3,-235.276938 M 10627.8,234.441 V 707.828 L 9240.77,2112.51 c -12.1,12.24 -30.48,15.99 -46.41,9.45 -15.92,-6.53 -26.37,-22.12 -26.37,-39.33 V -0.835938 H 8070.98 M 7835.71,234.441 c 0,-129.871 105.4,-235.276938 235.27,-235.276938 M 7835.71,234.441 V 707.828 L 6405.66,2112.96 c -12.19,11.98 -30.47,15.49 -46.24,8.88 -15.77,-6.61 -26.08,-22.11 -26.08,-39.21 V -0.835938 H 5222.16 M 4986.89,234.441 c 0,-129.871 105.4,-235.276938 235.27,-235.276938 M 4986.89,234.441 V 707.828 H 2095.55 V 234.441 M 1860.27,-0.835938 c 129.87,0 235.28,105.405938 235.28,235.276938 M 1860.27,-0.835938 H 749.094 V 2054.29 l -42.52,70.86 -708.66384,189.89 M 17663.4,2125.15 h -2775.1 m -17,0 H 9219.02 m -17.01,0 H 6384.37 m -17.01,0 H 715.078 m 16956.822,0 v 5669.29 l -70.8,70.87 -89.2,1700.78 h -1933.8 c -64,0 -120.3,-43.14 -136.9,-105.04 l -363,-1354.8 -113.4,-113.38 v -198.43 h -2636.2 m -566.9,0 c 15.3,-145.06 137.6,-255.12 283.5,-255.12 145.8,0 268.1,110.06 283.4,255.12 m -566.9,0 H 9125.47 v 198.43 l -113.38,113.38 -363.02,1354.8 c -16.59,61.9 -72.81,105.04 -136.9,105.04 H 6579.13 l -89.96,-1717.92 m -113.31,2.96 c 0,-30.72 24.5,-55.86 55.21,-56.67 30.72,-0.8 56.5,23.02 58.1,53.71 m -113.31,2.96 v 2777.97 l -16.02,305.7 c -11.84,225.9 -198.43,403 -424.61,403 H 1147.21 c -226.19,0 -412.776,-177.1 -424.616,-403 l -16.02,-305.7 V 7794.44 L -2.08984,7604.55 V 2315.04 M 14879.8,7785.94 V 2133.65 M 6375.86,7785.94 V 2133.65 M 9210.51,7785.94 V 2133.65 M 706.574,7785.94 V 2133.65 M 17663.4,7794.44 h -2690.1 m -5856.33,0 H 6441.06 m -73.7,42.52 H 715.078 M 6367.36,10629.1 H 715.078 Z"
       style="fill:none;stroke:#231f20;stroke-width:2.16;stroke-linecap:butt;stroke-linejoin:miter;stroke-miterlimit:2.6131;stroke-dasharray:none;stroke-opacity:1"
       transform="matrix(0.13333333,0,0,-0.13333333,0,1512)" />
  </g>
</svg>
