<?xml version="1.0" encoding="UTF-8" standalone="no"?>
<!-- Created with Inkscape (http://www.inkscape.org/) -->

<svg
   version="1.1"
   id="svg1"
   width="2356"
   height="1510.6667"
   viewBox="0 0 2356 1510.6667"
   sodipodi:docname="B형 3면접착.pdf"
   xmlns:inkscape="http://www.inkscape.org/namespaces/inkscape"
   xmlns:sodipodi="http://sodipodi.sourceforge.net/DTD/sodipodi-0.dtd"
   xmlns="http://www.w3.org/2000/svg"
   xmlns:svg="http://www.w3.org/2000/svg">
  <defs
     id="defs1" />
  <sodipodi:namedview
     id="namedview1"
     pagecolor="#ffffff"
     bordercolor="#000000"
     borderopacity="0.25"
     inkscape:showpageshadow="2"
     inkscape:pageopacity="0.0"
     inkscape:pagecheckerboard="0"
     inkscape:deskcolor="#d1d1d1">
    <inkscape:page
       x="0"
       y="0"
       inkscape:label="1"
       id="page1"
       width="2356"
       height="1510.6667"
       margin="0"
       bleed="0" />
  </sodipodi:namedview>
  <g
     id="g1"
     inkscape:groupmode="layer"
     inkscape:label="1">
    <path
       id="path1"
       d="M 17669.7,2121.61 16294.9,704.289 h -718.6 l -634.4,1376.121 c -10,21.7 -30.2,36.87 -53.8,40.42 -23.7,3.54 -47.5,-5.03 -63.4,-22.83 l -247.8,-277.05 243.9,-523.18 -25.3,-1163.493 M 14653.8,-4.37109 c 77.1,0 140,61.60939 141.7,138.64809 M 14653.8,-4.37109 h -484.9 L 13460.2,704.289 h -1445.7 l 28.4,-113.387 -595.3,-595.27309 H 9500.14 M 9358.53,131.504 c 3.14,-75.9298 65.62,-135.87509 141.61,-135.87509 M 9358.53,131.504 9279.05,2053.68 c -1.17,28.19 -19.05,53.1 -45.39,63.22 -26.35,10.12 -56.31,3.59 -76.05,-16.58 L 7790.92,704.289 H 7072.33 L 6437.96,2080.41 c -10.01,21.7 -30.22,36.87 -53.85,40.42 -23.62,3.54 -47.4,-5.03 -63.33,-22.83 L 6072.94,1820.95 6316.91,1297.77 6291.58,134.277 M 6149.88,-4.37109 c 77.05,0 140.02,61.60939 141.7,138.64809 M 6149.88,-4.37109 H 5664.94 L 4956.28,704.289 H 3510.61 L 3538.95,590.902 2943.68,-4.37109 H 925.664 M 784.039,131.844 C 787.004,55.7773 849.539,-4.37109 925.664,-4.37109 M 784.039,131.844 704.309,2178.3 -4.35547,2886.96 M 17661.2,2121.61 H 14886 m -17,0 H 9216.75 m -17.01,0 H 6382.1 m -17.01,0 H 715.02 M 14570.9,1814.94 13466.2,710.301 M 6066.93,1814.94 4962.29,710.301 M 17669.7,2121.61 V 7790.9 l -70.9,70.87 -89.1,1700.79 h -1933.8 c -64.1,0 -120.3,-43.15 -136.9,-105.05 l -363,-1354.8 -113.4,-113.38 V 7790.9 h -2636.2 m -567,0 c 15.3,-145.06 137.6,-255.11 283.5,-255.11 145.9,0 268.1,110.05 283.5,255.11 m -567,0 H 9123.21 v 198.43 l -113.39,113.38 -363.02,1354.8 c -16.59,61.9 -72.81,105.05 -136.9,105.05 H 6576.86 l -89.95,-1717.93 m -113.31,2.97 c 0,-30.73 24.49,-55.87 55.21,-56.68 30.72,-0.8 56.49,23.03 58.1,53.71 m -113.31,2.97 v 2778 l -16.02,305.7 c -11.84,225.8 -198.43,402.9 -424.62,402.9 H 1144.94 c -226.186,0 -412.772,-177.1 -424.612,-402.9 l -16.019,-305.7 V 7790.9 L -4.35547,7601.02 V 2886.96 M 14877.5,7782.4 V 2130.12 M 6373.6,7782.4 V 2130.12 M 9208.25,7782.4 V 2130.12 M 704.309,7782.4 V 2186.81 M 17661.2,7790.9 h -2690.1 m -5856.4,0 H 6438.8 m -73.71,42.53 H 712.813 M 6365.09,10625.6 H 712.813 Z"
       style="fill:none;stroke:#231f20;stroke-width:2.16;stroke-linecap:butt;stroke-linejoin:miter;stroke-miterlimit:2.6131;stroke-dasharray:none;stroke-opacity:1"
       transform="matrix(0.13333333,0,0,-0.13333333,0,1510.6667)" />
  </g>
</svg>
