<?xml version="1.0" encoding="UTF-8"?>
<svg xmlns="http://www.w3.org/2000/svg" 
     width="3125" height="3028" 
     viewBox="35 42 3125 3028">
  <g transform="scale(1,-1) translate(0,-3112)">
  <path d="M 429.06182 759.34783 L 60.55788 759.34783" fill="none" stroke="#000000" stroke-width="0.72" stroke-linecap="round" stroke-linejoin="round"/>
  <path d="M 40.71538 779.19043 L 40.71538 977.61570 L 35.04608 986.11960" fill="none" stroke="#000000" stroke-width="0.72" stroke-linecap="round" stroke-linejoin="round"/>
  <path d="M 35.89647 986.11960 L 431.04613 986.11960" fill="none" stroke="#000000" stroke-width="0.72" stroke-linecap="round" stroke-linejoin="round"/>
  <path d="M 429.06182 580.76515 L 429.06182 977.61570 L 431.89652 986.11960" fill="none" stroke="#000000" stroke-width="0.72" stroke-linecap="round" stroke-linejoin="round"/>
  <path d="M 1001.66027 580.76515 L 1001.66027 977.61570 L 998.82577 986.11960" fill="none" stroke="#000000" stroke-width="0.72" stroke-linecap="round" stroke-linejoin="round"/>
  <path d="M 435.58152 569.42655 L 995.14047 569.42655" fill="none" stroke="#000000" stroke-width="0.72" stroke-linecap="round" stroke-linejoin="round"/>
  <path d="M 429.91222 580.76515 L 1000.80987 580.76515" fill="none" stroke="#000000" stroke-width="0.72" stroke-linecap="round" stroke-linejoin="round"/>
  <path d="M 434.73112 178.24551 L 434.73112 569.42655 L 429.06182 580.76515" fill="none" stroke="#000000" stroke-width="0.72" stroke-linecap="round" stroke-linejoin="round"/>
  <path d="M 995.99087 178.24551 L 995.99087 569.42655 L 1001.66027 580.76515" fill="none" stroke="#000000" stroke-width="0.72" stroke-linecap="round" stroke-linejoin="round"/>
  <path d="M 434.73112 178.24551 L 519.77046 178.24551 L 522.38816 166.90681 L 616.36533 166.90681 L 618.98313 178.24551 L 811.73906 178.24551 L 814.35676 166.90681 L 908.33393 166.90681 L 910.95153 178.24551 L 995.99087 178.24551" fill="none" stroke="#000000" stroke-width="0.72" stroke-linecap="round" stroke-linejoin="round"/>
  <path d="M 525.43976 977.61570 L 613.31373 977.61570" fill="none" stroke="#000000" stroke-width="0.72" stroke-linecap="round" stroke-linejoin="round"/>
  <path d="M 613.31373 988.95400 L 525.43976 988.95400" fill="none" stroke="#000000" stroke-width="0.72" stroke-linecap="round" stroke-linejoin="round"/>
  <path d="M 817.40826 977.61570 L 905.28243 977.61570" fill="none" stroke="#000000" stroke-width="0.72" stroke-linecap="round" stroke-linejoin="round"/>
  <path d="M 905.28243 988.95400 L 817.40826 988.95400" fill="none" stroke="#000000" stroke-width="0.72" stroke-linecap="round" stroke-linejoin="round"/>
  <path d="M 429.91222 977.61570 L 524.58937 977.61570" fill="none" stroke="#000000" stroke-width="0.72" stroke-linecap="round" stroke-linejoin="round"/>
  <path d="M 614.16413 977.61570 L 816.55786 977.61570" fill="none" stroke="#000000" stroke-width="0.72" stroke-linecap="round" stroke-linejoin="round"/>
  <path d="M 906.13282 977.61570 L 1000.80987 977.61570" fill="none" stroke="#000000" stroke-width="0.72" stroke-linecap="round" stroke-linejoin="round"/>
  <path d="M 1363.07751 759.34783 L 1001.66027 759.34783" fill="none" stroke="#000000" stroke-width="0.72" stroke-linecap="round" stroke-linejoin="round"/>
  <path d="M 1394.82552 986.11960 L 999.67616 986.11960" fill="none" stroke="#000000" stroke-width="0.72" stroke-linecap="round" stroke-linejoin="round"/>
  <path d="M 2784.65254 1119.34784 L 2784.65254 974.78080" fill="none" stroke="#000000" stroke-width="0.72" stroke-linecap="round" stroke-linejoin="round"/>
  <path d="M 2393.47140 979.03290 L 2379.29800 973.36370" fill="none" stroke="#000000" stroke-width="0.72" stroke-linecap="round" stroke-linejoin="round"/>
  <path d="M 1979.04605 973.36370 L 2379.29800 973.36370" fill="none" stroke="#000000" stroke-width="0.72" stroke-linecap="round" stroke-linejoin="round"/>
  <path d="M 1400.77850 973.36370 L 1978.19566 973.36370" fill="none" stroke="#000000" stroke-width="0.72" stroke-linecap="round" stroke-linejoin="round"/>
  <path d="M 1979.04605 577.36365 L 1979.04605 972.51330" fill="none" stroke="#000000" stroke-width="0.72" stroke-linecap="round" stroke-linejoin="round"/>
  <path d="M 2379.29800 974.21409 L 2379.29800 1377.10018" fill="none" stroke="#000000" stroke-width="0.72" stroke-linecap="round" stroke-linejoin="round"/>
  <path d="M 2393.47140 979.88329 L 2393.47140 1377.10544" fill="none" stroke="#000000" stroke-width="0.72" stroke-linecap="round" stroke-linejoin="round"/>
  <path d="M 2541.72335 886.55578 L 2541.72335 721.08013" fill="none" stroke="#000000" stroke-width="0.72" stroke-linecap="round" stroke-linejoin="round"/>
  <path d="M 2524.71525 704.07233 L 2485.02995 704.07233" fill="none" stroke="#000000" stroke-width="0.72" stroke-linecap="round" stroke-linejoin="round"/>
  <path d="M 2468.02265 721.08013 L 2468.02265 769.26913" fill="none" stroke="#000000" stroke-width="0.72" stroke-linecap="round" stroke-linejoin="round"/>
  <path d="M 2455.26675 769.26913 L 2455.26675 623.28495" fill="none" stroke="#000000" stroke-width="0.72" stroke-linecap="round" stroke-linejoin="round"/>
  <path d="M 1988.96725 583.59985 L 1979.04605 576.51325" fill="none" stroke="#000000" stroke-width="0.72" stroke-linecap="round" stroke-linejoin="round"/>
  <path d="M 1988.96725 583.59985 L 2370.70817 583.59985" fill="none" stroke="#000000" stroke-width="0.72" stroke-linecap="round" stroke-linejoin="round"/>
  <path d="M 1979.04605 576.51325 L 1837.31365 576.51325" fill="none" stroke="#000000" stroke-width="0.72" stroke-linecap="round" stroke-linejoin="round"/>
  <path d="M 2799.67594 1275.25350 L 2799.67594 1119.34784" fill="none" stroke="#000000" stroke-width="0.72" stroke-linecap="round" stroke-linejoin="round"/>
  <path d="M 2784.65254 1275.25350 L 2799.67594 1275.25350" fill="none" stroke="#000000" stroke-width="0.72" stroke-linecap="round" stroke-linejoin="round"/>
  <path d="M 2784.65254 1119.34784 L 2799.67594 1119.34784" fill="none" stroke="#000000" stroke-width="0.72" stroke-linecap="round" stroke-linejoin="round"/>
  <path d="M 1391.42401 981.86750 L 1391.42401 787.69433" fill="none" stroke="#000000" stroke-width="0.72" stroke-linecap="round" stroke-linejoin="round"/>
  <path d="M 1399.92811 981.86750 L 1399.92811 875.38566" fill="none" stroke="#000000" stroke-width="0.72" stroke-linecap="round" stroke-linejoin="round"/>
  <path d="M 1412.85806 851.59800 L 1837.31365 576.51325" fill="none" stroke="#000000" stroke-width="0.72" stroke-linecap="round" stroke-linejoin="round"/>
  <path d="M 1412.85806 851.59800 C 1404.78940 856.82720 1399.92811 865.77068 1399.92811 875.38566" fill="none" stroke="#000000" stroke-width="0.72" stroke-linecap="round" stroke-linejoin="round"/>
  <path d="M 2784.65254 974.78080 L 2393.47140 979.03290" fill="none" stroke="#000000" stroke-width="0.72" stroke-linecap="round" stroke-linejoin="round"/>
  <path d="M 40.71538 779.19043 C 40.71937 768.23890 49.60635 759.35188 60.55788 759.34783" fill="none" stroke="#000000" stroke-width="0.72" stroke-linecap="round" stroke-linejoin="round"/>
  <path d="M 525.43976 988.95400 C 522.31081 988.95340 519.77170 986.41380 519.77170 983.28485 C 519.77170 980.15589 522.31081 977.61630 525.43976 977.61570" fill="none" stroke="#000000" stroke-width="0.72" stroke-linecap="round" stroke-linejoin="round"/>
  <path d="M 613.31373 977.61570 C 616.44271 977.61626 618.98187 980.15586 618.98187 983.28485 C 618.98187 986.41383 616.44271 988.95344 613.31373 988.95400" fill="none" stroke="#000000" stroke-width="0.72" stroke-linecap="round" stroke-linejoin="round"/>
  <path d="M 817.40826 988.95400 C 814.27932 988.95337 811.74025 986.41378 811.74025 983.28485 C 811.74025 980.15591 814.27932 977.61633 817.40826 977.61570" fill="none" stroke="#000000" stroke-width="0.72" stroke-linecap="round" stroke-linejoin="round"/>
  <path d="M 905.28243 977.61570 C 908.41131 977.61640 910.95030 980.15597 910.95030 983.28485 C 910.95030 986.41373 908.41131 988.95329 905.28243 988.95400" fill="none" stroke="#000000" stroke-width="0.72" stroke-linecap="round" stroke-linejoin="round"/>
  <path d="M 1363.07751 759.34783 C 1378.72257 759.35355 1391.41829 772.04927 1391.42401 787.69433" fill="none" stroke="#000000" stroke-width="0.72" stroke-linecap="round" stroke-linejoin="round"/>
  <path d="M 2524.71525 704.07233 C 2534.10232 704.07566 2541.71986 711.69306 2541.72335 721.08013" fill="none" stroke="#000000" stroke-width="0.72" stroke-linecap="round" stroke-linejoin="round"/>
  <path d="M 2468.02265 721.08013 C 2468.02599 711.69330 2475.64313 704.07593 2485.02995 704.07233" fill="none" stroke="#000000" stroke-width="0.72" stroke-linecap="round" stroke-linejoin="round"/>
  <path d="M 2468.02265 769.26913 C 2468.02185 772.78920 2465.16477 775.64562 2461.64470 775.64562 C 2458.12463 775.64562 2455.26756 772.78920 2455.26675 769.26913" fill="none" stroke="#000000" stroke-width="0.72" stroke-linecap="round" stroke-linejoin="round"/>
  <path d="M 1399.92811 981.86750 C 1399.92761 984.21428 1398.02284 986.11864 1395.67606 986.11864 C 1393.32928 986.11864 1391.42451 984.21428 1391.42401 981.86750" fill="none" stroke="#000000" stroke-width="0.72" stroke-linecap="round" stroke-linejoin="round"/>
  <path d="M 2426.05525 1417.00037 C 2426.05525 1438.90651 2408.27635 1456.68541 2386.37021 1456.68541 C 2364.46407 1456.68541 2346.68517 1438.90651 2346.68517 1417.00037 C 2346.68517 1395.09422 2364.46407 1377.31533 2386.37021 1377.31533 C 2408.27635 1377.31533 2426.05525 1395.09422 2426.05525 1417.00037" fill="none" stroke="#000000" stroke-width="0.72" stroke-linecap="round" stroke-linejoin="round"/>
  <path d="M 2422.66811 623.28495 C 2398.40491 623.28495 2377.09320 607.00784 2370.70817 583.59985" fill="none" stroke="#000000" stroke-width="0.72" stroke-linecap="round" stroke-linejoin="round"/>
  <path d="M 2422.66811 623.28495 L 2455.26675 623.28495" fill="none" stroke="#000000" stroke-width="0.72" stroke-linecap="round" stroke-linejoin="round"/>
  <path d="M 429.06182 2074.62373 L 60.55788 2074.62373" fill="none" stroke="#000000" stroke-width="0.72" stroke-linecap="round" stroke-linejoin="round"/>
  <path d="M 40.71538 2054.78113 L 40.71538 1856.35586 L 35.04608 1847.85196" fill="none" stroke="#000000" stroke-width="0.72" stroke-linecap="round" stroke-linejoin="round"/>
  <path d="M 35.89647 1847.85196 L 431.04613 1847.85196" fill="none" stroke="#000000" stroke-width="0.72" stroke-linecap="round" stroke-linejoin="round"/>
  <path d="M 429.06182 2253.20641 L 429.06182 1856.35586 L 431.89652 1847.85196" fill="none" stroke="#000000" stroke-width="0.72" stroke-linecap="round" stroke-linejoin="round"/>
  <path d="M 1001.66027 2253.20641 L 1001.66027 1856.35586 L 998.82577 1847.85196" fill="none" stroke="#000000" stroke-width="0.72" stroke-linecap="round" stroke-linejoin="round"/>
  <path d="M 435.58152 2264.54501 L 995.14047 2264.54501" fill="none" stroke="#000000" stroke-width="0.72" stroke-linecap="round" stroke-linejoin="round"/>
  <path d="M 429.91222 2253.20641 L 1000.80987 2253.20641" fill="none" stroke="#000000" stroke-width="0.72" stroke-linecap="round" stroke-linejoin="round"/>
  <path d="M 434.73112 2655.72605 L 434.73112 2264.54501 L 429.06182 2253.20641" fill="none" stroke="#000000" stroke-width="0.72" stroke-linecap="round" stroke-linejoin="round"/>
  <path d="M 995.99087 2655.72605 L 995.99087 2264.54501 L 1001.66027 2253.20641" fill="none" stroke="#000000" stroke-width="0.72" stroke-linecap="round" stroke-linejoin="round"/>
  <path d="M 434.73112 2655.72605 L 519.77046 2655.72605 L 522.38816 2667.06475 L 616.36533 2667.06475 L 618.98313 2655.72605 L 811.73906 2655.72605 L 814.35676 2667.06475 L 908.33393 2667.06475 L 910.95153 2655.72605 L 995.99087 2655.72605" fill="none" stroke="#000000" stroke-width="0.72" stroke-linecap="round" stroke-linejoin="round"/>
  <path d="M 525.43976 1856.35586 L 613.31373 1856.35586" fill="none" stroke="#000000" stroke-width="0.72" stroke-linecap="round" stroke-linejoin="round"/>
  <path d="M 613.31373 1845.01756 L 525.43976 1845.01756" fill="none" stroke="#000000" stroke-width="0.72" stroke-linecap="round" stroke-linejoin="round"/>
  <path d="M 817.40826 1856.35586 L 905.28243 1856.35586" fill="none" stroke="#000000" stroke-width="0.72" stroke-linecap="round" stroke-linejoin="round"/>
  <path d="M 905.28243 1845.01756 L 817.40826 1845.01756" fill="none" stroke="#000000" stroke-width="0.72" stroke-linecap="round" stroke-linejoin="round"/>
  <path d="M 429.91222 1856.35586 L 524.58937 1856.35586" fill="none" stroke="#000000" stroke-width="0.72" stroke-linecap="round" stroke-linejoin="round"/>
  <path d="M 614.16413 1856.35586 L 816.55786 1856.35586" fill="none" stroke="#000000" stroke-width="0.72" stroke-linecap="round" stroke-linejoin="round"/>
  <path d="M 906.13282 1856.35586 L 1000.80987 1856.35586" fill="none" stroke="#000000" stroke-width="0.72" stroke-linecap="round" stroke-linejoin="round"/>
  <path d="M 1363.07751 2074.62373 L 1001.66027 2074.62373" fill="none" stroke="#000000" stroke-width="0.72" stroke-linecap="round" stroke-linejoin="round"/>
  <path d="M 1394.82552 1847.85196 L 999.67616 1847.85196" fill="none" stroke="#000000" stroke-width="0.72" stroke-linecap="round" stroke-linejoin="round"/>
  <path d="M 2784.65254 1714.62372 L 2784.65254 1859.19076" fill="none" stroke="#000000" stroke-width="0.72" stroke-linecap="round" stroke-linejoin="round"/>
  <path d="M 2393.47140 1854.93866 L 2379.29800 1860.60786" fill="none" stroke="#000000" stroke-width="0.72" stroke-linecap="round" stroke-linejoin="round"/>
  <path d="M 1979.04605 1860.60786 L 2379.29800 1860.60786" fill="none" stroke="#000000" stroke-width="0.72" stroke-linecap="round" stroke-linejoin="round"/>
  <path d="M 1400.77850 1860.60786 L 1978.19566 1860.60786" fill="none" stroke="#000000" stroke-width="0.72" stroke-linecap="round" stroke-linejoin="round"/>
  <path d="M 1979.04605 2256.60791 L 1979.04605 1861.45826" fill="none" stroke="#000000" stroke-width="0.72" stroke-linecap="round" stroke-linejoin="round"/>
  <path d="M 2379.29800 1859.75747 L 2379.29800 1456.87138" fill="none" stroke="#000000" stroke-width="0.72" stroke-linecap="round" stroke-linejoin="round"/>
  <path d="M 2393.47140 1854.08827 L 2393.47140 1456.86612" fill="none" stroke="#000000" stroke-width="0.72" stroke-linecap="round" stroke-linejoin="round"/>
  <path d="M 1988.96725 2250.37171 L 1979.04605 2257.45831" fill="none" stroke="#000000" stroke-width="0.72" stroke-linecap="round" stroke-linejoin="round"/>
  <path d="M 1988.96725 2250.37171 L 2370.70817 2250.37171" fill="none" stroke="#000000" stroke-width="0.72" stroke-linecap="round" stroke-linejoin="round"/>
  <path d="M 1979.04605 2257.45831 L 1837.31365 2257.45831" fill="none" stroke="#000000" stroke-width="0.72" stroke-linecap="round" stroke-linejoin="round"/>
  <path d="M 2799.67594 1558.71806 L 2799.67594 1714.62372" fill="none" stroke="#000000" stroke-width="0.72" stroke-linecap="round" stroke-linejoin="round"/>
  <path d="M 2784.65254 1558.71806 L 2799.67594 1558.71806" fill="none" stroke="#000000" stroke-width="0.72" stroke-linecap="round" stroke-linejoin="round"/>
  <path d="M 2784.65254 1714.62372 L 2799.67594 1714.62372" fill="none" stroke="#000000" stroke-width="0.72" stroke-linecap="round" stroke-linejoin="round"/>
  <path d="M 1391.42401 1852.10406 L 1391.42401 2046.27723" fill="none" stroke="#000000" stroke-width="0.72" stroke-linecap="round" stroke-linejoin="round"/>
  <path d="M 1399.92811 1852.10406 L 1399.92811 1958.58590" fill="none" stroke="#000000" stroke-width="0.72" stroke-linecap="round" stroke-linejoin="round"/>
  <path d="M 1412.85806 1982.37356 L 1837.31365 2257.45831" fill="none" stroke="#000000" stroke-width="0.72" stroke-linecap="round" stroke-linejoin="round"/>
  <path d="M 1412.85806 1982.37356 C 1404.78940 1977.14436 1399.92811 1968.20088 1399.92811 1958.58590" fill="none" stroke="#000000" stroke-width="0.72" stroke-linecap="round" stroke-linejoin="round"/>
  <path d="M 2784.65254 1859.19076 L 2393.47140 1854.93866" fill="none" stroke="#000000" stroke-width="0.72" stroke-linecap="round" stroke-linejoin="round"/>
  <path d="M 40.71538 2054.78113 C 40.71937 2065.73267 49.60635 2074.61969 60.55788 2074.62373" fill="none" stroke="#000000" stroke-width="0.72" stroke-linecap="round" stroke-linejoin="round"/>
  <path d="M 525.43976 1845.01756 C 522.31081 1845.01817 519.77170 1847.55776 519.77170 1850.68671 C 519.77170 1853.81567 522.31081 1856.35526 525.43976 1856.35586" fill="none" stroke="#000000" stroke-width="0.72" stroke-linecap="round" stroke-linejoin="round"/>
  <path d="M 613.31373 1856.35586 C 616.44271 1856.35530 618.98187 1853.81570 618.98187 1850.68671 C 618.98187 1847.55773 616.44271 1845.01812 613.31373 1845.01756" fill="none" stroke="#000000" stroke-width="0.72" stroke-linecap="round" stroke-linejoin="round"/>
  <path d="M 817.40826 1845.01756 C 814.27932 1845.01819 811.74025 1847.55778 811.74025 1850.68671 C 811.74025 1853.81565 814.27932 1856.35524 817.40826 1856.35586" fill="none" stroke="#000000" stroke-width="0.72" stroke-linecap="round" stroke-linejoin="round"/>
  <path d="M 905.28243 1856.35586 C 908.41131 1856.35516 910.95030 1853.81560 910.95030 1850.68671 C 910.95030 1847.55783 908.41131 1845.01827 905.28243 1845.01756" fill="none" stroke="#000000" stroke-width="0.72" stroke-linecap="round" stroke-linejoin="round"/>
  <path d="M 1363.07751 2074.62373 C 1378.72257 2074.61802 1391.41829 2061.92229 1391.42401 2046.27723" fill="none" stroke="#000000" stroke-width="0.72" stroke-linecap="round" stroke-linejoin="round"/>
  <path d="M 1399.92811 1852.10406 C 1399.92761 1849.75728 1398.02284 1847.85292 1395.67606 1847.85292 C 1393.32928 1847.85292 1391.42451 1849.75728 1391.42401 1852.10406" fill="none" stroke="#000000" stroke-width="0.72" stroke-linecap="round" stroke-linejoin="round"/>
  <path d="M 2370.70817 2250.37171 C 2377.09320 2226.96372 2398.40491 2210.68661 2422.66811 2210.68661 L 2513.37690 2210.68661 C 2529.02414 2210.68661 2541.72335 2197.98740 2541.72335 2182.34015 L 2541.72335 2008.00934" fill="none" stroke="#000000" stroke-width="0.72" stroke-linecap="round" stroke-linejoin="round"/>
  <path d="M 2524.71525 1991.00154 L 2485.02995 1991.00154" fill="none" stroke="#000000" stroke-width="0.72" stroke-linecap="round" stroke-linejoin="round"/>
  <path d="M 2468.02265 2008.00934 L 2468.02265 2056.19834" fill="none" stroke="#000000" stroke-width="0.72" stroke-linecap="round" stroke-linejoin="round"/>
  <path d="M 2455.26675 2056.19834 L 2455.26675 1922.97007" fill="none" stroke="#000000" stroke-width="0.72" stroke-linecap="round" stroke-linejoin="round"/>
  <path d="M 2524.71525 1991.00154 C 2534.10232 1991.00487 2541.71986 1998.62227 2541.72335 2008.00934" fill="none" stroke="#000000" stroke-width="0.72" stroke-linecap="round" stroke-linejoin="round"/>
  <path d="M 2468.02265 2008.00934 C 2468.02599 1998.62251 2475.64313 1991.00514 2485.02995 1991.00154" fill="none" stroke="#000000" stroke-width="0.72" stroke-linecap="round" stroke-linejoin="round"/>
  <path d="M 2468.02265 2056.19834 C 2468.02185 2059.71841 2465.16477 2062.57483 2461.64470 2062.57483 C 2458.12463 2062.57483 2455.26756 2059.71841 2455.26675 2056.19834" fill="none" stroke="#000000" stroke-width="0.72" stroke-linecap="round" stroke-linejoin="round"/>
  <path d="M 2350.95154 1860.60786 L 2350.95154 1894.62361 L 2455.26675 1922.97007" fill="none" stroke="#000000" stroke-width="0.72" stroke-linecap="round" stroke-linejoin="round"/>
  <path d="M 2350.95154 973.36370 L 2350.95154 939.34795 L 2517.54310 914.59441 C 2531.43745 912.52987 2541.72335 900.60267 2541.72335 886.55578" fill="none" stroke="#000000" stroke-width="0.72" stroke-linecap="round" stroke-linejoin="round"/>
  <path d="M 1982.44765 1859.75747 L 1982.44765 974.21409" fill="none" stroke="#000000" stroke-width="0.72" stroke-linecap="round" stroke-linejoin="round"/>
  <path d="M 1398.51071 1848.08227 L 1398.51071 985.88930" fill="none" stroke="#000000" stroke-width="0.72" stroke-linecap="round" stroke-linejoin="round"/>
  <path d="M 35.04608 1847.85196 L 35.04608 986.11960" fill="none" stroke="#000000" stroke-width="0.72" stroke-linecap="round" stroke-linejoin="round"/>
  <path d="M 431.89652 986.96999 L 431.89652 1847.00157" fill="none" stroke="#000000" stroke-width="0.72" stroke-linecap="round" stroke-linejoin="round"/>
  <path d="M 998.82577 986.96999 L 998.82577 1847.00157" fill="none" stroke="#000000" stroke-width="0.72" stroke-linecap="round" stroke-linejoin="round"/>
  <path d="M 2784.65254 1558.71806 L 2784.65254 1275.25350" fill="none" stroke="#000000" stroke-width="0.72" stroke-linecap="round" stroke-linejoin="round"/>
  <path d="M 35.04608 124.38713 L 2799.67594 124.38713" fill="none" stroke="#000000" stroke-width="0.72" stroke-linecap="round" stroke-linejoin="round"/>
  <path d="M 108.58619 3068.76723 L 108.58619 3063.66487 L 108.01926 3059.12944 L 106.31847 3054.02707 L 102.91690 3049.49164 L 97.81454 3046.65699 L 94.97989 3046.09007" fill="none" stroke="#000000" stroke-width="0.72" stroke-linecap="round" stroke-linejoin="round"/>
  <path d="M 108.58619 3063.66487 L 109.15312 3059.12944 L 110.85391 3054.59400 L 114.82241 3049.49164 L 119.35784 3046.65699 L 122.19249 3046.09007" fill="none" stroke="#000000" stroke-width="0.72" stroke-linecap="round" stroke-linejoin="round"/>
  <path d="M 138.63343 3043.25542 L 138.63343 3069.90109" fill="none" stroke="#000000" stroke-width="0.72" stroke-linecap="round" stroke-linejoin="round"/>
  <path d="M 96.68068 3035.88534 L 96.68068 3025.11369 L 97.24761 3023.97983 L 98.38146 3023.41290 L 139.20036 3023.41290" fill="none" stroke="#000000" stroke-width="0.72" stroke-linecap="round" stroke-linejoin="round"/>
  <path d="M 163.57832 3068.76723 L 173.21611 3068.76723" fill="none" stroke="#000000" stroke-width="0.72" stroke-linecap="round" stroke-linejoin="round"/>
  <path d="M 181.15312 3063.09794 L 155.64131 3063.09794" fill="none" stroke="#000000" stroke-width="0.72" stroke-linecap="round" stroke-linejoin="round"/>
  <path d="M 166.97989 3057.99558 L 163.01139 3057.42865 L 160.74367 3056.86172 L 158.47595 3055.72786 L 156.77517 3054.02707 L 156.20824 3052.32629 L 156.20824 3051.19243 L 156.77517 3049.49164 L 158.47595 3047.79085 L 160.74367 3046.65699 L 163.01139 3046.09007 L 166.97989 3045.52314 L 169.81454 3045.52314 L 173.78304 3046.09007 L 176.05076 3046.65699 L 178.31847 3047.79085 L 180.01926 3049.49164 L 180.58619 3051.19243 L 180.58619 3052.32629 L 180.01926 3054.02707 L 178.31847 3055.72786 L 176.05076 3056.86172 L 173.78304 3057.42865 L 169.81454 3057.99558 L 166.97989 3057.99558" fill="none" stroke="#000000" stroke-width="0.72" stroke-linecap="round" stroke-linejoin="round"/>
  <path d="M 198.16099 3069.90109 L 198.16099 3043.25542" fill="none" stroke="#000000" stroke-width="0.72" stroke-linecap="round" stroke-linejoin="round"/>
  <path d="M 198.16099 3057.42865 L 204.96414 3057.42865" fill="none" stroke="#000000" stroke-width="0.72" stroke-linecap="round" stroke-linejoin="round"/>
  <path d="M 156.20824 3035.88534 L 156.20824 3025.11369 L 156.77517 3023.97983 L 157.90902 3023.41290 L 198.72792 3023.41290" fill="none" stroke="#000000" stroke-width="0.72" stroke-linecap="round" stroke-linejoin="round"/>
  <path d="M 215.16887 3042.85047 L 254.04401 3042.85047" fill="none" stroke="#000000" stroke-width="0.72" stroke-linecap="round" stroke-linejoin="round"/>
  <path d="M 297.23861 3068.76723 L 275.64131 3068.76723 L 273.48158 3049.32966 L 275.64131 3051.48939 L 282.12050 3053.64912 L 288.59969 3053.64912 L 295.07888 3051.48939 L 299.39834 3047.16993 L 301.55807 3040.69074 L 301.55807 3036.37128 L 299.39834 3029.89209 L 295.07888 3025.57263 L 288.59969 3023.41290 L 282.12050 3023.41290 L 275.64131 3025.57263 L 273.48158 3027.73236 L 271.32185 3032.05182" fill="none" stroke="#000000" stroke-width="0.72" stroke-linecap="round" stroke-linejoin="round"/>
  <path d="M 327.47483 3068.76723 L 320.99564 3066.60750 L 316.67618 3060.12831 L 314.51645 3049.32966 L 314.51645 3042.85047 L 316.67618 3032.05182 L 320.99564 3025.57263 L 327.47483 3023.41290 L 331.79429 3023.41290 L 338.27348 3025.57263 L 342.59294 3032.05182 L 344.75267 3042.85047 L 344.75267 3049.32966 L 342.59294 3060.12831 L 338.27348 3066.60750 L 331.79429 3068.76723 L 327.47483 3068.76723" fill="none" stroke="#000000" stroke-width="0.72" stroke-linecap="round" stroke-linejoin="round"/>
  <path d="M 368.50970 3068.76723 L 362.03051 3066.60750 L 359.87078 3062.28804 L 359.87078 3057.96858 L 362.03051 3053.64912 L 366.34997 3051.48939 L 374.98889 3049.32966 L 381.46808 3047.16993 L 385.78754 3042.85047 L 387.94727 3038.53101 L 387.94727 3032.05182 L 385.78754 3027.73236 L 383.62781 3025.57263 L 377.14862 3023.41290 L 368.50970 3023.41290 L 362.03051 3025.57263 L 359.87078 3027.73236 L 357.71105 3032.05182 L 357.71105 3038.53101 L 359.87078 3042.85047 L 364.19024 3047.16993 L 370.66943 3049.32966 L 379.30835 3051.48939 L 383.62781 3053.64912 L 385.78754 3057.96858 L 385.78754 3062.28804 L 383.62781 3066.60750 L 377.14862 3068.76723 L 368.50970 3068.76723" fill="none" stroke="#000000" stroke-width="0.72" stroke-linecap="round" stroke-linejoin="round"/>
  <path d="M 400.90565 3042.85047 L 439.78079 3042.85047" fill="none" stroke="#000000" stroke-width="0.72" stroke-linecap="round" stroke-linejoin="round"/>
  <path d="M 459.21836 3057.96858 L 459.21836 3060.12831 L 461.37809 3064.44777 L 463.53782 3066.60750 L 467.85728 3068.76723 L 476.49620 3068.76723 L 480.81566 3066.60750 L 482.97539 3064.44777 L 485.13512 3060.12831 L 485.13512 3055.80885 L 482.97539 3051.48939 L 478.65593 3045.01020 L 457.05863 3023.41290 L 487.29485 3023.41290" fill="none" stroke="#000000" stroke-width="0.72" stroke-linecap="round" stroke-linejoin="round"/>
  <path d="M 526.17000 3062.28804 L 524.01027 3066.60750 L 517.53108 3068.76723 L 513.21162 3068.76723 L 506.73242 3066.60750 L 502.41296 3060.12831 L 500.25323 3049.32966 L 500.25323 3038.53101 L 502.41296 3029.89209 L 506.73242 3025.57263 L 513.21162 3023.41290 L 515.37135 3023.41290 L 521.85054 3025.57263 L 526.17000 3029.89209 L 528.32973 3036.37128 L 528.32973 3038.53101 L 526.17000 3045.01020 L 521.85054 3049.32966 L 515.37135 3051.48939 L 513.21162 3051.48939 L 506.73242 3049.32966 L 502.41296 3045.01020 L 500.25323 3038.53101" fill="none" stroke="#000000" stroke-width="0.72" stroke-linecap="round" stroke-linejoin="round"/>
  <path d="M 556.40622 3068.76723 L 549.92703 3066.60750 L 545.60757 3060.12831 L 543.44784 3049.32966 L 543.44784 3042.85047 L 545.60757 3032.05182 L 549.92703 3025.57263 L 556.40622 3023.41290 L 560.72568 3023.41290 L 567.20487 3025.57263 L 571.52433 3032.05182 L 573.68406 3042.85047 L 573.68406 3049.32966 L 571.52433 3060.12831 L 567.20487 3066.60750 L 560.72568 3068.76723 L 556.40622 3068.76723" fill="none" stroke="#000000" stroke-width="0.72" stroke-linecap="round" stroke-linejoin="round"/>
  <path d="M 588.80217 3057.96858 L 588.80217 3060.12831 L 590.96190 3064.44777 L 593.12163 3066.60750 L 597.44109 3068.76723 L 606.08001 3068.76723 L 610.39947 3066.60750 L 612.55920 3064.44777 L 614.71893 3060.12831 L 614.71893 3055.80885 L 612.55920 3051.48939 L 608.23974 3045.01020 L 586.64244 3023.41290 L 616.87866 3023.41290" fill="none" stroke="#000000" stroke-width="0.72" stroke-linecap="round" stroke-linejoin="round"/>
  <path d="M 631.99677 3057.96858 L 631.99677 3060.12831 L 634.15650 3064.44777 L 636.31623 3066.60750 L 640.63569 3068.76723 L 649.27461 3068.76723 L 653.59407 3066.60750 L 655.75380 3064.44777 L 657.91353 3060.12831 L 657.91353 3055.80885 L 655.75380 3051.48939 L 651.43434 3045.01020 L 629.83704 3023.41290 L 660.07326 3023.41290" fill="none" stroke="#000000" stroke-width="0.72" stroke-linecap="round" stroke-linejoin="round"/>
  <path d="M 694.62894 3068.76723 L 673.03164 3038.53101 L 705.42759 3038.53101" fill="none" stroke="#000000" stroke-width="0.72" stroke-linecap="round" stroke-linejoin="round"/>
  <path d="M 694.62894 3068.76723 L 694.62894 3023.41290" fill="none" stroke="#000000" stroke-width="0.72" stroke-linecap="round" stroke-linejoin="round"/>
  <path d="M 96.11375 3000.73573 L 96.11375 2957.08219 L 96.68068 2955.94833 L 97.81454 2955.38140 L 118.79091 2955.38140 L 118.79091 3000.73573" fill="none" stroke="#000000" stroke-width="0.72" stroke-linecap="round" stroke-linejoin="round"/>
  <path d="M 118.79091 2978.62550 L 96.11375 2978.62550" fill="none" stroke="#000000" stroke-width="0.72" stroke-linecap="round" stroke-linejoin="round"/>
  <path d="M 138.63343 3001.86959 L 138.63343 2954.24755" fill="none" stroke="#000000" stroke-width="0.72" stroke-linecap="round" stroke-linejoin="round"/>
  <path d="M 138.63343 2978.05857 L 145.43658 2978.05857" fill="none" stroke="#000000" stroke-width="0.72" stroke-linecap="round" stroke-linejoin="round"/>
  <path d="M 164.71217 2955.38140 L 162.44446 2955.94833 L 160.17674 2957.64912 L 158.47595 2960.48377 L 157.34209 2963.88534 L 156.20824 2970.12156 L 155.64131 2976.35778 L 155.64131 2979.75936 L 156.20824 2986.56251 L 157.34209 2992.23180 L 158.47595 2995.06644 L 160.17674 2997.90109 L 163.01139 3000.16881 L 164.71217 3000.73573 L 168.11375 3000.73573 L 169.81454 3000.16881 L 172.64918 2997.90109 L 174.34997 2995.06644 L 175.48383 2992.23180 L 176.61769 2986.56251 L 177.18461 2979.75936 L 177.18461 2976.35778 L 176.61769 2969.55463 L 175.48383 2963.88534 L 174.34997 2961.05069 L 172.64918 2958.21605 L 169.81454 2955.94833 L 168.11375 2955.38140 L 164.71217 2955.38140" fill="none" stroke="#000000" stroke-width="0.72" stroke-linecap="round" stroke-linejoin="round"/>
  <path d="M 198.16099 2954.24755 L 198.16099 3001.86959" fill="none" stroke="#000000" stroke-width="0.72" stroke-linecap="round" stroke-linejoin="round"/>
  <path d="M 215.16887 3000.73573 L 240.11375 3000.73573 L 240.11375 2998.46802 L 239.54682 2995.06644 L 237.84603 2990.53101 L 235.01139 2986.56251 L 230.47595 2982.59400 L 225.37359 2980.32629 L 219.13737 2978.62550 L 214.03501 2978.05857" fill="none" stroke="#000000" stroke-width="0.72" stroke-linecap="round" stroke-linejoin="round"/>
  <path d="M 237.84603 2990.53101 L 215.16887 2990.53101" fill="none" stroke="#000000" stroke-width="0.72" stroke-linecap="round" stroke-linejoin="round"/>
  <path d="M 257.68855 2975.22392 L 257.68855 3001.86959" fill="none" stroke="#000000" stroke-width="0.72" stroke-linecap="round" stroke-linejoin="round"/>
  <path d="M 232.17674 2970.12156 L 224.23973 2969.55463 L 221.40509 2968.98770 L 218.57044 2967.85384 L 216.86965 2966.71999 L 215.73580 2965.01920 L 215.16887 2963.31841 L 215.16887 2962.18455 L 215.73580 2960.48377 L 216.86965 2958.78298 L 218.57044 2957.64912 L 221.40509 2956.51526 L 224.23973 2955.94833 L 232.17674 2955.38140 L 240.68068 2955.38140 L 248.61769 2955.94833 L 251.45233 2956.51526 L 254.28698 2957.64912 L 255.98777 2958.78298 L 257.12162 2960.48377 L 257.68855 2962.18455 L 257.68855 2963.31841 L 257.12162 2965.01920 L 255.98777 2966.71999 L 254.28698 2967.85384 L 251.45233 2968.98770 L 248.61769 2969.55463 L 240.68068 2970.12156 L 232.17674 2970.12156" fill="none" stroke="#000000" stroke-width="0.72" stroke-linecap="round" stroke-linejoin="round"/>
  <path d="M 338.40846 3000.73573 L 315.73130 3000.73573 L 315.73130 2957.08219 L 316.29823 2955.94833 L 317.43209 2955.38140 L 331.60531 2955.94833 L 345.77854 2957.64912" fill="none" stroke="#000000" stroke-width="0.72" stroke-linecap="round" stroke-linejoin="round"/>
  <path d="M 361.08563 3001.86959 L 361.08563 2954.24755" fill="none" stroke="#000000" stroke-width="0.72" stroke-linecap="round" stroke-linejoin="round"/>
  <path d="M 349.74705 2954.24755 L 349.74705 3001.86959" fill="none" stroke="#000000" stroke-width="0.72" stroke-linecap="round" stroke-linejoin="round"/>
  <path d="M 349.74705 2978.05857 L 361.08563 2978.05857" fill="none" stroke="#000000" stroke-width="0.72" stroke-linecap="round" stroke-linejoin="round"/>
  <path d="M 375.25886 3000.73573 L 397.93602 3000.73573 L 396.23524 2984.86172 L 393.96752 2975.22392 L 390.56594 2967.28692 L 386.03051 2961.61762 L 382.06201 2958.21605 L 378.66043 2956.51526 L 375.25886 2955.38140" fill="none" stroke="#000000" stroke-width="0.72" stroke-linecap="round" stroke-linejoin="round"/>
  <path d="M 400.77067 2978.05857 L 409.27461 2978.05857" fill="none" stroke="#000000" stroke-width="0.72" stroke-linecap="round" stroke-linejoin="round"/>
  <path d="M 409.27461 3001.86959 L 409.27461 2954.24755" fill="none" stroke="#000000" stroke-width="0.72" stroke-linecap="round" stroke-linejoin="round"/>
  <path d="M 420.61319 2954.24755 L 420.61319 3001.86959" fill="none" stroke="#000000" stroke-width="0.72" stroke-linecap="round" stroke-linejoin="round"/>
  <path d="M 434.78642 3000.73573 L 434.78642 2979.75936 L 435.35335 2978.62550 L 436.48720 2978.05857 L 459.16437 2978.05857 L 459.16437 3000.73573" fill="none" stroke="#000000" stroke-width="0.72" stroke-linecap="round" stroke-linejoin="round"/>
  <path d="M 459.16437 2989.96408 L 434.78642 2989.96408" fill="none" stroke="#000000" stroke-width="0.72" stroke-linecap="round" stroke-linejoin="round"/>
  <path d="M 477.30610 3001.86959 L 477.30610 2975.22392" fill="none" stroke="#000000" stroke-width="0.72" stroke-linecap="round" stroke-linejoin="round"/>
  <path d="M 477.30610 2989.39715 L 484.10925 2989.39715" fill="none" stroke="#000000" stroke-width="0.72" stroke-linecap="round" stroke-linejoin="round"/>
  <path d="M 434.78642 2968.98770 L 477.30610 2968.98770 L 477.30610 2955.38140" fill="none" stroke="#000000" stroke-width="0.72" stroke-linecap="round" stroke-linejoin="round"/>
  <path d="M 516.99114 3000.73573 L 514.72343 2992.23180 L 511.32185 2985.42865 L 506.21949 2979.75936 L 499.98327 2975.79085 L 493.74705 2973.52314" fill="none" stroke="#000000" stroke-width="0.72" stroke-linecap="round" stroke-linejoin="round"/>
  <path d="M 516.99114 3000.73573 L 519.25886 2992.23180 L 522.66043 2985.42865 L 527.76280 2979.75936 L 533.99902 2975.79085 L 540.23524 2973.52314" fill="none" stroke="#000000" stroke-width="0.72" stroke-linecap="round" stroke-linejoin="round"/>
  <path d="M 493.18012 2955.38140 L 540.80217 2955.38140" fill="none" stroke="#000000" stroke-width="0.72" stroke-linecap="round" stroke-linejoin="round"/>
  <path d="M 100.43321 2932.70424 L 124.19024 2932.70424 L 111.23186 2915.42640 L 117.71105 2915.42640 L 122.03051 2913.26667 L 124.19024 2911.10694 L 126.34997 2904.62775 L 126.34997 2900.30829 L 124.19024 2893.82910 L 119.87078 2889.50964 L 113.39159 2887.34991 L 106.91240 2887.34991 L 100.43321 2889.50964 L 98.27348 2891.66937 L 96.11375 2895.98883" fill="none" stroke="#000000" stroke-width="0.72" stroke-linecap="round" stroke-linejoin="round"/>
  <path d="M 139.30835 2924.06532 L 143.62781 2926.22505 L 150.10700 2932.70424 L 150.10700 2887.34991" fill="none" stroke="#000000" stroke-width="0.72" stroke-linecap="round" stroke-linejoin="round"/>
  <path d="M 186.82241 2932.70424 L 180.34322 2930.54451 L 176.02376 2924.06532 L 173.86403 2913.26667 L 173.86403 2906.78748 L 176.02376 2895.98883 L 180.34322 2889.50964 L 186.82241 2887.34991 L 191.14187 2887.34991 L 197.62106 2889.50964 L 201.94052 2895.98883 L 204.10025 2906.78748 L 204.10025 2913.26667 L 201.94052 2924.06532 L 197.62106 2930.54451 L 191.14187 2932.70424 L 186.82241 2932.70424" fill="none" stroke="#000000" stroke-width="0.72" stroke-linecap="round" stroke-linejoin="round"/>
  <path d="M 217.05863 2906.78748 L 255.93377 2906.78748" fill="none" stroke="#000000" stroke-width="0.72" stroke-linecap="round" stroke-linejoin="round"/>
  <path d="M 275.37134 2921.90559 L 275.37134 2924.06532 L 277.53107 2928.38478 L 279.69080 2930.54451 L 284.01026 2932.70424 L 292.64918 2932.70424 L 296.96864 2930.54451 L 299.12837 2928.38478 L 301.28810 2924.06532 L 301.28810 2919.74586 L 299.12837 2915.42640 L 294.80891 2908.94721 L 273.21161 2887.34991 L 303.44783 2887.34991" fill="none" stroke="#000000" stroke-width="0.72" stroke-linecap="round" stroke-linejoin="round"/>
  <path d="M 329.36459 2932.70424 L 322.88540 2930.54451 L 318.56594 2924.06532 L 316.40621 2913.26667 L 316.40621 2906.78748 L 318.56594 2895.98883 L 322.88540 2889.50964 L 329.36459 2887.34991 L 333.68405 2887.34991 L 340.16324 2889.50964 L 344.48270 2895.98883 L 346.64243 2906.78748 L 346.64243 2913.26667 L 344.48270 2924.06532 L 340.16324 2930.54451 L 333.68405 2932.70424 L 329.36459 2932.70424" fill="none" stroke="#000000" stroke-width="0.72" stroke-linecap="round" stroke-linejoin="round"/>
  <path d="M 372.55920 2932.70424 L 366.08000 2930.54451 L 361.76054 2924.06532 L 359.60081 2913.26667 L 359.60081 2906.78748 L 361.76054 2895.98883 L 366.08000 2889.50964 L 372.55920 2887.34991 L 376.87866 2887.34991 L 383.35785 2889.50964 L 387.67731 2895.98883 L 389.83704 2906.78748 L 389.83704 2913.26667 L 387.67731 2924.06532 L 383.35785 2930.54451 L 376.87866 2932.70424 L 372.55920 2932.70424" fill="none" stroke="#000000" stroke-width="0.72" stroke-linecap="round" stroke-linejoin="round"/>
  <path d="M 402.79542 2906.78748 L 441.67056 2906.78748" fill="none" stroke="#000000" stroke-width="0.72" stroke-linecap="round" stroke-linejoin="round"/>
  <path d="M 458.94840 2924.06532 L 463.26786 2926.22505 L 469.74705 2932.70424 L 469.74705 2887.34991" fill="none" stroke="#000000" stroke-width="0.72" stroke-linecap="round" stroke-linejoin="round"/>
  <path d="M 515.10138 2932.70424 L 493.50408 2902.46802 L 525.90003 2902.46802" fill="none" stroke="#000000" stroke-width="0.72" stroke-linecap="round" stroke-linejoin="round"/>
  <path d="M 515.10138 2932.70424 L 515.10138 2887.34991" fill="none" stroke="#000000" stroke-width="0.72" stroke-linecap="round" stroke-linejoin="round"/>
  <path d="M 549.65706 2932.70424 L 543.17787 2930.54451 L 538.85841 2924.06532 L 536.69868 2913.26667 L 536.69868 2906.78748 L 538.85841 2895.98883 L 543.17787 2889.50964 L 549.65706 2887.34991 L 553.97652 2887.34991 L 560.45571 2889.50964 L 564.77517 2895.98883 L 566.93490 2906.78748 L 566.93490 2913.26667 L 564.77517 2924.06532 L 560.45571 2930.54451 L 553.97652 2932.70424 L 549.65706 2932.70424" fill="none" stroke="#000000" stroke-width="0.72" stroke-linecap="round" stroke-linejoin="round"/>
  <path d="M 96.11375 2864.67274 L 121.05863 2864.67274 L 121.05863 2862.40502 L 120.49170 2859.00345 L 118.79091 2854.46802 L 115.95627 2850.49951 L 111.42083 2846.53101 L 106.31847 2844.26329 L 100.08225 2842.56250 L 94.97989 2841.99558" fill="none" stroke="#000000" stroke-width="0.72" stroke-linecap="round" stroke-linejoin="round"/>
  <path d="M 118.79091 2854.46802 L 96.11375 2854.46802" fill="none" stroke="#000000" stroke-width="0.72" stroke-linecap="round" stroke-linejoin="round"/>
  <path d="M 138.63343 2865.80660 L 138.63343 2839.16093" fill="none" stroke="#000000" stroke-width="0.72" stroke-linecap="round" stroke-linejoin="round"/>
  <path d="M 138.63343 2853.33416 L 145.43658 2853.33416" fill="none" stroke="#000000" stroke-width="0.72" stroke-linecap="round" stroke-linejoin="round"/>
  <path d="M 96.11375 2834.05857 L 138.63343 2834.05857 L 138.63343 2826.68849 L 96.11375 2826.68849 L 96.11375 2821.01920 L 96.68068 2819.88534 L 97.81454 2819.31841 L 138.63343 2819.31841" fill="none" stroke="#000000" stroke-width="0.72" stroke-linecap="round" stroke-linejoin="round"/>
  <path d="M 224.75267 2849.55463 L 222.59294 2843.07544 L 218.27348 2838.75598 L 211.79429 2836.59625 L 209.63456 2836.59625 L 203.15537 2838.75598 L 198.83591 2843.07544 L 196.67618 2849.55463 L 196.67618 2851.71436 L 198.83591 2858.19355 L 203.15537 2862.51301 L 209.63456 2864.67274 L 211.79429 2864.67274 L 218.27348 2862.51301 L 222.59294 2858.19355 L 224.75267 2849.55463 L 224.75267 2838.75598 L 222.59294 2827.95733 L 218.27348 2821.47814 L 211.79429 2819.31841 L 207.47483 2819.31841 L 200.99564 2821.47814 L 198.83591 2825.79760" fill="none" stroke="#000000" stroke-width="0.72" stroke-linecap="round" stroke-linejoin="round"/>
  <path d="M 239.87078 2864.67274 L 270.10700 2864.67274 L 248.50970 2819.31841" fill="none" stroke="#000000" stroke-width="0.72" stroke-linecap="round" stroke-linejoin="round"/>
  <path d="M 308.98214 2864.67274 L 287.38484 2864.67274 L 285.22511 2845.23517 L 287.38484 2847.39490 L 293.86403 2849.55463 L 300.34322 2849.55463 L 306.82241 2847.39490 L 311.14187 2843.07544 L 313.30160 2836.59625 L 313.30160 2832.27679 L 311.14187 2825.79760 L 306.82241 2821.47814 L 300.34322 2819.31841 L 293.86403 2819.31841 L 287.38484 2821.47814 L 285.22511 2823.63787 L 283.06538 2827.95733" fill="none" stroke="#000000" stroke-width="0.72" stroke-linecap="round" stroke-linejoin="round"/>
  <path d="M 328.41971 2823.63787 L 326.25998 2821.47814 L 328.41971 2819.31841 L 330.57944 2821.47814" fill="none" stroke="#000000" stroke-width="0.72" stroke-linecap="round" stroke-linejoin="round"/>
  <path d="M 352.17674 2864.67274 L 375.93377 2864.67274 L 362.97539 2847.39490 L 369.45458 2847.39490 L 373.77404 2845.23517 L 375.93377 2843.07544 L 378.09350 2836.59625 L 378.09350 2832.27679 L 375.93377 2825.79760 L 371.61431 2821.47814 L 365.13512 2819.31841 L 358.65593 2819.31841 L 352.17674 2821.47814 L 350.01701 2823.63787 L 347.85728 2827.95733" fill="none" stroke="#000000" stroke-width="0.72" stroke-linecap="round" stroke-linejoin="round"/>
  <path d="M 391.05188 2838.75598 L 429.92702 2838.75598" fill="none" stroke="#000000" stroke-width="0.72" stroke-linecap="round" stroke-linejoin="round"/>
  <path d="M 458.00352 2864.67274 L 451.52433 2862.51301 L 449.36460 2858.19355 L 449.36460 2853.87409 L 451.52433 2849.55463 L 455.84379 2847.39490 L 464.48271 2845.23517 L 470.96190 2843.07544 L 475.28136 2838.75598 L 477.44109 2834.43652 L 477.44109 2827.95733 L 475.28136 2823.63787 L 473.12163 2821.47814 L 466.64244 2819.31841 L 458.00352 2819.31841 L 451.52433 2821.47814 L 449.36460 2823.63787 L 447.20487 2827.95733 L 447.20487 2834.43652 L 449.36460 2838.75598 L 453.68406 2843.07544 L 460.16325 2845.23517 L 468.80217 2847.39490 L 473.12163 2849.55463 L 475.28136 2853.87409 L 475.28136 2858.19355 L 473.12163 2862.51301 L 466.64244 2864.67274 L 458.00352 2864.67274" fill="none" stroke="#000000" stroke-width="0.72" stroke-linecap="round" stroke-linejoin="round"/>
  <path d="M 501.19812 2864.67274 L 494.71893 2862.51301 L 492.55920 2858.19355 L 492.55920 2853.87409 L 494.71893 2849.55463 L 499.03839 2847.39490 L 507.67731 2845.23517 L 514.15650 2843.07544 L 518.47596 2838.75598 L 520.63569 2834.43652 L 520.63569 2827.95733 L 518.47596 2823.63787 L 516.31623 2821.47814 L 509.83704 2819.31841 L 501.19812 2819.31841 L 494.71893 2821.47814 L 492.55920 2823.63787 L 490.39947 2827.95733 L 490.39947 2834.43652 L 492.55920 2838.75598 L 496.87866 2843.07544 L 503.35785 2845.23517 L 511.99677 2847.39490 L 516.31623 2849.55463 L 518.47596 2853.87409 L 518.47596 2858.19355 L 516.31623 2862.51301 L 509.83704 2864.67274 L 501.19812 2864.67274" fill="none" stroke="#000000" stroke-width="0.72" stroke-linecap="round" stroke-linejoin="round"/>
  <path d="M 535.75380 2853.87409 L 535.75380 2856.03382 L 537.91353 2860.35328 L 540.07326 2862.51301 L 544.39272 2864.67274 L 553.03164 2864.67274 L 557.35110 2862.51301 L 559.51083 2860.35328 L 561.67056 2856.03382 L 561.67056 2851.71436 L 559.51083 2847.39490 L 555.19137 2840.91571 L 533.59407 2819.31841 L 563.83029 2819.31841" fill="none" stroke="#000000" stroke-width="0.72" stroke-linecap="round" stroke-linejoin="round"/>
  <path d="M 658.85841 2819.31841 L 658.85841 2864.67274 L 686.93490 2864.67274" fill="none" stroke="#000000" stroke-width="0.72" stroke-linecap="round" stroke-linejoin="round"/>
  <path d="M 658.85841 2843.07544 L 676.13625 2843.07544" fill="none" stroke="#000000" stroke-width="0.72" stroke-linecap="round" stroke-linejoin="round"/>
  <path d="M 658.85841 2819.31841 L 686.93490 2819.31841" fill="none" stroke="#000000" stroke-width="0.72" stroke-linecap="round" stroke-linejoin="round"/>
  <path d="M 700.46021 2864.67274 L 745.24761 2864.67274 L 744.68068 2853.33416 L 744.11375 2847.66487" fill="none" stroke="#000000" stroke-width="0.72" stroke-linecap="round" stroke-linejoin="round"/>
  <path d="M 698.75942 2841.42865 L 746.38147 2841.42865" fill="none" stroke="#000000" stroke-width="0.72" stroke-linecap="round" stroke-linejoin="round"/>
  <path d="M 722.57045 2841.42865 L 722.57045 2848.23180" fill="none" stroke="#000000" stroke-width="0.72" stroke-linecap="round" stroke-linejoin="round"/>
  <path d="M 699.89328 2834.05857 L 745.24761 2834.05857 L 745.24761 2826.68849 L 699.89328 2826.68849 L 699.89328 2821.01920 L 700.46021 2819.88534 L 701.59407 2819.31841 L 745.24761 2819.31841" fill="none" stroke="#000000" stroke-width="0.72" stroke-linecap="round" stroke-linejoin="round"/>
  <path d="M 808.39272 2864.67274 L 818.03052 2864.67274" fill="none" stroke="#000000" stroke-width="0.72" stroke-linecap="round" stroke-linejoin="round"/>
  <path d="M 825.96752 2859.00345 L 800.45571 2859.00345" fill="none" stroke="#000000" stroke-width="0.72" stroke-linecap="round" stroke-linejoin="round"/>
  <path d="M 811.79430 2853.90109 L 807.82579 2853.33416 L 805.55807 2852.76723 L 803.29036 2851.63337 L 801.58957 2849.93258 L 801.02264 2848.23180 L 801.02264 2847.09794 L 801.58957 2845.39715 L 803.29036 2843.69636 L 805.55807 2842.56250 L 807.82579 2841.99558 L 811.79430 2841.42865 L 814.62894 2841.42865 L 818.59745 2841.99558 L 820.86516 2842.56250 L 823.13288 2843.69636 L 824.83367 2845.39715 L 825.40059 2847.09794 L 825.40059 2848.23180 L 824.83367 2849.93258 L 823.13288 2851.63337 L 820.86516 2852.76723 L 818.59745 2853.33416 L 814.62894 2853.90109 L 811.79430 2853.90109" fill="none" stroke="#000000" stroke-width="0.72" stroke-linecap="round" stroke-linejoin="round"/>
  <path d="M 842.97540 2865.80660 L 842.97540 2839.16093" fill="none" stroke="#000000" stroke-width="0.72" stroke-linecap="round" stroke-linejoin="round"/>
  <path d="M 842.97540 2853.33416 L 849.77855 2853.33416" fill="none" stroke="#000000" stroke-width="0.72" stroke-linecap="round" stroke-linejoin="round"/>
  <path d="M 801.02264 2833.49164 L 801.02264 2821.01920 L 801.58957 2819.88534 L 802.72343 2819.31841 L 842.97540 2819.31841 L 842.97540 2833.49164" fill="none" stroke="#000000" stroke-width="0.72" stroke-linecap="round" stroke-linejoin="round"/>
  <path d="M 842.97540 2827.25542 L 801.02264 2827.25542" fill="none" stroke="#000000" stroke-width="0.72" stroke-linecap="round" stroke-linejoin="round"/>
  <path d="M 871.88878 2864.67274 L 871.88878 2859.00345 L 870.75493 2847.66487 L 869.05414 2839.16093 L 866.78642 2831.79085 L 863.38485 2824.98770 L 859.41634 2819.31841" fill="none" stroke="#000000" stroke-width="0.72" stroke-linecap="round" stroke-linejoin="round"/>
  <path d="M 871.88878 2859.00345 L 872.45571 2853.33416 L 873.02264 2847.66487 L 874.72343 2839.16093 L 876.99115 2832.35778 L 880.95965 2824.42077 L 884.36123 2819.31841" fill="none" stroke="#000000" stroke-width="0.72" stroke-linecap="round" stroke-linejoin="round"/>
  <path d="M 883.79430 2864.67274 L 859.98327 2864.67274" fill="none" stroke="#000000" stroke-width="0.72" stroke-linecap="round" stroke-linejoin="round"/>
  <path d="M 902.50296 2818.18455 L 902.50296 2865.80660" fill="none" stroke="#000000" stroke-width="0.72" stroke-linecap="round" stroke-linejoin="round"/>
  <path d="M 1417.36101 124.38713 L 1417.36101 138.56035" fill="none" stroke="#000000" stroke-width="0.72" stroke-linecap="round" stroke-linejoin="round"/>
  <path d="M 1229.54422 88.81114 L 1274.33162 88.81114 L 1274.33162 83.14185 L 1273.76469 71.80326 L 1273.19777 66.13397" fill="none" stroke="#000000" stroke-width="0.72" stroke-linecap="round" stroke-linejoin="round"/>
  <path d="M 1227.84343 57.63003 L 1275.46548 57.63003" fill="none" stroke="#000000" stroke-width="0.72" stroke-linecap="round" stroke-linejoin="round"/>
  <path d="M 1251.65446 57.63003 L 1251.65446 42.88988" fill="none" stroke="#000000" stroke-width="0.72" stroke-linecap="round" stroke-linejoin="round"/>
  <path d="M 1301.54422 88.81114 L 1297.00879 88.24421 L 1294.17414 87.11035 L 1291.90643 85.40956 L 1290.20564 83.14185 L 1289.63871 82.00799 L 1289.07178 79.17334 L 1289.07178 75.77177 L 1289.63871 72.93712 L 1290.20564 71.80326 L 1291.90643 69.53555 L 1294.17414 67.83476 L 1297.00879 66.70090 L 1301.54422 66.13397 L 1304.94580 66.13397 L 1309.48123 66.70090 L 1312.31588 67.83476 L 1314.58359 69.53555 L 1316.28438 71.80326 L 1316.85131 72.93712 L 1317.41824 75.77177 L 1317.41824 79.17334 L 1316.85131 82.00799 L 1316.28438 83.14185 L 1314.58359 85.40956 L 1312.31588 87.11035 L 1309.48123 88.24421 L 1304.94580 88.81114 L 1301.54422 88.81114" fill="none" stroke="#000000" stroke-width="0.72" stroke-linecap="round" stroke-linejoin="round"/>
  <path d="M 1303.24501 61.59854 L 1303.24501 48.55917" fill="none" stroke="#000000" stroke-width="0.72" stroke-linecap="round" stroke-linejoin="round"/>
  <path d="M 1287.37099 47.42531 L 1303.24501 48.55917 L 1316.28438 50.25995 L 1331.02454 53.09460" fill="none" stroke="#000000" stroke-width="0.72" stroke-linecap="round" stroke-linejoin="round"/>
  <path d="M 1331.02454 42.32295 L 1331.02454 89.94499" fill="none" stroke="#000000" stroke-width="0.72" stroke-linecap="round" stroke-linejoin="round"/>
  <path d="M 1331.02454 66.13397 L 1337.82769 66.13397" fill="none" stroke="#000000" stroke-width="0.72" stroke-linecap="round" stroke-linejoin="round"/>
  <path d="M 1357.10328 43.45681 L 1354.83556 44.02373 L 1352.56784 45.72452 L 1350.86706 48.55917 L 1349.73320 51.96074 L 1348.59934 58.19696 L 1348.03241 64.43318 L 1348.03241 67.83476 L 1348.59934 74.63791 L 1349.73320 80.30720 L 1350.86706 83.14185 L 1352.56784 85.97649 L 1355.40249 88.24421 L 1357.10328 88.81114 L 1360.50485 88.81114 L 1362.20564 88.24421 L 1365.04029 85.97649 L 1366.74107 83.14185 L 1367.87493 80.30720 L 1369.00879 74.63791 L 1369.57572 67.83476 L 1369.57572 64.43318 L 1369.00879 57.63003 L 1367.87493 51.96074 L 1366.74107 49.12610 L 1365.04029 46.29145 L 1362.20564 44.02373 L 1360.50485 43.45681 L 1357.10328 43.45681" fill="none" stroke="#000000" stroke-width="0.72" stroke-linecap="round" stroke-linejoin="round"/>
  <path d="M 1390.55210 42.32295 L 1390.55210 89.94499" fill="none" stroke="#000000" stroke-width="0.72" stroke-linecap="round" stroke-linejoin="round"/>
  <path d="M 1448.59484 80.17222 L 1452.91430 82.33195 L 1459.39349 88.81114 L 1459.39349 43.45681" fill="none" stroke="#000000" stroke-width="0.72" stroke-linecap="round" stroke-linejoin="round"/>
  <path d="M 1509.06728 88.81114 L 1487.46998 88.81114 L 1485.31025 69.37357 L 1487.46998 71.53330 L 1493.94917 73.69303 L 1500.42836 73.69303 L 1506.90755 71.53330 L 1511.22701 67.21384 L 1513.38674 60.73465 L 1513.38674 56.41519 L 1511.22701 49.93600 L 1506.90755 45.61654 L 1500.42836 43.45681 L 1493.94917 43.45681 L 1487.46998 45.61654 L 1485.31025 47.77627 L 1483.15052 52.09573" fill="none" stroke="#000000" stroke-width="0.72" stroke-linecap="round" stroke-linejoin="round"/>
  <path d="M 1526.34512 43.45681 L 1526.34512 73.69303" fill="none" stroke="#000000" stroke-width="0.72" stroke-linecap="round" stroke-linejoin="round"/>
  <path d="M 1526.34512 65.05411 L 1532.82431 71.53330 L 1537.14377 73.69303 L 1543.62296 73.69303 L 1547.94242 71.53330 L 1550.10215 65.05411 L 1550.10215 43.45681" fill="none" stroke="#000000" stroke-width="0.72" stroke-linecap="round" stroke-linejoin="round"/>
  <path d="M 1550.10215 65.05411 L 1556.58135 71.53330 L 1560.90081 73.69303 L 1567.38000 73.69303 L 1571.69946 71.53330 L 1573.85919 65.05411 L 1573.85919 43.45681" fill="none" stroke="#000000" stroke-width="0.72" stroke-linecap="round" stroke-linejoin="round"/>
  <path d="M 1591.13703 43.45681 L 1591.13703 73.69303" fill="none" stroke="#000000" stroke-width="0.72" stroke-linecap="round" stroke-linejoin="round"/>
  <path d="M 1591.13703 65.05411 L 1597.61622 71.53330 L 1601.93568 73.69303 L 1608.41487 73.69303 L 1612.73433 71.53330 L 1614.89406 65.05411 L 1614.89406 43.45681" fill="none" stroke="#000000" stroke-width="0.72" stroke-linecap="round" stroke-linejoin="round"/>
  <path d="M 1614.89406 65.05411 L 1621.37325 71.53330 L 1625.69271 73.69303 L 1632.17190 73.69303 L 1636.49136 71.53330 L 1638.65109 65.05411 L 1638.65109 43.45681" fill="none" stroke="#000000" stroke-width="0.72" stroke-linecap="round" stroke-linejoin="round"/>
  <path d="M 35.04608 2730.31661 L 2799.67594 2730.31661" fill="none" stroke="#000000" stroke-width="0.72" stroke-linecap="round" stroke-linejoin="round"/>
  <path d="M 35.04608 2730.31661 L 37.88073 2731.16700" fill="none" stroke="#000000" stroke-width="0.72" stroke-linecap="round" stroke-linejoin="round"/>
  <path d="M 37.88073 2729.46621 L 35.04608 2730.31661" fill="none" stroke="#000000" stroke-width="0.72" stroke-linecap="round" stroke-linejoin="round"/>
  <path d="M 2799.67594 2730.31661 L 2796.84129 2729.46621" fill="none" stroke="#000000" stroke-width="0.72" stroke-linecap="round" stroke-linejoin="round"/>
  <path d="M 2796.84129 2731.16700 L 2799.67594 2730.31661" fill="none" stroke="#000000" stroke-width="0.72" stroke-linecap="round" stroke-linejoin="round"/>
  <path d="M 35.04608 1862.02519 L 35.04608 2744.48983" fill="none" stroke="#000000" stroke-width="0.72" stroke-linecap="round" stroke-linejoin="round"/>
  <path d="M 2799.67594 1650.84412 L 2799.67594 2744.48983" fill="none" stroke="#000000" stroke-width="0.72" stroke-linecap="round" stroke-linejoin="round"/>
  <path d="M 1303.97518 2773.78117 L 1301.27552 2765.68218 L 1295.87619 2760.28286 L 1287.77721 2757.58320 L 1285.07754 2757.58320 L 1276.97856 2760.28286 L 1271.57923 2765.68218 L 1268.87957 2773.78117 L 1268.87957 2776.48084 L 1271.57923 2784.57982 L 1276.97856 2789.97915 L 1285.07754 2792.67881 L 1287.77721 2792.67881 L 1295.87619 2789.97915 L 1301.27552 2784.57982 L 1303.97518 2773.78117 L 1303.97518 2760.28286 L 1301.27552 2746.78455 L 1295.87619 2738.68556 L 1287.77721 2735.98590 L 1282.37788 2735.98590 L 1274.27889 2738.68556 L 1271.57923 2744.08488" fill="none" stroke="#000000" stroke-width="0.72" stroke-linecap="round" stroke-linejoin="round"/>
  <path d="M 1322.87282 2792.67881 L 1360.66810 2792.67881 L 1333.67147 2735.98590" fill="none" stroke="#000000" stroke-width="0.72" stroke-linecap="round" stroke-linejoin="round"/>
  <path d="M 1409.26202 2792.67881 L 1382.26540 2792.67881 L 1379.56573 2768.38185 L 1382.26540 2771.08151 L 1390.36438 2773.78117 L 1398.46337 2773.78117 L 1406.56236 2771.08151 L 1411.96168 2765.68218 L 1414.66135 2757.58320 L 1414.66135 2752.18387 L 1411.96168 2744.08488 L 1406.56236 2738.68556 L 1398.46337 2735.98590 L 1390.36438 2735.98590 L 1382.26540 2738.68556 L 1379.56573 2741.38522 L 1376.86607 2746.78455" fill="none" stroke="#000000" stroke-width="0.72" stroke-linecap="round" stroke-linejoin="round"/>
  <path d="M 1433.55899 2741.38522 L 1430.85932 2738.68556 L 1433.55899 2735.98590 L 1436.25865 2738.68556" fill="none" stroke="#000000" stroke-width="0.72" stroke-linecap="round" stroke-linejoin="round"/>
  <path d="M 1463.25527 2792.67881 L 1492.95156 2792.67881 L 1476.75359 2771.08151 L 1484.85257 2771.08151 L 1490.25190 2768.38185 L 1492.95156 2765.68218 L 1495.65122 2757.58320 L 1495.65122 2752.18387 L 1492.95156 2744.08488 L 1487.55224 2738.68556 L 1479.45325 2735.98590 L 1471.35426 2735.98590 L 1463.25527 2738.68556 L 1460.55561 2741.38522 L 1457.85595 2746.78455" fill="none" stroke="#000000" stroke-width="0.72" stroke-linecap="round" stroke-linejoin="round"/>
  <path d="M 1528.04718 2792.67881 L 1519.94819 2789.97915 L 1514.54886 2781.88016 L 1511.84920 2768.38185 L 1511.84920 2760.28286 L 1514.54886 2746.78455 L 1519.94819 2738.68556 L 1528.04718 2735.98590 L 1533.44650 2735.98590 L 1541.54549 2738.68556 L 1546.94481 2746.78455 L 1549.64448 2760.28286 L 1549.64448 2768.38185 L 1546.94481 2781.88016 L 1541.54549 2789.97915 L 1533.44650 2792.67881 L 1528.04718 2792.67881" fill="none" stroke="#000000" stroke-width="0.72" stroke-linecap="round" stroke-linejoin="round"/>
  <path d="M 2868.50044 2667.06475 L 2868.50044 166.90681" fill="none" stroke="#000000" stroke-width="0.72" stroke-linecap="round" stroke-linejoin="round"/>
  <path d="M 2868.50044 2667.06475 L 2869.35083 2664.23010" fill="none" stroke="#000000" stroke-width="0.72" stroke-linecap="round" stroke-linejoin="round"/>
  <path d="M 2867.65004 2664.23010 L 2868.50044 2667.06475" fill="none" stroke="#000000" stroke-width="0.72" stroke-linecap="round" stroke-linejoin="round"/>
  <path d="M 2868.50044 166.90681 L 2867.65004 169.74146" fill="none" stroke="#000000" stroke-width="0.72" stroke-linecap="round" stroke-linejoin="round"/>
  <path d="M 2869.35083 169.74146 L 2868.50044 166.90681" fill="none" stroke="#000000" stroke-width="0.72" stroke-linecap="round" stroke-linejoin="round"/>
  <path d="M 875.51857 2667.06475 L 2882.67367 2667.06475" fill="none" stroke="#000000" stroke-width="0.72" stroke-linecap="round" stroke-linejoin="round"/>
  <path d="M 875.51857 166.90681 L 2882.67367 166.90681" fill="none" stroke="#000000" stroke-width="0.72" stroke-linecap="round" stroke-linejoin="round"/>
  <path d="M 2806.13823 1282.00265 L 2808.83789 1273.90366 L 2814.23722 1271.20400 L 2819.63654 1271.20400 L 2825.03587 1273.90366 L 2827.73553 1279.30299 L 2830.43519 1290.10164 L 2833.13486 1298.20063 L 2838.53418 1303.59995 L 2843.93351 1306.29962 L 2852.03250 1306.29962 L 2857.43182 1303.59995 L 2860.13148 1300.90029 L 2862.83115 1292.80130 L 2862.83115 1282.00265 L 2860.13148 1273.90366 L 2857.43182 1271.20400 L 2852.03250 1268.50434 L 2843.93351 1268.50434 L 2838.53418 1271.20400 L 2833.13486 1276.60333 L 2830.43519 1284.70232 L 2827.73553 1295.50097 L 2825.03587 1300.90029 L 2819.63654 1303.59995 L 2814.23722 1303.59995 L 2808.83789 1300.90029 L 2806.13823 1292.80130 L 2806.13823 1282.00265" fill="none" stroke="#000000" stroke-width="0.72" stroke-linecap="round" stroke-linejoin="round"/>
  <path d="M 2806.13823 1335.99590 L 2808.83789 1327.89692 L 2814.23722 1325.19725 L 2819.63654 1325.19725 L 2825.03587 1327.89692 L 2827.73553 1333.29624 L 2830.43519 1344.09489 L 2833.13486 1352.19388 L 2838.53418 1357.59320 L 2843.93351 1360.29287 L 2852.03250 1360.29287 L 2857.43182 1357.59320 L 2860.13148 1354.89354 L 2862.83115 1346.79455 L 2862.83115 1335.99590 L 2860.13148 1327.89692 L 2857.43182 1325.19725 L 2852.03250 1322.49759 L 2843.93351 1322.49759 L 2838.53418 1325.19725 L 2833.13486 1330.59658 L 2830.43519 1338.69557 L 2827.73553 1349.49422 L 2825.03587 1354.89354 L 2819.63654 1357.59320 L 2814.23722 1357.59320 L 2808.83789 1354.89354 L 2806.13823 1346.79455 L 2806.13823 1335.99590" fill="none" stroke="#000000" stroke-width="0.72" stroke-linecap="round" stroke-linejoin="round"/>
  <path d="M 2819.63654 1379.19051 L 2816.93688 1379.19051 L 2811.53756 1381.89017 L 2808.83789 1384.58983 L 2806.13823 1389.98916 L 2806.13823 1400.78781 L 2808.83789 1406.18713 L 2811.53756 1408.88679 L 2816.93688 1411.58646 L 2822.33621 1411.58646 L 2827.73553 1408.88679 L 2835.83452 1403.48747 L 2862.83115 1376.49084 L 2862.83115 1414.28612" fill="none" stroke="#000000" stroke-width="0.72" stroke-linecap="round" stroke-linejoin="round"/>
  <path d="M 2857.43182 1433.18376 L 2860.13148 1430.48409 L 2862.83115 1433.18376 L 2860.13148 1435.88342" fill="none" stroke="#000000" stroke-width="0.72" stroke-linecap="round" stroke-linejoin="round"/>
  <path d="M 2806.13823 1473.67870 L 2808.83789 1465.57971 L 2816.93688 1460.18038 L 2830.43519 1457.48072 L 2838.53418 1457.48072 L 2852.03250 1460.18038 L 2860.13148 1465.57971 L 2862.83115 1473.67870 L 2862.83115 1479.07802 L 2860.13148 1487.17701 L 2852.03250 1492.57633 L 2838.53418 1495.27600 L 2830.43519 1495.27600 L 2816.93688 1492.57633 L 2808.83789 1487.17701 L 2806.13823 1479.07802 L 2806.13823 1473.67870" fill="none" stroke="#000000" stroke-width="0.72" stroke-linecap="round" stroke-linejoin="round"/>
  <path d="M 2806.13823 1527.67195 L 2808.83789 1519.57296 L 2816.93688 1514.17363 L 2830.43519 1511.47397 L 2838.53418 1511.47397 L 2852.03250 1514.17363 L 2860.13148 1519.57296 L 2862.83115 1527.67195 L 2862.83115 1533.07127 L 2860.13148 1541.17026 L 2852.03250 1546.56958 L 2838.53418 1549.26925 L 2830.43519 1549.26925 L 2816.93688 1546.56958 L 2808.83789 1541.17026 L 2806.13823 1533.07127 L 2806.13823 1527.67195" fill="none" stroke="#000000" stroke-width="0.72" stroke-linecap="round" stroke-linejoin="round"/>
  <path d="M 431.89652 1053.25433 L 998.82577 1053.25433" fill="none" stroke="#000000" stroke-width="0.72" stroke-linecap="round" stroke-linejoin="round"/>
  <path d="M 431.89652 1053.25433 L 434.73117 1054.10473" fill="none" stroke="#000000" stroke-width="0.72" stroke-linecap="round" stroke-linejoin="round"/>
  <path d="M 434.73117 1052.40394 L 431.89652 1053.25433" fill="none" stroke="#000000" stroke-width="0.72" stroke-linecap="round" stroke-linejoin="round"/>
  <path d="M 998.82577 1053.25433 L 995.99112 1052.40394" fill="none" stroke="#000000" stroke-width="0.72" stroke-linecap="round" stroke-linejoin="round"/>
  <path d="M 995.99112 1054.10473 L 998.82577 1053.25433" fill="none" stroke="#000000" stroke-width="0.72" stroke-linecap="round" stroke-linejoin="round"/>
  <path d="M 431.89652 1001.14322 L 431.89652 1067.42756" fill="none" stroke="#000000" stroke-width="0.72" stroke-linecap="round" stroke-linejoin="round"/>
  <path d="M 998.82577 1001.14322 L 998.82577 1067.42756" fill="none" stroke="#000000" stroke-width="0.72" stroke-linecap="round" stroke-linejoin="round"/>
  <path d="M 569.57937 1102.11822 L 569.57937 1104.81789 L 572.27903 1110.21721 L 574.97869 1112.91688 L 580.37802 1115.61654 L 591.17667 1115.61654 L 596.57599 1112.91688 L 599.27565 1110.21721 L 601.97532 1104.81789 L 601.97532 1099.41856 L 599.27565 1094.01924 L 593.87633 1085.92025 L 566.87970 1058.92362 L 604.67498 1058.92362" fill="none" stroke="#000000" stroke-width="0.72" stroke-linecap="round" stroke-linejoin="round"/>
  <path d="M 637.07093 1115.61654 L 628.97194 1112.91688 L 623.57262 1104.81789 L 620.87295 1091.31957 L 620.87295 1083.22059 L 623.57262 1069.72227 L 628.97194 1061.62329 L 637.07093 1058.92362 L 642.47026 1058.92362 L 650.56924 1061.62329 L 655.96857 1069.72227 L 658.66823 1083.22059 L 658.66823 1091.31957 L 655.96857 1104.81789 L 650.56924 1112.91688 L 642.47026 1115.61654 L 637.07093 1115.61654" fill="none" stroke="#000000" stroke-width="0.72" stroke-linecap="round" stroke-linejoin="round"/>
  <path d="M 691.06418 1115.61654 L 682.96519 1112.91688 L 677.56587 1104.81789 L 674.86621 1091.31957 L 674.86621 1083.22059 L 677.56587 1069.72227 L 682.96519 1061.62329 L 691.06418 1058.92362 L 696.46351 1058.92362 L 704.56249 1061.62329 L 709.96182 1069.72227 L 712.66148 1083.22059 L 712.66148 1091.31957 L 709.96182 1104.81789 L 704.56249 1112.91688 L 696.46351 1115.61654 L 691.06418 1115.61654" fill="none" stroke="#000000" stroke-width="0.72" stroke-linecap="round" stroke-linejoin="round"/>
  <path d="M 731.55912 1064.32295 L 728.85946 1061.62329 L 731.55912 1058.92362 L 734.25878 1061.62329" fill="none" stroke="#000000" stroke-width="0.72" stroke-linecap="round" stroke-linejoin="round"/>
  <path d="M 772.05406 1115.61654 L 763.95507 1112.91688 L 758.55575 1104.81789 L 755.85608 1091.31957 L 755.85608 1083.22059 L 758.55575 1069.72227 L 763.95507 1061.62329 L 772.05406 1058.92362 L 777.45338 1058.92362 L 785.55237 1061.62329 L 790.95170 1069.72227 L 793.65136 1083.22059 L 793.65136 1091.31957 L 790.95170 1104.81789 L 785.55237 1112.91688 L 777.45338 1115.61654 L 772.05406 1115.61654" fill="none" stroke="#000000" stroke-width="0.72" stroke-linecap="round" stroke-linejoin="round"/>
  <path d="M 826.04731 1115.61654 L 817.94832 1112.91688 L 812.54900 1104.81789 L 809.84933 1091.31957 L 809.84933 1083.22059 L 812.54900 1069.72227 L 817.94832 1061.62329 L 826.04731 1058.92362 L 831.44664 1058.92362 L 839.54562 1061.62329 L 844.94495 1069.72227 L 847.64461 1083.22059 L 847.64461 1091.31957 L 844.94495 1104.81789 L 839.54562 1112.91688 L 831.44664 1115.61654 L 826.04731 1115.61654" fill="none" stroke="#000000" stroke-width="0.72" stroke-linecap="round" stroke-linejoin="round"/>
  <path d="M 881.92673 977.61570 L 881.92673 1856.35586" fill="none" stroke="#000000" stroke-width="0.72" stroke-linecap="round" stroke-linejoin="round"/>
  <path d="M 881.92673 977.61570 L 881.07634 980.45034" fill="none" stroke="#000000" stroke-width="0.72" stroke-linecap="round" stroke-linejoin="round"/>
  <path d="M 882.77713 980.45034 L 881.92673 977.61570" fill="none" stroke="#000000" stroke-width="0.72" stroke-linecap="round" stroke-linejoin="round"/>
  <path d="M 881.92673 1856.35586 L 882.77713 1853.52122" fill="none" stroke="#000000" stroke-width="0.72" stroke-linecap="round" stroke-linejoin="round"/>
  <path d="M 881.07634 1853.52122 L 881.92673 1856.35586" fill="none" stroke="#000000" stroke-width="0.72" stroke-linecap="round" stroke-linejoin="round"/>
  <path d="M 939.29812 977.61570 L 867.75351 977.61570" fill="none" stroke="#000000" stroke-width="0.72" stroke-linecap="round" stroke-linejoin="round"/>
  <path d="M 939.29812 1856.35586 L 867.75351 1856.35586" fill="none" stroke="#000000" stroke-width="0.72" stroke-linecap="round" stroke-linejoin="round"/>
  <path d="M 819.56453 1279.30299 L 819.56453 1308.99928 L 841.16183 1292.80130 L 841.16183 1300.90029 L 843.86149 1306.29962 L 846.56115 1308.99928 L 854.66014 1311.69894 L 860.05947 1311.69894 L 868.15845 1308.99928 L 873.55778 1303.59995 L 876.25744 1295.50097 L 876.25744 1287.40198 L 873.55778 1279.30299 L 870.85812 1276.60333 L 865.45879 1273.90366" fill="none" stroke="#000000" stroke-width="0.72" stroke-linecap="round" stroke-linejoin="round"/>
  <path d="M 830.36318 1327.89692 L 827.66352 1333.29624 L 819.56453 1341.39523 L 876.25744 1341.39523" fill="none" stroke="#000000" stroke-width="0.72" stroke-linecap="round" stroke-linejoin="round"/>
  <path d="M 819.56453 1387.28949 L 822.26419 1379.19051 L 830.36318 1373.79118 L 843.86149 1371.09152 L 851.96048 1371.09152 L 865.45879 1373.79118 L 873.55778 1379.19051 L 876.25744 1387.28949 L 876.25744 1392.68882 L 873.55778 1400.78781 L 865.45879 1406.18713 L 851.96048 1408.88679 L 843.86149 1408.88679 L 830.36318 1406.18713 L 822.26419 1400.78781 L 819.56453 1392.68882 L 819.56453 1387.28949" fill="none" stroke="#000000" stroke-width="0.72" stroke-linecap="round" stroke-linejoin="round"/>
  <path d="M 870.85812 1427.78443 L 873.55778 1425.08477 L 876.25744 1427.78443 L 873.55778 1430.48409" fill="none" stroke="#000000" stroke-width="0.72" stroke-linecap="round" stroke-linejoin="round"/>
  <path d="M 819.56453 1468.27937 L 822.26419 1460.18038 L 830.36318 1454.78106 L 843.86149 1452.08139 L 851.96048 1452.08139 L 865.45879 1454.78106 L 873.55778 1460.18038 L 876.25744 1468.27937 L 876.25744 1473.67870 L 873.55778 1481.77768 L 865.45879 1487.17701 L 851.96048 1489.87667 L 843.86149 1489.87667 L 830.36318 1487.17701 L 822.26419 1481.77768 L 819.56453 1473.67870 L 819.56453 1468.27937" fill="none" stroke="#000000" stroke-width="0.72" stroke-linecap="round" stroke-linejoin="round"/>
  <path d="M 819.56453 1522.27262 L 822.26419 1514.17363 L 830.36318 1508.77431 L 843.86149 1506.07465 L 851.96048 1506.07465 L 865.45879 1508.77431 L 873.55778 1514.17363 L 876.25744 1522.27262 L 876.25744 1527.67195 L 873.55778 1535.77093 L 865.45879 1541.17026 L 851.96048 1543.86992 L 843.86149 1543.86992 L 830.36318 1541.17026 L 822.26419 1535.77093 L 819.56453 1527.67195 L 819.56453 1522.27262" fill="none" stroke="#000000" stroke-width="0.72" stroke-linecap="round" stroke-linejoin="round"/>
  <path d="M 880.69901 977.61570 L 880.69901 580.76515" fill="none" stroke="#000000" stroke-width="0.72" stroke-linecap="round" stroke-linejoin="round"/>
  <path d="M 880.69901 977.61570 L 881.54941 974.78105" fill="none" stroke="#000000" stroke-width="0.72" stroke-linecap="round" stroke-linejoin="round"/>
  <path d="M 879.84862 974.78105 L 880.69901 977.61570" fill="none" stroke="#000000" stroke-width="0.72" stroke-linecap="round" stroke-linejoin="round"/>
  <path d="M 880.69901 580.76515 L 879.84862 583.59980" fill="none" stroke="#000000" stroke-width="0.72" stroke-linecap="round" stroke-linejoin="round"/>
  <path d="M 881.54941 583.59980 L 880.69901 580.76515" fill="none" stroke="#000000" stroke-width="0.72" stroke-linecap="round" stroke-linejoin="round"/>
  <path d="M 939.29812 977.61570 L 866.52578 977.61570" fill="none" stroke="#000000" stroke-width="0.72" stroke-linecap="round" stroke-linejoin="round"/>
  <path d="M 939.29812 580.76515 L 866.52578 580.76515" fill="none" stroke="#000000" stroke-width="0.72" stroke-linecap="round" stroke-linejoin="round"/>
  <path d="M 829.13546 636.10831 L 826.43579 641.50764 L 818.33681 649.60662 L 875.02972 649.60662" fill="none" stroke="#000000" stroke-width="0.72" stroke-linecap="round" stroke-linejoin="round"/>
  <path d="M 818.33681 706.29954 L 856.13208 679.30291 L 856.13208 719.79785" fill="none" stroke="#000000" stroke-width="0.72" stroke-linecap="round" stroke-linejoin="round"/>
  <path d="M 818.33681 706.29954 L 875.02972 706.29954" fill="none" stroke="#000000" stroke-width="0.72" stroke-linecap="round" stroke-linejoin="round"/>
  <path d="M 818.33681 749.49414 L 821.03647 741.39515 L 829.13546 735.99582 L 842.63377 733.29616 L 850.73276 733.29616 L 864.23107 735.99582 L 872.33006 741.39515 L 875.02972 749.49414 L 875.02972 754.89346 L 872.33006 762.99245 L 864.23107 768.39178 L 850.73276 771.09144 L 842.63377 771.09144 L 829.13546 768.39178 L 821.03647 762.99245 L 818.33681 754.89346 L 818.33681 749.49414" fill="none" stroke="#000000" stroke-width="0.72" stroke-linecap="round" stroke-linejoin="round"/>
  <path d="M 869.63040 789.98908 L 872.33006 787.28941 L 875.02972 789.98908 L 872.33006 792.68874" fill="none" stroke="#000000" stroke-width="0.72" stroke-linecap="round" stroke-linejoin="round"/>
  <path d="M 818.33681 830.48401 L 821.03647 822.38503 L 829.13546 816.98570 L 842.63377 814.28604 L 850.73276 814.28604 L 864.23107 816.98570 L 872.33006 822.38503 L 875.02972 830.48401 L 875.02972 835.88334 L 872.33006 843.98233 L 864.23107 849.38165 L 850.73276 852.08132 L 842.63377 852.08132 L 829.13546 849.38165 L 821.03647 843.98233 L 818.33681 835.88334 L 818.33681 830.48401" fill="none" stroke="#000000" stroke-width="0.72" stroke-linecap="round" stroke-linejoin="round"/>
  <path d="M 818.33681 884.47727 L 821.03647 876.37828 L 829.13546 870.97895 L 842.63377 868.27929 L 850.73276 868.27929 L 864.23107 870.97895 L 872.33006 876.37828 L 875.02972 884.47727 L 875.02972 889.87659 L 872.33006 897.97558 L 864.23107 903.37490 L 850.73276 906.07457 L 842.63377 906.07457 L 829.13546 903.37490 L 821.03647 897.97558 L 818.33681 889.87659 L 818.33681 884.47727" fill="none" stroke="#000000" stroke-width="0.72" stroke-linecap="round" stroke-linejoin="round"/>
  </g>
</svg>