<?xml version="1.0" encoding="UTF-8" standalone="no"?>
<!-- Created with Inkscape (http://www.inkscape.org/) -->

<svg
   version="1.1"
   id="svg1"
   width="2318.6667"
   height="1701.3333"
   viewBox="0 0 2318.6667 1701.3333"
   sodipodi:docname="맞뚜껑.pdf"
   xmlns:inkscape="http://www.inkscape.org/namespaces/inkscape"
   xmlns:sodipodi="http://sodipodi.sourceforge.net/DTD/sodipodi-0.dtd"
   xmlns="http://www.w3.org/2000/svg"
   xmlns:svg="http://www.w3.org/2000/svg">
  <defs
     id="defs1" />
  <sodipodi:namedview
     id="namedview1"
     pagecolor="#ffffff"
     bordercolor="#000000"
     borderopacity="0.25"
     inkscape:showpageshadow="2"
     inkscape:pageopacity="0.0"
     inkscape:pagecheckerboard="0"
     inkscape:deskcolor="#d1d1d1">
    <inkscape:page
       x="0"
       y="0"
       inkscape:label="1"
       id="page1"
       width="2318.6667"
       height="1701.3333"
       margin="0"
       bleed="0" />
  </sodipodi:namedview>
  <g
     id="g1"
     inkscape:groupmode="layer"
     inkscape:label="1">
    <path
       id="path1"
       d="m 17392.4,3545.25 -70.8,-70.87 -89.2,-1700.78 h -1933.7 m -136.9,105.04 c 16.5,-61.9 72.8,-105.04 136.9,-105.04 m -136.9,105.04 -363.1,1354.8 -113.3,113.38 v 198.43 h -2664.6 c -15.3,129.35 -124.9,226.77 -255.1,226.77 -130.3,0 -239.9,-97.42 -255.1,-226.77 H 8845.98 V 3346.82 L 8732.6,3233.44 8369.58,1878.64 m -136.9,-105.04 c 64.09,0 120.32,43.14 136.9,105.04 M 8232.68,1773.6 H 6299.64 l -89.95,1717.92 c -1.61,30.69 -27.39,54.52 -58.1,53.71 -30.72,-0.8 -55.21,-25.94 -55.21,-56.67 V 710.605 L 6076.84,337.73 M 5722.99,1.94141 c 188.49,0 343.98,147.55459 353.85,335.78859 M 5722.99,1.94141 H 800.473 M 446.629,337.73 C 456.492,149.496 611.984,1.94141 800.473,1.94141 M 446.629,337.73 427.086,710.605 V 3545.25 L 1.89063,3659.18 M 17383.9,3545.25 h -2690 m -5856.42,0 H 6161.57 m -73.69,-42.52 H 435.59 M 6087.88,710.605 H 435.59 M 17392.4,3545.25 v 5669.29 h -42.5 v 198.43 l -113.4,113.38 -363,1354.75 c -16.6,62 -72.8,105.1 -136.9,105.1 h -1933 l -90,-1717.93 m -113.3,2.96 c 0,-30.72 24.5,-55.87 55.2,-56.67 30.7,-0.8 56.5,23.03 58.1,53.71 m -113.3,2.96 v 2777.97 l -19.5,372.9 c -9.9,188.2 -165.4,335.7 -353.9,335.7 H 9304.41 c -188.49,0 -343.98,-147.5 -353.84,-335.7 l -19.55,-372.9 V 9271.23 m -113.31,-2.96 c 1.61,-30.68 27.39,-54.51 58.1,-53.71 30.72,0.8 55.21,25.95 55.21,56.67 m -113.31,-2.96 -89.95,1717.93 H 6794.72 c -64.09,0 -120.31,-43.1 -136.9,-105.1 L 6294.8,9526.35 6181.42,9412.97 V 9214.54 H 3516.85 m -510.24,0 c 15.28,-129.35 124.87,-226.77 255.12,-226.77 130.25,0 239.85,97.42 255.12,226.77 m -510.24,0 H 427.086 L 1.89063,9100.61 V 3659.18 M 14600.3,9262.73 V 3553.75 M 8931.02,9262.73 V 3553.75 M 6096.38,9206.04 V 3511.23 M 427.086,9206.04 V 3553.75 M 17341.4,9214.54 h -2675.9 m -5799.67,0 H 6189.92 m 8401.88,42.52 H 8939.53 M 14591.8,12049.2 H 8939.53 Z"
       style="fill:none;stroke:#231f20;stroke-width:2.16;stroke-linecap:butt;stroke-linejoin:miter;stroke-miterlimit:2.6131;stroke-dasharray:none;stroke-opacity:1"
       transform="matrix(0.13333333,0,0,-0.13333333,0,1701.3333)" />
  </g>
</svg>
