<?xml version="1.0" encoding="UTF-8" standalone="no"?>
<!-- Created with Inkscape (http://www.inkscape.org/) -->

<svg
   version="1.1"
   id="svg1"
   width="4166.6665"
   height="4037.3333"
   viewBox="0 0 4166.6665 4037.3333"
   sodipodi:docname="신한-508-260224-바이킹 대게박스.pdf"
   xmlns:inkscape="http://www.inkscape.org/namespaces/inkscape"
   xmlns:sodipodi="http://sodipodi.sourceforge.net/DTD/sodipodi-0.dtd"
   xmlns="http://www.w3.org/2000/svg"
   xmlns:svg="http://www.w3.org/2000/svg">
  <defs
     id="defs1" />
  <sodipodi:namedview
     id="namedview1"
     pagecolor="#ffffff"
     bordercolor="#000000"
     borderopacity="0.25"
     inkscape:showpageshadow="2"
     inkscape:pageopacity="0.0"
     inkscape:pagecheckerboard="0"
     inkscape:deskcolor="#d1d1d1">
    <inkscape:page
       x="0"
       y="0"
       inkscape:label="1"
       id="page1"
       width="4166.6665"
       height="4037.3333"
       margin="0"
       bleed="0" />
  </sodipodi:namedview>
  <g
     id="g1"
     inkscape:groupmode="layer"
     inkscape:label="1">
    <path
       id="path1"
       d="M 3940.62,7173.48 H 255.578 M 57.1523,7371.91 V 9356.16 L 0.460938,9441.2 m 8.503902,0 H 3960.46 m -19.84,-4053.55 v 3968.51 l 28.34,85.04 M 9666.6,5387.65 v 3968.51 l -28.34,85.04 M 4005.82,5274.27 H 9601.41 M 3949.12,5387.65 H 9658.1 M 3997.31,1362.46 v 3911.81 l -56.69,113.38 M 9609.91,1362.46 v 3911.81 l 56.69,113.38 M 3997.31,1362.46 h 850.39 l 26.18,-113.39 h 939.77 l 26.18,113.39 h 1927.56 l 26.18,-113.39 h 939.77 l 26.18,113.39 h 850.39 M 4904.4,9356.16 h 878.74 m 0,113.38 H 4904.4 m 2919.68,-113.38 h 878.74 m 0,113.38 H 7824.08 M 3949.12,9356.16 h 946.77 m 895.75,0 h 2023.94 m 895.75,0 H 9658.1 M 13280.8,7173.48 H 9666.6 M 13598.3,9441.2 H 9646.76 M 27496.5,10773.5 V 9327.81 m -3911.8,42.52 -141.7,-56.69 m -4002.5,0 H 23443 m -9785.2,0 H 19432 m 8.5,-3960 v 3951.49 m 4002.5,17.01 V 13351 m 141.7,-3972.17 V 13351.1 M 25067.2,8445.56 V 6790.8 m -170,-170.08 h -396.9 m -170.1,170.08 v 481.89 m -127.5,0 V 5812.85 m -4663,-396.85 -99.2,-70.87 m 99.2,70.87 h 3817.4 m -3916.6,-70.87 h -1417.4 m 9623.7,6987.37 v -1559 m -150.3,1559 h 150.3 m -150.3,-1559 h 150.3 M 13564.2,9398.68 V 7456.95 m 85.1,1941.73 V 8333.86 m 129.3,-237.88 4244.5,-2750.85 m -4244.5,2750.85 c -80.7,52.29 -129.3,141.73 -129.3,237.88 m 13847.2,993.95 -3911.8,42.52 M 57.1523,7371.91 c 0.043,-109.52 88.9107,-198.39 198.4257,-198.43 M 4904.4,9469.54 c -31.29,0 -56.68,-25.4 -56.68,-56.69 0,-31.29 25.39,-56.69 56.68,-56.69 m 878.74,0 c 31.29,0 56.68,25.4 56.68,56.69 0,31.29 -25.39,56.69 -56.68,56.69 m 2040.94,0 c -31.29,0 -56.68,-25.4 -56.68,-56.69 0,-31.29 25.39,-56.69 56.68,-56.69 m 878.74,0 c 31.29,0 56.68,25.4 56.68,56.69 0,31.29 -25.39,56.69 -56.68,56.69 M 13280.8,7173.48 c 156.4,0.06 283.4,127.01 283.4,283.47 m 11333,-836.23 c 93.8,0.04 170,76.21 170,170.08 m -737,0 c 0.1,-93.87 76.2,-170.04 170.1,-170.08 m -170.1,651.97 c 0,35.2 -28.6,63.77 -63.8,63.77 -35.2,0 -63.7,-28.57 -63.7,-63.77 M 13649.3,9398.68 c 0,23.46 -19.1,42.51 -42.5,42.51 -23.5,0 -42.6,-19.05 -42.6,-42.51 M 23910.6,13750 c 0,219.1 -177.8,396.9 -396.9,396.9 -219.1,0 -396.8,-177.8 -396.8,-396.9 0,-219.1 177.7,-396.8 396.8,-396.8 219.1,0 396.9,177.7 396.9,396.8 m -33.9,-7937.15 c -242.6,0 -455.8,-162.77 -519.6,-396.85 m 519.6,396.85 h 326 M 3940.62,20326.2 H 255.578 M 57.1523,20127.8 v -1984.2 l -56.691362,-85.1 m 8.503902,0 H 3960.46 m -19.84,4053.6 v -3968.5 l 28.34,-85.1 m 5697.64,4053.6 v -3968.5 l -28.34,-85.1 M 4005.82,22225.4 H 9601.41 M 3949.12,22112.1 H 9658.1 m -5660.79,4025.2 v -3911.9 l -56.69,-113.3 m 5669.29,4025.2 v -3911.9 l 56.69,-113.3 m -5669.29,4025.2 h 850.39 l 26.18,113.3 h 939.77 l 26.18,-113.3 h 1927.56 l 26.18,113.3 h 939.77 l 26.18,-113.3 h 850.39 M 4904.4,18143.6 h 878.74 m 0,-113.4 H 4904.4 m 2919.68,113.4 h 878.74 m 0,-113.4 h -878.74 m -3874.96,113.4 h 946.77 m 895.75,0 h 2023.94 m 895.75,0 h 946.77 m 3622.7,2182.6 H 9666.6 m 3931.7,-2267.7 H 9646.76 M 27496.5,16726.2 v 1445.7 m -3911.8,-42.5 -141.7,56.7 m -4002.5,0 H 23443 m -9785.2,0 H 19432 m 8.5,3960 v -3951.5 m 4002.5,-17 v -4028.9 m 141.7,3972.2 v -3972.2 m -4045,7935 -99.2,70.9 m 99.2,-70.9 h 3817.4 m -3916.6,70.9 h -1417.4 m 9623.7,-6987.4 v 1559 m -150.3,-1559 h 150.3 m -150.3,1559 h 150.3 M 13564.2,18101 v 1941.8 m 85.1,-1941.8 v 1064.9 m 129.3,237.8 4244.5,2750.9 m -4244.5,-2750.9 c -80.7,-52.3 -129.3,-141.7 -129.3,-237.8 m 13847.2,-994 -3911.8,-42.5 M 57.1523,20127.8 c 0.043,109.5 88.9107,198.4 198.4257,198.4 m 4648.822,-2296 c -31.29,0 -56.68,25.4 -56.68,56.7 0,31.3 25.39,56.7 56.68,56.7 m 878.74,0 c 31.29,0 56.68,-25.4 56.68,-56.7 0,-31.3 -25.39,-56.7 -56.68,-56.7 m 2040.94,0 c -31.29,0 -56.68,25.4 -56.68,56.7 0,31.3 25.39,56.7 56.68,56.7 m 878.74,0 c 31.29,0 56.68,-25.4 56.68,-56.7 0,-31.3 -25.39,-56.7 -56.68,-56.7 m 4577.98,2296 c 156.4,0 283.4,-127 283.4,-283.4 m 85.1,-1941.8 c 0,-23.4 -19.1,-42.5 -42.5,-42.5 -23.5,0 -42.6,19.1 -42.6,42.5 m 9792.9,3982.7 c 63.8,-234.1 277,-396.8 519.6,-396.8 h 907.1 c 156.4,0 283.4,-127 283.4,-283.5 v -1743.3 m -170,-170.1 h -396.9 m -170.1,170.1 v 481.9 m -127.5,0 v -1332.3 m 694.5,680.3 c 93.8,0.1 170,76.2 170,170.1 m -737,0 c 0.1,-93.9 76.2,-170 170.1,-170.1 m -170.1,652 c 0,35.2 -28.6,63.8 -63.8,63.8 -35.2,0 -63.7,-28.6 -63.7,-63.8 m -1043.2,-1955.9 v 340.1 l 1043.2,283.5 M 23159.5,9313.64 v -340.16 l 1665.9,-247.53 c 139,-20.65 241.8,-139.92 241.8,-280.39 M 19474.5,18177.6 V 9322.14 M 13635.1,18060.8 V 9438.89 M 0.460938,18058.5 V 9441.2 M 3968.96,9449.7 V 18050 M 9638.26,9449.7 V 18050 M 27496.5,15167.2 V 12332.5 M 0.460938,823.871 H 27646.8 M 735.863,30267.7 v -51.1 l -5.672,-45.3 -17.007,-51 -34.016,-45.4 -51.023,-28.3 -28.344,-5.7 m 136.062,175.7 5.668,-45.3 17.008,-45.4 39.684,-51 45.355,-28.3 28.348,-5.7 m 164.414,-28.3 v 266.4 m -419.531,-340.1 v -107.8 l 5.668,-11.3 11.339,-5.7 H 1042 m 243.79,453.6 h 96.37 m 79.37,-56.7 h -255.12 m 113.39,-51 -39.69,-5.7 -22.67,-5.7 -22.68,-11.3 -17.01,-17 -5.67,-17 v -11.4 l 5.67,-17 17.01,-17 22.68,-11.3 22.67,-5.7 39.69,-5.7 h 28.34 l 39.69,5.7 22.68,5.7 22.67,11.3 17.01,17 5.67,17 v 11.4 l -5.67,17 -17.01,17 -22.67,11.3 -22.68,5.7 -39.69,5.7 h -28.34 m 311.81,119 v -266.4 m 0,141.7 h 68.03 m -487.56,-215.4 v -107.8 l 5.67,-11.3 11.34,-5.7 h 408.19 m 164.41,194.4 h 388.75 m 431.95,259.2 h -215.98 l -21.59,-194.4 21.59,21.6 64.8,21.6 H 2536 l 64.79,-21.6 43.19,-43.2 21.6,-64.8 v -43.2 l -21.6,-64.8 -43.19,-43.2 -64.79,-21.6 h -64.79 l -64.8,21.6 -21.59,21.6 -21.6,43.2 m 561.53,367.2 -64.79,-21.6 -43.2,-64.8 -21.6,-108 v -64.8 l 21.6,-108 43.2,-64.8 64.79,-21.6 h 43.19 l 64.79,21.6 43.2,64.8 21.6,108 v 64.8 l -21.6,108 -43.2,64.8 -64.79,21.6 h -43.19 m 410.35,0 -64.8,-21.6 -21.59,-43.2 v -43.2 l 21.59,-43.2 43.2,-21.6 86.39,-21.6 64.79,-21.6 43.2,-43.2 21.59,-43.2 v -64.8 l -21.59,-43.2 -21.6,-21.6 -64.79,-21.6 h -86.39 l -64.8,21.6 -21.59,21.6 -21.6,43.2 v 64.8 l 21.6,43.2 43.19,43.2 64.8,21.6 86.38,21.6 43.2,21.6 21.6,43.2 v 43.2 l -21.6,43.2 -64.79,21.6 h -86.39 m 323.95,-259.2 h 388.76 m 194.37,151.2 v 21.6 l 21.6,43.2 21.6,21.6 43.19,21.6 h 86.39 l 43.2,-21.6 21.59,-21.6 21.6,-43.2 v -43.2 l -21.6,-43.2 -43.19,-64.8 -215.97,-216 h 302.36 m 388.75,388.8 -21.6,43.2 -64.79,21.6 h -43.19 l -64.8,-21.6 -43.19,-64.8 -21.6,-108 v -108 l 21.6,-86.4 43.19,-43.2 64.8,-21.6 h 21.59 l 64.79,21.6 43.2,43.2 21.6,64.8 v 21.6 l -21.6,64.8 -43.2,43.2 -64.79,21.6 h -21.59 l -64.8,-21.6 -43.19,-43.2 -21.6,-64.8 m 561.53,302.4 -64.79,-21.6 -43.2,-64.8 -21.59,-108 v -64.8 l 21.59,-108 43.2,-64.8 64.79,-21.6 h 43.2 l 64.79,21.6 43.19,64.8 21.6,108 v 64.8 l -21.6,108 -43.19,64.8 -64.79,21.6 h -43.2 m 323.96,-108 v 21.6 l 21.6,43.2 21.59,21.6 43.2,21.6 h 86.39 l 43.2,-21.6 21.59,-21.6 21.6,-43.2 v -43.2 l -21.6,-43.2 -43.19,-64.8 -215.97,-216 h 302.36 m 151.18,345.6 v 21.6 l 21.6,43.2 21.59,21.6 43.2,21.6 h 86.39 l 43.19,-21.6 21.6,-21.6 21.6,-43.2 v -43.2 l -21.6,-43.2 -43.2,-64.8 -215.97,-216 h 302.36 m 345.56,453.6 -215.97,-302.4 h 323.96 m -107.99,302.4 v -453.6 M 611.137,29587.4 v -436.6 l 5.672,-11.3 11.336,-5.7 H 837.91 v 453.6 m 0,-221.1 H 611.137 m 425.203,232.4 v -476.2 m 0,238.1 h 68.03 m 192.75,-226.8 -22.67,5.7 -22.68,17 -17.01,28.3 -11.34,34.1 -11.34,62.3 -5.67,62.4 v 34 l 5.67,68 11.34,56.7 11.34,28.4 17.01,28.3 28.34,22.7 17.01,5.7 h 34.02 l 17,-5.7 28.35,-22.7 17.01,-28.3 11.34,-28.4 11.34,-56.7 5.67,-68 v -34 l -5.67,-68.1 -11.34,-56.6 -11.34,-28.4 -17.01,-28.3 -28.35,-22.7 -17,-5.7 h -34.02 m 334.49,-11.3 v 476.2 m 170.08,-11.3 h 249.45 v -22.7 l -5.67,-34 -17.01,-45.4 -28.35,-39.7 -45.35,-39.7 -51.03,-22.6 -62.35,-17 -51.03,-5.7 m 238.11,124.7 h -226.77 m 425.2,-153.1 v 266.5 m -255.12,-317.5 -79.37,-5.7 -28.35,-5.6 -28.35,-11.4 -17,-11.3 -11.34,-17 -5.67,-17 v -11.4 l 5.67,-17 11.34,-17 17,-11.3 28.35,-11.3 28.35,-5.7 79.37,-5.7 h 85.04 l 79.37,5.7 28.34,5.7 28.35,11.3 17.01,11.3 11.33,17 5.68,17 v 11.4 l -5.68,17 -11.33,17 -17.01,11.3 -28.35,11.4 -28.34,5.6 -79.37,5.7 h -85.04 m 1062.32,306.2 h -226.78 v -436.6 l 5.67,-11.3 11.34,-5.7 141.73,5.7 141.74,17 m 153.07,442.2 v -476.2 m -113.39,0 v 476.2 m 0,-238.1 h 113.39 m 141.73,226.8 h 226.77 l -17.01,-158.8 -22.67,-96.4 -34.02,-79.3 -45.36,-56.7 -39.68,-34 -34.01,-17 -34.02,-11.4 m 255.12,226.8 h 85.04 m 0,238.1 v -476.2 m 113.38,0 v 476.2 m 141.73,-11.3 v -209.8 l 5.68,-11.3 11.33,-5.7 h 226.77 v 226.8 m 0,-107.8 h -243.78 m 425.2,119.1 v -266.5 m 0,141.8 h 68.03 m -493.23,-204.1 h 425.2 v -136.1 m 396.85,453.6 -22.68,-85.1 -34.01,-68 -51.02,-56.7 -62.37,-39.7 -62.36,-22.7 m 232.44,272.2 22.68,-85.1 34.02,-68 51.02,-56.7 62.36,-39.7 62.36,-22.7 m -470.55,-181.4 h 476.22 M 654.332,28907 h 237.57 L 762.32,28734.3 h 64.789 l 43.196,-21.6 21.597,-21.6 21.598,-64.8 v -43.2 l -21.598,-64.8 -43.195,-43.2 -64.793,-21.6 h -64.789 l -64.793,21.6 -21.598,21.6 -21.597,43.2 m 431.943,280.8 43.2,21.6 64.79,64.7 v -453.5 m 367.15,453.5 -64.79,-21.6 -43.19,-64.7 -21.6,-108 v -64.8 l 21.6,-108 43.19,-64.8 64.79,-21.6 h 43.2 l 64.79,21.6 43.2,64.8 21.59,108 v 64.8 l -21.59,108 -43.2,64.7 -64.79,21.6 h -43.2 m 302.37,-259.1 h 388.75 m 194.37,151.2 v 21.6 l 21.6,43.1 21.6,21.6 43.19,21.6 h 86.39 l 43.2,-21.6 21.6,-21.6 21.59,-43.1 v -43.2 l -21.59,-43.2 -43.2,-64.8 -215.97,-216 h 302.36 m 259.16,453.5 -64.78,-21.6 -43.2,-64.7 -21.6,-108 v -64.8 l 21.6,-108 43.2,-64.8 64.78,-21.6 h 43.2 l 64.79,21.6 43.2,64.8 21.6,108 v 64.8 l -21.6,108 -43.2,64.7 -64.79,21.6 h -43.2 m 431.95,0 -64.79,-21.6 -43.19,-64.7 -21.6,-108 v -64.8 l 21.6,-108 43.19,-64.8 64.79,-21.6 h 43.2 l 64.79,21.6 43.19,64.8 21.6,108 v 64.8 l -21.6,108 -43.19,64.7 -64.79,21.6 h -43.2 m 302.36,-259.1 h 388.76 m 172.77,172.8 43.2,21.6 64.79,64.7 v -453.5 m 453.55,453.5 -215.98,-302.3 H 4909 m -107.98,302.3 v -453.5 m 345.55,453.5 -64.79,-21.6 -43.19,-64.7 -21.6,-108 v -64.8 l 21.6,-108 43.19,-64.8 64.79,-21.6 h 43.2 l 64.79,21.6 43.19,64.8 21.6,108 v 64.8 l -21.6,108 -43.19,64.7 -64.79,21.6 h -43.2 M 611.137,28226.7 h 249.449 v -22.6 l -5.668,-34.1 -17.008,-45.3 -28.347,-39.7 -45.356,-39.7 -51.023,-22.7 -62.36,-17 -51.023,-5.6 m 238.109,124.7 H 611.137 m 425.203,113.4 v -266.5 m 0,141.7 h 68.03 m -493.233,-192.7 h 425.203 v -73.7 H 611.137 v -56.7 l 5.672,-11.3 11.336,-5.7 h 408.195 m 861.19,302.3 -21.6,-64.7 -43.2,-43.2 -64.79,-21.6 h -21.59 l -64.8,21.6 -43.19,43.2 -21.6,64.7 v 21.6 l 21.6,64.8 43.19,43.2 64.8,21.6 h 21.59 l 64.79,-21.6 43.2,-43.2 21.6,-86.4 v -107.9 l -21.6,-108 -43.2,-64.8 -64.79,-21.6 h -43.19 l -64.79,21.6 -21.6,43.2 m 410.35,388.7 h 302.36 l -215.97,-453.5 m 604.72,453.5 h -215.97 l -21.6,-194.3 21.6,21.5 64.79,21.6 h 64.79 l 64.79,-21.6 43.2,-43.1 21.6,-64.8 v -43.2 l -21.6,-64.8 -43.2,-43.2 -64.79,-21.6 h -64.79 l -64.79,21.6 -21.6,21.6 -21.6,43.2 m 453.55,-43.2 -21.6,-21.6 21.6,-21.6 21.59,21.6 m 215.98,431.9 h 237.57 l -129.59,-172.8 h 64.8 l 43.19,-21.5 21.6,-21.6 21.59,-64.8 v -43.2 l -21.59,-64.8 -43.2,-43.2 -64.79,-21.6 h -64.79 l -64.79,21.6 -21.6,21.6 -21.6,43.2 m 431.95,108 h 388.75 m 280.77,259.1 -64.8,-21.6 -21.6,-43.2 v -43.2 l 21.6,-43.2 43.2,-21.6 86.39,-21.5 64.79,-21.6 43.19,-43.2 21.6,-43.2 v -64.8 l -21.6,-43.2 -21.6,-21.6 -64.78,-21.6 h -86.39 l -64.8,21.6 -21.6,21.6 -21.59,43.2 v 64.8 l 21.59,43.2 43.2,43.2 64.79,21.6 86.39,21.5 43.19,21.6 21.6,43.2 v 43.2 l -21.6,43.2 -64.78,21.6 h -86.39 m 431.94,0 -64.79,-21.6 -21.6,-43.2 v -43.2 l 21.6,-43.2 43.19,-21.6 86.39,-21.5 64.8,-21.6 43.19,-43.2 21.6,-43.2 v -64.8 l -21.6,-43.2 -21.6,-21.6 -64.79,-21.6 h -86.39 l -64.79,21.6 -21.6,21.6 -21.59,43.2 v 64.8 l 21.59,43.2 43.2,43.2 64.79,21.6 86.39,21.5 43.19,21.6 21.6,43.2 v 43.2 l -21.6,43.2 -64.79,21.6 h -86.39 m 345.56,-108 v 21.6 l 21.6,43.2 21.59,21.6 43.2,21.6 h 86.39 l 43.19,-21.6 21.6,-21.6 21.6,-43.2 v -43.2 l -21.6,-43.2 -43.2,-64.7 -215.97,-216 h 302.36 m 950.29,0 v 453.5 h 280.76 m -280.76,-215.9 h 172.77 m -172.77,-237.6 h 280.76 m 135.25,453.5 h 447.88 l -5.67,-113.4 -5.67,-56.7 m -453.55,-62.3 h 476.23 m -238.12,0 v 68 m -226.77,-141.7 h 453.55 v -73.7 h -453.55 v -56.7 l 5.67,-11.3 11.34,-5.7 h 436.54 m 631.45,453.5 h 96.37 m 79.38,-56.7 h -255.12 m 113.39,-51 -39.69,-5.7 -22.68,-5.6 -22.68,-11.4 -17.01,-17 -5.66,-17 v -11.3 l 5.66,-17 17.01,-17 22.68,-11.4 22.68,-5.6 39.69,-5.7 h 28.34 l 39.69,5.7 22.67,5.6 22.68,11.4 17.01,17 5.67,17 v 11.3 l -5.67,17 -17.01,17 -22.68,11.4 -22.67,5.6 -39.69,5.7 h -28.34 m 311.8,119.1 v -266.5 m 0,141.7 h 68.04 m -487.56,-198.4 v -124.7 l 5.66,-11.3 11.34,-5.7 h 402.52 v 141.7 m 0,-62.3 h -419.52 m 708.66,374.1 v -56.7 l -11.34,-113.4 -17.01,-85 -22.68,-73.7 -34.01,-68 -39.69,-56.7 m 124.73,396.8 5.67,-56.7 5.67,-56.7 17,-85 22.68,-68 39.69,-79.4 34.01,-51 m -5.66,453.5 h -238.12 m 425.2,-464.9 v 476.3 M 13823.6,823.871 V 965.605 M 11945.4,468.113 h 447.9 v -56.695 l -5.7,-113.387 -5.6,-56.691 m -453.6,-85.039 h 476.3 m -238.2,0 V 8.89844 m 498.9,459.21456 -45.3,-5.672 -28.4,-11.336 -22.6,-17.011 -17,-22.676 -5.7,-11.34 -5.7,-28.344 v -34.015 l 5.7,-28.348 5.7,-11.34 17,-22.676 22.6,-17.007 28.4,-11.34 45.3,-5.668 h 34.1 l 45.3,5.668 28.4,11.34 22.6,17.007 17,22.676 5.7,11.34 5.7,28.348 v 34.015 l -5.7,28.344 -5.7,11.34 -17,22.676 -22.6,17.011 -28.4,11.336 -45.3,5.672 h -34.1 m 17,-272.129 V 65.5898 m -158.7,-11.3359 158.7,11.3359 130.4,17.0079 147.4,28.3473 m 0,-107.71453 V 479.449 m 0,-238.109 h 68.1 m 192.7,-226.7736 -22.6,5.6719 -22.7,17.0078 -17,28.3437 -11.4,34.0196 -11.3,62.3596 -5.7,62.363 v 34.016 l 5.7,68.031 11.3,56.691 11.4,28.348 17,28.348 28.3,22.675 17,5.672 h 34.1 l 17,-5.672 28.3,-22.675 17,-28.348 11.4,-28.348 11.3,-56.691 5.7,-68.031 v -34.016 l -5.7,-68.031 -11.3,-56.6916 -11.4,-28.3477 -17,-28.3476 -28.3,-22.6758 -17,-5.6719 H 13221 M 13555.5,3.23047 V 479.449 m 580.4,-97.726 43.2,21.597 64.8,64.793 V 14.5664 m 496.8,453.5466 h -216 l -21.6,-194.379 21.6,21.598 64.8,21.598 h 64.8 l 64.8,-21.598 43.2,-43.195 21.6,-64.789 v -43.196 l -21.6,-64.7926 -43.2,-43.1953 -64.8,-21.5977 h -64.8 l -64.8,21.5977 -21.6,21.5976 -21.6,43.1953 m 432,-86.3906 V 316.93 m 0,-86.387 64.7,64.789 43.2,21.598 h 64.8 l 43.2,-21.598 21.6,-64.789 V 14.5664 m 0,215.9766 64.8,64.789 43.2,21.598 h 64.8 l 43.2,-21.598 21.6,-64.789 V 14.5664 m 172.8,0 V 316.93 m 0,-86.387 64.8,64.789 43.2,21.598 h 64.7 l 43.2,-21.598 21.6,-64.789 V 14.5664 m 0,215.9766 64.8,64.789 43.2,21.598 h 64.8 l 43.2,-21.598 21.6,-64.789 V 14.5664 Z"
       style="fill:none;stroke:#231f20;stroke-width:2.16;stroke-linecap:butt;stroke-linejoin:miter;stroke-miterlimit:2.6131;stroke-dasharray:none;stroke-opacity:1"
       transform="matrix(0.13333333,0,0,-0.13333333,0,4037.3333)" />
    <path
       id="path2"
       d="M 0.460938,26883.2 H 27646.8 m -27646.339062,0 28.347662,8.5 m 0,-17 -28.347662,8.5 m 27646.339062,0 -28.4,-8.5 m 0,17 28.4,-8.5 M 0.460938,18200.3 v 8824.6 M 27646.8,16088.4 v 10936.5 m -14957,292.9 -27,-81 -54,-54 -81,-27 h -27 l -81,27 -54,54 -27,81 v 27 l 27,81 54,54 81,27 h 27 l 81,-27 54,-54 27,-108 v -135 l -27,-135 -54,-80.9 -81,-27 h -54 l -81,27 -27,54 m 512.9,485.9 h 378 l -270,-566.9 m 755.9,566.9 h -269.9 l -27,-243 27,27 80.9,27 h 81 l 81,-27 54,-54 27,-81 v -54 l -27,-80.9 -54,-54 -81,-27 h -81 l -80.9,27 -27,27 -27,53.9 m 566.9,-53.9 -27,-27 27,-27 27,27 m 270,539.9 h 296.9 l -162,-216 h 81 l 54,-27 27,-27 27,-81 v -54 l -27,-80.9 -54,-54 -81,-27 h -81 l -80.9,27 -27,27 -27,53.9 m 701.9,459 -81,-27 -54,-81 -27,-135 v -81 l 27,-135 54,-80.9 81,-27 h 54 l 81,27 53.9,80.9 27,135 v 81 l -27,135 -53.9,81 -81,27 h -54 M 28335,26250.6 V 1249.07 m 0,25001.53 8.5,-28.3 m -17,0 8.5,28.3 m 0,-25001.53 -8.5,28.34 m 17,0 -8.5,-28.34 M 8405.19,26250.6 H 28476.7 M 8405.19,1249.07 H 28476.7 m -765.3,11150.93 27,-81 54,-27 h 54 l 54,27 27,54 27,108 26.9,81 54,54 54,27 h 81 l 54,-27 27,-27 27,-81 v -108 l -27,-81 -27,-27 -54,-27 h -81 l -54,27 -54,54 -26.9,81 -27,108 -27,54 -54,27 h -54 l -54,-27 -27,-81 v -108 m 0,540 27,-81 54,-27 h 54 l 54,27 27,54 27,107.9 26.9,81 54,54 54,27 h 81 l 54,-27 27,-27 27,-81 V 12940 l -27,-81 -27,-27 -54,-27 h -81 l -54,27 -54,54 -26.9,81 -27,107.9 -27,54 -54,27 h -54 l -54,-27 -27,-81 V 12940 m 135,431.9 h -27 l -54,27 -27,27 -27,54 v 108 l 27,54 27,27 54,27 h 54 l 54,-27 80.9,-54 270,-270 v 378 m -54,188.9 27,-27 27,27 -27,27 m -539.9,378 27,-81 81,-54 135,-27 h 80.9 l 135,27 81,54 27,81 v 54 l -27,81 -81,54 -135,27 h -80.9 l -135,-27 -81,-54 -27,-81 v -54 m 0,539.9 27,-81 81,-54 135,-27 h 80.9 l 135,27 81,54 27,81 v 54 l -27,81 -81,54 -135,27 h -80.9 l -135,-27 -81,-54 -27,-81 v -54 M 3968.96,10112.5 h 5669.3 m -5669.3,0 28.35,8.5 m 0,-17 -28.35,8.5 m 5669.3,0 -28.35,-8.5 m 0,17 28.35,-8.5 m -5669.3,-521.07 v 662.87 m 5669.3,-662.87 v 662.87 m -4292.47,346.9 v 27 l 27,54 27,27 53.99,27 h 107.99 l 53.99,-27 27,-27 26.99,-54 v -54 l -26.99,-54 -53.99,-81 -269.97,-270 h 377.95 m 323.96,567 -80.99,-27 -53.99,-81 -27,-135 v -81 l 27,-135 53.99,-81 80.99,-27 h 53.99 l 80.99,27 54,81 26.99,135 v 81 l -26.99,135 -54,81 -80.99,27 h -53.99 m 539.93,0 -80.99,-27 -53.99,-81 -27,-135 v -81 l 27,-135 53.99,-81 80.99,-27 h 54 l 80.99,27 53.99,81 27,135 v 81 l -27,135 -53.99,81 -80.99,27 h -54 m 404.95,-513 -27,-27 27,-27 27,27 m 377.95,540 -80.99,-27 -53.99,-81 -27,-135 v -81 l 27,-135 53.99,-81 80.99,-27 h 54 l 80.98,27 54,81 27,135 v 81 l -27,135 -54,81 -80.98,27 h -54 m 539.93,0 -80.99,-27 -53.99,-81 -27,-135 v -81 l 27,-135 53.99,-81 80.99,-27 h 54 l 80.99,27 53.99,81 27,135 v 81 l -27,135 -53.99,81 -80.99,27 h -54 m 558.8,-1380.04 v 8787.44 m 0,-8787.44 -8.5,28.34 m 17,0 -8.5,-28.34 m 0,8787.44 8.5,-28.4 m -17,0 8.5,28.4 m 573.71,-8787.44 h -715.44 m 715.44,8787.44 H 8327.54 M 7845.64,12373 v 297 l 215.98,-162 v 81 l 27,54 26.99,27 80.99,27 h 53.99 l 81,-27 53.99,-54 26.99,-81 v -81 l -26.99,-81 -27,-27 -53.99,-27 m -350.96,540 -26.99,54 -81,81 h 566.93 m -566.93,458.9 27,-81 80.99,-54 134.99,-27 h 80.99 l 134.98,27 80.99,54 26.99,81 v 54 l -26.99,81 -80.99,54 -134.98,27 h -80.99 l -134.99,-27 -80.99,-54 -27,-81 v -54 m 512.94,404.9 27,-27 26.99,27 -26.99,27 m -539.94,378 27,-81 80.99,-54 134.99,-27 h 80.99 l 134.98,27 80.99,54 26.99,81 v 54 l -26.99,81 -80.99,54 -134.98,27 h -80.99 l -134.99,-27 -80.99,-54 -27,-81 v -54 m 0,539.9 27,-81 80.99,-54 134.99,-27 h 80.99 l 134.98,27 80.99,54 26.99,81 v 54 l -26.99,81 -80.99,54 -134.98,27 h -80.99 l -134.99,-27 -80.99,-54 -27,-81 v -54 M 8456.99,9356.16 V 5387.65 m 0,3968.51 8.51,-28.35 m -17.01,0 8.5,28.35 m 0,-3968.51 -8.5,28.35 m 17.01,0 -8.51,-28.35 m 585.99,3968.51 h -727.72 m 727.72,-3968.51 h -727.72 m -373.9,553.43 -27,54 -80.99,80.99 H 8400.3 M 7833.37,6643 8211.32,6373.03 v 404.95 M 7833.37,6643 h 566.93 m -566.93,431.94 27,-80.99 80.99,-53.99 134.98,-27 h 80.99 l 134.98,27 80.99,53.99 27,80.99 v 53.99 l -27,81 -80.99,53.99 -134.98,26.99 h -80.99 l -134.98,-26.99 -80.99,-53.99 -27,-81 v -53.99 m 512.93,404.95 27,-27 27,27 -27,27 m -539.93,377.95 27,-80.99 80.99,-53.99 134.98,-27 h 80.99 l 134.98,27 80.99,53.99 27,80.99 v 54 l -27,80.98 -80.99,54 -134.98,26.99 h -80.99 l -134.98,-26.99 -80.99,-54 -27,-80.98 v -54 m 0,539.93 27,-80.98 80.99,-54 134.98,-27 h 80.99 l 134.98,27 80.99,54 27,80.98 v 54 l -27,80.99 -80.99,53.99 -134.98,27 h -80.99 l -134.98,-27 -80.99,-53.99 -27,-80.99 z"
       style="fill:none;stroke:#231f20;stroke-width:2.16;stroke-linecap:butt;stroke-linejoin:miter;stroke-miterlimit:2.6131;stroke-dasharray:none;stroke-opacity:1"
       transform="matrix(0.13333333,0,0,-0.13333333,0,4037.3333)" />
  </g>
</svg>
