<?xml version="1.0" encoding="UTF-8" standalone="no"?>
<!-- Created with Inkscape (http://www.inkscape.org/) -->

<svg
   version="1.1"
   id="svg1"
   width="1407.874"
   height="895.74805"
   viewBox="0 0 1407.874 895.74805"
   sodipodi:docname="model.pdf"
   xmlns:inkscape="http://www.inkscape.org/namespaces/inkscape"
   xmlns:sodipodi="http://sodipodi.sourceforge.net/DTD/sodipodi-0.dtd"
   xmlns="http://www.w3.org/2000/svg"
   xmlns:svg="http://www.w3.org/2000/svg">
  <defs
     id="defs1" />
  <sodipodi:namedview
     id="namedview1"
     pagecolor="#ffffff"
     bordercolor="#000000"
     borderopacity="0.25"
     inkscape:showpageshadow="2"
     inkscape:pageopacity="0.0"
     inkscape:pagecheckerboard="0"
     inkscape:deskcolor="#d1d1d1">
    <inkscape:page
       x="0"
       y="0"
       inkscape:label="1"
       id="page1"
       width="1407.874"
       height="895.74805"
       margin="0"
       bleed="0" />
  </sodipodi:namedview>
  <g
     id="g1"
     inkscape:groupmode="layer"
     inkscape:label="1">
    <path
       id="path1"
       d="M 929.05512,549.2126 V 122.59843"
       style="fill:none;stroke:#00a650;stroke-width:1;stroke-linecap:butt;stroke-linejoin:miter;stroke-miterlimit:10;stroke-dasharray:none;stroke-opacity:1"
       transform="matrix(-1.3333333,0,0,-1.3333333,1407.874,895.74803)" />
    <path
       id="path2"
       d="M 814.96063,549.2126 V 480.94488"
       style="fill:none;stroke:#00a650;stroke-width:1;stroke-linecap:butt;stroke-linejoin:miter;stroke-miterlimit:10;stroke-dasharray:none;stroke-opacity:1"
       transform="matrix(1.3333333,0,0,-1.3333333,-765.35433,895.74803)" />
    <path
       id="path3"
       d="M 814.96063,404.17323 V 267.6378"
       style="fill:none;stroke:#00a650;stroke-width:1;stroke-linecap:butt;stroke-linejoin:miter;stroke-miterlimit:10;stroke-dasharray:none;stroke-opacity:1"
       transform="matrix(1.3333333,0,0,-1.3333333,-765.35433,895.74803)" />
    <path
       id="path4"
       d="m 814.96063,122.59843 v 68.26771"
       style="fill:none;stroke:#00a650;stroke-width:1;stroke-linecap:butt;stroke-linejoin:miter;stroke-miterlimit:10;stroke-dasharray:none;stroke-opacity:1"
       transform="matrix(1.3333333,0,0,-1.3333333,-765.35433,895.74803)" />
    <path
       id="path5"
       d="m 814.96063,480.94488 5.66929,-2.83464 v -71.10237 l -5.66929,-2.83464"
       style="fill:none;stroke:#ed1c24;stroke-width:1;stroke-linecap:butt;stroke-linejoin:miter;stroke-miterlimit:10;stroke-dasharray:none;stroke-opacity:1"
       transform="matrix(1.3333333,0,0,-1.3333333,-765.35433,895.74803)" />
    <path
       id="path6"
       d="m 814.96063,190.86614 5.66929,2.83465 v 71.10236 l -5.66929,2.83465"
       style="fill:none;stroke:#ed1c24;stroke-width:1;stroke-linecap:butt;stroke-linejoin:miter;stroke-miterlimit:10;stroke-dasharray:none;stroke-opacity:1"
       transform="matrix(1.3333333,0,0,-1.3333333,-765.35433,895.74803)" />
    <path
       id="path7"
       d="M 813.54331,122.59843 H 929.05512"
       style="fill:none;stroke:#ed1c24;stroke-width:1;stroke-linecap:butt;stroke-linejoin:miter;stroke-miterlimit:10;stroke-dasharray:none;stroke-opacity:1"
       transform="matrix(-1.3333333,0,0,-1.3333333,1407.874,895.74803)" />
    <path
       id="path8"
       d="M 813.54331,549.2126 H 929.05512"
       style="fill:none;stroke:#ed1c24;stroke-width:1;stroke-linecap:butt;stroke-linejoin:miter;stroke-miterlimit:10;stroke-dasharray:none;stroke-opacity:1"
       transform="matrix(-1.3333333,0,0,-1.3333333,1407.874,895.74803)" />
    <path
       id="path9"
       d="m 929.05512,122.59843 2.83464,2.83464 h 109.84254 v 68.26772 l 5.6693,2.83464 v 65.43307 l -5.6693,2.83465 v 142.20472 l 5.6693,2.83465 v 65.43307 l -5.6693,2.83465 v 68.26771 H 931.88976 l -2.83464,2.83465"
       style="fill:none;stroke:#ed1c24;stroke-width:1;stroke-linecap:butt;stroke-linejoin:miter;stroke-miterlimit:10;stroke-dasharray:none;stroke-opacity:1"
       transform="matrix(-1.3333333,0,0,-1.3333333,1407.874,895.74803)" />
    <path
       id="path10"
       d="M 929.05512,549.2126 V 122.59843"
       style="fill:none;stroke:#00a650;stroke-width:1;stroke-linecap:butt;stroke-linejoin:miter;stroke-miterlimit:10;stroke-dasharray:none;stroke-opacity:1"
       transform="matrix(1.3333333,0,0,-1.3333333,0,895.74803)" />
    <path
       id="path11"
       d="M 814.96063,549.2126 V 480.94488"
       style="fill:none;stroke:#00a650;stroke-width:1;stroke-linecap:butt;stroke-linejoin:miter;stroke-miterlimit:10;stroke-dasharray:none;stroke-opacity:1"
       transform="matrix(-1.3333333,0,0,-1.3333333,2173.2283,895.74803)" />
    <path
       id="path12"
       d="M 814.96063,404.17323 V 267.6378"
       style="fill:none;stroke:#00a650;stroke-width:1;stroke-linecap:butt;stroke-linejoin:miter;stroke-miterlimit:10;stroke-dasharray:none;stroke-opacity:1"
       transform="matrix(-1.3333333,0,0,-1.3333333,2173.2283,895.74803)" />
    <path
       id="path13"
       d="m 814.96063,122.59843 v 68.26771"
       style="fill:none;stroke:#00a650;stroke-width:1;stroke-linecap:butt;stroke-linejoin:miter;stroke-miterlimit:10;stroke-dasharray:none;stroke-opacity:1"
       transform="matrix(-1.3333333,0,0,-1.3333333,2173.2283,895.74803)" />
    <path
       id="path14"
       d="m 814.96063,480.94488 5.66929,-2.83464 v -71.10237 l -5.66929,-2.83464"
       style="fill:none;stroke:#ed1c24;stroke-width:1;stroke-linecap:butt;stroke-linejoin:miter;stroke-miterlimit:10;stroke-dasharray:none;stroke-opacity:1"
       transform="matrix(-1.3333333,0,0,-1.3333333,2173.2283,895.74803)" />
    <path
       id="path15"
       d="m 814.96063,190.86614 5.66929,2.83465 v 71.10236 l -5.66929,2.83465"
       style="fill:none;stroke:#ed1c24;stroke-width:1;stroke-linecap:butt;stroke-linejoin:miter;stroke-miterlimit:10;stroke-dasharray:none;stroke-opacity:1"
       transform="matrix(-1.3333333,0,0,-1.3333333,2173.2283,895.74803)" />
    <path
       id="path16"
       d="M 813.54331,122.59843 H 929.05512"
       style="fill:none;stroke:#ed1c24;stroke-width:1;stroke-linecap:butt;stroke-linejoin:miter;stroke-miterlimit:10;stroke-dasharray:none;stroke-opacity:1"
       transform="matrix(1.3333333,0,0,-1.3333333,0,895.74803)" />
    <path
       id="path17"
       d="M 813.54331,549.2126 H 929.05512"
       style="fill:none;stroke:#ed1c24;stroke-width:1;stroke-linecap:butt;stroke-linejoin:miter;stroke-miterlimit:10;stroke-dasharray:none;stroke-opacity:1"
       transform="matrix(1.3333333,0,0,-1.3333333,0,895.74803)" />
    <path
       id="path18"
       d="m 929.05512,122.59843 2.83464,2.83464 h 109.84254 v 68.26772 l 5.6693,2.83464 v 65.43307 l -5.6693,2.83465 v 142.20472 l 5.6693,2.83465 v 65.43307 l -5.6693,2.83465 v 68.26771 H 931.88976 l -2.83464,2.83465"
       style="fill:none;stroke:#ed1c24;stroke-width:1;stroke-linecap:butt;stroke-linejoin:miter;stroke-miterlimit:10;stroke-dasharray:none;stroke-opacity:1"
       transform="matrix(1.3333333,0,0,-1.3333333,0,895.74803)" />
    <path
       id="path19"
       d="M 242.3622,549.2126 H 813.54331"
       style="fill:none;stroke:#00a650;stroke-width:1;stroke-linecap:butt;stroke-linejoin:miter;stroke-miterlimit:10;stroke-dasharray:none;stroke-opacity:1"
       transform="matrix(1.3333333,0,0,-1.3333333,0,895.74803)" />
    <path
       id="path20"
       d="M 242.3622,549.2126 V 663.30709"
       style="fill:none;stroke:#00a650;stroke-width:1;stroke-linecap:butt;stroke-linejoin:miter;stroke-miterlimit:10;stroke-dasharray:none;stroke-opacity:1"
       transform="matrix(1.3333333,0,0,-1.3333333,0,895.74803)" />
    <path
       id="path21"
       d="M 813.54331,549.2126 V 663.30709"
       style="fill:none;stroke:#00a650;stroke-width:1;stroke-linecap:butt;stroke-linejoin:miter;stroke-miterlimit:10;stroke-dasharray:none;stroke-opacity:1"
       transform="matrix(1.3333333,0,0,-1.3333333,0,895.74803)" />
    <path
       id="path22"
       d="M 242.3622,663.30709 H 813.54331"
       style="fill:none;stroke:#ed1c24;stroke-width:1;stroke-linecap:butt;stroke-linejoin:miter;stroke-miterlimit:10;stroke-dasharray:none;stroke-opacity:1"
       transform="matrix(1.3333333,0,0,-1.3333333,0,895.74803)" />
    <path
       id="path23"
       d="m 813.54331,549.2126 22.67716,21.25984 118.52362,9.7508 v 81.66652 H 816.37795 l -2.83464,1.41733"
       style="fill:none;stroke:#ed1c24;stroke-width:1;stroke-linecap:butt;stroke-linejoin:miter;stroke-miterlimit:10;stroke-dasharray:none;stroke-opacity:1"
       transform="matrix(1.3333333,0,0,-1.3333333,0,895.74803)" />
    <path
       id="path24"
       d="m 239.52756,549.2126 22.67716,21.25984 118.52363,9.7508 v 81.66652 H 242.3622 l -2.83464,1.41733"
       style="fill:none;stroke:#ed1c24;stroke-width:1;stroke-linecap:butt;stroke-linejoin:miter;stroke-miterlimit:10;stroke-dasharray:none;stroke-opacity:1"
       transform="matrix(-1.3333333,0,0,-1.3333333,642.51968,895.74803)" />
    <path
       id="path25"
       d="M 242.3622,122.59843 H 813.54331"
       style="fill:none;stroke:#00a650;stroke-width:1;stroke-linecap:butt;stroke-linejoin:miter;stroke-miterlimit:10;stroke-dasharray:none;stroke-opacity:1"
       transform="matrix(1.3333333,0,0,-1.3333333,0,895.74803)" />
    <path
       id="path26"
       d="M 242.3622,122.59843 V 8.50394"
       style="fill:none;stroke:#00a650;stroke-width:1;stroke-linecap:butt;stroke-linejoin:miter;stroke-miterlimit:10;stroke-dasharray:none;stroke-opacity:1"
       transform="matrix(1.3333333,0,0,-1.3333333,0,895.74803)" />
    <path
       id="path27"
       d="M 813.54331,122.59843 V 8.50394"
       style="fill:none;stroke:#00a650;stroke-width:1;stroke-linecap:butt;stroke-linejoin:miter;stroke-miterlimit:10;stroke-dasharray:none;stroke-opacity:1"
       transform="matrix(1.3333333,0,0,-1.3333333,0,895.74803)" />
    <path
       id="path28"
       d="M 242.3622,8.50394 H 813.54331"
       style="fill:none;stroke:#ed1c24;stroke-width:1;stroke-linecap:butt;stroke-linejoin:miter;stroke-miterlimit:10;stroke-dasharray:none;stroke-opacity:1"
       transform="matrix(1.3333333,0,0,-1.3333333,0,895.74803)" />
    <path
       id="path29"
       d="m 813.54331,122.59843 22.67716,21.25984 118.52362,9.7508 v 81.66652 H 816.37795 l -2.83464,1.41732"
       style="fill:none;stroke:#ed1c24;stroke-width:1;stroke-linecap:butt;stroke-linejoin:miter;stroke-miterlimit:10;stroke-dasharray:none;stroke-opacity:1"
       transform="matrix(1.3333333,0,0,1.3333333,0,568.81889)" />
    <path
       id="path30"
       d="m 239.52756,122.59843 22.67716,21.25984 118.52363,9.7508 v 81.66652 H 242.3622 l -2.83464,1.41732"
       style="fill:none;stroke:#ed1c24;stroke-width:1;stroke-linecap:butt;stroke-linejoin:miter;stroke-miterlimit:10;stroke-dasharray:none;stroke-opacity:1"
       transform="matrix(-1.3333333,0,0,1.3333333,642.51968,568.81889)" />
    
  </g>
</svg>
