<?xml version="1.0" encoding="UTF-8" standalone="no"?>
<!-- Created with Inkscape (http://www.inkscape.org/) -->

<svg
   version="1.1"
   id="svg1"
   width="1521.2598"
   height="1328.5039"
   viewBox="0 0 1521.2598 1328.5039"
   sodipodi:docname="model.pdf"
   xmlns:inkscape="http://www.inkscape.org/namespaces/inkscape"
   xmlns:sodipodi="http://sodipodi.sourceforge.net/DTD/sodipodi-0.dtd"
   xmlns="http://www.w3.org/2000/svg"
   xmlns:svg="http://www.w3.org/2000/svg">
  <defs
     id="defs1" />
  <sodipodi:namedview
     id="namedview1"
     pagecolor="#ffffff"
     bordercolor="#000000"
     borderopacity="0.25"
     inkscape:showpageshadow="2"
     inkscape:pageopacity="0.0"
     inkscape:pagecheckerboard="0"
     inkscape:deskcolor="#d1d1d1">
    <inkscape:page
       x="0"
       y="0"
       inkscape:label="1"
       id="page1"
       width="1521.2598"
       height="1328.5039"
       margin="0"
       bleed="0" />
  </sodipodi:namedview>
  <g
     id="g1"
     inkscape:groupmode="layer"
     inkscape:label="1">
    <path
       id="path1"
       d="M 283.46457,712.91339 V 283.46457"
       style="fill:none;stroke:#00a650;stroke-width:1;stroke-linecap:butt;stroke-linejoin:miter;stroke-miterlimit:10;stroke-dasharray:none;stroke-opacity:1"
       transform="matrix(1.3333333,0,0,-1.3333333,0,1328.5039)" />
    <path
       id="path2"
       d="M 167.95276,711.49606 V 284.88189"
       style="fill:none;stroke:#00a650;stroke-width:1;stroke-linecap:butt;stroke-linejoin:miter;stroke-miterlimit:10;stroke-dasharray:none;stroke-opacity:1"
       transform="matrix(1.3333333,0,0,-1.3333333,0,1328.5039)" />
    <path
       id="path3"
       d="M 284.88189,712.91339 H 169.37008"
       style="fill:none;stroke:#ed1c24;stroke-width:1;stroke-linecap:butt;stroke-linejoin:miter;stroke-miterlimit:10;stroke-dasharray:none;stroke-opacity:1"
       transform="matrix(1.3333333,0,0,-1.3333333,0,1328.5039)" />
    <path
       id="path4"
       d="M 284.88189,283.46457 H 169.37008"
       style="fill:none;stroke:#ed1c24;stroke-width:1;stroke-linecap:butt;stroke-linejoin:miter;stroke-miterlimit:10;stroke-dasharray:none;stroke-opacity:1"
       transform="matrix(1.3333333,0,0,-1.3333333,0,1328.5039)" />
    <path
       id="path5"
       d="M 172.20472,398.97638 H 595.98425"
       style="fill:none;stroke:#00a650;stroke-width:1;stroke-linecap:butt;stroke-linejoin:miter;stroke-miterlimit:10;stroke-dasharray:none;stroke-opacity:1"
       transform="matrix(0,-1.3333333,-1.3333333,0,603.77953,1176.3779)" />
    <path
       id="path6"
       d="m 169.37008,283.46457 2.83464,2.83464 v 112.67717 l 45.35434,45.35433 h 333.07086 l 45.35433,-45.35433 V 286.29921 l 2.83465,-2.83464"
       style="fill:none;stroke:#ed1c24;stroke-width:1;stroke-linecap:butt;stroke-linejoin:miter;stroke-miterlimit:10;stroke-dasharray:none;stroke-opacity:1"
       transform="matrix(0,-1.3333333,-1.3333333,0,603.77953,1176.3779)" />
    <path
       id="path7"
       d="M 283.46457,712.91339 V 283.46457"
       style="fill:none;stroke:#00a650;stroke-width:1;stroke-linecap:butt;stroke-linejoin:miter;stroke-miterlimit:10;stroke-dasharray:none;stroke-opacity:1"
       transform="matrix(-1.3333333,0,0,-1.3333333,1521.2598,1328.5039)" />
    <path
       id="path8"
       d="M 167.95276,711.49606 V 284.88189"
       style="fill:none;stroke:#00a650;stroke-width:1;stroke-linecap:butt;stroke-linejoin:miter;stroke-miterlimit:10;stroke-dasharray:none;stroke-opacity:1"
       transform="matrix(-1.3333333,0,0,-1.3333333,1521.2598,1328.5039)" />
    <path
       id="path9"
       d="M 284.88189,712.91339 H 169.37008"
       style="fill:none;stroke:#ed1c24;stroke-width:1;stroke-linecap:butt;stroke-linejoin:miter;stroke-miterlimit:10;stroke-dasharray:none;stroke-opacity:1"
       transform="matrix(-1.3333333,0,0,-1.3333333,1521.2598,1328.5039)" />
    <path
       id="path10"
       d="M 284.88189,283.46457 H 169.37008"
       style="fill:none;stroke:#ed1c24;stroke-width:1;stroke-linecap:butt;stroke-linejoin:miter;stroke-miterlimit:10;stroke-dasharray:none;stroke-opacity:1"
       transform="matrix(-1.3333333,0,0,-1.3333333,1521.2598,1328.5039)" />
    <path
       id="path11"
       d="M 172.20472,398.97638 H 595.98425"
       style="fill:none;stroke:#00a650;stroke-width:1;stroke-linecap:butt;stroke-linejoin:miter;stroke-miterlimit:10;stroke-dasharray:none;stroke-opacity:1"
       transform="matrix(0,-1.3333333,1.3333333,0,917.48031,1176.3779)" />
    <path
       id="path12"
       d="m 169.37008,283.46457 2.83464,2.83464 v 112.67717 l 45.35434,45.35433 h 333.07086 l 45.35433,-45.35433 V 286.29921 l 2.83465,-2.83464"
       style="fill:none;stroke:#ed1c24;stroke-width:1;stroke-linecap:butt;stroke-linejoin:miter;stroke-miterlimit:10;stroke-dasharray:none;stroke-opacity:1"
       transform="matrix(0,-1.3333333,1.3333333,0,917.48031,1176.3779)" />
    <path
       id="path13"
       d="m 284.88189,712.91339 h 571.1811"
       style="fill:none;stroke:#00a650;stroke-width:1;stroke-linecap:butt;stroke-linejoin:miter;stroke-miterlimit:10;stroke-dasharray:none;stroke-opacity:1"
       transform="matrix(1.3333333,0,0,-1.3333333,0,1328.5039)" />
    <path
       id="path14"
       d="M 286.29921,828.4252 H 854.64567"
       style="fill:none;stroke:#00a650;stroke-width:1;stroke-linecap:butt;stroke-linejoin:miter;stroke-miterlimit:10;stroke-dasharray:none;stroke-opacity:1"
       transform="matrix(1.3333333,0,0,-1.3333333,0,1328.5039)" />
    <path
       id="path15"
       d="M 284.88189,712.91339 V 827.00787"
       style="fill:none;stroke:#00a650;stroke-width:1;stroke-linecap:butt;stroke-linejoin:miter;stroke-miterlimit:10;stroke-dasharray:none;stroke-opacity:1"
       transform="matrix(1.3333333,0,0,-1.3333333,0,1328.5039)" />
    <path
       id="path16"
       d="M 856.06299,712.91339 V 827.00787"
       style="fill:none;stroke:#00a650;stroke-width:1;stroke-linecap:butt;stroke-linejoin:miter;stroke-miterlimit:10;stroke-dasharray:none;stroke-opacity:1"
       transform="matrix(1.3333333,0,0,-1.3333333,0,1328.5039)" />
    <path
       id="path17"
       d="M 287.71654,942.51969 H 853.22835"
       style="fill:none;stroke:#00a650;stroke-width:1;stroke-linecap:butt;stroke-linejoin:miter;stroke-miterlimit:10;stroke-dasharray:none;stroke-opacity:1"
       transform="matrix(1.3333333,0,0,-1.3333333,0,1328.5039)" />
    <path
       id="path18"
       d="m 284.88189,827.00787 2.83465,2.83465 v 112.67717 l 45.35433,45.35433 h 474.80315 l 45.35433,-45.35433 V 829.84252 l 2.83464,-2.83465"
       style="fill:none;stroke:#ed1c24;stroke-width:1;stroke-linecap:butt;stroke-linejoin:miter;stroke-miterlimit:10;stroke-dasharray:none;stroke-opacity:1"
       transform="matrix(1.3333333,0,0,-1.3333333,0,1328.5039)" />
    <path
       id="path19"
       d="m 856.06299,827.00787 1.41732,-1.41732 H 971.5748 V 712.91339"
       style="fill:none;stroke:#ed1c24;stroke-width:1;stroke-linecap:butt;stroke-linejoin:miter;stroke-miterlimit:10;stroke-dasharray:none;stroke-opacity:1"
       transform="matrix(1.3333333,0,0,-1.3333333,0,1328.5039)" />
    <path
       id="path20"
       d="m 284.88189,827.00787 1.41732,-1.41732 H 400.3937 V 712.91339"
       style="fill:none;stroke:#ed1c24;stroke-width:1;stroke-linecap:butt;stroke-linejoin:miter;stroke-miterlimit:10;stroke-dasharray:none;stroke-opacity:1"
       transform="matrix(-1.3333333,0,0,-1.3333333,759.68504,1328.5039)" />
    <path
       id="path21"
       d="m 284.88189,712.91339 h 571.1811"
       style="fill:none;stroke:#00a650;stroke-width:1;stroke-linecap:butt;stroke-linejoin:miter;stroke-miterlimit:10;stroke-dasharray:none;stroke-opacity:1"
       transform="scale(1.3333333)" />
    <path
       id="path22"
       d="M 286.29921,828.4252 H 854.64567"
       style="fill:none;stroke:#00a650;stroke-width:1;stroke-linecap:butt;stroke-linejoin:miter;stroke-miterlimit:10;stroke-dasharray:none;stroke-opacity:1"
       transform="scale(1.3333333)" />
    <path
       id="path23"
       d="M 284.88189,712.91339 V 827.00787"
       style="fill:none;stroke:#00a650;stroke-width:1;stroke-linecap:butt;stroke-linejoin:miter;stroke-miterlimit:10;stroke-dasharray:none;stroke-opacity:1"
       transform="scale(1.3333333)" />
    <path
       id="path24"
       d="M 856.06299,712.91339 V 827.00787"
       style="fill:none;stroke:#00a650;stroke-width:1;stroke-linecap:butt;stroke-linejoin:miter;stroke-miterlimit:10;stroke-dasharray:none;stroke-opacity:1"
       transform="scale(1.3333333)" />
    <path
       id="path25"
       d="M 287.71654,942.51969 H 853.22835"
       style="fill:none;stroke:#00a650;stroke-width:1;stroke-linecap:butt;stroke-linejoin:miter;stroke-miterlimit:10;stroke-dasharray:none;stroke-opacity:1"
       transform="scale(1.3333333)" />
    <path
       id="path26"
       d="m 284.88189,827.00787 2.83465,2.83465 v 112.67717 l 45.35433,45.35433 h 474.80315 l 45.35433,-45.35433 V 829.84252 l 2.83464,-2.83465"
       style="fill:none;stroke:#ed1c24;stroke-width:1;stroke-linecap:butt;stroke-linejoin:miter;stroke-miterlimit:10;stroke-dasharray:none;stroke-opacity:1"
       transform="scale(1.3333333)" />
    <path
       id="path27"
       d="m 856.06299,827.00787 1.41732,-1.41732 H 971.5748 V 712.91339"
       style="fill:none;stroke:#ed1c24;stroke-width:1;stroke-linecap:butt;stroke-linejoin:miter;stroke-miterlimit:10;stroke-dasharray:none;stroke-opacity:1"
       transform="scale(1.3333333)" />
    <path
       id="path28"
       d="m 284.88189,827.00787 1.41732,-1.41732 H 400.3937 V 712.91339"
       style="fill:none;stroke:#ed1c24;stroke-width:1;stroke-linecap:butt;stroke-linejoin:miter;stroke-miterlimit:10;stroke-dasharray:none;stroke-opacity:1"
       transform="matrix(-1.3333333,0,0,1.3333333,759.68504,0)" />
    
  </g>
</svg>
