<?xml version="1.0" encoding="UTF-8" standalone="no"?>
<!-- Created with Inkscape (http://www.inkscape.org/) -->

<svg
   version="1.1"
   id="svg1"
   width="989.29132"
   height="987.40155"
   viewBox="0 0 989.29132 987.40155"
   sodipodi:docname="model.pdf"
   xmlns:inkscape="http://www.inkscape.org/namespaces/inkscape"
   xmlns:sodipodi="http://sodipodi.sourceforge.net/DTD/sodipodi-0.dtd"
   xmlns="http://www.w3.org/2000/svg"
   xmlns:svg="http://www.w3.org/2000/svg">
  <defs
     id="defs1" />
  <sodipodi:namedview
     id="namedview1"
     pagecolor="#ffffff"
     bordercolor="#000000"
     borderopacity="0.25"
     inkscape:showpageshadow="2"
     inkscape:pageopacity="0.0"
     inkscape:pagecheckerboard="0"
     inkscape:deskcolor="#d1d1d1">
    <inkscape:page
       x="0"
       y="0"
       inkscape:label="1"
       id="page1"
       width="989.29132"
       height="987.40155"
       margin="0"
       bleed="0" />
  </sodipodi:namedview>
  <g
     id="g1"
     inkscape:groupmode="layer"
     inkscape:label="1">
    <path
       id="path1"
       d="M 272.12598,462.75591 V 121.1811"
       style="fill:none;stroke:#00a650;stroke-width:1;stroke-linecap:butt;stroke-linejoin:miter;stroke-miterlimit:10;stroke-dasharray:none;stroke-opacity:1"
       transform="matrix(1.3333333,0,0,-1.3333333,0,987.40157)" />
    <path
       id="path2"
       d="M 389.76378,462.75591 V 121.1811"
       style="fill:none;stroke:#00a650;stroke-width:1;stroke-linecap:butt;stroke-linejoin:miter;stroke-miterlimit:10;stroke-dasharray:none;stroke-opacity:1"
       transform="matrix(1.3333333,0,0,-1.3333333,0,987.40157)" />
    <path
       id="path3"
       d="M 617.95276,462.75591 V 121.1811"
       style="fill:none;stroke:#00a650;stroke-width:1;stroke-linecap:butt;stroke-linejoin:miter;stroke-miterlimit:10;stroke-dasharray:none;stroke-opacity:1"
       transform="matrix(1.3333333,0,0,-1.3333333,0,987.40157)" />
    <path
       id="path4"
       d="M 733.46457,462.75591 V 121.1811"
       style="fill:none;stroke:#ed1c24;stroke-width:1;stroke-linecap:butt;stroke-linejoin:miter;stroke-miterlimit:10;stroke-dasharray:none;stroke-opacity:1"
       transform="matrix(1.3333333,0,0,-1.3333333,0,987.40157)" />
    <path
       id="path5"
       d="M 43.93701,462.75591 V 121.1811"
       style="fill:none;stroke:#00a650;stroke-width:1;stroke-linecap:butt;stroke-linejoin:miter;stroke-miterlimit:10;stroke-dasharray:none;stroke-opacity:1"
       transform="matrix(1.3333333,0,0,-1.3333333,0,987.40157)" />
    <path
       id="path6"
       d="M 43.93701,462.75591 8.50394,453.26164 V 130.67537 l 35.43307,-9.49427"
       style="fill:none;stroke:#ed1c24;stroke-width:1;stroke-linecap:butt;stroke-linejoin:miter;stroke-miterlimit:10;stroke-dasharray:none;stroke-opacity:1"
       transform="matrix(1.3333333,0,0,-1.3333333,0,987.40157)" />
    <path
       id="path7"
       d="M 45.29528,119.76378 H 270.76772"
       style="fill:none;stroke:#00a650;stroke-width:1;stroke-linecap:butt;stroke-linejoin:miter;stroke-miterlimit:10;stroke-dasharray:none;stroke-opacity:1"
       transform="matrix(1.3333333,0,0,-1.3333333,0,987.40157)" />
    <path
       id="path8"
       d="M 272.12598,121.1811 H 733.46457"
       style="fill:none;stroke:#00a650;stroke-width:1;stroke-linecap:butt;stroke-linejoin:miter;stroke-miterlimit:10;stroke-dasharray:none;stroke-opacity:1"
       transform="matrix(1.3333333,0,0,-1.3333333,0,987.40157)" />
    <path
       id="path9"
       d="m 43.93701,121.1811 57.7559,-60.23622 V 45.25984 c 0,-3.51121 4.33131,-7.84252 7.84252,-7.84252 h 96.99213 c 4.3313,0 7.84252,4.33131 7.84252,7.84252 v 15.68504 l 57.7559,60.23622"
       style="fill:none;stroke:#ed1c24;stroke-width:1;stroke-linecap:butt;stroke-linejoin:miter;stroke-miterlimit:10;stroke-dasharray:none;stroke-opacity:1"
       transform="matrix(1.3333333,0,0,-1.3333333,0,987.40157)" />
    <path
       id="path10"
       d="M 272.12598,121.1811 274.96063,8.50394 h 47.11393"
       style="fill:none;stroke:#ed1c24;stroke-width:1;stroke-linecap:butt;stroke-linejoin:miter;stroke-miterlimit:10;stroke-dasharray:none;stroke-opacity:1"
       transform="matrix(1.3333333,0,0,-1.3333333,0,987.40157)" />
    <path
       id="path11"
       d="m 322.07456,8.50394 c 6.12303,0 12.07496,2.0204 16.93268,5.74787 4.85772,3.72746 8.34976,8.95366 9.93451,14.86805 1.58476,5.91438 1.17367,12.18642 -1.16951,17.84336 -2.34318,5.65694 -6.4875,10.38263 -11.7902,13.44414"
       style="fill:none;stroke:#ed1c24;stroke-width:1;stroke-linecap:butt;stroke-linejoin:miter;stroke-miterlimit:10;stroke-dasharray:none;stroke-opacity:1"
       transform="matrix(1.3333333,0,0,-1.3333333,0,987.40157)" />
    <path
       id="path12"
       d="m 335.98204,60.40736 -6.45448,3.7265 60.23622,57.04724"
       style="fill:none;stroke:#ed1c24;stroke-width:1;stroke-linecap:butt;stroke-linejoin:miter;stroke-miterlimit:10;stroke-dasharray:none;stroke-opacity:1"
       transform="matrix(1.3333333,0,0,-1.3333333,0,987.40157)" />
    <path
       id="path13"
       d="m 389.76378,121.1811 2.83465,-82.34645 h 52.98126 l 1.23133,23.52755 h 114.09449 l 1.23134,-23.52755 h 52.98126 l 2.83465,82.34645"
       style="fill:none;stroke:#ed1c24;stroke-width:1;stroke-linecap:butt;stroke-linejoin:miter;stroke-miterlimit:10;stroke-dasharray:none;stroke-opacity:1"
       transform="matrix(1.3333333,0,0,-1.3333333,0,987.40157)" />
    <path
       id="path14"
       d="M 733.46457,121.1811 734.17323,8.50394 h 48.17692"
       style="fill:none;stroke:#ed1c24;stroke-width:1;stroke-linecap:butt;stroke-linejoin:miter;stroke-miterlimit:10;stroke-dasharray:none;stroke-opacity:1"
       transform="matrix(-1.3333333,0,0,-1.3333333,1955.9055,987.40157)" />
    <path
       id="path15"
       d="m 782.35015,8.50394 c 6.12303,0 12.07496,2.0204 16.93268,5.74787 4.85772,3.72746 8.34976,8.95366 9.93451,14.86805 1.58476,5.91438 1.17367,12.18642 -1.16951,17.84336 -2.34318,5.65694 -6.4875,10.38263 -11.7902,13.44414"
       style="fill:none;stroke:#ed1c24;stroke-width:1;stroke-linecap:butt;stroke-linejoin:miter;stroke-miterlimit:10;stroke-dasharray:none;stroke-opacity:1"
       transform="matrix(-1.3333333,0,0,-1.3333333,1955.9055,987.40157)" />
    <path
       id="path16"
       d="m 796.25763,60.40736 -6.45448,3.7265 59.17323,57.04724"
       style="fill:none;stroke:#ed1c24;stroke-width:1;stroke-linecap:butt;stroke-linejoin:miter;stroke-miterlimit:10;stroke-dasharray:none;stroke-opacity:1"
       transform="matrix(-1.3333333,0,0,-1.3333333,1955.9055,987.40157)" />
    <path
       id="path17"
       d="M 43.93701,464.17323 H 272.12598"
       style="fill:none;stroke:#00a650;stroke-width:1;stroke-linecap:butt;stroke-linejoin:miter;stroke-miterlimit:10;stroke-dasharray:none;stroke-opacity:1"
       transform="matrix(1.3333333,0,0,-1.3333333,0,987.40157)" />
    <path
       id="path18"
       d="m 272.12598,462.75591 h 117.6378"
       style="fill:none;stroke:#00a650;stroke-width:1;stroke-linecap:butt;stroke-linejoin:miter;stroke-miterlimit:10;stroke-dasharray:none;stroke-opacity:1"
       transform="matrix(1.3333333,0,0,-1.3333333,0,987.40157)" />
    <path
       id="path19"
       d="M 617.95276,462.75591 H 733.46457"
       style="fill:none;stroke:#00a650;stroke-width:1;stroke-linecap:butt;stroke-linejoin:miter;stroke-miterlimit:10;stroke-dasharray:none;stroke-opacity:1"
       transform="matrix(1.3333333,0,0,-1.3333333,0,987.40157)" />
    <path
       id="path20"
       d="m 272.12598,462.75591 8.50394,8.50393 5.66929,66.25985 h 89.29134 l 5.66929,-66.25985 8.50394,-8.50393"
       style="fill:none;stroke:#ed1c24;stroke-width:1;stroke-linecap:butt;stroke-linejoin:miter;stroke-miterlimit:10;stroke-dasharray:none;stroke-opacity:1"
       transform="matrix(1.3333333,0,0,-1.3333333,0,987.40157)" />
    <path
       id="path21"
       d="m 733.46457,462.75591 8.50393,8.50393 5.6693,66.25985 h 87.16535 l 5.66929,-66.25985 8.50394,-8.50393"
       style="fill:none;stroke:#ed1c24;stroke-width:1;stroke-linecap:butt;stroke-linejoin:miter;stroke-miterlimit:10;stroke-dasharray:none;stroke-opacity:1"
       transform="matrix(-1.3333333,0,0,-1.3333333,1955.9055,987.40157)" />
    <path
       id="path22"
       d="M 43.93701,462.75591 V 578.97638"
       style="fill:none;stroke:#ed1c24;stroke-width:1;stroke-linecap:butt;stroke-linejoin:miter;stroke-miterlimit:10;stroke-dasharray:none;stroke-opacity:1"
       transform="matrix(1.3333333,0,0,-1.3333333,0,987.40157)" />
    <path
       id="path23"
       d="M 272.12598,462.75591 V 578.97638"
       style="fill:none;stroke:#ed1c24;stroke-width:1;stroke-linecap:butt;stroke-linejoin:miter;stroke-miterlimit:10;stroke-dasharray:none;stroke-opacity:1"
       transform="matrix(1.3333333,0,0,-1.3333333,0,987.40157)" />
    <path
       id="path24"
       d="M 45.49606,578.97638 H 270.56693"
       style="fill:none;stroke:#00a650;stroke-width:1;stroke-linecap:butt;stroke-linejoin:miter;stroke-miterlimit:10;stroke-dasharray:none;stroke-opacity:1"
       transform="matrix(1.3333333,0,0,-1.3333333,0,987.40157)" />
    <path
       id="path25"
       d="m 43.93701,578.97638 h 1.55905"
       style="fill:none;stroke:#ed1c24;stroke-width:1;stroke-linecap:butt;stroke-linejoin:miter;stroke-miterlimit:10;stroke-dasharray:none;stroke-opacity:1"
       transform="matrix(1.3333333,0,0,-1.3333333,0,987.40157)" />
    <path
       id="path26"
       d="m 270.56693,578.97638 h 1.55905"
       style="fill:none;stroke:#ed1c24;stroke-width:1;stroke-linecap:butt;stroke-linejoin:miter;stroke-miterlimit:10;stroke-dasharray:none;stroke-opacity:1"
       transform="matrix(1.3333333,0,0,-1.3333333,0,987.40157)" />
    <path
       id="path27"
       d="m 45.49606,578.97638 v 14.17323 c 0,9.78457 4.42914,14.76378 8.85827,17.71653 h 207.35433 c 4.42914,-2.95275 8.85827,-7.93196 8.85827,-17.71653 v -14.17323"
       style="fill:none;stroke:#ed1c24;stroke-width:1;stroke-linecap:butt;stroke-linejoin:miter;stroke-miterlimit:10;stroke-dasharray:none;stroke-opacity:1"
       transform="matrix(1.3333333,0,0,-1.3333333,0,987.40157)" />
    <path
       id="path28"
       d="M 389.76378,580.3937 H 617.95276"
       style="fill:none;stroke:#00a650;stroke-width:1;stroke-linecap:butt;stroke-linejoin:miter;stroke-miterlimit:10;stroke-dasharray:none;stroke-opacity:1"
       transform="matrix(1.3333333,0,0,-1.3333333,0,987.40157)" />
    <path
       id="path29"
       d="M 389.76378,462.75591 V 732.04724 H 617.95276 V 462.75591"
       style="fill:none;stroke:#ed1c24;stroke-width:1;stroke-linecap:butt;stroke-linejoin:miter;stroke-miterlimit:10;stroke-dasharray:none;stroke-opacity:1"
       transform="matrix(1.3333333,0,0,-1.3333333,0,987.40157)" />
    <path
       id="path30"
       d="m 503.85827,566.22047 c 7.82766,0 14.17323,-6.34557 14.17323,-14.17323 h 24.09448 c 3.91383,0 7.08662,-3.17278 7.08662,-7.08661 0,-3.91383 -3.17279,-7.08661 -7.08662,-7.08661 h -76.53543 c -3.91383,0 -7.08661,3.17278 -7.08661,7.08661 0,3.91383 3.17278,7.08661 7.08661,7.08661 h 24.09449 c 0,7.82766 6.34557,14.17323 14.17323,14.17323"
       style="fill:none;stroke:#ed1c24;stroke-width:1;stroke-linecap:butt;stroke-linejoin:miter;stroke-miterlimit:10;stroke-dasharray:none;stroke-opacity:1"
       transform="matrix(1.3333333,0,0,-1.3333333,0,987.40157)" />
    <path
       id="path31"
       d="m 503.85827,622.91339 c 7.82766,0 14.17323,-6.34557 14.17323,-14.17323 h 24.09448 c 3.91383,0 7.08662,-3.17279 7.08662,-7.08662 0,-3.91383 -3.17279,-7.08661 -7.08662,-7.08661 h -76.53543 c -3.91383,0 -7.08661,3.17278 -7.08661,7.08661 0,3.91383 3.17278,7.08662 7.08661,7.08662 h 24.09449 c 0,7.82766 6.34557,14.17323 14.17323,14.17323"
       style="fill:none;stroke:#ed1c24;stroke-width:1;stroke-linecap:butt;stroke-linejoin:miter;stroke-miterlimit:10;stroke-dasharray:none;stroke-opacity:1"
       transform="matrix(1.3333333,0,0,1.3333333,0,-635.90551)" />
  </g>
</svg>
