<?xml version="1.0" encoding="UTF-8" standalone="no"?>
<!-- Created with Inkscape (http://www.inkscape.org/) -->

<svg
   version="1.1"
   id="svg1"
   width="985.51178"
   height="873.07086"
   viewBox="0 0 985.51178 873.07086"
   sodipodi:docname="model.pdf"
   xmlns:inkscape="http://www.inkscape.org/namespaces/inkscape"
   xmlns:sodipodi="http://sodipodi.sourceforge.net/DTD/sodipodi-0.dtd"
   xmlns="http://www.w3.org/2000/svg"
   xmlns:svg="http://www.w3.org/2000/svg">
  <defs
     id="defs1" />
  <sodipodi:namedview
     id="namedview1"
     pagecolor="#ffffff"
     bordercolor="#000000"
     borderopacity="0.25"
     inkscape:showpageshadow="2"
     inkscape:pageopacity="0.0"
     inkscape:pagecheckerboard="0"
     inkscape:deskcolor="#d1d1d1">
    <inkscape:page
       x="0"
       y="0"
       inkscape:label="1"
       id="page1"
       width="985.51178"
       height="873.07086"
       margin="0"
       bleed="0" />
  </sodipodi:namedview>
  <g
     id="g1"
     inkscape:groupmode="layer"
     inkscape:label="1">
    <path
       id="path1"
       d="M 272.12598,498.18898 V 156.61417"
       style="fill:none;stroke:#00a650;stroke-width:1;stroke-linecap:butt;stroke-linejoin:miter;stroke-miterlimit:10;stroke-dasharray:none;stroke-opacity:1"
       transform="matrix(1.3333333,0,0,-1.3333333,0,873.07087)" />
    <path
       id="path2"
       d="M 388.34646,498.18898 V 156.61417"
       style="fill:none;stroke:#00a650;stroke-width:1;stroke-linecap:butt;stroke-linejoin:miter;stroke-miterlimit:10;stroke-dasharray:none;stroke-opacity:1"
       transform="matrix(1.3333333,0,0,-1.3333333,0,873.07087)" />
    <path
       id="path3"
       d="M 616.53543,498.18898 V 156.61417"
       style="fill:none;stroke:#00a650;stroke-width:1;stroke-linecap:butt;stroke-linejoin:miter;stroke-miterlimit:10;stroke-dasharray:none;stroke-opacity:1"
       transform="matrix(1.3333333,0,0,-1.3333333,0,873.07087)" />
    <path
       id="path4"
       d="M 730.62992,498.18898 V 496.77165 158.0315 156.61417"
       style="fill:none;stroke:#ed1c24;stroke-width:1;stroke-linecap:butt;stroke-linejoin:miter;stroke-miterlimit:10;stroke-dasharray:none;stroke-opacity:1"
       transform="matrix(1.3333333,0,0,-1.3333333,0,873.07087)" />
    <path
       id="path5"
       d="M 43.93701,498.18898 V 156.61417"
       style="fill:none;stroke:#00a650;stroke-width:1;stroke-linecap:butt;stroke-linejoin:miter;stroke-miterlimit:10;stroke-dasharray:none;stroke-opacity:1"
       transform="matrix(1.3333333,0,0,-1.3333333,0,873.07087)" />
    <path
       id="path6"
       d="M 43.93701,498.18898 8.50394,488.69471 V 166.10844 l 35.43307,-9.49427"
       style="fill:none;stroke:#ed1c24;stroke-width:1;stroke-linecap:butt;stroke-linejoin:miter;stroke-miterlimit:10;stroke-dasharray:none;stroke-opacity:1"
       transform="matrix(1.3333333,0,0,-1.3333333,0,873.07087)" />
    <path
       id="path7"
       d="M 274.25197,498.18898 H 388.34646"
       style="fill:none;stroke:#00a650;stroke-width:1;stroke-linecap:butt;stroke-linejoin:miter;stroke-miterlimit:10;stroke-dasharray:none;stroke-opacity:1"
       transform="scale(1.3333333)" />
    <path
       id="path8"
       d="M 388.34646,499.6063 H 616.53543"
       style="fill:none;stroke:#00a650;stroke-width:1;stroke-linecap:butt;stroke-linejoin:miter;stroke-miterlimit:10;stroke-dasharray:none;stroke-opacity:1"
       transform="scale(1.3333333)" />
    <path
       id="path9"
       d="M 616.53543,498.18898 H 730.62992"
       style="fill:none;stroke:#00a650;stroke-width:1;stroke-linecap:butt;stroke-linejoin:miter;stroke-miterlimit:10;stroke-dasharray:none;stroke-opacity:1"
       transform="scale(1.3333333)" />
    <path
       id="path10"
       d="M 43.93701,498.18898 H 274.25197"
       style="fill:none;stroke:#ed1c24;stroke-width:1;stroke-linecap:butt;stroke-linejoin:miter;stroke-miterlimit:10;stroke-dasharray:none;stroke-opacity:1"
       transform="scale(1.3333333)" />
    <path
       id="path11"
       d="m 616.53543,498.18898 8.50394,8.50393 5.66929,65.55118 h 80.22072 l 14.03125,-54.21259 5.66929,-5.6693 v -14.17322"
       style="fill:none;stroke:#ed1c24;stroke-width:1;stroke-linecap:butt;stroke-linejoin:miter;stroke-miterlimit:10;stroke-dasharray:none;stroke-opacity:1"
       transform="scale(1.3333333)" />
    <path
       id="path12"
       d="m 388.34646,498.18898 8.50393,8.50393 5.6693,65.55118 h 80.22071 l 14.03125,-54.21259 5.66929,-5.6693 v -14.17322"
       style="fill:none;stroke:#ed1c24;stroke-width:1;stroke-linecap:butt;stroke-linejoin:miter;stroke-miterlimit:10;stroke-dasharray:none;stroke-opacity:1"
       transform="matrix(-1.3333333,0,0,1.3333333,1035.5905,0)" />
    <path
       id="path13"
       d="M 388.34646,498.18898 V 614.40945"
       style="fill:none;stroke:#ed1c24;stroke-width:1;stroke-linecap:butt;stroke-linejoin:miter;stroke-miterlimit:10;stroke-dasharray:none;stroke-opacity:1"
       transform="scale(1.3333333)" />
    <path
       id="path14"
       d="M 616.53543,498.18898 V 614.40945"
       style="fill:none;stroke:#ed1c24;stroke-width:1;stroke-linecap:butt;stroke-linejoin:miter;stroke-miterlimit:10;stroke-dasharray:none;stroke-opacity:1"
       transform="scale(1.3333333)" />
    <path
       id="path15"
       d="M 389.90551,614.40945 H 614.97638"
       style="fill:none;stroke:#00a650;stroke-width:1;stroke-linecap:butt;stroke-linejoin:miter;stroke-miterlimit:10;stroke-dasharray:none;stroke-opacity:1"
       transform="scale(1.3333333)" />
    <path
       id="path16"
       d="m 388.34646,614.40945 h 1.55905"
       style="fill:none;stroke:#ed1c24;stroke-width:1;stroke-linecap:butt;stroke-linejoin:miter;stroke-miterlimit:10;stroke-dasharray:none;stroke-opacity:1"
       transform="scale(1.3333333)" />
    <path
       id="path17"
       d="m 614.97638,614.40945 h 1.55905"
       style="fill:none;stroke:#ed1c24;stroke-width:1;stroke-linecap:butt;stroke-linejoin:miter;stroke-miterlimit:10;stroke-dasharray:none;stroke-opacity:1"
       transform="scale(1.3333333)" />
    <path
       id="path18"
       d="m 389.90551,614.40945 v 14.17323 c 0,9.78457 4.42914,14.76378 8.85827,17.71653 h 207.35433 c 4.42913,-2.95275 8.85827,-7.93196 8.85827,-17.71653 v -14.17323"
       style="fill:none;stroke:#ed1c24;stroke-width:1;stroke-linecap:butt;stroke-linejoin:miter;stroke-miterlimit:10;stroke-dasharray:none;stroke-opacity:1"
       transform="scale(1.3333333)" />
    <path
       id="path19"
       d="M 274.25197,498.18898 H 388.34646"
       style="fill:none;stroke:#00a650;stroke-width:1;stroke-linecap:butt;stroke-linejoin:miter;stroke-miterlimit:10;stroke-dasharray:none;stroke-opacity:1"
       transform="matrix(1.3333333,0,0,-1.3333333,0,873.07087)" />
    <path
       id="path20"
       d="M 388.34646,499.6063 H 616.53543"
       style="fill:none;stroke:#00a650;stroke-width:1;stroke-linecap:butt;stroke-linejoin:miter;stroke-miterlimit:10;stroke-dasharray:none;stroke-opacity:1"
       transform="matrix(1.3333333,0,0,-1.3333333,0,873.07087)" />
    <path
       id="path21"
       d="M 616.53543,498.18898 H 730.62992"
       style="fill:none;stroke:#00a650;stroke-width:1;stroke-linecap:butt;stroke-linejoin:miter;stroke-miterlimit:10;stroke-dasharray:none;stroke-opacity:1"
       transform="matrix(1.3333333,0,0,-1.3333333,0,873.07087)" />
    <path
       id="path22"
       d="M 43.93701,498.18898 H 274.25197"
       style="fill:none;stroke:#ed1c24;stroke-width:1;stroke-linecap:butt;stroke-linejoin:miter;stroke-miterlimit:10;stroke-dasharray:none;stroke-opacity:1"
       transform="matrix(1.3333333,0,0,-1.3333333,0,873.07087)" />
    <path
       id="path23"
       d="m 616.53543,498.18898 8.50394,8.50393 5.66929,65.55118 h 80.22072 l 14.03125,-54.21259 5.66929,-5.6693 v -14.17322"
       style="fill:none;stroke:#ed1c24;stroke-width:1;stroke-linecap:butt;stroke-linejoin:miter;stroke-miterlimit:10;stroke-dasharray:none;stroke-opacity:1"
       transform="matrix(1.3333333,0,0,-1.3333333,0,873.07087)" />
    <path
       id="path24"
       d="m 388.34646,498.18898 8.50393,8.50393 5.6693,65.55118 h 80.22071 l 14.03125,-54.21259 5.66929,-5.6693 v -14.17322"
       style="fill:none;stroke:#ed1c24;stroke-width:1;stroke-linecap:butt;stroke-linejoin:miter;stroke-miterlimit:10;stroke-dasharray:none;stroke-opacity:1"
       transform="matrix(-1.3333333,0,0,-1.3333333,1035.5905,873.07087)" />
    <path
       id="path25"
       d="M 388.34646,498.18898 V 614.40945"
       style="fill:none;stroke:#ed1c24;stroke-width:1;stroke-linecap:butt;stroke-linejoin:miter;stroke-miterlimit:10;stroke-dasharray:none;stroke-opacity:1"
       transform="matrix(1.3333333,0,0,-1.3333333,0,873.07087)" />
    <path
       id="path26"
       d="M 616.53543,498.18898 V 614.40945"
       style="fill:none;stroke:#ed1c24;stroke-width:1;stroke-linecap:butt;stroke-linejoin:miter;stroke-miterlimit:10;stroke-dasharray:none;stroke-opacity:1"
       transform="matrix(1.3333333,0,0,-1.3333333,0,873.07087)" />
    <path
       id="path27"
       d="M 389.90551,614.40945 H 614.97638"
       style="fill:none;stroke:#00a650;stroke-width:1;stroke-linecap:butt;stroke-linejoin:miter;stroke-miterlimit:10;stroke-dasharray:none;stroke-opacity:1"
       transform="matrix(1.3333333,0,0,-1.3333333,0,873.07087)" />
    <path
       id="path28"
       d="m 388.34646,614.40945 h 1.55905"
       style="fill:none;stroke:#ed1c24;stroke-width:1;stroke-linecap:butt;stroke-linejoin:miter;stroke-miterlimit:10;stroke-dasharray:none;stroke-opacity:1"
       transform="matrix(1.3333333,0,0,-1.3333333,0,873.07087)" />
    <path
       id="path29"
       d="m 614.97638,614.40945 h 1.55905"
       style="fill:none;stroke:#ed1c24;stroke-width:1;stroke-linecap:butt;stroke-linejoin:miter;stroke-miterlimit:10;stroke-dasharray:none;stroke-opacity:1"
       transform="matrix(1.3333333,0,0,-1.3333333,0,873.07087)" />
    <path
       id="path30"
       d="m 389.90551,614.40945 v 14.17323 c 0,9.78457 4.42914,14.76378 8.85827,17.71653 h 207.35433 c 4.42913,-2.95275 8.85827,-7.93196 8.85827,-17.71653 v -14.17323"
       style="fill:none;stroke:#ed1c24;stroke-width:1;stroke-linecap:butt;stroke-linejoin:miter;stroke-miterlimit:10;stroke-dasharray:none;stroke-opacity:1"
       transform="matrix(1.3333333,0,0,-1.3333333,0,873.07087)" />
  </g>
</svg>
