<?xml version="1.0" encoding="UTF-8" standalone="no"?>
<!-- Created with Inkscape (http://www.inkscape.org/) -->

<svg
   version="1.1"
   id="svg1"
   width="3955.2756"
   height="2394.3308"
   viewBox="0 0 3955.2756 2394.3308"
   sodipodi:docname="model.pdf"
   xmlns:inkscape="http://www.inkscape.org/namespaces/inkscape"
   xmlns:sodipodi="http://sodipodi.sourceforge.net/DTD/sodipodi-0.dtd"
   xmlns="http://www.w3.org/2000/svg"
   xmlns:svg="http://www.w3.org/2000/svg">
  <defs
     id="defs1" />
  <sodipodi:namedview
     id="namedview1"
     pagecolor="#ffffff"
     bordercolor="#000000"
     borderopacity="0.25"
     inkscape:showpageshadow="2"
     inkscape:pageopacity="0.0"
     inkscape:pagecheckerboard="0"
     inkscape:deskcolor="#d1d1d1">
    <inkscape:page
       x="0"
       y="0"
       inkscape:label="1"
       id="page1"
       width="3955.2756"
       height="2394.3308"
       margin="0"
       bleed="0" />
  </sodipodi:namedview>
  <g
     id="g1"
     inkscape:groupmode="layer"
     inkscape:label="1">
    <path
       id="path1"
       d="M 952.44094,1098.4252 V 386.92913"
       style="fill:none;stroke:#00a650;stroke-width:2;stroke-linecap:butt;stroke-linejoin:miter;stroke-miterlimit:10;stroke-dasharray:none;stroke-opacity:1"
       transform="matrix(1.3333333,0,0,-1.3333333,0,2394.3307)" />
    <path
       id="path2"
       d="M 1527.874,1098.4252 V 386.92913"
       style="fill:none;stroke:#00a650;stroke-width:2;stroke-linecap:butt;stroke-linejoin:miter;stroke-miterlimit:10;stroke-dasharray:none;stroke-opacity:1"
       transform="matrix(1.3333333,0,0,-1.3333333,0,2394.3307)" />
    <path
       id="path3"
       d="M 2386.7717,1098.4252 V 386.92913"
       style="fill:none;stroke:#00a650;stroke-width:2;stroke-linecap:butt;stroke-linejoin:miter;stroke-miterlimit:10;stroke-dasharray:none;stroke-opacity:1"
       transform="matrix(1.3333333,0,0,-1.3333333,0,2394.3307)" />
    <path
       id="path4"
       d="M 2957.9528,1098.4252 V 381.25984"
       style="fill:none;stroke:#ed1c24;stroke-width:2;stroke-linecap:butt;stroke-linejoin:miter;stroke-miterlimit:10;stroke-dasharray:none;stroke-opacity:1"
       transform="matrix(1.3333333,0,0,-1.3333333,0,2394.3307)" />
    <path
       id="path5"
       d="M 93.54331,1098.4252 V 385.51181"
       style="fill:none;stroke:#00a650;stroke-width:2;stroke-linecap:butt;stroke-linejoin:miter;stroke-miterlimit:10;stroke-dasharray:none;stroke-opacity:1"
       transform="matrix(1.3333333,0,0,-1.3333333,0,2394.3307)" />
    <path
       id="path6"
       d="M 93.54331,1098.4252 8.50394,1075.639 V 470.55118 l 89.29134,-89.29134"
       style="fill:none;stroke:#ed1c24;stroke-width:2;stroke-linecap:butt;stroke-linejoin:miter;stroke-miterlimit:10;stroke-dasharray:none;stroke-opacity:1"
       transform="matrix(1.3333333,0,0,-1.3333333,0,2394.3307)" />
    <path
       id="path7"
       d="M 952.44094,1098.4252 H 1515.1181"
       style="fill:none;stroke:#00a650;stroke-width:2;stroke-linecap:butt;stroke-linejoin:miter;stroke-miterlimit:10;stroke-dasharray:none;stroke-opacity:1"
       transform="matrix(1.3333333,0,0,-1.3333333,0,2394.3307)" />
    <path
       id="path8"
       d="m 2399.5276,1098.4252 h 558.4252"
       style="fill:none;stroke:#00a650;stroke-width:2;stroke-linecap:butt;stroke-linejoin:miter;stroke-miterlimit:10;stroke-dasharray:none;stroke-opacity:1"
       transform="matrix(1.3333333,0,0,-1.3333333,0,2394.3307)" />
    <path
       id="path9"
       d="M 89.29134,1106.9291 H 956.69291"
       style="fill:none;stroke:#00a650;stroke-width:2;stroke-linecap:butt;stroke-linejoin:miter;stroke-miterlimit:10;stroke-dasharray:none;stroke-opacity:1"
       transform="matrix(1.3333333,0,0,-1.3333333,0,2394.3307)" />
    <path
       id="path10"
       d="m 97.79528,1673.8583 h 850.3937"
       style="fill:none;stroke:#00a650;stroke-width:2;stroke-linecap:butt;stroke-linejoin:miter;stroke-miterlimit:10;stroke-dasharray:none;stroke-opacity:1"
       transform="matrix(1.3333333,0,0,-1.3333333,0,2394.3307)" />
    <path
       id="path11"
       d="m 93.54331,1098.4252 -4.25197,8.5039 v 566.9292 h 8.50394 v 56.6929 c 0,31.3106 25.38228,56.6929 56.69291,56.6929 h 737.00787 c 31.31063,0 56.69292,-25.3823 56.69292,-56.6929 v -56.6929 h 8.50393 v -566.9292 l -4.25197,-8.5039"
       style="fill:none;stroke:#ed1c24;stroke-width:2;stroke-linecap:butt;stroke-linejoin:miter;stroke-miterlimit:10;stroke-dasharray:none;stroke-opacity:1"
       transform="matrix(1.3333333,0,0,-1.3333333,0,2394.3307)" />
    <path
       id="path12"
       d="m 956.69291,1386.1417 h 497.26919 l 61.156,-287.7165"
       style="fill:none;stroke:#ed1c24;stroke-width:2;stroke-linecap:butt;stroke-linejoin:miter;stroke-miterlimit:10;stroke-dasharray:none;stroke-opacity:1"
       transform="matrix(1.3333333,0,0,-1.3333333,0,2394.3307)" />
    <path
       id="path13"
       d="m 2957.9528,1098.4252 v 287.7165 h -497.2692 l -61.156,-287.7165"
       style="fill:none;stroke:#ed1c24;stroke-width:2;stroke-linecap:butt;stroke-linejoin:miter;stroke-miterlimit:10;stroke-dasharray:none;stroke-opacity:1"
       transform="matrix(1.3333333,0,0,-1.3333333,0,2394.3307)" />
    <path
       id="path14"
       d="m 1515.1181,1098.4252 h 884.4095"
       style="fill:none;stroke:#ed1c24;stroke-width:2;stroke-linecap:butt;stroke-linejoin:miter;stroke-miterlimit:10;stroke-dasharray:none;stroke-opacity:1"
       transform="matrix(1.3333333,0,0,-1.3333333,0,2394.3307)" />
    <path
       id="path15"
       d="M 97.79528,381.25984 H 944.42336"
       style="fill:none;stroke:#00a650;stroke-width:2;stroke-linecap:butt;stroke-linejoin:miter;stroke-miterlimit:10;stroke-dasharray:none;stroke-opacity:1"
       transform="matrix(1.3333333,0,0,-1.3333333,0,2394.3307)" />
    <path
       id="path16"
       d="M 664.72441,93.54331 932.39697,361.21587"
       style="fill:none;stroke:#00a650;stroke-width:2;stroke-linecap:butt;stroke-linejoin:miter;stroke-miterlimit:10;stroke-dasharray:none;stroke-opacity:1"
       transform="matrix(1.3333333,0,0,-1.3333333,0,2394.3307)" />
    <path
       id="path17"
       d="M 97.79528,381.25984 118.75569,8.50394 h 330.53565 l 73.70079,73.70078 v 11.33859"
       style="fill:none;stroke:#ed1c24;stroke-width:2;stroke-linecap:butt;stroke-linejoin:miter;stroke-miterlimit:10;stroke-dasharray:none;stroke-opacity:1"
       transform="matrix(1.3333333,0,0,-1.3333333,0,2394.3307)" />
    <path
       id="path18"
       d="M 522.99213,93.54331 H 664.72441 L 749.76378,8.50394 h 196.29921 v 339.04591 l -17.67481,17.67482 20.04397,20.04397"
       style="fill:none;stroke:#ed1c24;stroke-width:2;stroke-linecap:butt;stroke-linejoin:miter;stroke-miterlimit:10;stroke-dasharray:none;stroke-opacity:1"
       transform="matrix(1.3333333,0,0,-1.3333333,0,2394.3307)" />
    <path
       id="path19"
       d="M 958.47408,381.25984 H 1519.8564"
       style="fill:none;stroke:#00a650;stroke-width:2;stroke-linecap:butt;stroke-linejoin:miter;stroke-miterlimit:10;stroke-dasharray:none;stroke-opacity:1"
       transform="matrix(1.3333333,0,0,-1.3333333,0,2394.3307)" />
    <path
       id="path20"
       d="m 957.76834,383.19885 c -0.32604,0.89577 -0.87268,1.69487 -1.58937,2.32339 -0.7167,0.62853 -1.58031,1.06619 -2.51097,1.27251 -0.93066,0.20632 -1.89831,0.17464 -2.81349,-0.0921 -0.91517,-0.26674 -1.74831,-0.75995 -2.42236,-1.434"
       style="fill:none;stroke:#ed1c24;stroke-width:2;stroke-linecap:butt;stroke-linejoin:miter;stroke-miterlimit:10;stroke-dasharray:none;stroke-opacity:1"
       transform="matrix(1.3333333,0,0,-1.3333333,0,2394.3307)" />
    <path
       id="path21"
       d="M 957.76834,383.19885 1063.1943,93.54331 h 168.9456 l 291.7253,291.72533"
       style="fill:none;stroke:#ed1c24;stroke-width:2;stroke-linecap:butt;stroke-linejoin:miter;stroke-miterlimit:10;stroke-dasharray:none;stroke-opacity:1"
       transform="matrix(1.3333333,0,0,-1.3333333,0,2394.3307)" />
    <path
       id="path22"
       d="m 1533.5355,381.25984 h 845.203"
       style="fill:none;stroke:#00a650;stroke-width:2;stroke-linecap:butt;stroke-linejoin:miter;stroke-miterlimit:10;stroke-dasharray:none;stroke-opacity:1"
       transform="matrix(1.3333333,0,0,-1.3333333,0,2394.3307)" />
    <path
       id="path23"
       d="m 2099.0551,93.54331 267.6726,267.67256"
       style="fill:none;stroke:#00a650;stroke-width:2;stroke-linecap:butt;stroke-linejoin:miter;stroke-miterlimit:10;stroke-dasharray:none;stroke-opacity:1"
       transform="matrix(1.3333333,0,0,-1.3333333,0,2394.3307)" />
    <path
       id="path24"
       d="m 1533.5355,381.55655 c -0.057,1.09451 -0.4307,2.14893 -1.0749,3.03562 -0.6442,0.88669 -1.5317,1.56764 -2.5549,1.96041 -1.0232,0.39278 -2.1383,0.48054 -3.2104,0.25267 -1.0721,-0.22788 -2.0551,-0.76162 -2.8301,-1.53661"
       style="fill:none;stroke:#ed1c24;stroke-width:2;stroke-linecap:butt;stroke-linejoin:miter;stroke-miterlimit:10;stroke-dasharray:none;stroke-opacity:1"
       transform="matrix(1.3333333,0,0,-1.3333333,0,2394.3307)" />
    <path
       id="path25"
       d="M 1533.5355,381.55655 1553.0864,8.50394 h 330.5357 l 73.7007,73.70078 v 11.33859"
       style="fill:none;stroke:#ed1c24;stroke-width:2;stroke-linecap:butt;stroke-linejoin:miter;stroke-miterlimit:10;stroke-dasharray:none;stroke-opacity:1"
       transform="matrix(1.3333333,0,0,-1.3333333,0,2394.3307)" />
    <path
       id="path26"
       d="m 1957.3228,93.54331 h 141.7323 l 85.0394,-85.03937 h 196.2992 v 339.04591 l -17.6748,17.67482 20.044,20.04397"
       style="fill:none;stroke:#ed1c24;stroke-width:2;stroke-linecap:butt;stroke-linejoin:miter;stroke-miterlimit:10;stroke-dasharray:none;stroke-opacity:1"
       transform="matrix(1.3333333,0,0,-1.3333333,0,2394.3307)" />
    <path
       id="path27"
       d="m 2392.8048,381.25984 h 565.148"
       style="fill:none;stroke:#00a650;stroke-width:2;stroke-linecap:butt;stroke-linejoin:miter;stroke-miterlimit:10;stroke-dasharray:none;stroke-opacity:1"
       transform="matrix(1.3333333,0,0,-1.3333333,0,2394.3307)" />
    <path
       id="path28"
       d="m 2392.099,383.19885 c -0.326,0.89577 -0.8726,1.69487 -1.5893,2.32339 -0.7167,0.62853 -1.5803,1.06619 -2.511,1.27251 -0.9307,0.20632 -1.8983,0.17464 -2.8135,-0.0921 -0.9151,-0.26674 -1.7483,-0.75995 -2.4223,-1.434"
       style="fill:none;stroke:#ed1c24;stroke-width:2;stroke-linecap:butt;stroke-linejoin:miter;stroke-miterlimit:10;stroke-dasharray:none;stroke-opacity:1"
       transform="matrix(1.3333333,0,0,-1.3333333,0,2394.3307)" />
    <path
       id="path29"
       d="M 2392.099,383.19885 2497.525,93.54331 h 174.8372 l 285.5906,287.71653"
       style="fill:none;stroke:#ed1c24;stroke-width:2;stroke-linecap:butt;stroke-linejoin:miter;stroke-miterlimit:10;stroke-dasharray:none;stroke-opacity:1"
       transform="matrix(1.3333333,0,0,-1.3333333,0,2394.3307)" />
  </g>
</svg>
