<?xml version="1.0" encoding="UTF-8" standalone="no"?>
<!-- Created with Inkscape (http://www.inkscape.org/) -->

<svg
   version="1.1"
   id="svg1"
   width="3949.6062"
   height="2156.2205"
   viewBox="0 0 3949.6062 2156.2205"
   sodipodi:docname="model.pdf"
   xmlns:inkscape="http://www.inkscape.org/namespaces/inkscape"
   xmlns:sodipodi="http://sodipodi.sourceforge.net/DTD/sodipodi-0.dtd"
   xmlns="http://www.w3.org/2000/svg"
   xmlns:svg="http://www.w3.org/2000/svg">
  <defs
     id="defs1" />
  <sodipodi:namedview
     id="namedview1"
     pagecolor="#ffffff"
     bordercolor="#000000"
     borderopacity="0.25"
     inkscape:showpageshadow="2"
     inkscape:pageopacity="0.0"
     inkscape:pagecheckerboard="0"
     inkscape:deskcolor="#d1d1d1">
    <inkscape:page
       x="0"
       y="0"
       inkscape:label="1"
       id="page1"
       width="3949.6062"
       height="2156.2205"
       margin="0"
       bleed="0" />
  </sodipodi:namedview>
  <g
     id="g1"
     inkscape:groupmode="layer"
     inkscape:label="1">
    <path
       id="path1"
       d="M 952.44094,1126.7717 V 409.6063"
       style="fill:none;stroke:#00a650;stroke-width:2;stroke-linecap:butt;stroke-linejoin:miter;stroke-miterlimit:10;stroke-dasharray:none;stroke-opacity:1"
       transform="matrix(1.3333333,0,0,-1.3333333,0,2156.2205)" />
    <path
       id="path2"
       d="M 1527.874,1126.7717 V 409.6063"
       style="fill:none;stroke:#00a650;stroke-width:2;stroke-linecap:butt;stroke-linejoin:miter;stroke-miterlimit:10;stroke-dasharray:none;stroke-opacity:1"
       transform="matrix(1.3333333,0,0,-1.3333333,0,2156.2205)" />
    <path
       id="path3"
       d="M 2386.7717,1126.7717 V 409.6063"
       style="fill:none;stroke:#00a650;stroke-width:2;stroke-linecap:butt;stroke-linejoin:miter;stroke-miterlimit:10;stroke-dasharray:none;stroke-opacity:1"
       transform="matrix(1.3333333,0,0,-1.3333333,0,2156.2205)" />
    <path
       id="path4"
       d="M 2953.7008,1126.7717 V 409.6063"
       style="fill:none;stroke:#ed1c24;stroke-width:2;stroke-linecap:butt;stroke-linejoin:miter;stroke-miterlimit:10;stroke-dasharray:none;stroke-opacity:1"
       transform="matrix(1.3333333,0,0,-1.3333333,0,2156.2205)" />
    <path
       id="path5"
       d="M 93.54331,1126.7717 V 411.88492"
       style="fill:none;stroke:#00a650;stroke-width:2;stroke-linecap:butt;stroke-linejoin:miter;stroke-miterlimit:10;stroke-dasharray:none;stroke-opacity:1"
       transform="matrix(1.3333333,0,0,-1.3333333,0,2156.2205)" />
    <path
       id="path6"
       d="M 93.54331,1126.7717 8.50394,1103.9854 V 434.67115 l 93.5433,-25.06485"
       style="fill:none;stroke:#ed1c24;stroke-width:2;stroke-linecap:butt;stroke-linejoin:miter;stroke-miterlimit:10;stroke-dasharray:none;stroke-opacity:1"
       transform="matrix(1.3333333,0,0,-1.3333333,0,2156.2205)" />
    <path
       id="path7"
       d="M 102.04724,1126.7717 H 943.93701"
       style="fill:none;stroke:#00a650;stroke-width:2;stroke-linecap:butt;stroke-linejoin:miter;stroke-miterlimit:10;stroke-dasharray:none;stroke-opacity:1"
       transform="matrix(1.3333333,0,0,-1.3333333,0,2156.2205)" />
    <path
       id="path8"
       d="m 102.04724,1410.2362 h 279.2126"
       style="fill:none;stroke:#00a650;stroke-width:2;stroke-linecap:butt;stroke-linejoin:miter;stroke-miterlimit:10;stroke-dasharray:none;stroke-opacity:1"
       transform="matrix(1.3333333,0,0,-1.3333333,0,2156.2205)" />
    <path
       id="path9"
       d="m 664.72441,1410.2362 h 279.2126"
       style="fill:none;stroke:#00a650;stroke-width:2;stroke-linecap:butt;stroke-linejoin:miter;stroke-miterlimit:10;stroke-dasharray:none;stroke-opacity:1"
       transform="matrix(1.3333333,0,0,-1.3333333,0,2156.2205)" />
    <path
       id="path10"
       d="m 93.54331,1126.7717 h 8.50393 v 396.8504"
       style="fill:none;stroke:#ed1c24;stroke-width:2;stroke-linecap:butt;stroke-linejoin:miter;stroke-miterlimit:10;stroke-dasharray:none;stroke-opacity:1"
       transform="matrix(1.3333333,0,0,-1.3333333,0,2156.2205)" />
    <path
       id="path11"
       d="m 952.44094,1126.7717 h -8.50393 v 396.8504"
       style="fill:none;stroke:#ed1c24;stroke-width:2;stroke-linecap:butt;stroke-linejoin:miter;stroke-miterlimit:10;stroke-dasharray:none;stroke-opacity:1"
       transform="matrix(1.3333333,0,0,-1.3333333,0,2156.2205)" />
    <path
       id="path12"
       d="m 215.43307,1523.6221 h 28.34646 l 141.73228,85.0393 h 274.96063 l 141.73228,-85.0393 h 28.34646"
       style="fill:none;stroke:#ed1c24;stroke-width:2;stroke-linecap:butt;stroke-linejoin:miter;stroke-miterlimit:10;stroke-dasharray:none;stroke-opacity:1"
       transform="matrix(1.3333333,0,0,-1.3333333,0,2156.2205)" />
    <path
       id="path13"
       d="m 215.43307,1523.6221 c 0,15.0358 -5.97299,29.4559 -16.60497,40.0879 -10.63198,10.632 -25.05205,16.605 -40.08794,16.605 -15.0359,0 -29.45596,-5.973 -40.08795,-16.605 -10.63198,-10.632 -16.60497,-25.0521 -16.60497,-40.0879"
       style="fill:none;stroke:#ed1c24;stroke-width:2;stroke-linecap:butt;stroke-linejoin:miter;stroke-miterlimit:10;stroke-dasharray:none;stroke-opacity:1"
       transform="matrix(1.3333333,0,0,-1.3333333,0,2156.2205)" />
    <path
       id="path14"
       d="m 943.93701,1523.6221 c 0,15.0358 -5.97299,29.4559 -16.60497,40.0879 -10.63199,10.632 -25.05205,16.605 -40.08795,16.605 -15.03589,0 -29.45596,-5.973 -40.08794,-16.605 -10.63198,-10.632 -16.60497,-25.0521 -16.60497,-40.0879"
       style="fill:none;stroke:#ed1c24;stroke-width:2;stroke-linecap:butt;stroke-linejoin:miter;stroke-miterlimit:10;stroke-dasharray:none;stroke-opacity:1"
       transform="matrix(1.3333333,0,0,-1.3333333,0,2156.2205)" />
    <path
       id="path15"
       d="M 381.25984,1410.2362 H 664.72441"
       style="fill:none;stroke:#ed1c24;stroke-width:2;stroke-linecap:butt;stroke-linejoin:miter;stroke-miterlimit:10;stroke-dasharray:none;stroke-opacity:1"
       transform="matrix(1.3333333,0,0,-1.3333333,0,2156.2205)" />
    <path
       id="path16"
       d="M 471.9685,1500.9449 H 574.01575"
       style="fill:none;stroke:#ed1c24;stroke-width:2;stroke-linecap:butt;stroke-linejoin:miter;stroke-miterlimit:10;stroke-dasharray:none;stroke-opacity:1"
       transform="matrix(1.3333333,0,0,-1.3333333,0,2156.2205)" />
    <path
       id="path17"
       d="m 471.9685,1500.9449 c -11.91203,0 -23.70742,-2.3463 -34.7127,-6.9048 -11.00528,-4.5585 -21.00493,-11.2401 -29.42801,-19.6632 -8.42307,-8.423 -15.10462,-18.4227 -19.66316,-29.428 -4.55854,-11.0053 -6.90479,-22.8006 -6.90479,-34.7127"
       style="fill:none;stroke:#ed1c24;stroke-width:2;stroke-linecap:butt;stroke-linejoin:miter;stroke-miterlimit:10;stroke-dasharray:none;stroke-opacity:1"
       transform="matrix(1.3333333,0,0,-1.3333333,0,2156.2205)" />
    <path
       id="path18"
       d="m 664.72441,1410.2362 c 0,11.9121 -2.34625,23.7074 -6.90479,34.7127 -4.55853,11.0053 -11.24008,21.005 -19.66316,29.428 -8.42308,8.4231 -18.42273,15.1047 -29.42801,19.6632 -11.00528,4.5585 -22.80067,6.9048 -34.7127,6.9048"
       style="fill:none;stroke:#ed1c24;stroke-width:2;stroke-linecap:butt;stroke-linejoin:miter;stroke-miterlimit:10;stroke-dasharray:none;stroke-opacity:1"
       transform="matrix(1.3333333,0,0,-1.3333333,0,2156.2205)" />
    <path
       id="path19"
       d="M 952.44094,1126.7717 H 1229.5276"
       style="fill:none;stroke:#00a650;stroke-width:2;stroke-linecap:butt;stroke-linejoin:miter;stroke-miterlimit:10;stroke-dasharray:none;stroke-opacity:1"
       transform="matrix(1.3333333,0,0,-1.3333333,0,2156.2205)" />
    <path
       id="path20"
       d="M 1250.7874,1126.7717 H 1527.874"
       style="fill:none;stroke:#00a650;stroke-width:2;stroke-linecap:butt;stroke-linejoin:miter;stroke-miterlimit:10;stroke-dasharray:none;stroke-opacity:1"
       transform="matrix(1.3333333,0,0,-1.3333333,0,2156.2205)" />
    <path
       id="path21"
       d="m 1229.5276,1126.7717 v 172.4868 h 21.2598 v -172.4868 z"
       style="fill:none;stroke:#ed1c24;stroke-width:2;stroke-linecap:butt;stroke-linejoin:miter;stroke-miterlimit:10;stroke-dasharray:none;stroke-opacity:1"
       transform="matrix(1.3333333,0,0,-1.3333333,0,2156.2205)" />
    <path
       id="path22"
       d="M 952.44094,1126.7717 1205.55,1361.634 c 18.8277,17.4704 50.3872,17.4704 69.2149,0 l 253.1091,-234.8623"
       style="fill:none;stroke:#ed1c24;stroke-width:2;stroke-linecap:butt;stroke-linejoin:miter;stroke-miterlimit:10;stroke-dasharray:none;stroke-opacity:1"
       transform="matrix(1.3333333,0,0,-1.3333333,0,2156.2205)" />
    <path
       id="path23"
       d="m 1536.378,1126.7717 h 841.8897"
       style="fill:none;stroke:#00a650;stroke-width:2;stroke-linecap:butt;stroke-linejoin:miter;stroke-miterlimit:10;stroke-dasharray:none;stroke-opacity:1"
       transform="matrix(1.3333333,0,0,-1.3333333,0,2156.2205)" />
    <path
       id="path24"
       d="m 1536.378,1410.2362 h 279.2126"
       style="fill:none;stroke:#00a650;stroke-width:2;stroke-linecap:butt;stroke-linejoin:miter;stroke-miterlimit:10;stroke-dasharray:none;stroke-opacity:1"
       transform="matrix(1.3333333,0,0,-1.3333333,0,2156.2205)" />
    <path
       id="path25"
       d="m 2099.0551,1410.2362 h 279.2126"
       style="fill:none;stroke:#00a650;stroke-width:2;stroke-linecap:butt;stroke-linejoin:miter;stroke-miterlimit:10;stroke-dasharray:none;stroke-opacity:1"
       transform="matrix(1.3333333,0,0,-1.3333333,0,2156.2205)" />
    <path
       id="path26"
       d="m 1527.874,1126.7717 h 8.504 v 396.8504"
       style="fill:none;stroke:#ed1c24;stroke-width:2;stroke-linecap:butt;stroke-linejoin:miter;stroke-miterlimit:10;stroke-dasharray:none;stroke-opacity:1"
       transform="matrix(1.3333333,0,0,-1.3333333,0,2156.2205)" />
    <path
       id="path27"
       d="m 2386.7717,1126.7717 h -8.504 v 396.8504"
       style="fill:none;stroke:#ed1c24;stroke-width:2;stroke-linecap:butt;stroke-linejoin:miter;stroke-miterlimit:10;stroke-dasharray:none;stroke-opacity:1"
       transform="matrix(1.3333333,0,0,-1.3333333,0,2156.2205)" />
    <path
       id="path28"
       d="m 1649.7638,1523.6221 h 28.3464 l 141.7323,85.0393 h 274.9607 l 141.7322,-85.0393 h 28.3465"
       style="fill:none;stroke:#ed1c24;stroke-width:2;stroke-linecap:butt;stroke-linejoin:miter;stroke-miterlimit:10;stroke-dasharray:none;stroke-opacity:1"
       transform="matrix(1.3333333,0,0,-1.3333333,0,2156.2205)" />
    <path
       id="path29"
       d="m 1649.7638,1523.6221 c 0,15.0358 -5.973,29.4559 -16.605,40.0879 -10.632,10.632 -25.052,16.605 -40.0879,16.605 -15.0359,0 -29.456,-5.973 -40.088,-16.605 -10.632,-10.632 -16.6049,-25.0521 -16.6049,-40.0879"
       style="fill:none;stroke:#ed1c24;stroke-width:2;stroke-linecap:butt;stroke-linejoin:miter;stroke-miterlimit:10;stroke-dasharray:none;stroke-opacity:1"
       transform="matrix(1.3333333,0,0,-1.3333333,0,2156.2205)" />
    <path
       id="path30"
       d="m 2378.2677,1523.6221 c 0,15.0358 -5.973,29.4559 -16.6049,40.0879 -10.632,10.632 -25.0521,16.605 -40.088,16.605 -15.0359,0 -29.456,-5.973 -40.0879,-16.605 -10.632,-10.632 -16.605,-25.0521 -16.605,-40.0879"
       style="fill:none;stroke:#ed1c24;stroke-width:2;stroke-linecap:butt;stroke-linejoin:miter;stroke-miterlimit:10;stroke-dasharray:none;stroke-opacity:1"
       transform="matrix(1.3333333,0,0,-1.3333333,0,2156.2205)" />
    <path
       id="path31"
       d="m 1815.5906,1410.2362 h 283.4645"
       style="fill:none;stroke:#ed1c24;stroke-width:2;stroke-linecap:butt;stroke-linejoin:miter;stroke-miterlimit:10;stroke-dasharray:none;stroke-opacity:1"
       transform="matrix(1.3333333,0,0,-1.3333333,0,2156.2205)" />
    <path
       id="path32"
       d="m 1906.2992,1500.9449 h 102.0473"
       style="fill:none;stroke:#ed1c24;stroke-width:2;stroke-linecap:butt;stroke-linejoin:miter;stroke-miterlimit:10;stroke-dasharray:none;stroke-opacity:1"
       transform="matrix(1.3333333,0,0,-1.3333333,0,2156.2205)" />
    <path
       id="path33"
       d="m 1906.2992,1500.9449 c -11.912,0 -23.7074,-2.3463 -34.7127,-6.9048 -11.0053,-4.5585 -21.0049,-11.2401 -29.428,-19.6632 -8.4231,-8.423 -15.1046,-18.4227 -19.6632,-29.428 -4.5585,-11.0053 -6.9047,-22.8006 -6.9047,-34.7127"
       style="fill:none;stroke:#ed1c24;stroke-width:2;stroke-linecap:butt;stroke-linejoin:miter;stroke-miterlimit:10;stroke-dasharray:none;stroke-opacity:1"
       transform="matrix(1.3333333,0,0,-1.3333333,0,2156.2205)" />
    <path
       id="path34"
       d="m 2099.0551,1410.2362 c 0,11.9121 -2.3462,23.7074 -6.9048,34.7127 -4.5585,11.0053 -11.2401,21.005 -19.6631,29.428 -8.4231,8.4231 -18.4228,15.1047 -29.428,19.6632 -11.0053,4.5585 -22.8007,6.9048 -34.7127,6.9048"
       style="fill:none;stroke:#ed1c24;stroke-width:2;stroke-linecap:butt;stroke-linejoin:miter;stroke-miterlimit:10;stroke-dasharray:none;stroke-opacity:1"
       transform="matrix(1.3333333,0,0,-1.3333333,0,2156.2205)" />
    <path
       id="path35"
       d="m 2386.7717,1126.7717 h 277.0866"
       style="fill:none;stroke:#00a650;stroke-width:2;stroke-linecap:butt;stroke-linejoin:miter;stroke-miterlimit:10;stroke-dasharray:none;stroke-opacity:1"
       transform="matrix(1.3333333,0,0,-1.3333333,0,2156.2205)" />
    <path
       id="path36"
       d="m 2685.1181,1126.7717 h 268.5827"
       style="fill:none;stroke:#00a650;stroke-width:2;stroke-linecap:butt;stroke-linejoin:miter;stroke-miterlimit:10;stroke-dasharray:none;stroke-opacity:1"
       transform="matrix(1.3333333,0,0,-1.3333333,0,2156.2205)" />
    <path
       id="path37"
       d="m 2663.8583,1126.7717 v 172.4868 h 21.2598 v -172.4868 z"
       style="fill:none;stroke:#ed1c24;stroke-width:2;stroke-linecap:butt;stroke-linejoin:miter;stroke-miterlimit:10;stroke-dasharray:none;stroke-opacity:1"
       transform="matrix(1.3333333,0,0,-1.3333333,0,2156.2205)" />
    <path
       id="path38"
       d="m 2386.7717,1126.7717 253.1004,234.8543 c 18.8895,17.5278 50.1224,17.2939 68.7474,-0.5147 l 245.0813,-234.3396"
       style="fill:none;stroke:#ed1c24;stroke-width:2;stroke-linecap:butt;stroke-linejoin:miter;stroke-miterlimit:10;stroke-dasharray:none;stroke-opacity:1"
       transform="matrix(1.3333333,0,0,-1.3333333,0,2156.2205)" />
    <path
       id="path39"
       d="M 102.04724,409.6063 H 943.93701"
       style="fill:none;stroke:#00a650;stroke-width:2;stroke-linecap:butt;stroke-linejoin:miter;stroke-miterlimit:10;stroke-dasharray:none;stroke-opacity:1"
       transform="matrix(1.3333333,0,0,-1.3333333,0,2156.2205)" />
    <path
       id="path40"
       d="M 102.04724,409.6063 V 8.50394 H 301.88976 V 121.88976 H 744.09449 V 8.50394 H 943.93701 V 409.6063 h 8.50393"
       style="fill:none;stroke:#ed1c24;stroke-width:2;stroke-linecap:butt;stroke-linejoin:miter;stroke-miterlimit:10;stroke-dasharray:none;stroke-opacity:1"
       transform="matrix(1.3333333,0,0,-1.3333333,0,2156.2205)" />
    <path
       id="path41"
       d="M 952.44094,409.6063 H 1519.3701"
       style="fill:none;stroke:#00a650;stroke-width:2;stroke-linecap:butt;stroke-linejoin:miter;stroke-miterlimit:10;stroke-dasharray:none;stroke-opacity:1"
       transform="matrix(1.3333333,0,0,-1.3333333,0,2156.2205)" />
    <path
       id="path42"
       d="M 952.44094,409.6063 1248.6614,201.25984 V 8.50394 h 270.7087 V 409.6063 h 8.5039"
       style="fill:none;stroke:#ed1c24;stroke-width:2;stroke-linecap:butt;stroke-linejoin:miter;stroke-miterlimit:10;stroke-dasharray:none;stroke-opacity:1"
       transform="matrix(1.3333333,0,0,-1.3333333,0,2156.2205)" />
    <path
       id="path43"
       d="m 1527.874,409.6063 h 858.8977"
       style="fill:none;stroke:#00a650;stroke-width:2;stroke-linecap:butt;stroke-linejoin:miter;stroke-miterlimit:10;stroke-dasharray:none;stroke-opacity:1"
       transform="matrix(1.3333333,0,0,-1.3333333,0,2156.2205)" />
    <path
       id="path44"
       d="M 1527.874,409.6063 1744.7244,121.88976 V 8.50394 h 425.1969 v 113.38582 l 216.8504,287.71654"
       style="fill:none;stroke:#ed1c24;stroke-width:2;stroke-linecap:butt;stroke-linejoin:miter;stroke-miterlimit:10;stroke-dasharray:none;stroke-opacity:1"
       transform="matrix(1.3333333,0,0,-1.3333333,0,2156.2205)" />
    <path
       id="path45"
       d="m 2386.7717,409.6063 h 558.4251"
       style="fill:none;stroke:#00a650;stroke-width:2;stroke-linecap:butt;stroke-linejoin:miter;stroke-miterlimit:10;stroke-dasharray:none;stroke-opacity:1"
       transform="matrix(-1.3333333,0,0,-1.3333333,7120.6299,2156.2205)" />
    <path
       id="path46"
       d="M 2386.7717,409.6063 2674.4882,201.25984 V 8.50394 h 270.7086 V 409.6063 h 8.504"
       style="fill:none;stroke:#ed1c24;stroke-width:2;stroke-linecap:butt;stroke-linejoin:miter;stroke-miterlimit:10;stroke-dasharray:none;stroke-opacity:1"
       transform="matrix(-1.3333333,0,0,-1.3333333,7120.6299,2156.2205)" />
  </g>
</svg>
