<svg
   xmlns="http://www.w3.org/2000/svg"
   xml:space="preserve"
   preserveAspectRatio="none"
   viewBox="0 0 935.716535667 598.11023637"
   version="1.1"
   id="Die Cut Templates"
  >
    <g id="cut">
        <path d="M935.716535667 527.24409462 L935.716535667 102.04724412" fill="none" stroke="#FF0000" stroke-width="1" id="Line"/>

        <path d="M87.87401577 527.24409462 L89.341336341 527.6372619819" fill="none" stroke="#FF0000" stroke-width="1" id="Line"/>

        <path d="M93.54330711 533.113376904 L93.54330711 598.11023637" fill="none" stroke="#FF0000" stroke-width="1" id="Line"/>

        <path d="M93.54330711 598.11023637 L365.66929143 598.11023637" fill="none" stroke="#FF0000" stroke-width="1" id="Line"/>

        <path d="M365.66929143 598.11023637 L365.66929143 532.91338596" fill="none" stroke="#FF0000" stroke-width="1" id="Line"/>

        <path d="M377.00787411 532.91338596 L377.00787411 598.11023637" fill="none" stroke="#FF0000" stroke-width="1" id="Line"/>

        <path d="M377.00787411 598.11023637 L507.40157493 598.11023637" fill="none" stroke="#FF0000" stroke-width="1" id="Line"/>

        <path d="M507.40157493 598.11023637 L507.40157493 532.91338596" fill="none" stroke="#FF0000" stroke-width="1" id="Line"/>

        <path d="M518.74015761 532.91338596 L518.74015761 598.11023637" fill="none" stroke="#FF0000" stroke-width="1" id="Line"/>

        <path d="M518.74015761 598.11023637 L790.86614193 598.11023637" fill="none" stroke="#FF0000" stroke-width="1" id="Line"/>

        <path d="M790.86614193 598.11023637 L790.86614193 532.91338596" fill="none" stroke="#FF0000" stroke-width="1" id="Line"/>

        <path d="M802.20472461 532.91338596 L802.20472461 598.11023637" fill="none" stroke="#FF0000" stroke-width="1" id="Line"/>

        <path d="M802.20472461 598.11023637 L935.716535667 598.11023637" fill="none" stroke="#FF0000" stroke-width="1" id="Line"/>

        <path d="M935.716535667 598.11023637 L935.716535667 527.24409462" fill="none" stroke="#FF0000" stroke-width="1" id="Line"/>

        <path d="M87.87401577 102.04724412 L89.341336341 101.6540767581" fill="none" stroke="#FF0000" stroke-width="1" id="Line"/>

        <path d="M93.54330711 96.177961836 L93.54330711 31.18110237" fill="none" stroke="#FF0000" stroke-width="1" id="Line"/>

        <path d="M93.54330711 31.18110237 L365.66929143 31.18110237" fill="none" stroke="#FF0000" stroke-width="1" id="Line"/>

        <path d="M365.66929143 31.18110237 L365.66929143 96.37795278" fill="none" stroke="#FF0000" stroke-width="1" id="Line"/>

        <path d="M377.00787411 96.37795278 L377.00787411 31.18110237" fill="none" stroke="#FF0000" stroke-width="1" id="Line"/>

        <path d="M377.00787411 31.18110237 L507.40157493 31.18110237" fill="none" stroke="#FF0000" stroke-width="1" id="Line"/>

        <path d="M507.40157493 31.18110237 L507.40157493 96.37795278" fill="none" stroke="#FF0000" stroke-width="1" id="Line"/>

        <path d="M518.74015761 96.37795278 L518.74015761 31.18110237" fill="none" stroke="#FF0000" stroke-width="1" id="Line"/>

        <path d="M518.74015761 31.18110237 L790.86614193 31.18110237" fill="none" stroke="#FF0000" stroke-width="1" id="Line"/>

        <path d="M790.86614193 31.18110237 L790.86614193 96.37795278" fill="none" stroke="#FF0000" stroke-width="1" id="Line"/>

        <path d="M802.20472461 96.37795278 L802.20472461 31.18110237" fill="none" stroke="#FF0000" stroke-width="1" id="Line"/>

        <path d="M802.20472461 31.18110237 L935.716535667 31.18110237" fill="none" stroke="#FF0000" stroke-width="1" id="Line"/>

        <path d="M935.716535667 31.18110237 L935.716535667 102.04724412" fill="none" stroke="#FF0000" stroke-width="1" id="Line"/>

        <path d="M31.18110237 117.238064482 L87.87401577 102.04724412" fill="none" stroke="#FF0000" stroke-width="1" id="Line"/>

        <path d="M31.18110237 512.053274258 L87.87401577 527.24409462" fill="none" stroke="#FF0000" stroke-width="1" id="Line"/>

        <path d="M31.18110237 512.053274258 L31.18110237 117.238064482" fill="none" stroke="#FF0000" stroke-width="1" id="Line"/>

        <path d="M 93.54330711 533.113376904 A 5.66929134 5.66929134 0 0 0 89.34133634099811 527.6372619819293" fill="none" stroke="#FF0000" stroke-width="1" id="Arc"/>
        <path d="M 377.00787411 532.91338596 A 5.66929134 5.66929134 0 0 0 365.66929143000004 532.91338596" fill="none" stroke="#FF0000" stroke-width="1" id="Arc"/>
        <path d="M 518.74015761 532.91338596 A 5.66929134 5.66929134 0 0 0 507.40157493000004 532.91338596" fill="none" stroke="#FF0000" stroke-width="1" id="Arc"/>
        <path d="M 802.20472461 532.91338596 A 5.66929134 5.66929134 0 0 0 790.86614193 532.91338596" fill="none" stroke="#FF0000" stroke-width="1" id="Arc"/>
        <path d="M 89.34133634099811 101.65407675807063 A 5.66929134 5.66929134 0 0 0 93.54330711 96.177961836" fill="none" stroke="#FF0000" stroke-width="1" id="Arc"/>
        <path d="M 365.66929143000004 96.37795278 A 5.66929134 5.66929134 0 0 0 377.00787411 96.37795278" fill="none" stroke="#FF0000" stroke-width="1" id="Arc"/>
        <path d="M 507.40157493000004 96.37795278 A 5.66929134 5.66929134 0 0 0 518.74015761 96.37795278" fill="none" stroke="#FF0000" stroke-width="1" id="Arc"/>
        <path d="M 790.86614193 96.37795278 A 5.66929134 5.66929134 0 0 0 802.20472461 96.37795278" fill="none" stroke="#FF0000" stroke-width="1" id="Arc"/>
    </g>
    <g id="crease">
        <path d="M87.87401577 527.24409462 L87.87401577 102.04724412" fill="none" stroke="#00FF00" stroke-width="1" id="Line"/>

        <path d="M371.33858277 527.24409462 L371.33858277 102.04724412" fill="none" stroke="#00FF00" stroke-width="1" id="Line"/>

        <path d="M513.07086627 527.24409462 L513.07086627 102.04724412" fill="none" stroke="#00FF00" stroke-width="1" id="Line"/>

        <path d="M796.53543327 527.24409462 L796.53543327 102.04724412" fill="none" stroke="#00FF00" stroke-width="1" id="Line"/>

        <path d="M87.87401577 527.24409462 L371.33858277 527.24409462" fill="none" stroke="#00FF00" stroke-width="1" id="Line"/>

        <path d="M371.33858277 527.24409462 L513.07086627 527.24409462" fill="none" stroke="#00FF00" stroke-width="1" id="Line"/>

        <path d="M513.07086627 527.24409462 L796.53543327 527.24409462" fill="none" stroke="#00FF00" stroke-width="1" id="Line"/>

        <path d="M796.53543327 527.24409462 L935.716535667 527.24409462" fill="none" stroke="#00FF00" stroke-width="1" id="Line"/>

        <path d="M87.87401577 102.04724412 L371.33858277 102.04724412" fill="none" stroke="#00FF00" stroke-width="1" id="Line"/>

        <path d="M371.33858277 102.04724412 L513.07086627 102.04724412" fill="none" stroke="#00FF00" stroke-width="1" id="Line"/>

        <path d="M513.07086627 102.04724412 L796.53543327 102.04724412" fill="none" stroke="#00FF00" stroke-width="1" id="Line"/>

        <path d="M796.53543327 102.04724412 L935.716535667 102.04724412" fill="none" stroke="#00FF00" stroke-width="1" id="Line"/>

    </g>
    

</svg>
