<?xml version="1.0" encoding="UTF-8" standalone="no"?>
<!-- Created with Inkscape (http://www.inkscape.org/) -->

<svg
   version="1.1"
   id="svg1"
   width="2785.5117"
   height="2464.252"
   viewBox="0 0 2785.5117 2464.252"
   sodipodi:docname="model.pdf"
   xmlns:inkscape="http://www.inkscape.org/namespaces/inkscape"
   xmlns:sodipodi="http://sodipodi.sourceforge.net/DTD/sodipodi-0.dtd"
   xmlns="http://www.w3.org/2000/svg"
   xmlns:svg="http://www.w3.org/2000/svg">
  <defs
     id="defs1" />
  <sodipodi:namedview
     id="namedview1"
     pagecolor="#ffffff"
     bordercolor="#000000"
     borderopacity="0.25"
     inkscape:showpageshadow="2"
     inkscape:pageopacity="0.0"
     inkscape:pagecheckerboard="0"
     inkscape:deskcolor="#d1d1d1">
    <inkscape:page
       x="0"
       y="0"
       inkscape:label="1"
       id="page1"
       width="2785.5117"
       height="2464.252"
       margin="0"
       bleed="0" />
  </sodipodi:namedview>
  <g
     id="g1"
     inkscape:groupmode="layer"
     inkscape:label="1">
    <path
       id="path1"
       d="m 598.11024,871.65354 v -88.937"
       style="fill:none;stroke:#00a650;stroke-width:2;stroke-linecap:butt;stroke-linejoin:miter;stroke-miterlimit:10;stroke-dasharray:none;stroke-opacity:1"
       transform="matrix(1.3333333,0,0,-1.3333333,0,2464.252)" />
    <path
       id="path2"
       d="m 598.11024,287.71654 v 88.937"
       style="fill:none;stroke:#00a650;stroke-width:2;stroke-linecap:butt;stroke-linejoin:miter;stroke-miterlimit:10;stroke-dasharray:none;stroke-opacity:1"
       transform="matrix(1.3333333,0,0,-1.3333333,0,2464.252)" />
    <path
       id="path3"
       d="m 316.06299,871.65354 v -583.937"
       style="fill:none;stroke:#00a650;stroke-width:2;stroke-linecap:butt;stroke-linejoin:miter;stroke-miterlimit:10;stroke-dasharray:none;stroke-opacity:1"
       transform="matrix(1.3333333,0,0,-1.3333333,0,2464.252)" />
    <path
       id="path4"
       d="M 299.05512,863.14961 V 296.22047"
       style="fill:none;stroke:#00a650;stroke-width:2;stroke-linecap:butt;stroke-linejoin:miter;stroke-miterlimit:10;stroke-dasharray:none;stroke-opacity:1"
       transform="matrix(1.3333333,0,0,-1.3333333,0,2464.252)" />
    <path
       id="path5"
       d="m 606.61417,867.40157 -8.50393,4.25197 H 316.06299 l -17.00787,-8.50393 H 21.25984 v -80.43307"
       style="fill:none;stroke:#ed1c24;stroke-width:2;stroke-linecap:butt;stroke-linejoin:miter;stroke-miterlimit:10;stroke-dasharray:none;stroke-opacity:1"
       transform="matrix(1.3333333,0,0,-1.3333333,0,2464.252)" />
    <path
       id="path6"
       d="m 606.61417,291.9685 -8.50393,-4.25196 H 316.06299 l -17.00787,8.50393 H 21.25984 v 80.43307"
       style="fill:none;stroke:#ed1c24;stroke-width:2;stroke-linecap:butt;stroke-linejoin:miter;stroke-miterlimit:10;stroke-dasharray:none;stroke-opacity:1"
       transform="matrix(1.3333333,0,0,-1.3333333,0,2464.252)" />
    <path
       id="path7"
       d="M 598.11024,686.81102 V 472.55906"
       style="fill:none;stroke:#00a650;stroke-width:2;stroke-linecap:butt;stroke-linejoin:miter;stroke-miterlimit:10;stroke-dasharray:none;stroke-opacity:1"
       transform="matrix(1.3333333,0,0,-1.3333333,0,2464.252)" />
    <path
       id="path8"
       d="m 598.11024,782.71654 h 21.25984 v -95.90551 h -21.25984 z"
       style="fill:none;stroke:#ed1c24;stroke-width:2;stroke-linecap:butt;stroke-linejoin:miter;stroke-miterlimit:10;stroke-dasharray:none;stroke-opacity:1"
       transform="matrix(1.3333333,0,0,-1.3333333,0,2464.252)" />
    <path
       id="path9"
       d="m 598.11024,472.55906 h 21.25984 v -95.90551 h -21.25984 z"
       style="fill:none;stroke:#ed1c24;stroke-width:2;stroke-linecap:butt;stroke-linejoin:miter;stroke-miterlimit:10;stroke-dasharray:none;stroke-opacity:1"
       transform="matrix(1.3333333,0,0,-1.3333333,0,2464.252)" />
    <path
       id="path10"
       d="M 21.25984,686.81102 V 472.55906"
       style="fill:none;stroke:#ed1c24;stroke-width:2;stroke-linecap:butt;stroke-linejoin:miter;stroke-miterlimit:10;stroke-dasharray:none;stroke-opacity:1"
       transform="matrix(1.3333333,0,0,-1.3333333,0,2464.252)" />
    <path
       id="path11"
       d="m 21.25984,782.71654 -12.7559,-2.83465 v -90.23622 l 12.7559,-2.83465"
       style="fill:none;stroke:#ed1c24;stroke-width:2;stroke-linecap:butt;stroke-linejoin:miter;stroke-miterlimit:10;stroke-dasharray:none;stroke-opacity:1"
       transform="matrix(1.3333333,0,0,-1.3333333,0,2464.252)" />
    <path
       id="path12"
       d="m 21.25984,472.55906 -12.7559,-2.83465 v -90.23622 l 12.7559,-2.83465"
       style="fill:none;stroke:#ed1c24;stroke-width:2;stroke-linecap:butt;stroke-linejoin:miter;stroke-miterlimit:10;stroke-dasharray:none;stroke-opacity:1"
       transform="matrix(1.3333333,0,0,-1.3333333,0,2464.252)" />
    <path
       id="path13"
       d="m 598.11024,871.65354 v -88.937"
       style="fill:none;stroke:#00a650;stroke-width:2;stroke-linecap:butt;stroke-linejoin:miter;stroke-miterlimit:10;stroke-dasharray:none;stroke-opacity:1"
       transform="matrix(-1.3333333,0,0,-1.3333333,2785.5118,2464.252)" />
    <path
       id="path14"
       d="m 598.11024,287.71654 v 88.937"
       style="fill:none;stroke:#00a650;stroke-width:2;stroke-linecap:butt;stroke-linejoin:miter;stroke-miterlimit:10;stroke-dasharray:none;stroke-opacity:1"
       transform="matrix(-1.3333333,0,0,-1.3333333,2785.5118,2464.252)" />
    <path
       id="path15"
       d="m 316.06299,871.65354 v -583.937"
       style="fill:none;stroke:#00a650;stroke-width:2;stroke-linecap:butt;stroke-linejoin:miter;stroke-miterlimit:10;stroke-dasharray:none;stroke-opacity:1"
       transform="matrix(-1.3333333,0,0,-1.3333333,2785.5118,2464.252)" />
    <path
       id="path16"
       d="M 299.05512,863.14961 V 296.22047"
       style="fill:none;stroke:#00a650;stroke-width:2;stroke-linecap:butt;stroke-linejoin:miter;stroke-miterlimit:10;stroke-dasharray:none;stroke-opacity:1"
       transform="matrix(-1.3333333,0,0,-1.3333333,2785.5118,2464.252)" />
    <path
       id="path17"
       d="m 606.61417,867.40157 -8.50393,4.25197 H 316.06299 l -17.00787,-8.50393 H 21.25984 v -80.43307"
       style="fill:none;stroke:#ed1c24;stroke-width:2;stroke-linecap:butt;stroke-linejoin:miter;stroke-miterlimit:10;stroke-dasharray:none;stroke-opacity:1"
       transform="matrix(-1.3333333,0,0,-1.3333333,2785.5118,2464.252)" />
    <path
       id="path18"
       d="m 606.61417,291.9685 -8.50393,-4.25196 H 316.06299 l -17.00787,8.50393 H 21.25984 v 80.43307"
       style="fill:none;stroke:#ed1c24;stroke-width:2;stroke-linecap:butt;stroke-linejoin:miter;stroke-miterlimit:10;stroke-dasharray:none;stroke-opacity:1"
       transform="matrix(-1.3333333,0,0,-1.3333333,2785.5118,2464.252)" />
    <path
       id="path19"
       d="M 598.11024,686.81102 V 472.55906"
       style="fill:none;stroke:#00a650;stroke-width:2;stroke-linecap:butt;stroke-linejoin:miter;stroke-miterlimit:10;stroke-dasharray:none;stroke-opacity:1"
       transform="matrix(-1.3333333,0,0,-1.3333333,2785.5118,2464.252)" />
    <path
       id="path20"
       d="m 598.11024,782.71654 h 21.25984 v -95.90551 h -21.25984 z"
       style="fill:none;stroke:#ed1c24;stroke-width:2;stroke-linecap:butt;stroke-linejoin:miter;stroke-miterlimit:10;stroke-dasharray:none;stroke-opacity:1"
       transform="matrix(-1.3333333,0,0,-1.3333333,2785.5118,2464.252)" />
    <path
       id="path21"
       d="m 598.11024,472.55906 h 21.25984 v -95.90551 h -21.25984 z"
       style="fill:none;stroke:#ed1c24;stroke-width:2;stroke-linecap:butt;stroke-linejoin:miter;stroke-miterlimit:10;stroke-dasharray:none;stroke-opacity:1"
       transform="matrix(-1.3333333,0,0,-1.3333333,2785.5118,2464.252)" />
    <path
       id="path22"
       d="M 21.25984,686.81102 V 472.55906"
       style="fill:none;stroke:#ed1c24;stroke-width:2;stroke-linecap:butt;stroke-linejoin:miter;stroke-miterlimit:10;stroke-dasharray:none;stroke-opacity:1"
       transform="matrix(-1.3333333,0,0,-1.3333333,2785.5118,2464.252)" />
    <path
       id="path23"
       d="m 21.25984,782.71654 -12.7559,-2.83465 v -90.23622 l 12.7559,-2.83465"
       style="fill:none;stroke:#ed1c24;stroke-width:2;stroke-linecap:butt;stroke-linejoin:miter;stroke-miterlimit:10;stroke-dasharray:none;stroke-opacity:1"
       transform="matrix(-1.3333333,0,0,-1.3333333,2785.5118,2464.252)" />
    <path
       id="path24"
       d="m 21.25984,472.55906 -12.7559,-2.83465 v -90.23622 l 12.7559,-2.83465"
       style="fill:none;stroke:#ed1c24;stroke-width:2;stroke-linecap:butt;stroke-linejoin:miter;stroke-miterlimit:10;stroke-dasharray:none;stroke-opacity:1"
       transform="matrix(-1.3333333,0,0,-1.3333333,2785.5118,2464.252)" />
    <path
       id="path25"
       d="M 606.61417,867.40157 H 1482.5197"
       style="fill:none;stroke:#00a650;stroke-width:2;stroke-linecap:butt;stroke-linejoin:miter;stroke-miterlimit:10;stroke-dasharray:none;stroke-opacity:1"
       transform="matrix(1.3333333,0,0,-1.3333333,0,2464.252)" />
    <path
       id="path26"
       d="M 606.61417,867.40157 V 1150.8661"
       style="fill:none;stroke:#00a650;stroke-width:2;stroke-linecap:butt;stroke-linejoin:miter;stroke-miterlimit:10;stroke-dasharray:none;stroke-opacity:1"
       transform="matrix(1.3333333,0,0,-1.3333333,0,2464.252)" />
    <path
       id="path27"
       d="M 1482.5197,867.40157 V 1150.8661"
       style="fill:none;stroke:#00a650;stroke-width:2;stroke-linecap:butt;stroke-linejoin:miter;stroke-miterlimit:10;stroke-dasharray:none;stroke-opacity:1"
       transform="matrix(1.3333333,0,0,-1.3333333,0,2464.252)" />
    <path
       id="path28"
       d="m 324.56693,871.65354 v 274.96066 h 273.54331 l 8.50393,4.2519"
       style="fill:none;stroke:#ed1c24;stroke-width:2;stroke-linecap:butt;stroke-linejoin:miter;stroke-miterlimit:10;stroke-dasharray:none;stroke-opacity:1"
       transform="matrix(1.3333333,0,0,-1.3333333,0,2464.252)" />
    <path
       id="path29"
       d="m 1482.5197,1150.8661 8.5039,-4.2519 h 273.5433 V 871.65354"
       style="fill:none;stroke:#ed1c24;stroke-width:2;stroke-linecap:butt;stroke-linejoin:miter;stroke-miterlimit:10;stroke-dasharray:none;stroke-opacity:1"
       transform="matrix(1.3333333,0,0,-1.3333333,0,2464.252)" />
    <path
       id="path30"
       d="M 606.61417,867.40157 H 1482.5197"
       style="fill:none;stroke:#00a650;stroke-width:2;stroke-linecap:butt;stroke-linejoin:miter;stroke-miterlimit:10;stroke-dasharray:none;stroke-opacity:1"
       transform="matrix(1.3333333,0,0,1.3333333,0,918.4252)" />
    <path
       id="path31"
       d="M 606.61417,867.40157 V 1150.8661"
       style="fill:none;stroke:#00a650;stroke-width:2;stroke-linecap:butt;stroke-linejoin:miter;stroke-miterlimit:10;stroke-dasharray:none;stroke-opacity:1"
       transform="matrix(1.3333333,0,0,1.3333333,0,918.4252)" />
    <path
       id="path32"
       d="M 1482.5197,867.40157 V 1150.8661"
       style="fill:none;stroke:#00a650;stroke-width:2;stroke-linecap:butt;stroke-linejoin:miter;stroke-miterlimit:10;stroke-dasharray:none;stroke-opacity:1"
       transform="matrix(1.3333333,0,0,1.3333333,0,918.4252)" />
    <path
       id="path33"
       d="M 606.61417,1150.8661 H 1482.5197"
       style="fill:none;stroke:#ed1c24;stroke-width:2;stroke-linecap:butt;stroke-linejoin:miter;stroke-miterlimit:10;stroke-dasharray:none;stroke-opacity:1"
       transform="matrix(1.3333333,0,0,1.3333333,0,918.4252)" />
    <path
       id="path34"
       d="m 324.56693,871.65354 v 274.96066 h 273.54331 l 8.50393,4.2519"
       style="fill:none;stroke:#ed1c24;stroke-width:2;stroke-linecap:butt;stroke-linejoin:miter;stroke-miterlimit:10;stroke-dasharray:none;stroke-opacity:1"
       transform="matrix(1.3333333,0,0,1.3333333,0,918.4252)" />
    <path
       id="path35"
       d="m 1482.5197,1150.8661 8.5039,-4.2519 h 273.5433 V 871.65354"
       style="fill:none;stroke:#ed1c24;stroke-width:2;stroke-linecap:butt;stroke-linejoin:miter;stroke-miterlimit:10;stroke-dasharray:none;stroke-opacity:1"
       transform="matrix(1.3333333,0,0,1.3333333,0,918.4252)" />
    <path
       id="path36"
       d="M 598.11024,1159.3701 H 1491.0236"
       style="fill:none;stroke:#00a650;stroke-width:2;stroke-linecap:butt;stroke-linejoin:miter;stroke-miterlimit:10;stroke-dasharray:none;stroke-opacity:1"
       transform="matrix(1.3333333,0,0,-1.3333333,0,2464.252)" />
    <path
       id="path37"
       d="M 619.37008,1726.2992 H 1469.7638"
       style="fill:none;stroke:#00a650;stroke-width:2;stroke-linecap:butt;stroke-linejoin:miter;stroke-miterlimit:10;stroke-dasharray:none;stroke-opacity:1"
       transform="matrix(1.3333333,0,0,-1.3333333,0,2464.252)" />
    <path
       id="path38"
       d="m 606.61417,1150.8661 -8.50393,8.504 v 566.9291 h 21.25984 v 56.6929 c 0,31.3107 25.38228,56.6929 56.69291,56.6929 h 737.00791 c 31.3106,0 56.6929,-25.3822 56.6929,-56.6929 v -56.6929 h 21.2598 v -566.9291 l -8.5039,-8.504"
       style="fill:none;stroke:#ed1c24;stroke-width:2;stroke-linecap:butt;stroke-linejoin:miter;stroke-miterlimit:10;stroke-dasharray:none;stroke-opacity:1"
       transform="matrix(1.3333333,0,0,-1.3333333,0,2464.252)" />
  </g>
</svg>
