<svg xmlns="http://www.w3.org/2000/svg" viewBox="0 0 3994.9607 2146.7717" preserveAspectRatio="xMidYMid meet">
  <path d="M 969.44882,1299.685 V 575.43307" fill="none" stroke="#00AA00" stroke-width="3" transform="matrix(1.3333333,0,0,-1.3333333,0,2146.7717)" />
  <path d="M 1544.8819,1299.685 V 575.43307" fill="none" stroke="#00AA00" stroke-width="3" transform="matrix(1.3333333,0,0,-1.3333333,0,2146.7717)" />
  <path d="M 2420.7874,1299.685 V 575.43307" fill="none" stroke="#00AA00" stroke-width="3" transform="matrix(1.3333333,0,0,-1.3333333,0,2146.7717)" />
  <path d="M 2987.7165,1305.3543 V 575.43307" fill="none" stroke="#FF0000" stroke-width="3" transform="matrix(1.3333333,0,0,-1.3333333,0,2146.7717)" />
  <path d="M 93.54331,1303.0757 V 591.60691" fill="none" stroke="#00AA00" stroke-width="3" transform="matrix(1.3333333,0,0,-1.3333333,0,2146.7717)" />
  <path d="M 102.04724,1305.3543 8.50394,1280.2895 V 614.39314 l 97.79527,-26.20416" fill="none" stroke="#FF0000" stroke-width="3" transform="matrix(1.3333333,0,0,-1.3333333,0,2146.7717)" />
  <path d="M 102.04724,1313.8583 H 960.94488" fill="none" stroke="#00AA00" stroke-width="3" transform="matrix(1.3333333,0,0,-1.3333333,0,2146.7717)" />
  <path d="M 977.95276,1305.3543 H 1536.378" fill="none" stroke="#00AA00" stroke-width="3" transform="matrix(1.3333333,0,0,-1.3333333,0,2146.7717)" />
  <path d="m 1553.3858,1313.8583 h 858.8977" fill="none" stroke="#00AA00" stroke-width="3" transform="matrix(1.3333333,0,0,-1.3333333,0,2146.7717)" />
  <path d="m 2429.2913,1305.3543 h 558.4252" fill="none" stroke="#00AA00" stroke-width="3" transform="matrix(1.3333333,0,0,-1.3333333,0,2146.7717)" />
  <path d="m 102.04724,1305.3543 v 296.2205 H 960.94488 V 1299.685" fill="none" stroke="#FF0000" stroke-width="3" transform="matrix(1.3333333,0,0,-1.3333333,0,2146.7717)" />
  <path d="m 977.95276,1299.685 v 301.8898 H 1536.378 V 1299.685" fill="none" stroke="#FF0000" stroke-width="3" transform="matrix(1.3333333,0,0,-1.3333333,0,2146.7717)" />
  <path d="m 1553.3858,1299.685 v 301.8898 h 858.8977 V 1299.685" fill="none" stroke="#FF0000" stroke-width="3" transform="matrix(1.3333333,0,0,-1.3333333,0,2146.7717)" />
  <path d="m 2429.2913,1299.685 v 301.8898 h 558.4252 v -296.2205" fill="none" stroke="#FF0000" stroke-width="3" transform="matrix(1.3333333,0,0,-1.3333333,0,2146.7717)" />
  <path d="m 960.94488,1299.685 h 17.00788" fill="none" stroke="#FF0000" stroke-width="3" transform="matrix(1.3333333,0,0,-1.3333333,0,2146.7717)" />
  <path d="m 1536.378,1299.685 h 17.0078" fill="none" stroke="#FF0000" stroke-width="3" transform="matrix(1.3333333,0,0,-1.3333333,0,2146.7717)" />
  <path d="m 2412.2835,1299.685 h 17.0078" fill="none" stroke="#FF0000" stroke-width="3" transform="matrix(1.3333333,0,0,-1.3333333,0,2146.7717)" />
  <path d="m 106.29921,1305.3543 h 850.3937" fill="none" stroke="#00AA00" stroke-width="3" transform="matrix(1.3333333,0,0,1.3333333,0,-377.95276)" />
  <path d="m 1553.3858,1313.8583 h 858.8977" fill="none" stroke="#00AA00" stroke-width="3" transform="matrix(1.3333333,0,0,1.3333333,0,-377.95276)" />
  <path d="m 106.29921,1305.3543 v 571.1811 h 425.19685" fill="none" stroke="#FF0000" stroke-width="3" transform="matrix(1.3333333,0,0,1.3333333,0,-377.95276)" />
  <path d="m 956.69291,1305.3543 v 571.1811 H 531.49606" fill="none" stroke="#FF0000" stroke-width="3" transform="matrix(1.3333333,0,0,1.3333333,0,-377.95276)" />
  <path d="m 1553.3858,1313.8583 v 571.1811" fill="none" stroke="#00AA00" stroke-width="3" transform="matrix(1.3333333,0,0,1.3333333,0,-377.95276)" />
  <path d="m 2412.2835,1313.8583 v 571.1811" fill="none" stroke="#00AA00" stroke-width="3" transform="matrix(1.3333333,0,0,1.3333333,0,-377.95276)" />
  <path d="m 986.45669,1318.1102 v 12.7559 c 0,306.0615 248.11181,554.1733 554.17321,554.1733 h 884.4095 c 306.0614,0 554.1732,-248.1118 554.1732,-554.1733 v -12.7559" fill="none" stroke="#FF0000" stroke-width="3" transform="matrix(1.3333333,0,0,1.3333333,0,-377.95276)" />
  <path d="m 956.69291,1305.3543 12.75591,12.7559" fill="none" stroke="#FF0000" stroke-width="3" transform="matrix(1.3333333,0,0,1.3333333,0,-377.95276)" />
  <path d="m 1544.8819,1318.1102 8.5039,-4.2519" fill="none" stroke="#FF0000" stroke-width="3" transform="matrix(1.3333333,0,0,1.3333333,0,-377.95276)" />
  <path d="m 2420.7874,1318.1102 -8.5039,-4.2519" fill="none" stroke="#FF0000" stroke-width="3" transform="matrix(1.3333333,0,0,1.3333333,0,-377.95276)" />
  <path d="M 969.44882,1318.1102 H 1544.8819" fill="none" stroke="#FF0000" stroke-width="3" transform="matrix(1.3333333,0,0,1.3333333,0,-377.95276)" />
  <path d="m 2420.7874,1318.1102 h 566.9291" fill="none" stroke="#FF0000" stroke-width="3" transform="matrix(1.3333333,0,0,1.3333333,0,-377.95276)" />
</svg>
