<svg
   xmlns="http://www.w3.org/2000/svg"
   xml:space="preserve"
   preserveAspectRatio="none"
   viewBox="0 0 1105.7952758669999 589.60629936"
   version="1.1"
   id="Die Cut Templates"
  >
    <g id="cut">
        <path d="M87.87401577 362.83464576 L92.976377976 362.83464576" fill="none" stroke="#FF0000" stroke-width="1" id="Line"/>

        <path d="M92.976377976 362.83464576 L92.976377976 587.055118257" fill="none" stroke="#FF0000" stroke-width="1" id="Line"/>

        <path d="M92.976377976 587.055118257 L205.511811075 587.055118257" fill="none" stroke="#FF0000" stroke-width="1" id="Line"/>

        <path d="M253.700787465 587.055118257 L366.236220564 587.055118257" fill="none" stroke="#FF0000" stroke-width="1" id="Line"/>

        <path d="M366.236220564 587.055118257 L366.236220564 362.83464576" fill="none" stroke="#FF0000" stroke-width="1" id="Line"/>

        <path d="M366.236220564 362.83464576 L371.33858277 367.937007966" fill="none" stroke="#FF0000" stroke-width="1" id="Line"/>

        <path d="M371.33858277 367.937007966 L598.11023637 367.937007966" fill="none" stroke="#FF0000" stroke-width="1" id="Line"/>

        <path d="M598.11023637 367.937007966 L600.661417473 365.385826863" fill="none" stroke="#FF0000" stroke-width="1" id="Line"/>

        <path d="M470.55118122 367.937007966 L470.55118122 589.60629936" fill="none" stroke="#FF0000" stroke-width="1" id="Line"/>

        <path d="M470.55118122 589.60629936 L600.661417473 589.60629936" fill="none" stroke="#FF0000" stroke-width="1" id="Line"/>

        <path d="M600.661417473 589.60629936 L879.023622267 589.60629936" fill="none" stroke="#FF0000" stroke-width="1" id="Line"/>

        <path d="M879.023622267 589.60629936 L1009.13385852 589.60629936" fill="none" stroke="#FF0000" stroke-width="1" id="Line"/>

        <path d="M1009.13385852 589.60629936 L1009.13385852 367.937007966" fill="none" stroke="#FF0000" stroke-width="1" id="Line"/>

        <path d="M879.023622267 365.385826863 L881.57480337 367.937007966" fill="none" stroke="#FF0000" stroke-width="1" id="Line"/>

        <path d="M881.57480337 367.937007966 L1105.795275867 367.937007966" fill="none" stroke="#FF0000" stroke-width="1" id="Line"/>

        <path d="M1105.795275867 367.937007966 L1105.795275867 150.23622051" fill="none" stroke="#FF0000" stroke-width="1" id="Line"/>

        <path d="M87.87401577 150.23622051 L89.341336341 149.8430531481" fill="none" stroke="#FF0000" stroke-width="1" id="Line"/>

        <path d="M93.54330711 144.366938226 L93.54330711 34.299212607" fill="none" stroke="#FF0000" stroke-width="1" id="Line"/>

        <path d="M93.54330711 34.299212607 L365.66929143 34.299212607" fill="none" stroke="#FF0000" stroke-width="1" id="Line"/>

        <path d="M365.66929143 34.299212607 L365.66929143 144.56692917" fill="none" stroke="#FF0000" stroke-width="1" id="Line"/>

        <path d="M377.00787411 144.56692917 L377.00787411 34.299212607" fill="none" stroke="#FF0000" stroke-width="1" id="Line"/>

        <path d="M377.00787411 34.299212607 L592.44094503 34.299212607" fill="none" stroke="#FF0000" stroke-width="1" id="Line"/>

        <path d="M592.44094503 34.299212607 L592.44094503 144.56692917" fill="none" stroke="#FF0000" stroke-width="1" id="Line"/>

        <path d="M603.77952771 144.56692917 L603.77952771 34.299212607" fill="none" stroke="#FF0000" stroke-width="1" id="Line"/>

        <path d="M603.77952771 34.299212607 L875.90551203 34.299212607" fill="none" stroke="#FF0000" stroke-width="1" id="Line"/>

        <path d="M875.90551203 34.299212607 L875.90551203 144.56692917" fill="none" stroke="#FF0000" stroke-width="1" id="Line"/>

        <path d="M887.24409471 144.56692917 L887.24409471 34.299212607" fill="none" stroke="#FF0000" stroke-width="1" id="Line"/>

        <path d="M887.24409471 34.299212607 L1105.795275867 34.299212607" fill="none" stroke="#FF0000" stroke-width="1" id="Line"/>

        <path d="M1105.795275867 34.299212607 L1105.795275867 150.23622051" fill="none" stroke="#FF0000" stroke-width="1" id="Line"/>

        <path d="M31.18110237 165.427040872 L87.87401577 150.23622051" fill="none" stroke="#FF0000" stroke-width="1" id="Line"/>

        <path d="M31.18110237 347.643825398 L87.87401577 362.83464576" fill="none" stroke="#FF0000" stroke-width="1" id="Line"/>

        <path d="M31.18110237 347.643825398 L31.18110237 165.427040872" fill="none" stroke="#FF0000" stroke-width="1" id="Line"/>

        <path d="M 253.700787465 587.055118257 A 24.094488195 24.094488195 0 0 0 205.511811075 587.055118257" fill="none" stroke="#FF0000" stroke-width="1" id="Arc"/>
        <path d="M 89.34133634099811 149.84305314807065 A 5.66929134 5.66929134 0 0 0 93.54330711 144.366938226" fill="none" stroke="#FF0000" stroke-width="1" id="Arc"/>
        <path d="M 365.66929143000004 144.56692917 A 5.66929134 5.66929134 0 0 0 377.00787411 144.56692917" fill="none" stroke="#FF0000" stroke-width="1" id="Arc"/>
        <path d="M 592.4409450300001 144.56692917 A 5.66929134 5.66929134 0 0 0 603.77952771 144.56692917" fill="none" stroke="#FF0000" stroke-width="1" id="Arc"/>
        <path d="M 875.9055120300001 144.56692917 A 5.66929134 5.66929134 0 0 0 887.24409471 144.56692917" fill="none" stroke="#FF0000" stroke-width="1" id="Arc"/>
    </g>
    <g id="crease">
        <path d="M92.976377976 362.83464576 L366.236220564 362.83464576" fill="none" stroke="#00FF00" stroke-width="1" id="Line"/>

        <path d="M600.661417473 365.385826863 L879.023622267 365.385826863" fill="none" stroke="#00FF00" stroke-width="1" id="Line"/>

        <path d="M879.023622267 365.385826863 L879.023622267 589.60629936" fill="none" stroke="#00FF00" stroke-width="1" id="Line"/>

        <path d="M600.661417473 589.60629936 L600.661417473 365.385826863" fill="none" stroke="#00FF00" stroke-width="1" id="Line"/>

        <path d="M87.87401577 362.83464576 L87.87401577 150.23622051" fill="none" stroke="#00FF00" stroke-width="1" id="Line"/>

        <path d="M371.33858277 367.937007966 L371.33858277 150.23622051" fill="none" stroke="#00FF00" stroke-width="1" id="Line"/>

        <path d="M598.11023637 367.937007966 L598.11023637 150.23622051" fill="none" stroke="#00FF00" stroke-width="1" id="Line"/>

        <path d="M881.57480337 367.937007966 L881.57480337 150.23622051" fill="none" stroke="#00FF00" stroke-width="1" id="Line"/>

        <path d="M92.4708700042 147.685039407 L366.6037910273 147.685039407" fill="none" stroke="#00FF00" stroke-width="1" id="Line"/>

        <path d="M371.33858277 150.23622051 L598.11023637 150.23622051" fill="none" stroke="#00FF00" stroke-width="1" id="Line"/>

        <path d="M602.8450281127 147.685039407 L876.8400116273 147.685039407" fill="none" stroke="#00FF00" stroke-width="1" id="Line"/>

        <path d="M881.57480337 150.23622051 L1105.795275867 150.23622051" fill="none" stroke="#00FF00" stroke-width="1" id="Line"/>

    </g>
    

</svg>
