<?xml version="1.0" encoding="UTF-8" standalone="no"?>
<!-- Created with Inkscape (http://www.inkscape.org/) -->

<svg
   version="1.1"
   id="svg1"
   width="2906.4568"
   height="2725.0393"
   viewBox="0 0 2906.4568 2725.0393"
   sodipodi:docname="model.pdf"
   xmlns:inkscape="http://www.inkscape.org/namespaces/inkscape"
   xmlns:sodipodi="http://sodipodi.sourceforge.net/DTD/sodipodi-0.dtd"
   xmlns="http://www.w3.org/2000/svg"
   xmlns:svg="http://www.w3.org/2000/svg">
  <defs
     id="defs1" />
  <sodipodi:namedview
     id="namedview1"
     pagecolor="#ffffff"
     bordercolor="#000000"
     borderopacity="0.25"
     inkscape:showpageshadow="2"
     inkscape:pageopacity="0.0"
     inkscape:pagecheckerboard="0"
     inkscape:deskcolor="#d1d1d1">
    <inkscape:page
       x="0"
       y="0"
       inkscape:label="1"
       id="page1"
       width="2906.4568"
       height="2725.0393"
       margin="0"
       bleed="0" />
  </sodipodi:namedview>
  <g
     id="g1"
     inkscape:groupmode="layer"
     inkscape:label="1">
    <path
       id="path1"
       d="M 626.45669,875.90551 V 778.46457"
       style="fill:none;stroke:#00a650;stroke-width:2;stroke-linecap:butt;stroke-linejoin:miter;stroke-miterlimit:10;stroke-dasharray:none;stroke-opacity:1"
       transform="matrix(1.3333333,0,0,-1.3333333,0,2725.0394)" />
    <path
       id="path2"
       d="m 626.45669,291.9685 v 97.44095"
       style="fill:none;stroke:#00a650;stroke-width:2;stroke-linecap:butt;stroke-linejoin:miter;stroke-miterlimit:10;stroke-dasharray:none;stroke-opacity:1"
       transform="matrix(1.3333333,0,0,-1.3333333,0,2725.0394)" />
    <path
       id="path3"
       d="M 334.48819,875.90551 V 291.9685"
       style="fill:none;stroke:#00a650;stroke-width:2;stroke-linecap:butt;stroke-linejoin:miter;stroke-miterlimit:10;stroke-dasharray:none;stroke-opacity:1"
       transform="matrix(1.3333333,0,0,-1.3333333,0,2725.0394)" />
    <path
       id="path4"
       d="M 308.97638,867.40157 V 300.47244"
       style="fill:none;stroke:#00a650;stroke-width:2;stroke-linecap:butt;stroke-linejoin:miter;stroke-miterlimit:10;stroke-dasharray:none;stroke-opacity:1"
       transform="matrix(1.3333333,0,0,-1.3333333,0,2725.0394)" />
    <path
       id="path5"
       d="m 634.96063,871.65354 -8.50394,4.25197 h -291.9685 l -25.51181,-8.50394 H 21.25984 v -88.937"
       style="fill:none;stroke:#ed1c24;stroke-width:2;stroke-linecap:butt;stroke-linejoin:miter;stroke-miterlimit:10;stroke-dasharray:none;stroke-opacity:1"
       transform="matrix(1.3333333,0,0,-1.3333333,0,2725.0394)" />
    <path
       id="path6"
       d="m 643.46457,296.22047 -17.00788,-4.25197 h -291.9685 l -25.51181,8.50394 H 21.25984 v 88.93701"
       style="fill:none;stroke:#ed1c24;stroke-width:2;stroke-linecap:butt;stroke-linejoin:miter;stroke-miterlimit:10;stroke-dasharray:none;stroke-opacity:1"
       transform="matrix(1.3333333,0,0,-1.3333333,0,2725.0394)" />
    <path
       id="path7"
       d="M 626.45669,682.55906 V 485.31496"
       style="fill:none;stroke:#00a650;stroke-width:2;stroke-linecap:butt;stroke-linejoin:miter;stroke-miterlimit:10;stroke-dasharray:none;stroke-opacity:1"
       transform="matrix(1.3333333,0,0,-1.3333333,0,2725.0394)" />
    <path
       id="path8"
       d="m 626.45669,778.46457 h 29.76378 v -95.90551 h -29.76378 z"
       style="fill:none;stroke:#ed1c24;stroke-width:2;stroke-linecap:butt;stroke-linejoin:miter;stroke-miterlimit:10;stroke-dasharray:none;stroke-opacity:1"
       transform="matrix(1.3333333,0,0,-1.3333333,0,2725.0394)" />
    <path
       id="path9"
       d="m 626.45669,485.31496 h 29.76378 v -95.90551 h -29.76378 z"
       style="fill:none;stroke:#ed1c24;stroke-width:2;stroke-linecap:butt;stroke-linejoin:miter;stroke-miterlimit:10;stroke-dasharray:none;stroke-opacity:1"
       transform="matrix(1.3333333,0,0,-1.3333333,0,2725.0394)" />
    <path
       id="path10"
       d="M 21.25984,682.55906 V 485.31496"
       style="fill:none;stroke:#ed1c24;stroke-width:2;stroke-linecap:butt;stroke-linejoin:miter;stroke-miterlimit:10;stroke-dasharray:none;stroke-opacity:1"
       transform="matrix(1.3333333,0,0,-1.3333333,0,2725.0394)" />
    <path
       id="path11"
       d="M 21.25984,778.46457 8.50394,775.62992 V 685.3937 l 12.7559,-2.83464"
       style="fill:none;stroke:#ed1c24;stroke-width:2;stroke-linecap:butt;stroke-linejoin:miter;stroke-miterlimit:10;stroke-dasharray:none;stroke-opacity:1"
       transform="matrix(1.3333333,0,0,-1.3333333,0,2725.0394)" />
    <path
       id="path12"
       d="m 21.25984,485.31496 -12.7559,-2.83465 v -90.23622 l 12.7559,-2.83464"
       style="fill:none;stroke:#ed1c24;stroke-width:2;stroke-linecap:butt;stroke-linejoin:miter;stroke-miterlimit:10;stroke-dasharray:none;stroke-opacity:1"
       transform="matrix(1.3333333,0,0,-1.3333333,0,2725.0394)" />
    <path
       id="path13"
       d="M 626.45669,875.90551 V 778.46457"
       style="fill:none;stroke:#00a650;stroke-width:2;stroke-linecap:butt;stroke-linejoin:miter;stroke-miterlimit:10;stroke-dasharray:none;stroke-opacity:1"
       transform="matrix(-1.3333333,0,0,-1.3333333,2906.4567,2725.0394)" />
    <path
       id="path14"
       d="m 626.45669,291.9685 v 97.44095"
       style="fill:none;stroke:#00a650;stroke-width:2;stroke-linecap:butt;stroke-linejoin:miter;stroke-miterlimit:10;stroke-dasharray:none;stroke-opacity:1"
       transform="matrix(-1.3333333,0,0,-1.3333333,2906.4567,2725.0394)" />
    <path
       id="path15"
       d="M 334.48819,875.90551 V 291.9685"
       style="fill:none;stroke:#00a650;stroke-width:2;stroke-linecap:butt;stroke-linejoin:miter;stroke-miterlimit:10;stroke-dasharray:none;stroke-opacity:1"
       transform="matrix(-1.3333333,0,0,-1.3333333,2906.4567,2725.0394)" />
    <path
       id="path16"
       d="M 308.97638,867.40157 V 300.47244"
       style="fill:none;stroke:#00a650;stroke-width:2;stroke-linecap:butt;stroke-linejoin:miter;stroke-miterlimit:10;stroke-dasharray:none;stroke-opacity:1"
       transform="matrix(-1.3333333,0,0,-1.3333333,2906.4567,2725.0394)" />
    <path
       id="path17"
       d="m 634.96063,871.65354 -8.50394,4.25197 h -291.9685 l -25.51181,-8.50394 H 21.25984 v -88.937"
       style="fill:none;stroke:#ed1c24;stroke-width:2;stroke-linecap:butt;stroke-linejoin:miter;stroke-miterlimit:10;stroke-dasharray:none;stroke-opacity:1"
       transform="matrix(-1.3333333,0,0,-1.3333333,2906.4567,2725.0394)" />
    <path
       id="path18"
       d="m 643.46457,296.22047 -17.00788,-4.25197 h -291.9685 l -25.51181,8.50394 H 21.25984 v 88.93701"
       style="fill:none;stroke:#ed1c24;stroke-width:2;stroke-linecap:butt;stroke-linejoin:miter;stroke-miterlimit:10;stroke-dasharray:none;stroke-opacity:1"
       transform="matrix(-1.3333333,0,0,-1.3333333,2906.4567,2725.0394)" />
    <path
       id="path19"
       d="M 626.45669,682.55906 V 485.31496"
       style="fill:none;stroke:#00a650;stroke-width:2;stroke-linecap:butt;stroke-linejoin:miter;stroke-miterlimit:10;stroke-dasharray:none;stroke-opacity:1"
       transform="matrix(-1.3333333,0,0,-1.3333333,2906.4567,2725.0394)" />
    <path
       id="path20"
       d="m 626.45669,778.46457 h 29.76378 v -95.90551 h -29.76378 z"
       style="fill:none;stroke:#ed1c24;stroke-width:2;stroke-linecap:butt;stroke-linejoin:miter;stroke-miterlimit:10;stroke-dasharray:none;stroke-opacity:1"
       transform="matrix(-1.3333333,0,0,-1.3333333,2906.4567,2725.0394)" />
    <path
       id="path21"
       d="m 626.45669,485.31496 h 29.76378 v -95.90551 h -29.76378 z"
       style="fill:none;stroke:#ed1c24;stroke-width:2;stroke-linecap:butt;stroke-linejoin:miter;stroke-miterlimit:10;stroke-dasharray:none;stroke-opacity:1"
       transform="matrix(-1.3333333,0,0,-1.3333333,2906.4567,2725.0394)" />
    <path
       id="path22"
       d="M 21.25984,682.55906 V 485.31496"
       style="fill:none;stroke:#ed1c24;stroke-width:2;stroke-linecap:butt;stroke-linejoin:miter;stroke-miterlimit:10;stroke-dasharray:none;stroke-opacity:1"
       transform="matrix(-1.3333333,0,0,-1.3333333,2906.4567,2725.0394)" />
    <path
       id="path23"
       d="M 21.25984,778.46457 8.50394,775.62992 V 685.3937 l 12.7559,-2.83464"
       style="fill:none;stroke:#ed1c24;stroke-width:2;stroke-linecap:butt;stroke-linejoin:miter;stroke-miterlimit:10;stroke-dasharray:none;stroke-opacity:1"
       transform="matrix(-1.3333333,0,0,-1.3333333,2906.4567,2725.0394)" />
    <path
       id="path24"
       d="m 21.25984,485.31496 -12.7559,-2.83465 v -90.23622 l 12.7559,-2.83464"
       style="fill:none;stroke:#ed1c24;stroke-width:2;stroke-linecap:butt;stroke-linejoin:miter;stroke-miterlimit:10;stroke-dasharray:none;stroke-opacity:1"
       transform="matrix(-1.3333333,0,0,-1.3333333,2906.4567,2725.0394)" />
    <path
       id="path25"
       d="M 634.96063,871.65354 H 1544.8819"
       style="fill:none;stroke:#00a650;stroke-width:2;stroke-linecap:butt;stroke-linejoin:miter;stroke-miterlimit:10;stroke-dasharray:none;stroke-opacity:1"
       transform="matrix(1.3333333,0,0,-1.3333333,0,2725.0394)" />
    <path
       id="path26"
       d="M 634.96063,871.65354 V 1159.3701"
       style="fill:none;stroke:#00a650;stroke-width:2;stroke-linecap:butt;stroke-linejoin:miter;stroke-miterlimit:10;stroke-dasharray:none;stroke-opacity:1"
       transform="matrix(1.3333333,0,0,-1.3333333,0,2725.0394)" />
    <path
       id="path27"
       d="M 1544.8819,871.65354 V 1159.3701"
       style="fill:none;stroke:#00a650;stroke-width:2;stroke-linecap:butt;stroke-linejoin:miter;stroke-miterlimit:10;stroke-dasharray:none;stroke-opacity:1"
       transform="matrix(1.3333333,0,0,-1.3333333,0,2725.0394)" />
    <path
       id="path28"
       d="M 351.49606,875.90551 V 1159.3701 H 660.47244"
       style="fill:none;stroke:#ed1c24;stroke-width:2;stroke-linecap:butt;stroke-linejoin:miter;stroke-miterlimit:10;stroke-dasharray:none;stroke-opacity:1"
       transform="matrix(1.3333333,0,0,-1.3333333,0,2725.0394)" />
    <path
       id="path29"
       d="m 1519.3701,1159.3701 h 308.9764 V 875.90551"
       style="fill:none;stroke:#ed1c24;stroke-width:2;stroke-linecap:butt;stroke-linejoin:miter;stroke-miterlimit:10;stroke-dasharray:none;stroke-opacity:1"
       transform="matrix(1.3333333,0,0,-1.3333333,0,2725.0394)" />
    <path
       id="path30"
       d="M 643.46457,296.22047 H 1536.378"
       style="fill:none;stroke:#00a650;stroke-width:2;stroke-linecap:butt;stroke-linejoin:miter;stroke-miterlimit:10;stroke-dasharray:none;stroke-opacity:1"
       transform="matrix(1.3333333,0,0,-1.3333333,0,2725.0394)" />
    <path
       id="path31"
       d="M 643.46457,296.22047 V 8.50394"
       style="fill:none;stroke:#00a650;stroke-width:2;stroke-linecap:butt;stroke-linejoin:miter;stroke-miterlimit:10;stroke-dasharray:none;stroke-opacity:1"
       transform="matrix(1.3333333,0,0,-1.3333333,0,2725.0394)" />
    <path
       id="path32"
       d="M 1536.378,296.22047 V 8.50394"
       style="fill:none;stroke:#00a650;stroke-width:2;stroke-linecap:butt;stroke-linejoin:miter;stroke-miterlimit:10;stroke-dasharray:none;stroke-opacity:1"
       transform="matrix(1.3333333,0,0,-1.3333333,0,2725.0394)" />
    <path
       id="path33"
       d="M 643.46457,8.50394 H 1536.378"
       style="fill:none;stroke:#ed1c24;stroke-width:2;stroke-linecap:butt;stroke-linejoin:miter;stroke-miterlimit:10;stroke-dasharray:none;stroke-opacity:1"
       transform="matrix(1.3333333,0,0,-1.3333333,0,2725.0394)" />
    <path
       id="path34"
       d="M 351.49606,291.9685 V 8.50394 h 291.96851"
       style="fill:none;stroke:#ed1c24;stroke-width:2;stroke-linecap:butt;stroke-linejoin:miter;stroke-miterlimit:10;stroke-dasharray:none;stroke-opacity:1"
       transform="matrix(1.3333333,0,0,-1.3333333,0,2725.0394)" />
    <path
       id="path35"
       d="m 1536.378,8.50394 h 291.9685 V 291.9685"
       style="fill:none;stroke:#ed1c24;stroke-width:2;stroke-linecap:butt;stroke-linejoin:miter;stroke-miterlimit:10;stroke-dasharray:none;stroke-opacity:1"
       transform="matrix(1.3333333,0,0,-1.3333333,0,2725.0394)" />
    <path
       id="path36"
       d="M 660.47244,1163.6221 H 1519.3701"
       style="fill:none;stroke:#00a650;stroke-width:2;stroke-linecap:butt;stroke-linejoin:miter;stroke-miterlimit:10;stroke-dasharray:none;stroke-opacity:1"
       transform="matrix(1.3333333,0,0,-1.3333333,0,2725.0394)" />
    <path
       id="path37"
       d="M 660.47244,1747.5591 H 1519.3701"
       style="fill:none;stroke:#00a650;stroke-width:2;stroke-linecap:butt;stroke-linejoin:miter;stroke-miterlimit:10;stroke-dasharray:none;stroke-opacity:1"
       transform="matrix(1.3333333,0,0,-1.3333333,0,2725.0394)" />
    <path
       id="path38"
       d="m 634.96063,1751.811 v 283.4646"
       style="fill:none;stroke:#00a650;stroke-width:2;stroke-linecap:butt;stroke-linejoin:miter;stroke-miterlimit:10;stroke-dasharray:none;stroke-opacity:1"
       transform="matrix(1.3333333,0,0,-1.3333333,0,2725.0394)" />
    <path
       id="path39"
       d="m 1544.8819,1751.811 v 283.4646"
       style="fill:none;stroke:#00a650;stroke-width:2;stroke-linecap:butt;stroke-linejoin:miter;stroke-miterlimit:10;stroke-dasharray:none;stroke-opacity:1"
       transform="matrix(1.3333333,0,0,-1.3333333,0,2725.0394)" />
    <path
       id="path40"
       d="m 660.47244,1159.3701 v 17.0079"
       style="fill:none;stroke:#ed1c24;stroke-width:2;stroke-linecap:butt;stroke-linejoin:miter;stroke-miterlimit:10;stroke-dasharray:none;stroke-opacity:1"
       transform="matrix(1.3333333,0,0,-1.3333333,0,2725.0394)" />
    <path
       id="path41"
       d="m 1519.3701,1159.3701 v 17.0079"
       style="fill:none;stroke:#ed1c24;stroke-width:2;stroke-linecap:butt;stroke-linejoin:miter;stroke-miterlimit:10;stroke-dasharray:none;stroke-opacity:1"
       transform="matrix(1.3333333,0,0,-1.3333333,0,2725.0394)" />
    <path
       id="path42"
       d="m 660.47244,1734.8032 v 17.0078"
       style="fill:none;stroke:#ed1c24;stroke-width:2;stroke-linecap:butt;stroke-linejoin:miter;stroke-miterlimit:10;stroke-dasharray:none;stroke-opacity:1"
       transform="matrix(1.3333333,0,0,-1.3333333,0,2725.0394)" />
    <path
       id="path43"
       d="m 1519.3701,1734.8032 v 17.0078"
       style="fill:none;stroke:#ed1c24;stroke-width:2;stroke-linecap:butt;stroke-linejoin:miter;stroke-miterlimit:10;stroke-dasharray:none;stroke-opacity:1"
       transform="matrix(1.3333333,0,0,-1.3333333,0,2725.0394)" />
    <path
       id="path44"
       d="M 660.47244,1751.811 H 634.96063"
       style="fill:none;stroke:#ed1c24;stroke-width:2;stroke-linecap:butt;stroke-linejoin:miter;stroke-miterlimit:10;stroke-dasharray:none;stroke-opacity:1"
       transform="matrix(1.3333333,0,0,-1.3333333,0,2725.0394)" />
    <path
       id="path45"
       d="m 1519.3701,1751.811 h 25.5118"
       style="fill:none;stroke:#ed1c24;stroke-width:2;stroke-linecap:butt;stroke-linejoin:miter;stroke-miterlimit:10;stroke-dasharray:none;stroke-opacity:1"
       transform="matrix(1.3333333,0,0,-1.3333333,0,2725.0394)" />
    <path
       id="path46"
       d="M 634.96063,2035.2756 H 1544.8819"
       style="fill:none;stroke:#ed1c24;stroke-width:2;stroke-linecap:butt;stroke-linejoin:miter;stroke-miterlimit:10;stroke-dasharray:none;stroke-opacity:1"
       transform="matrix(1.3333333,0,0,-1.3333333,0,2725.0394)" />
    <path
       id="path47"
       d="m 1802.8827,1869.2323 c -46.0258,101.1289 -146.8909,166.0433 -258.0008,166.0433"
       style="fill:none;stroke:#ed1c24;stroke-width:2;stroke-linecap:butt;stroke-linejoin:miter;stroke-miterlimit:10;stroke-dasharray:none;stroke-opacity:1"
       transform="matrix(1.3333333,0,0,-1.3333333,0,2725.0394)" />
    <path
       id="path48"
       d="m 1744.5589,1769.2805 c 11.294,0.9881 22.1862,4.6715 31.7619,10.7409 9.5758,6.0694 17.5556,14.3476 23.2694,24.1397 5.7139,9.792 8.995,20.812 9.5679,32.1348 0.5729,11.3227 -1.5791,22.6176 -6.2754,32.9364"
       style="fill:none;stroke:#ed1c24;stroke-width:2;stroke-linecap:butt;stroke-linejoin:miter;stroke-miterlimit:10;stroke-dasharray:none;stroke-opacity:1"
       transform="matrix(1.3333333,0,0,-1.3333333,0,2725.0394)" />
    <path
       id="path49"
       d="m 1544.8819,1751.811 199.677,17.4695"
       style="fill:none;stroke:#ed1c24;stroke-width:2;stroke-linecap:butt;stroke-linejoin:miter;stroke-miterlimit:10;stroke-dasharray:none;stroke-opacity:1"
       transform="matrix(1.3333333,0,0,-1.3333333,0,2725.0394)" />
    <path
       id="path50"
       d="m 892.96142,1869.2323 c -46.02575,101.1289 -146.89086,166.0433 -258.00079,166.0433"
       style="fill:none;stroke:#ed1c24;stroke-width:2;stroke-linecap:butt;stroke-linejoin:miter;stroke-miterlimit:10;stroke-dasharray:none;stroke-opacity:1"
       transform="matrix(-1.3333333,0,0,-1.3333333,1693.2283,2725.0394)" />
    <path
       id="path51"
       d="m 834.63761,1769.2805 c 11.29407,0.9881 22.18623,4.6715 31.76196,10.7409 9.57574,6.0694 17.55552,14.3476 23.26937,24.1397 5.71385,9.792 8.99498,20.812 9.56788,32.1348 0.57291,11.3227 -1.57912,22.6176 -6.2754,32.9364"
       style="fill:none;stroke:#ed1c24;stroke-width:2;stroke-linecap:butt;stroke-linejoin:miter;stroke-miterlimit:10;stroke-dasharray:none;stroke-opacity:1"
       transform="matrix(-1.3333333,0,0,-1.3333333,1693.2283,2725.0394)" />
    <path
       id="path52"
       d="m 634.96063,1751.811 199.67698,17.4695"
       style="fill:none;stroke:#ed1c24;stroke-width:2;stroke-linecap:butt;stroke-linejoin:miter;stroke-miterlimit:10;stroke-dasharray:none;stroke-opacity:1"
       transform="matrix(-1.3333333,0,0,-1.3333333,1693.2283,2725.0394)" />
    <path
       id="path53"
       d="m 1519.3701,1176.378 v 558.4252"
       style="fill:none;stroke:#00a650;stroke-width:2;stroke-linecap:butt;stroke-linejoin:miter;stroke-miterlimit:10;stroke-dasharray:none;stroke-opacity:1"
       transform="matrix(1.3333333,0,0,-1.3333333,0,2725.0394)" />
    <path
       id="path54"
       d="m 1519.3701,1176.378 v 0 l 229.1613,61.4035 c 31.5433,8.452 54.3033,38.1134 54.3033,70.7694 v 294.0793 c 0,32.656 -22.76,62.3174 -54.3033,70.7694 l -229.1613,61.4036 v 0"
       style="fill:none;stroke:#ed1c24;stroke-width:2;stroke-linecap:butt;stroke-linejoin:miter;stroke-miterlimit:10;stroke-dasharray:none;stroke-opacity:1"
       transform="matrix(1.3333333,0,0,-1.3333333,0,2725.0394)" />
    <path
       id="path55"
       d="m 660.47244,1176.378 v 558.4252"
       style="fill:none;stroke:#00a650;stroke-width:2;stroke-linecap:butt;stroke-linejoin:miter;stroke-miterlimit:10;stroke-dasharray:none;stroke-opacity:1"
       transform="matrix(-1.3333333,0,0,-1.3333333,1761.2598,2725.0394)" />
    <path
       id="path56"
       d="m 660.47244,1176.378 v 0 l 229.16132,61.4035 c 31.5433,8.452 54.30325,38.1134 54.30325,70.7694 v 294.0793 c 0,32.656 -22.75995,62.3174 -54.30325,70.7694 l -229.16132,61.4036 v 0"
       style="fill:none;stroke:#ed1c24;stroke-width:2;stroke-linecap:butt;stroke-linejoin:miter;stroke-miterlimit:10;stroke-dasharray:none;stroke-opacity:1"
       transform="matrix(-1.3333333,0,0,-1.3333333,1761.2598,2725.0394)" />
  </g>
</svg>
