<?xml version="1.0" encoding="UTF-8" standalone="no"?>
<!-- Created with Inkscape (http://www.inkscape.org/) -->

<svg
   version="1.1"
   id="svg1"
   width="975.02362"
   height="863.62207"
   viewBox="0 0 975.02362 863.62207"
   sodipodi:docname="ECMA-A20.20.03.03_80_40_120.pdf"
   xmlns:inkscape="http://www.inkscape.org/namespaces/inkscape"
   xmlns:sodipodi="http://sodipodi.sourceforge.net/DTD/sodipodi-0.dtd"
   xmlns="http://www.w3.org/2000/svg"
   xmlns:svg="http://www.w3.org/2000/svg">
  <defs
     id="defs1" />
  <sodipodi:namedview
     id="namedview1"
     pagecolor="#ffffff"
     bordercolor="#000000"
     borderopacity="0.25"
     inkscape:showpageshadow="2"
     inkscape:pageopacity="0.0"
     inkscape:pagecheckerboard="0"
     inkscape:deskcolor="#aaaaaa">
    <inkscape:page
       x="0"
       y="0"
       inkscape:label="1"
       id="page1"
       width="975.02362"
       height="863.62207"
       margin="0"
       bleed="0" />
  </sodipodi:namedview>
  <g
     id="g1"
     inkscape:groupmode="layer"
     inkscape:label="1">
    <path
       id="path1"
       d="M 270.70866,493.93701 V 153.77953"
       style="fill:none;stroke:#000000;stroke-width:2;stroke-linecap:butt;stroke-linejoin:miter;stroke-miterlimit:10;stroke-dasharray:none;stroke-opacity:1"
       transform="matrix(1.3333333,0,0,-1.3333333,0,863.62205)" />
    <path
       id="path2"
       d="M 384.09449,493.93701 V 153.77953"
       style="fill:none;stroke:#000000;stroke-width:2;stroke-linecap:butt;stroke-linejoin:miter;stroke-miterlimit:10;stroke-dasharray:none;stroke-opacity:1"
       transform="matrix(1.3333333,0,0,-1.3333333,0,863.62205)" />
    <path
       id="path3"
       d="M 610.86614,493.93701 V 153.77953"
       style="fill:none;stroke:#000000;stroke-width:2;stroke-linecap:butt;stroke-linejoin:miter;stroke-miterlimit:10;stroke-dasharray:none;stroke-opacity:1"
       transform="matrix(1.3333333,0,0,-1.3333333,0,863.62205)" />
    <path
       id="path4"
       d="m 722.76378,493.93701 v -0.99213 -338.17323 -0.99212"
       style="fill:none;stroke:#444444;stroke-width:2;stroke-linecap:butt;stroke-linejoin:miter;stroke-miterlimit:10;stroke-dasharray:none;stroke-opacity:1"
       transform="matrix(1.3333333,0,0,-1.3333333,0,863.62205)" />
    <path
       id="path5"
       d="M 43.93701,493.93701 V 153.77953"
       style="fill:none;stroke:#000000;stroke-width:2;stroke-linecap:butt;stroke-linejoin:miter;stroke-miterlimit:10;stroke-dasharray:none;stroke-opacity:1"
       transform="matrix(1.3333333,0,0,-1.3333333,0,863.62205)" />
    <path
       id="path6"
       d="M 43.93701,493.93701 8.50394,484.44275 V 163.27379 l 35.43307,-9.49426"
       style="fill:none;stroke:#444444;stroke-width:2;stroke-linecap:butt;stroke-linejoin:miter;stroke-miterlimit:10;stroke-dasharray:none;stroke-opacity:1"
       transform="matrix(1.3333333,0,0,-1.3333333,0,863.62205)" />
    <path
       id="path7"
       d="M 272.19685,493.93701 H 384.09449"
       style="fill:none;stroke:#000000;stroke-width:2;stroke-linecap:butt;stroke-linejoin:miter;stroke-miterlimit:10;stroke-dasharray:none;stroke-opacity:1"
       transform="scale(1.3333333)" />
    <path
       id="path8"
       d="M 384.09449,494.92913 H 610.86614"
       style="fill:none;stroke:#000000;stroke-width:2;stroke-linecap:butt;stroke-linejoin:miter;stroke-miterlimit:10;stroke-dasharray:none;stroke-opacity:1"
       transform="scale(1.3333333)" />
    <path
       id="path9"
       d="M 610.86614,493.93701 H 722.76378"
       style="fill:none;stroke:#000000;stroke-width:2;stroke-linecap:butt;stroke-linejoin:miter;stroke-miterlimit:10;stroke-dasharray:none;stroke-opacity:1"
       transform="scale(1.3333333)" />
    <path
       id="path10"
       d="M 43.93701,493.93701 H 272.19685"
       style="fill:none;stroke:#444444;stroke-width:2;stroke-linecap:butt;stroke-linejoin:miter;stroke-miterlimit:10;stroke-dasharray:none;stroke-opacity:1"
       transform="scale(1.3333333)" />
    <path
       id="path11"
       d="m 610.86614,493.93701 8.50394,8.50393 5.66929,64.13386 h 78.3907 l 13.66442,-52.79527 5.66929,-5.66929 v -14.17323"
       style="fill:none;stroke:#444444;stroke-width:2;stroke-linecap:butt;stroke-linejoin:miter;stroke-miterlimit:10;stroke-dasharray:none;stroke-opacity:1"
       transform="scale(1.3333333)" />
    <path
       id="path12"
       d="m 384.09449,493.93701 8.50394,8.50393 5.66929,64.13386 h 78.39069 l 13.66442,-52.79527 5.6693,-5.66929 v -14.17323"
       style="fill:none;stroke:#444444;stroke-width:2;stroke-linecap:butt;stroke-linejoin:miter;stroke-miterlimit:10;stroke-dasharray:none;stroke-opacity:1"
       transform="matrix(-1.3333333,0,0,1.3333333,1024.252,0)" />
    <path
       id="path13"
       d="M 384.09449,493.93701 V 607.32283"
       style="fill:none;stroke:#444444;stroke-width:2;stroke-linecap:butt;stroke-linejoin:miter;stroke-miterlimit:10;stroke-dasharray:none;stroke-opacity:1"
       transform="scale(1.3333333)" />
    <path
       id="path14"
       d="M 610.86614,493.93701 V 607.32283"
       style="fill:none;stroke:#444444;stroke-width:2;stroke-linecap:butt;stroke-linejoin:miter;stroke-miterlimit:10;stroke-dasharray:none;stroke-opacity:1"
       transform="scale(1.3333333)" />
    <path
       id="path15"
       d="M 403.93701,605.19685 H 591.02362"
       style="fill:none;stroke:#000000;stroke-width:2;stroke-linecap:butt;stroke-linejoin:miter;stroke-miterlimit:10;stroke-dasharray:none;stroke-opacity:1"
       transform="scale(1.3333333)" />
    <path
       id="path16"
       d="m 384.09449,607.32283 h 19.84252 v -5.66929"
       style="fill:none;stroke:#444444;stroke-width:2;stroke-linecap:butt;stroke-linejoin:miter;stroke-miterlimit:10;stroke-dasharray:none;stroke-opacity:1"
       transform="scale(1.3333333)" />
    <path
       id="path17"
       d="m 610.86614,607.32283 h -19.84252 v -5.66929"
       style="fill:none;stroke:#444444;stroke-width:2;stroke-linecap:butt;stroke-linejoin:miter;stroke-miterlimit:10;stroke-dasharray:none;stroke-opacity:1"
       transform="scale(1.3333333)" />
    <path
       id="path18"
       d="m 385.18583,607.32283 v 14.17323 c 0,9.78458 4.42913,14.76378 8.85826,17.71654 h 206.87245 c 4.42913,-2.95276 8.85826,-7.93196 8.85826,-17.71654 v -14.17323"
       style="fill:none;stroke:#444444;stroke-width:2;stroke-linecap:butt;stroke-linejoin:miter;stroke-miterlimit:10;stroke-dasharray:none;stroke-opacity:1"
       transform="scale(1.3333333)" />
    <path
       id="path19"
       d="M 272.19685,493.93701 H 384.09449"
       style="fill:none;stroke:#000000;stroke-width:2;stroke-linecap:butt;stroke-linejoin:miter;stroke-miterlimit:10;stroke-dasharray:none;stroke-opacity:1"
       transform="matrix(1.3333333,0,0,-1.3333333,0,863.62205)" />
    <path
       id="path20"
       d="M 384.09449,494.92913 H 610.86614"
       style="fill:none;stroke:#000000;stroke-width:2;stroke-linecap:butt;stroke-linejoin:miter;stroke-miterlimit:10;stroke-dasharray:none;stroke-opacity:1"
       transform="matrix(1.3333333,0,0,-1.3333333,0,863.62205)" />
    <path
       id="path21"
       d="M 610.86614,493.93701 H 722.76378"
       style="fill:none;stroke:#000000;stroke-width:2;stroke-linecap:butt;stroke-linejoin:miter;stroke-miterlimit:10;stroke-dasharray:none;stroke-opacity:1"
       transform="matrix(1.3333333,0,0,-1.3333333,0,863.62205)" />
    <path
       id="path22"
       d="M 43.93701,493.93701 H 272.19685"
       style="fill:none;stroke:#444444;stroke-width:2;stroke-linecap:butt;stroke-linejoin:miter;stroke-miterlimit:10;stroke-dasharray:none;stroke-opacity:1"
       transform="matrix(1.3333333,0,0,-1.3333333,0,863.62205)" />
    <path
       id="path23"
       d="m 610.86614,493.93701 8.50394,8.50393 5.66929,64.13386 h 78.3907 l 13.66442,-52.79527 5.66929,-5.66929 v -14.17323"
       style="fill:none;stroke:#444444;stroke-width:2;stroke-linecap:butt;stroke-linejoin:miter;stroke-miterlimit:10;stroke-dasharray:none;stroke-opacity:1"
       transform="matrix(1.3333333,0,0,-1.3333333,0,863.62205)" />
    <path
       id="path24"
       d="m 384.09449,493.93701 8.50394,8.50393 5.66929,64.13386 h 78.39069 l 13.66442,-52.79527 5.6693,-5.66929 v -14.17323"
       style="fill:none;stroke:#444444;stroke-width:2;stroke-linecap:butt;stroke-linejoin:miter;stroke-miterlimit:10;stroke-dasharray:none;stroke-opacity:1"
       transform="matrix(-1.3333333,0,0,-1.3333333,1024.252,863.62205)" />
    <path
       id="path25"
       d="M 384.09449,493.93701 V 607.32283"
       style="fill:none;stroke:#444444;stroke-width:2;stroke-linecap:butt;stroke-linejoin:miter;stroke-miterlimit:10;stroke-dasharray:none;stroke-opacity:1"
       transform="matrix(1.3333333,0,0,-1.3333333,0,863.62205)" />
    <path
       id="path26"
       d="M 610.86614,493.93701 V 607.32283"
       style="fill:none;stroke:#444444;stroke-width:2;stroke-linecap:butt;stroke-linejoin:miter;stroke-miterlimit:10;stroke-dasharray:none;stroke-opacity:1"
       transform="matrix(1.3333333,0,0,-1.3333333,0,863.62205)" />
    <path
       id="path27"
       d="M 403.93701,605.19685 H 591.02362"
       style="fill:none;stroke:#000000;stroke-width:2;stroke-linecap:butt;stroke-linejoin:miter;stroke-miterlimit:10;stroke-dasharray:none;stroke-opacity:1"
       transform="matrix(1.3333333,0,0,-1.3333333,0,863.62205)" />
    <path
       id="path28"
       d="m 384.09449,607.32283 h 19.84252 v -5.66929"
       style="fill:none;stroke:#444444;stroke-width:2;stroke-linecap:butt;stroke-linejoin:miter;stroke-miterlimit:10;stroke-dasharray:none;stroke-opacity:1"
       transform="matrix(1.3333333,0,0,-1.3333333,0,863.62205)" />
    <path
       id="path29"
       d="m 610.86614,607.32283 h -19.84252 v -5.66929"
       style="fill:none;stroke:#444444;stroke-width:2;stroke-linecap:butt;stroke-linejoin:miter;stroke-miterlimit:10;stroke-dasharray:none;stroke-opacity:1"
       transform="matrix(1.3333333,0,0,-1.3333333,0,863.62205)" />
    <path
       id="path30"
       d="m 385.18583,607.32283 v 14.17323 c 0,9.78458 4.42913,14.76378 8.85826,17.71654 h 206.87245 c 4.42913,-2.95276 8.85826,-7.93196 8.85826,-17.71654 v -14.17323"
       style="fill:none;stroke:#444444;stroke-width:2;stroke-linecap:butt;stroke-linejoin:miter;stroke-miterlimit:10;stroke-dasharray:none;stroke-opacity:1"
       transform="matrix(1.3333333,0,0,-1.3333333,0,863.62205)" />
  </g>
</svg>
