<?xml version="1.0" encoding="UTF-8" standalone="no"?>
<!-- Created with Inkscape (http://www.inkscape.org/) -->

<svg
   version="1.1"
   id="svg1"
   width="1494.8031"
   height="1140.4724"
   viewBox="0 0 1494.8031 1140.4724"
   sodipodi:docname="FEFCO-0215_120_60_160.pdf"
   xmlns:inkscape="http://www.inkscape.org/namespaces/inkscape"
   xmlns:sodipodi="http://sodipodi.sourceforge.net/DTD/sodipodi-0.dtd"
   xmlns="http://www.w3.org/2000/svg"
   xmlns:svg="http://www.w3.org/2000/svg">
  <defs
     id="defs1" />
  <sodipodi:namedview
     id="namedview1"
     pagecolor="#ffffff"
     bordercolor="#000000"
     borderopacity="0.25"
     inkscape:showpageshadow="2"
     inkscape:pageopacity="0.0"
     inkscape:pagecheckerboard="0"
     inkscape:deskcolor="#d1d1d1">
    <inkscape:page
       x="0"
       y="0"
       inkscape:label="1"
       id="page1"
       width="1494.8031"
       height="1140.4724"
       margin="0"
       bleed="0" />
  </sodipodi:namedview>
  <g
     id="g1"
     inkscape:groupmode="layer"
     inkscape:label="1">
    <path
       id="path1"
       d="M 423.77953,587.48031 V 129.68504"
       style="fill:none;stroke:#00a650;stroke-width:2;stroke-linecap:butt;stroke-linejoin:miter;stroke-miterlimit:10;stroke-dasharray:none;stroke-opacity:1"
       transform="matrix(1.3333333,0,0,-1.3333333,0,1140.4724)" />
    <path
       id="path2"
       d="M 598.11024,587.48031 V 129.68504"
       style="fill:none;stroke:#00a650;stroke-width:2;stroke-linecap:butt;stroke-linejoin:miter;stroke-miterlimit:10;stroke-dasharray:none;stroke-opacity:1"
       transform="matrix(1.3333333,0,0,-1.3333333,0,1140.4724)" />
    <path
       id="path3"
       d="M 942.51969,587.48031 V 129.68504"
       style="fill:none;stroke:#00a650;stroke-width:2;stroke-linecap:butt;stroke-linejoin:miter;stroke-miterlimit:10;stroke-dasharray:none;stroke-opacity:1"
       transform="matrix(1.3333333,0,0,-1.3333333,0,1140.4724)" />
    <path
       id="path4"
       d="M 1112.5984,587.48031 V 129.68504"
       style="fill:none;stroke:#ed1c24;stroke-width:2;stroke-linecap:butt;stroke-linejoin:miter;stroke-miterlimit:10;stroke-dasharray:none;stroke-opacity:1"
       transform="matrix(1.3333333,0,0,-1.3333333,0,1140.4724)" />
    <path
       id="path5"
       d="M 79.37008,587.48031 V 130.82435"
       style="fill:none;stroke:#00a650;stroke-width:2;stroke-linecap:butt;stroke-linejoin:miter;stroke-miterlimit:10;stroke-dasharray:none;stroke-opacity:1"
       transform="matrix(1.3333333,0,0,-1.3333333,0,1140.4724)" />
    <path
       id="path6"
       d="M 79.37008,587.48031 8.50394,568.49179 V 149.81288 l 75.11811,-20.12784"
       style="fill:none;stroke:#ed1c24;stroke-width:2;stroke-linecap:butt;stroke-linejoin:miter;stroke-miterlimit:10;stroke-dasharray:none;stroke-opacity:1"
       transform="matrix(1.3333333,0,0,-1.3333333,0,1140.4724)" />
    <path
       id="path7"
       d="M 423.77953,587.48031 H 591.73228"
       style="fill:none;stroke:#00a650;stroke-width:2;stroke-linecap:butt;stroke-linejoin:miter;stroke-miterlimit:10;stroke-dasharray:none;stroke-opacity:1"
       transform="matrix(1.3333333,0,0,-1.3333333,0,1140.4724)" />
    <path
       id="path8"
       d="M 948.89764,587.48031 H 1112.5984"
       style="fill:none;stroke:#00a650;stroke-width:2;stroke-linecap:butt;stroke-linejoin:miter;stroke-miterlimit:10;stroke-dasharray:none;stroke-opacity:1"
       transform="matrix(1.3333333,0,0,-1.3333333,0,1140.4724)" />
    <path
       id="path9"
       d="M 77.24409,591.73228 H 425.90551"
       style="fill:none;stroke:#00a650;stroke-width:2;stroke-linecap:butt;stroke-linejoin:miter;stroke-miterlimit:10;stroke-dasharray:none;stroke-opacity:1"
       transform="matrix(1.3333333,0,0,-1.3333333,0,1140.4724)" />
    <path
       id="path10"
       d="M 207.72638,761.81102 H 81.49606"
       style="fill:none;stroke:#00a650;stroke-width:2;stroke-linecap:butt;stroke-linejoin:miter;stroke-miterlimit:10;stroke-dasharray:none;stroke-opacity:1"
       transform="matrix(1.3333333,0,0,-1.3333333,0,1140.4724)" />
    <path
       id="path11"
       d="M 295.42323,761.81102 H 421.65354"
       style="fill:none;stroke:#00a650;stroke-width:2;stroke-linecap:butt;stroke-linejoin:miter;stroke-miterlimit:10;stroke-dasharray:none;stroke-opacity:1"
       transform="matrix(1.3333333,0,0,-1.3333333,0,1140.4724)" />
    <path
       id="path12"
       d="m 207.46063,759.68504 1.06299,8.50394 h 86.10236 l 1.063,-8.50394"
       style="fill:none;stroke:#ed1c24;stroke-width:2;stroke-linecap:butt;stroke-linejoin:miter;stroke-miterlimit:10;stroke-dasharray:none;stroke-opacity:1"
       transform="matrix(1.3333333,0,0,-1.3333333,0,1140.4724)" />
    <path
       id="path13"
       d="m 234.35433,768.18898 c 0,-4.56716 1.8143,-8.94725 5.04376,-12.17672 3.22947,-3.22946 7.60956,-5.04376 12.17671,-5.04376 4.56716,0 8.94725,1.8143 12.17672,5.04376 3.22946,3.22947 5.04376,7.60956 5.04376,12.17672"
       style="fill:none;stroke:#ed1c24;stroke-width:2;stroke-linecap:butt;stroke-linejoin:miter;stroke-miterlimit:10;stroke-dasharray:none;stroke-opacity:1"
       transform="matrix(1.3333333,0,0,-1.3333333,0,1140.4724)" />
    <path
       id="path14"
       d="m 79.37008,587.48031 -2.12599,4.25197 v 170.07874 h 4.25197 v 42.51969 c 0,23.48297 19.03671,42.51968 42.51969,42.51968 h 255.11811 c 23.48297,0 42.51968,-19.03671 42.51968,-42.51968 v -42.51969 h 4.25197 V 591.73228 l -2.12598,-4.25197"
       style="fill:none;stroke:#ed1c24;stroke-width:2;stroke-linecap:butt;stroke-linejoin:miter;stroke-miterlimit:10;stroke-dasharray:none;stroke-opacity:1"
       transform="matrix(1.3333333,0,0,-1.3333333,0,1140.4724)" />
    <path
       id="path15"
       d="M 425.90551,702.99213 H 567.17949 L 591.73228,587.48031"
       style="fill:none;stroke:#ed1c24;stroke-width:2;stroke-linecap:butt;stroke-linejoin:miter;stroke-miterlimit:10;stroke-dasharray:none;stroke-opacity:1"
       transform="matrix(1.3333333,0,0,-1.3333333,0,1140.4724)" />
    <path
       id="path16"
       d="M 1112.5984,587.48031 V 702.99213 H 973.45043 L 948.89764,587.48031"
       style="fill:none;stroke:#ed1c24;stroke-width:2;stroke-linecap:butt;stroke-linejoin:miter;stroke-miterlimit:10;stroke-dasharray:none;stroke-opacity:1"
       transform="matrix(1.3333333,0,0,-1.3333333,0,1140.4724)" />
    <path
       id="path17"
       d="m 591.73228,587.48031 h 135.5315"
       style="fill:none;stroke:#ed1c24;stroke-width:2;stroke-linecap:butt;stroke-linejoin:miter;stroke-miterlimit:10;stroke-dasharray:none;stroke-opacity:1"
       transform="matrix(1.3333333,0,0,-1.3333333,0,1140.4724)" />
    <path
       id="path18"
       d="M 948.89764,587.48031 H 813.36614"
       style="fill:none;stroke:#ed1c24;stroke-width:2;stroke-linecap:butt;stroke-linejoin:miter;stroke-miterlimit:10;stroke-dasharray:none;stroke-opacity:1"
       transform="matrix(1.3333333,0,0,-1.3333333,0,1140.4724)" />
    <path
       id="path19"
       d="m 727.26378,587.48031 h 30.75084"
       style="fill:none;stroke:#00a650;stroke-width:2;stroke-linecap:butt;stroke-linejoin:miter;stroke-miterlimit:10;stroke-dasharray:none;stroke-opacity:1"
       transform="matrix(1.3333333,0,0,-1.3333333,0,1140.4724)" />
    <path
       id="path20"
       d="M 813.36614,587.48031 H 782.6153"
       style="fill:none;stroke:#00a650;stroke-width:2;stroke-linecap:butt;stroke-linejoin:miter;stroke-miterlimit:10;stroke-dasharray:none;stroke-opacity:1"
       transform="matrix(1.3333333,0,0,-1.3333333,0,1140.4724)" />
    <path
       id="path21"
       d="m 727.26378,530.7874 h 86.10236"
       style="fill:none;stroke:#00a650;stroke-width:2;stroke-linecap:butt;stroke-linejoin:miter;stroke-miterlimit:10;stroke-dasharray:none;stroke-opacity:1"
       transform="matrix(1.3333333,0,0,-1.3333333,0,1140.4724)" />
    <path
       id="path22"
       d="m 758.01462,587.48031 v 8.50394 h 24.60068 v -8.50394"
       style="fill:none;stroke:#ed1c24;stroke-width:2;stroke-linecap:butt;stroke-linejoin:miter;stroke-miterlimit:10;stroke-dasharray:none;stroke-opacity:1"
       transform="matrix(1.3333333,0,0,-1.3333333,0,1140.4724)" />
    <path
       id="path23"
       d="m 727.26378,530.7874 v 90.70866 c 0,12.52426 10.15291,22.67717 22.67716,22.67717 h 40.74804 c 12.52425,0 22.67716,-10.15291 22.67716,-22.67717 V 530.7874"
       style="fill:none;stroke:#ed1c24;stroke-width:2;stroke-linecap:butt;stroke-linejoin:miter;stroke-miterlimit:10;stroke-dasharray:none;stroke-opacity:1"
       transform="matrix(1.3333333,0,0,-1.3333333,0,1140.4724)" />
    <path
       id="path24"
       d="M 83.62205,129.68504 H 419.52756"
       style="fill:none;stroke:#00a650;stroke-width:2;stroke-linecap:butt;stroke-linejoin:miter;stroke-miterlimit:10;stroke-dasharray:none;stroke-opacity:1"
       transform="matrix(1.3333333,0,0,-1.3333333,0,1140.4724)" />
    <path
       id="path25"
       d="M 83.62205,129.68504 V 8.50394 h 78.66141 V 42.51969 H 340.86614 V 8.50394 h 78.66142 v 121.1811 h 4.25197"
       style="fill:none;stroke:#ed1c24;stroke-width:2;stroke-linecap:butt;stroke-linejoin:miter;stroke-miterlimit:10;stroke-dasharray:none;stroke-opacity:1"
       transform="matrix(1.3333333,0,0,-1.3333333,0,1140.4724)" />
    <path
       id="path26"
       d="M 423.77953,129.68504 H 593.85827"
       style="fill:none;stroke:#00a650;stroke-width:2;stroke-linecap:butt;stroke-linejoin:miter;stroke-miterlimit:10;stroke-dasharray:none;stroke-opacity:1"
       transform="matrix(1.3333333,0,0,-1.3333333,0,1140.4724)" />
    <path
       id="path27"
       d="M 423.77953,129.68504 515.19685,46.77165 V 8.50394 h 78.66142 v 121.1811 h 4.25197"
       style="fill:none;stroke:#ed1c24;stroke-width:2;stroke-linecap:butt;stroke-linejoin:miter;stroke-miterlimit:10;stroke-dasharray:none;stroke-opacity:1"
       transform="matrix(1.3333333,0,0,-1.3333333,0,1140.4724)" />
    <path
       id="path28"
       d="M 598.11024,129.68504 H 942.51969"
       style="fill:none;stroke:#00a650;stroke-width:2;stroke-linecap:butt;stroke-linejoin:miter;stroke-miterlimit:10;stroke-dasharray:none;stroke-opacity:1"
       transform="matrix(1.3333333,0,0,-1.3333333,0,1140.4724)" />
    <path
       id="path29"
       d="M 598.11024,129.68504 685.27559,42.51969 V 8.50394 h 170.07874 v 34.01575 l 87.16536,87.16535"
       style="fill:none;stroke:#ed1c24;stroke-width:2;stroke-linecap:butt;stroke-linejoin:miter;stroke-miterlimit:10;stroke-dasharray:none;stroke-opacity:1"
       transform="matrix(1.3333333,0,0,-1.3333333,0,1140.4724)" />
    <path
       id="path30"
       d="M 942.51969,129.68504 H 1108.3465"
       style="fill:none;stroke:#00a650;stroke-width:2;stroke-linecap:butt;stroke-linejoin:miter;stroke-miterlimit:10;stroke-dasharray:none;stroke-opacity:1"
       transform="matrix(-1.3333333,0,0,-1.3333333,2740.1575,1140.4724)" />
    <path
       id="path31"
       d="M 942.51969,129.68504 1029.685,46.77165 V 8.50394 h 78.6615 v 121.1811 h 4.2519"
       style="fill:none;stroke:#ed1c24;stroke-width:2;stroke-linecap:butt;stroke-linejoin:miter;stroke-miterlimit:10;stroke-dasharray:none;stroke-opacity:1"
       transform="matrix(-1.3333333,0,0,-1.3333333,2740.1575,1140.4724)" />
  </g>
</svg>
