<?xml version="1.0" encoding="UTF-8" standalone="no"?>
<!-- Created with Inkscape (http://www.inkscape.org/) -->

<svg
   version="1.1"
   id="svg1"
   width="2401.8899"
   height="1775.4331"
   viewBox="0 0 2401.8899 1775.4331"
   sodipodi:docname="FEFCO-0215_200_100_250.pdf"
   xmlns:inkscape="http://www.inkscape.org/namespaces/inkscape"
   xmlns:sodipodi="http://sodipodi.sourceforge.net/DTD/sodipodi-0.dtd"
   xmlns="http://www.w3.org/2000/svg"
   xmlns:svg="http://www.w3.org/2000/svg">
  <defs
     id="defs1" />
  <sodipodi:namedview
     id="namedview1"
     pagecolor="#ffffff"
     bordercolor="#000000"
     borderopacity="0.25"
     inkscape:showpageshadow="2"
     inkscape:pageopacity="0.0"
     inkscape:pagecheckerboard="0"
     inkscape:deskcolor="#aaaaaa">
    <inkscape:page
       x="0"
       y="0"
       inkscape:label="1"
       id="page1"
       width="2401.8899"
       height="1775.4331"
       margin="0"
       bleed="0" />
  </sodipodi:namedview>
  <g
     id="g1"
     inkscape:groupmode="layer"
     inkscape:label="1">
    <path
       id="path1"
       d="M 650.55118,921.9685 V 209.05512"
       style="fill:none;stroke:#000000;stroke-width:3.6;stroke-linecap:butt;stroke-linejoin:miter;stroke-miterlimit:10;stroke-dasharray:none;stroke-opacity:1"
       transform="matrix(1.3333333,0,0,-1.3333333,0,1775.4331)" />
    <path
       id="path2"
       d="M 938.26772,921.9685 V 209.05512"
       style="fill:none;stroke:#000000;stroke-width:3.6;stroke-linecap:butt;stroke-linejoin:miter;stroke-miterlimit:10;stroke-dasharray:none;stroke-opacity:1"
       transform="matrix(1.3333333,0,0,-1.3333333,0,1775.4331)" />
    <path
       id="path3"
       d="M 1509.4488,921.9685 V 209.05512"
       style="fill:none;stroke:#000000;stroke-width:3.6;stroke-linecap:butt;stroke-linejoin:miter;stroke-miterlimit:10;stroke-dasharray:none;stroke-opacity:1"
       transform="matrix(1.3333333,0,0,-1.3333333,0,1775.4331)" />
    <path
       id="path4"
       d="M 1792.9134,921.9685 V 209.05512"
       style="fill:none;stroke:#444444;stroke-width:3.6;stroke-linecap:butt;stroke-linejoin:miter;stroke-miterlimit:10;stroke-dasharray:none;stroke-opacity:1"
       transform="matrix(1.3333333,0,0,-1.3333333,0,1775.4331)" />
    <path
       id="path5"
       d="M 79.37008,921.9685 V 210.19443"
       style="fill:none;stroke:#000000;stroke-width:3.6;stroke-linecap:butt;stroke-linejoin:miter;stroke-miterlimit:10;stroke-dasharray:none;stroke-opacity:1"
       transform="matrix(1.3333333,0,0,-1.3333333,0,1775.4331)" />
    <path
       id="path6"
       d="M 79.37008,921.9685 8.50394,902.97998 V 229.18296 l 75.11811,-20.12784"
       style="fill:none;stroke:#444444;stroke-width:3.6;stroke-linecap:butt;stroke-linejoin:miter;stroke-miterlimit:10;stroke-dasharray:none;stroke-opacity:1"
       transform="matrix(1.3333333,0,0,-1.3333333,0,1775.4331)" />
    <path
       id="path7"
       d="M 650.55118,921.9685 H 931.88976"
       style="fill:none;stroke:#000000;stroke-width:3.6;stroke-linecap:butt;stroke-linejoin:miter;stroke-miterlimit:10;stroke-dasharray:none;stroke-opacity:1"
       transform="matrix(1.3333333,0,0,-1.3333333,0,1775.4331)" />
    <path
       id="path8"
       d="m 1515.8268,921.9685 h 277.0866"
       style="fill:none;stroke:#000000;stroke-width:3.6;stroke-linecap:butt;stroke-linejoin:miter;stroke-miterlimit:10;stroke-dasharray:none;stroke-opacity:1"
       transform="matrix(1.3333333,0,0,-1.3333333,0,1775.4331)" />
    <path
       id="path9"
       d="M 77.24409,926.22047 H 652.67717"
       style="fill:none;stroke:#000000;stroke-width:3.6;stroke-linecap:butt;stroke-linejoin:miter;stroke-miterlimit:10;stroke-dasharray:none;stroke-opacity:1"
       transform="matrix(1.3333333,0,0,-1.3333333,0,1775.4331)" />
    <path
       id="path10"
       d="M 293.29724,1209.685 H 81.49606"
       style="fill:none;stroke:#000000;stroke-width:3.6;stroke-linecap:butt;stroke-linejoin:miter;stroke-miterlimit:10;stroke-dasharray:none;stroke-opacity:1"
       transform="matrix(1.3333333,0,0,-1.3333333,0,1775.4331)" />
    <path
       id="path11"
       d="M 436.62402,1209.685 H 648.4252"
       style="fill:none;stroke:#000000;stroke-width:3.6;stroke-linecap:butt;stroke-linejoin:miter;stroke-miterlimit:10;stroke-dasharray:none;stroke-opacity:1"
       transform="matrix(1.3333333,0,0,-1.3333333,0,1775.4331)" />
    <path
       id="path12"
       d="m 293.0315,1207.5591 1.06299,8.5039 h 141.73228 l 1.06299,-8.5039"
       style="fill:none;stroke:#444444;stroke-width:3.6;stroke-linecap:butt;stroke-linejoin:miter;stroke-miterlimit:10;stroke-dasharray:none;stroke-opacity:1"
       transform="matrix(1.3333333,0,0,-1.3333333,0,1775.4331)" />
    <path
       id="path13"
       d="m 336.61417,1216.063 c 0,-7.518 2.9865,-14.728 8.30249,-20.044 5.31599,-5.316 12.52602,-8.3025 20.04397,-8.3025 7.51795,0 14.72798,2.9865 20.04397,8.3025 5.31599,5.316 8.30249,12.526 8.30249,20.044"
       style="fill:none;stroke:#444444;stroke-width:3.6;stroke-linecap:butt;stroke-linejoin:miter;stroke-miterlimit:10;stroke-dasharray:none;stroke-opacity:1"
       transform="matrix(1.3333333,0,0,-1.3333333,0,1775.4331)" />
    <path
       id="path14"
       d="m 79.37008,921.9685 -2.12599,4.25197 V 1209.685 h 4.25197 v 56.693 c 0,31.3106 25.38228,56.6929 56.69292,56.6929 h 453.5433 c 31.31063,0 56.69292,-25.3823 56.69292,-56.6929 v -56.693 h 4.25197 V 926.22047 l -2.12599,-4.25197"
       style="fill:none;stroke:#444444;stroke-width:3.6;stroke-linecap:butt;stroke-linejoin:miter;stroke-miterlimit:10;stroke-dasharray:none;stroke-opacity:1"
       transform="matrix(1.3333333,0,0,-1.3333333,0,1775.4331)" />
    <path
       id="path15"
       d="M 652.67717,1113.0709 H 891.2697 l 40.62006,-191.1024"
       style="fill:none;stroke:#444444;stroke-width:3.6;stroke-linecap:butt;stroke-linejoin:miter;stroke-miterlimit:10;stroke-dasharray:none;stroke-opacity:1"
       transform="matrix(1.3333333,0,0,-1.3333333,0,1775.4331)" />
    <path
       id="path16"
       d="m 1792.9134,921.9685 v 191.1024 h -236.4666 l -40.62,-191.1024"
       style="fill:none;stroke:#444444;stroke-width:3.6;stroke-linecap:butt;stroke-linejoin:miter;stroke-miterlimit:10;stroke-dasharray:none;stroke-opacity:1"
       transform="matrix(1.3333333,0,0,-1.3333333,0,1775.4331)" />
    <path
       id="path17"
       d="M 931.88976,921.9685 H 1152.9921"
       style="fill:none;stroke:#444444;stroke-width:3.6;stroke-linecap:butt;stroke-linejoin:miter;stroke-miterlimit:10;stroke-dasharray:none;stroke-opacity:1"
       transform="matrix(1.3333333,0,0,-1.3333333,0,1775.4331)" />
    <path
       id="path18"
       d="M 1515.8268,921.9685 H 1294.7244"
       style="fill:none;stroke:#444444;stroke-width:3.6;stroke-linecap:butt;stroke-linejoin:miter;stroke-miterlimit:10;stroke-dasharray:none;stroke-opacity:1"
       transform="matrix(1.3333333,0,0,-1.3333333,0,1775.4331)" />
    <path
       id="path19"
       d="m 1152.9921,921.9685 h 50.6187"
       style="fill:none;stroke:#000000;stroke-width:3.6;stroke-linecap:butt;stroke-linejoin:miter;stroke-miterlimit:10;stroke-dasharray:none;stroke-opacity:1"
       transform="matrix(1.3333333,0,0,-1.3333333,0,1775.4331)" />
    <path
       id="path20"
       d="m 1294.7244,921.9685 h -50.6187"
       style="fill:none;stroke:#000000;stroke-width:3.6;stroke-linecap:butt;stroke-linejoin:miter;stroke-miterlimit:10;stroke-dasharray:none;stroke-opacity:1"
       transform="matrix(1.3333333,0,0,-1.3333333,0,1775.4331)" />
    <path
       id="path21"
       d="m 1152.9921,865.27559 h 141.7323"
       style="fill:none;stroke:#000000;stroke-width:3.6;stroke-linecap:butt;stroke-linejoin:miter;stroke-miterlimit:10;stroke-dasharray:none;stroke-opacity:1"
       transform="matrix(1.3333333,0,0,-1.3333333,0,1775.4331)" />
    <path
       id="path22"
       d="m 1203.6108,921.9685 v 8.50394 h 40.4949 v -8.50394"
       style="fill:none;stroke:#444444;stroke-width:3.6;stroke-linecap:butt;stroke-linejoin:miter;stroke-miterlimit:10;stroke-dasharray:none;stroke-opacity:1"
       transform="matrix(1.3333333,0,0,-1.3333333,0,1775.4331)" />
    <path
       id="path23"
       d="m 1152.9921,865.27559 v 90.70866 c 0,12.52425 10.1529,22.67717 22.6772,22.67717 h 96.3779 c 12.5243,0 22.6772,-10.15292 22.6772,-22.67717 v -90.70866"
       style="fill:none;stroke:#444444;stroke-width:3.6;stroke-linecap:butt;stroke-linejoin:miter;stroke-miterlimit:10;stroke-dasharray:none;stroke-opacity:1"
       transform="matrix(1.3333333,0,0,-1.3333333,0,1775.4331)" />
    <path
       id="path24"
       d="M 83.62205,209.05512 H 646.29921"
       style="fill:none;stroke:#000000;stroke-width:3.6;stroke-linecap:butt;stroke-linejoin:miter;stroke-miterlimit:10;stroke-dasharray:none;stroke-opacity:1"
       transform="matrix(1.3333333,0,0,-1.3333333,0,1775.4331)" />
    <path
       id="path25"
       d="M 83.62205,209.05512 V 8.50394 h 135.35433 v 56.69291 h 291.9685 V 8.50394 h 135.35433 v 200.55118 h 4.25197"
       style="fill:none;stroke:#444444;stroke-width:3.6;stroke-linecap:butt;stroke-linejoin:miter;stroke-miterlimit:10;stroke-dasharray:none;stroke-opacity:1"
       transform="matrix(1.3333333,0,0,-1.3333333,0,1775.4331)" />
    <path
       id="path26"
       d="M 650.55118,209.05512 H 934.01575"
       style="fill:none;stroke:#000000;stroke-width:3.6;stroke-linecap:butt;stroke-linejoin:miter;stroke-miterlimit:10;stroke-dasharray:none;stroke-opacity:1"
       transform="matrix(1.3333333,0,0,-1.3333333,0,1775.4331)" />
    <path
       id="path27"
       d="M 650.55118,209.05512 798.66142,69.44882 V 8.50394 h 135.35433 v 200.55118 h 4.25197"
       style="fill:none;stroke:#444444;stroke-width:3.6;stroke-linecap:butt;stroke-linejoin:miter;stroke-miterlimit:10;stroke-dasharray:none;stroke-opacity:1"
       transform="matrix(1.3333333,0,0,-1.3333333,0,1775.4331)" />
    <path
       id="path28"
       d="M 938.26772,209.05512 H 1509.4488"
       style="fill:none;stroke:#000000;stroke-width:3.6;stroke-linecap:butt;stroke-linejoin:miter;stroke-miterlimit:10;stroke-dasharray:none;stroke-opacity:1"
       transform="matrix(1.3333333,0,0,-1.3333333,0,1775.4331)" />
    <path
       id="path29"
       d="M 938.26772,209.05512 1082.126,65.19685 V 8.50394 h 283.4646 v 56.69291 l 143.8582,143.85827"
       style="fill:none;stroke:#444444;stroke-width:3.6;stroke-linecap:butt;stroke-linejoin:miter;stroke-miterlimit:10;stroke-dasharray:none;stroke-opacity:1"
       transform="matrix(1.3333333,0,0,-1.3333333,0,1775.4331)" />
    <path
       id="path30"
       d="m 1509.4488,209.05512 h 279.2126"
       style="fill:none;stroke:#000000;stroke-width:3.6;stroke-linecap:butt;stroke-linejoin:miter;stroke-miterlimit:10;stroke-dasharray:none;stroke-opacity:1"
       transform="matrix(-1.3333333,0,0,-1.3333333,4403.1496,1775.4331)" />
    <path
       id="path31"
       d="M 1509.4488,209.05512 1653.3071,69.44882 V 8.50394 h 135.3543 v 200.55118 h 4.252"
       style="fill:none;stroke:#444444;stroke-width:3.6;stroke-linecap:butt;stroke-linejoin:miter;stroke-miterlimit:10;stroke-dasharray:none;stroke-opacity:1"
       transform="matrix(-1.3333333,0,0,-1.3333333,4403.1496,1775.4331)" />
  </g>
</svg>
