<svg id="_레이어_2" data-name="레이어 2" xmlns="http://www.w3.org/2000/svg" viewBox="0 0 213.54 213.54">
  <defs>
    <style>
      .s10_PREEZE_c1 {
        stroke-width: 11px;
      }

      .s10_PREEZE_c1, .s10_PREEZE_c2 {
        fill: none;
        stroke: #000;
        stroke-miterlimit: 10;
      }

      .s10_PREEZE_c2 {
        stroke-linecap: round;
        stroke-width: 7px;
      }
    </style>
  </defs>
  <g id="Layer_1" data-name="Layer 1">
    <line class="s10_PREEZE_c2" x1="106.57" y1="39.28" x2="106.57" y2="174.26"/>
    <line class="s10_PREEZE_c2" x1="89.52" y1="44.4" x2="106.57" y2="61.45"/>
    <line class="s10_PREEZE_c2" x1="123.62" y1="44.4" x2="106.57" y2="61.45"/>
    <line class="s10_PREEZE_c2" x1="89.52" y1="170.49" x2="106.57" y2="153.45"/>
    <line class="s10_PREEZE_c2" x1="123.62" y1="170.49" x2="106.57" y2="153.45"/>
    <line class="s10_PREEZE_c2" x1="154.3" y1="59.05" x2="58.85" y2="154.49"/>
    <line class="s10_PREEZE_c2" x1="138.62" y1="50.61" x2="138.62" y2="74.72"/>
    <line class="s10_PREEZE_c2" x1="162.73" y1="74.72" x2="138.62" y2="74.72"/>
    <line class="s10_PREEZE_c2" x1="49.46" y1="139.77" x2="73.57" y2="139.77"/>
    <line class="s10_PREEZE_c2" x1="73.57" y1="163.89" x2="73.57" y2="139.77"/>
    <line class="s10_PREEZE_c2" x1="174.26" y1="107.25" x2="39.28" y2="107.25"/>
    <line class="s10_PREEZE_c2" x1="169.14" y1="90.2" x2="152.09" y2="107.25"/>
    <line class="s10_PREEZE_c2" x1="169.14" y1="124.3" x2="152.09" y2="107.25"/>
    <line class="s10_PREEZE_c2" x1="43.05" y1="90.2" x2="60.1" y2="107.25"/>
    <line class="s10_PREEZE_c2" x1="43.05" y1="124.3" x2="60.1" y2="107.25"/>
    <line class="s10_PREEZE_c2" x1="154.3" y1="155.45" x2="58.85" y2="60"/>
    <line class="s10_PREEZE_c2" x1="162.73" y1="139.77" x2="138.62" y2="139.77"/>
    <line class="s10_PREEZE_c2" x1="138.62" y1="163.89" x2="138.62" y2="139.77"/>
    <line class="s10_PREEZE_c2" x1="73.57" y1="50.61" x2="73.57" y2="74.72"/>
    <line class="s10_PREEZE_c2" x1="49.46" y1="74.72" x2="73.57" y2="74.72"/>
    <rect class="s10_PREEZE_c1" x="5.5" y="5.5" width="202.54" height="202.54"/>
  </g>
</svg>