<?xml version="1.0" encoding="UTF-8"?>
<svg id="_레이어_2" data-name="레이어 2" xmlns="http://www.w3.org/2000/svg" viewBox="0 0 53.01 50.47">
  <defs>
    <style>
      .cls-1 {
        fill: #231815;
      }
    </style>
  </defs>
  <g id="_레이어_1-2" data-name="레이어 1">
    <polygon class="cls-1" points="51.33 48.79 51.33 47.11 3.36 47.11 3.36 3.36 49.66 3.36 49.66 48.79 51.33 48.79 51.33 47.11 51.33 48.79 53.01 48.79 53.01 0 0 0 0 50.47 53.01 50.47 53.01 48.79 51.33 48.79"/>
    <polygon class="cls-1" points="39.1 19.77 43.1 19.77 35.66 7.8 28.23 19.77 32.19 19.9 32.19 41.73 21.1 41.73 21.1 19.77 25.11 19.77 17.67 7.8 10.23 19.77 14.2 19.9 14.2 41.73 11.24 41.73 11.24 43.31 42.81 43.31 42.81 41.73 39.1 41.73 39.1 19.77"/>
  </g>
</svg>