<svg id="_레이어_2" data-name="레이어 2" xmlns="http://www.w3.org/2000/svg" viewBox="0 0 213.54 213.54">
  <defs>
    <style>
      .s11_nuclear_c1 {
        fill: none;
        stroke: #000;
        stroke-miterlimit: 10;
        stroke-width: 11px;
      }
    </style>
  </defs>
  <g id="Layer_1" data-name="Layer 1">
    <path d="M106.77,43.09c35.11,0,63.68,28.57,63.68,63.68s-28.57,63.68-63.68,63.68-63.68-28.57-63.68-63.68,28.57-63.68,63.68-63.68M106.77,36.09c-39.04,0-70.68,31.65-70.68,70.68s31.65,70.68,70.68,70.68,70.68-31.65,70.68-70.68-31.65-70.68-70.68-70.68h0Z"/>
    <g>
      <path d="M131.99,56.53l-21.72,37.62c-1.36-.48-2.82-.75-4.34-.75s-2.99.27-4.34.75l-21.73-37.62c7.79-4.09,16.67-6.39,26.07-6.39s18.27,2.3,26.06,6.39Z"/>
      <path d="M162.19,108.85c-.8,18.99-10.99,35.55-26.05,45.14l-21.77-37.69c2.2-1.89,3.76-4.49,4.32-7.45h43.5Z"/>
      <path d="M98.15,116.85l-21.46,37.14c-15.08-9.59-25.27-26.15-26.06-45.14h42.52c.61,3.25,2.45,6.08,5,8Z"/>
    </g>
    <circle cx="105.92" cy="106.41" r="9.05" transform="translate(-20.94 186.72) rotate(-77.47)"/>
    <rect class="s11_nuclear_c1" x="5.5" y="5.5" width="202.54" height="202.54"/>
  </g>
</svg>