<svg id="_레이어_2" data-name="레이어 2" xmlns="http://www.w3.org/2000/svg" viewBox="0 0 336.92 377.54">
  <defs>
    <style>
      .s12_magnet_c1 {
        fill: #231815;
      }
    </style>
  </defs>
  <g id="Layer_1" data-name="Layer 1">
    <polygon class="s12_magnet_c1" points="101.83 18.54 83.28 0 50.92 32.37 18.55 0 0 18.54 32.37 50.91 0 83.28 18.54 101.82 50.91 69.45 83.29 101.83 101.83 83.29 69.46 50.91 101.83 18.54"/>
    <g>
      <rect class="s12_magnet_c1" x="286.36" y="122.87" width="50.56" height="24.42"/>
      <path class="s12_magnet_c1" d="M286.36,159.71v101.68c0,19.81-.74,33.99-2.22,42.53-1.48,8.54-5.87,15.74-13.15,21.61-7.29,5.87-18.11,8.8-32.45,8.8s-25.25-3.1-33.39-9.31c-8.14-6.21-13.3-14.43-15.46-24.68-1.25-6.38-1.88-20.33-1.88-41.85v-98.78h-50.56v96.73c0,28.01,1.65,49.19,4.95,63.54,2.28,9.68,7,18.93,14.18,27.76,7.17,8.83,16.93,16,29.29,21.52,12.35,5.52,30.49,8.28,54.4,8.28,19.81,0,35.87-2.54,48.17-7.6s22.12-11.87,29.46-20.41c7.35-8.54,12.38-19.02,15.12-31.43,2.73-12.41,4.1-33.65,4.1-63.71v-94.68h-50.56Z"/>
      <rect class="s12_magnet_c1" x="137.24" y="122.87" width="50.56" height="24.42"/>
    </g>
    <polygon class="s12_magnet_c1" points="165.37 17.03 145.58 81.21 174.05 67.22 173.09 106.31 185.64 50.81 161.51 62.39 165.37 17.03"/>
    <polygon class="s12_magnet_c1" points="311.36 17.03 331.15 81.21 302.68 67.22 303.64 106.31 291.09 50.81 315.22 62.39 311.36 17.03"/>
  </g>
</svg>