<svg id="s11_recycle2__레이어_2"  xmlns="http://www.w3.org/2000/svg" viewBox="0 0 465.54 431.77">
  <defs>
    <style>
      .s11_recycle2_c1 {
        fill: #231815;
      }
    </style>
  </defs>
  <g id="s11_recycle2_Layer_1" >
    <g>
      <g>
        <path class="s11_recycle2_c1" d="M335.41,73.1c.62.77.31,2.01,1.39,2.48l6.03-1.39-.16,1.85c-5.56,9.28-10.82,18.4-16.85,27.05l-1.39-.31c-9.28-5.41-18.4-10.97-27.52-16.38v-.62c2.47-1.08,5.57-.93,7.58-2.48-1.08-4.17-2.94-7.58-5.1-11.13-.46-.31.08.2-.23-.42l-.08-.2c-14.53-25.51-43.28-42.51-74.82-39.26-31.38,2.63-58.74,24.89-68.01,54.1-9.27,27.51-1.39,60.9,19.01,80.22,19.78,20.87,53.64,29.21,82.23,18.86,22.88-7.73,42.36-27.98,49.16-51.78-.46-.93.46-1.09.62-1.85l2.32-10.98c10.67,1.09,20.87,2.63,31.38,4.48-4.95,42.51-35.25,77.91-74.51,91.05-39.73,13.45-84.86,2.01-112.69-25.51-28.75-27.21-41.89-72.81-28.29-113.46C136.93,38.94,173.1,6.94,214.53,1.38c45.91-7.42,89.35,15.92,111.14,51.63,3.87,6.34,7.11,13.14,9.74,20.09Z"/>
        <path class="s11_recycle2_c1" d="M277.6,95.21c6.65-6.8,13.76-12.06,20.56-18.39l.16-.93c-14.53-8.5-28.91-17.16-43.75-25.35-7.73,6.18-14.99,12.83-22.88,19.02l-23.03-18.4-44.36,25.35c-.46.62-2.01.77-1.24,1.85l22.41,18.55v.77l-29.06,12.83-1.09.93.31.31,37.25,21.64,6.34,3.25c10.82-4.33,21.49-9.59,32.46-14.07,10.97,3.4,21.8,7.88,32.92,11.44l43.28-25.35,1.24-1.24c-10.2-4.64-21.49-7.57-31.54-12.21ZM231.22,120.25c-13.29-7.26-26.74-14.99-39.57-22.57v-.62c13.14-7.88,26.58-15.3,40.04-23.03l1.7.46,37.41,21.95.15.46c-13.14,8.04-26.12,15.61-39.73,23.34Z"/>
        <path class="s11_recycle2_c1" d="M274.66,132.92l.47.62.15,19.78-.46,1.08-39.27,22.88c-.62.15-.93-.47-.93-.78l-.31-47.76.62-.62,29.68,10.36,10.04-5.57Z"/>
        <path class="s11_recycle2_c1" d="M229.21,129.21l.16,47.46-.16.62h-.93l-41.89-23.65-.31-.93v-17l.46-.31c4.02,1.86,7.88,4.79,11.9,6.49,10.05-4.63,20.25-8.65,30.3-13.14l.46.46Z"/>
      </g>
      <path class="s11_recycle2_c1" d="M31.24,260.95v-5c0-6.67-2.4-10.1-5.83-10.1-5.73-.1-7.08,3.02-7.08,8.12l-.11,38.64c0,4.37,1.77,6.98,6.56,6.98,6.25,0,6.77-6.45,6.77-11.25v-7.08h18.33v9.58c0,13.43-7.7,22.8-26.45,22.8-16.87,0-23.43-8.95-23.43-24.89v-32.07c0-16.97,7.81-24.89,24.58-24.89,15.62,0,24.99,6.66,24.99,22.6v6.56h-18.33Z"/>
      <path class="s11_recycle2_c1" d="M58.22,271.78c0-14.99,8.85-19.99,21.66-19.99,14.58,0,21.66,6.87,21.66,19.99v23.74c-.83,13.23-9.06,18.12-21.66,18.12-11.87,0-21.66-4.79-21.66-18.12v-23.74ZM74.78,296.57c.31,3.33,1.66,5.1,5.1,5.1s4.79-1.77,5.11-5.1v-26.03c0-3.75-1.25-6.77-5.11-6.77s-5.1,3.02-5.1,6.77v26.03Z"/>
      <path class="s11_recycle2_c1" d="M125.72,253.45v8.85h.21c1.87-6.25,5.93-10.52,12.81-10.52v18.75c-1.67-.32-3.33-.42-5-.42-4.69,0-6.56.94-6.87,5.73v35.93h-16.55v-58.32h15.41Z"/>
      <path class="s11_recycle2_c1" d="M160.38,253.45v8.85h.21c1.87-6.25,5.94-10.52,12.81-10.52v18.75c-1.67-.32-3.33-.42-5-.42-4.69,0-6.56.94-6.88,5.73v35.93h-16.55v-58.32h15.41Z"/>
      <path class="s11_recycle2_c1" d="M206.61,311.77v-7.19h-.21c-1.56,4.48-6.35,9.06-11.56,9.06-9.58,0-14.79-4.37-14.79-12.29v-47.91h16.56v41.76c.2,2.71.93,5.1,4.06,4.89,2.91-.1,4.79-1.87,4.79-4.89v-41.76h16.56v58.32h-15.41Z"/>
      <path class="s11_recycle2_c1" d="M247.65,315c0,4.06.63,5.83,5.41,5.52,3.44-.31,4.9-1.04,5-4.79v-11.77h-.21c-3.33,3.85-7.29,6.35-11.77,6.35-10.41,0-14.58-9.37-14.58-18.33v-20.21c0-9.17,3.33-19.99,14.27-19.99,5.73.21,10.31,2.92,13.12,8.75h.21v-7.08h15.41v59.46c0,13.64-9.79,18.54-22.18,18.54s-20.83-3.02-21.24-16.45h16.56ZM248.07,290.53c0,3.23,1.04,6.25,4.89,6.25,4.48,0,5-4.06,5-7.6v-16.14c0-3.96-.94-7.7-5.42-7.7s-4.58,5.62-4.48,8.64v16.55Z"/>
      <path class="s11_recycle2_c1" d="M311.4,306.57c-4.16,4.58-7.7,7.08-14.26,7.08-9.37,0-15.21-6.35-15.21-15.62,0-13.22,7.19-17.39,14.48-19.79,7.19-2.39,14.37-3.12,14.37-9.37,0-3.23-1.88-6.04-5.21-6.04-6.04,0-6.04,4.17-6.36,9.06h-16.55c-.73-14.58,9.06-20.1,22.39-20.1,16.35,0,22.29,5,22.29,17.81v35.73c0,2.18.63,4.37,1.35,6.45h-16.14l-1.15-5.21ZM310.77,283.45c-3.33,1.77-6.25,2.71-8.33,4.27-2.08,1.46-3.85,3.54-3.85,7.5,0,3.65,2.19,6.25,6.14,6.25,4.89,0,5.93-5.1,6.04-8.85v-9.16Z"/>
      <path class="s11_recycle2_c1" d="M332.76,265.43v-11.98h6.56v-16.66h16.56v16.66h7.92v11.98h-7.92v30.72c0,3.33,1.46,4.06,3.64,4.06,1.88-.31,2.5-.21,4.27-.21v11.67c-3.54.52-6.98.93-10.62.93-8.96,0-13.85-4.58-13.85-13.43v-33.74h-6.56Z"/>
      <path class="s11_recycle2_c1" d="M386.69,285.32v10.21c0,3.23,1.46,5.93,5.11,6.15,6.15.31,5.52-5.21,5.83-10.1h16.46c.83,15-7.29,21.87-21.66,22.08-11.87.11-22.28-4.79-22.28-18.12v-23.74c0-14.99,9.48-19.89,22.28-19.99,11.56-.11,22.29,4.27,22.29,16.87v16.66h-28.02ZM398.14,274.39v-5.73c0-2.08-1.35-5.94-5.62-5.94-4.69,0-5.83,3.75-5.83,7.81v3.85h11.46Z"/>
      <path class="s11_recycle2_c1" d="M450.13,311.77v-6.77h-.21c-3.02,5.62-8.02,8.64-12.91,8.64-12.08-.41-14.48-11.77-14.48-21.66v-20.21c0-9.17,3.23-19.99,14.17-19.99,4.37,0,8.64,1.88,12.08,6.98h.21v-25.1h16.56v78.11h-15.41ZM439.09,290.74c0,3.44,0,9.37,4.79,9.37,4.48,0,5.1-4.48,5.1-10.1v-13.74c0-5-.73-11.04-4.79-10.93-5.31,0-5.1,6.56-5.1,10.31v15.1Z"/>
      <path class="s11_recycle2_c1" d="M62.02,412.08h-18.33v-78.11h26.77c15,0,22.49,6.04,22.49,21.56,0,8.33-1.98,14.27-9.69,17.81v.21c5.11,1.15,8.75,4.69,9.06,10.1.52,6.25.62,19.68,1.66,24.68.42,1.04.94,1.98,1.77,2.71v1.04h-20c-.52-1.46-.94-2.92-1.04-4.48-.31-6.87.11-13.33-.41-18.12-.52-4.79-1.98-7.92-6.25-8.23h-6.04v30.82ZM62.02,367.2h6.25c5.31,0,6.56-4.89,6.56-9.68,0-9.27-3.85-9.69-12.81-9.48v19.16Z"/>
      <path class="s11_recycle2_c1" d="M117.74,385.63v10.21c0,3.23,1.46,5.93,5.1,6.15,6.14.31,5.52-5.21,5.83-10.1h16.46c.83,15-7.29,21.87-21.66,22.08-11.87.11-22.29-4.79-22.29-18.12v-23.74c0-15,9.48-19.89,22.29-20,11.56-.11,22.29,4.27,22.29,16.87v16.66h-28.01ZM129.19,374.7v-5.73c0-2.08-1.35-5.94-5.62-5.94-4.69,0-5.83,3.75-5.83,7.81v3.85h11.45Z"/>
      <path class="s11_recycle2_c1" d="M181.17,375.43l-.1-1.04c-.31-2.19-.21-4.48-.63-6.67-.73-2.4-1.98-3.65-4.48-3.65-4.26,0-5,3.33-5,7.08v24.06c0,3.64,1.04,6.77,5.31,6.77,6.14,0,5.1-9.16,5.1-13.54h16.04c0,3.44-.42,10.73-1.35,13.85-2.19,7.29-8.44,10.62-15.62,11.35-1.56.1-3.02.31-5.52.31-11.87,0-20.51-4.79-20.51-18.12v-23.74c0-15,7.7-20,20.51-20,16.35.21,22.81,7.29,21.87,23.33h-15.62Z"/>
      <path class="s11_recycle2_c1" d="M224.3,391.46h.21l5.73-37.7h16.25l-10.52,49.88c-4.16,15.83-4.06,28.12-22.18,28.12-2.92,0-4.9-.52-6.56-.52v-12.29c1.04.11,2.19.21,3.23.42,1.77.31,5-.62,5-2.92,0-2.71-1.25-7.19-1.88-9.89l-11.56-52.8h16.66l5.62,37.7Z"/>
      <path class="s11_recycle2_c1" d="M279.49,375.43l-.1-1.04c-.31-2.19-.21-4.48-.63-6.67-.73-2.4-1.97-3.65-4.48-3.65-4.27,0-5,3.33-5,7.08v24.06c0,3.64,1.04,6.77,5.31,6.77,6.14,0,5.11-9.16,5.11-13.54h16.04c0,3.44-.41,10.73-1.35,13.85-2.19,7.29-8.44,10.62-15.62,11.35-1.56.1-3.02.31-5.52.31-11.87,0-20.52-4.79-20.52-18.12v-23.74c0-15,7.71-20,20.52-20,16.35.21,22.81,7.29,21.87,23.33h-15.62Z"/>
      <path class="s11_recycle2_c1" d="M305.96,412.08v-78.11h16.56v78.11h-16.56Z"/>
      <path class="s11_recycle2_c1" d="M349.17,385.63v10.21c0,3.23,1.46,5.93,5.1,6.15,6.14.31,5.52-5.21,5.83-10.1h16.45c.84,15-7.29,21.87-21.66,22.08-11.87.11-22.29-4.79-22.29-18.12v-23.74c0-15,9.48-19.89,22.29-20,11.56-.11,22.29,4.27,22.29,16.87v16.66h-28.01ZM360.62,374.7v-5.73c0-2.08-1.36-5.94-5.63-5.94-4.68,0-5.83,3.75-5.83,7.81v3.85h11.46Z"/>
      <path class="s11_recycle2_c1" d="M409.27,371.05c-.42-3.96-.21-8.02-5.52-8.02-3.22,0-5.52,1.46-5.52,4.9,0,3.12,2.6,4.68,5.1,5.93,10.72,4.89,22.29,7.7,22.29,21.55,0,13.02-9.89,18.54-22.08,18.54-13.12,0-22.29-5.62-21.66-19.68h15.83c-.21,4.06.94,8.75,5.93,8.75,3.54,0,5.94-1.77,5.94-5.52,0-1.77-.83-3.44-2.19-4.48-6.67-3.54-15.94-6.04-21.14-11.98-2.81-3.23-4.16-6.66-4.16-10.93,0-12.6,10-18.02,21.55-18.02s21.77,6.04,21.14,18.95h-15.52Z"/>
    </g>
  </g>
</svg>