<svg id="_레이어_2" data-name="레이어 2" xmlns="http://www.w3.org/2000/svg" viewBox="0 0 213.54 213.54">
  <defs>
    <style>
      .s13_caution_c1 {
        fill: none;
        stroke: #000;
        stroke-miterlimit: 10;
        stroke-width: 11px;
      }
    </style>
  </defs>
  <g id="Layer_1" data-name="Layer 1">
    <path d="M106.19,47.63c1.63-.21,2.97.45,3.92,1.74l63.63,110.21c1.72,2.57.38,5.98-2.74,6.39H42.56c-2.73-.32-4.28-3.18-3.14-5.67l63.75-110.5c.67-1.09,1.71-1.99,3.01-2.16ZM52.7,155.61h108.16l-54.01-95.16-54.15,95.16Z"/>
    <path d="M101.93,91.94c.61-.6,1.54-1.08,2.4-1.17,1.2-.12,5-.14,6.01.27,3,1.21,3.24,5.3,3.14,8.04-.36,9.44-1.55,18.9-1.98,28.35-.94,6.84-8.65,6.63-9.46-.13-.29-9.61-1.76-19.46-1.98-29.04-.05-2.17.25-4.72,1.87-6.32Z"/>
    <path d="M105.96,137.9c8.24-.98,9.28,11.22,1.76,12.1-8.45,1-9.47-11.19-1.76-12.1Z"/>
    <rect class="s13_caution_c1" x="5.5" y="5.5" width="202.54" height="202.54"/>
  </g>
</svg>