<svg id="_레이어_2" data-name="레이어 2" xmlns="http://www.w3.org/2000/svg" viewBox="0 0 200.0 200.0">
<g transform="translate(10.00,25.39) scale(0.3931)">

  <defs>
    <style>
      .s15_do_not_drop_c1 {
        fill: #231815;
      }
    </style>
  </defs>
  <g id="Layer_1" data-name="Layer 1">
    <polygon class="s15_do_not_drop_c1" points="103.54 18.85 84.68 0 51.77 32.91 18.86 0 0 18.85 32.92 51.76 0 84.68 18.85 103.53 51.77 70.62 84.69 103.54 103.54 84.69 70.62 51.77 103.54 18.85"/>
    <polygon class="s15_do_not_drop_c1" points="386.84 166 257.83 144.34 220.39 30.67 336.92 56.23 386.84 166"/>
    <polygon class="s15_do_not_drop_c1" points="247.08 148.02 157.69 241.78 122.81 118.18 209.95 33.6 247.08 148.02"/>
    <path class="s15_do_not_drop_c1" d="M457.92,280.56l-106.96-24.24,39.1-35.98-53.46,5.86,47.53-51.19-127.48-19.74-90.24,93.71,50.4,8.06,16.07,15.04-71.71,47.4,91.31-19.41-5.75,79.55,47.02-78.29,46.28,32.58-7.01-48.19,124.91-5.17ZM290.92,287.99l-32.11,53.47,3.83-53.04-55.43,11.78,40.62-26.85-14.61-13.67,62.95,10.07,30.76-33.13,36-3.94-31.31,28.8,56,12.69-65.3,2.7,5.39,37.01-36.79-25.9Z"/>
  </g>

</g>
</svg>