<svg id="_레이어_2" data-name="레이어 2" xmlns="http://www.w3.org/2000/svg" viewBox="0 0 200.0 200.0">
<g transform="translate(10.00,10.00) scale(0.8429)">

  <defs>
    <style>
      .s15_gori_c1 {
        fill: none;
        stroke: #000;
        stroke-miterlimit: 10;
        stroke-width: 11.0px;
      }
    </style>
  </defs>
  <g id="Layer_1" data-name="Layer 1">
    <rect x="60.66" y="37.66" width="92.22" height="7.06"/>
    <rect x="105.43" y="41.19" width="2.68" height="27.87"/>
    <path d="M106.77,72.61l-4.15-4.15c1.32-.37,2.71-.58,4.15-.58s2.83.2,4.15.58l-4.15,4.15Z"/>
    <path d="M106.77,83.34l10.43,10.43c-2.7,2.6-6.38,4.2-10.43,4.2s-7.73-1.6-10.43-4.2l10.43-10.43Z"/>
    <path d="M101.41,77.98l-9.1,9.1c-.37-1.32-.58-2.71-.58-4.15,0-4.05,1.6-7.72,4.2-10.43l5.47,5.47Z"/>
    <path d="M120.63,88.78c-.58,1.38-1.37,2.66-2.32,3.8l-11.54-11.54-11.54,11.54c-.95-1.14-1.74-2.41-2.32-3.8l10.8-10.8-6.58-6.58c1.14-.95,2.41-1.74,3.8-2.32l5.85,5.85,5.85-5.85c1.38.58,2.66,1.37,3.8,2.32l-6.58,6.59,10.8,10.8Z"/>
    <path d="M121.81,82.93c0,1.44-.2,2.83-.58,4.15l-9.1-9.1,5.47-5.47c2.6,2.7,4.2,6.38,4.2,10.43Z"/>
    <rect x="101.5" y="92.57" width="10.54" height="20.78"/>
    <path d="M101.85,105.56c.67,2.51,1.65,4.92,2.4,7.4,12.51.9,23.28,10.24,25.45,23.14,2.55,15.13-7.69,29.52-22.83,32.06-14.82,2.49-26.46-7.27-29.44-21.88-.64-2.07-1.22-10.96-1.2-12.08.17-10.18-6.87,10.35-6.11,12.93,3.48,18.8,19.03,31.44,37.96,28.26,19.12-3.22,32.05-21.39,28.84-40.5-2.91-17.3-18.06-29.53-35.08-29.32Z"/>
    <polygon points="120.63 88.78 137.97 106.12 134.91 109.18 106.77 81.04 95.23 92.57 78.63 109.18 75.57 106.12 92.91 88.78 103.71 77.98 75.57 49.83 78.63 46.77 106.77 74.92 112.62 69.07 134.91 46.77 137.97 49.83 116.42 71.39 109.83 77.98 120.63 88.78"/>
    <rect class="s15_gori_c1" x="5.5" y="5.5" width="202.54" height="202.54"/>
  </g>

</g>
</svg>