<svg id="_레이어_2" data-name="레이어 2" xmlns="http://www.w3.org/2000/svg" viewBox="0 0 200.0 200.0">
<g transform="translate(10.00,10.00) scale(0.8429)">

  <defs>
    <style>
      .s16_Lift_pork_x_c1 {
        fill: none;
        stroke: #000;
        stroke-miterlimit: 10;
        stroke-width: 11.0px;
      }
    </style>
  </defs>
  <g id="Layer_1" data-name="Layer 1">
    <path d="M85.68,55.51v70.3l39.38-69.45h61.41l.34,92.32c-.33.08-.33-.12-.48-.28-1.93-2.12-3.78-3.85-6.41-5.11-12.69-6.1-27.51,3.86-26.66,17.85.05.84.51,2.22.48,2.91,0,.21-.06.26-.22.38h-33.88c-.17-.13-.19-.15-.19-.35,0-.62.39-1.72.44-2.45.62-8.97-5.04-17.34-13.82-19.55-14.04-3.54-26.2,8.96-22.77,22.86l-6.06-.02-40.01-7.75v-8.3l39.98,7.77V55.51h8.47ZM180.03,64.49h-50.48l-29.47,50.31,47.09-.17v-8.64h32.86v-41.51Z"/>
    <polygon points="33.28 39.77 44.77 51.1 56.14 39.77 62.57 46.03 51.3 57.63 62.62 69.01 62.48 69.49 56.37 75.59 44.75 64.33 33.25 75.67 26.73 69.15 38.07 57.77 26.73 46.28 33.28 39.77"/>
    <path d="M99.53,146.86c9.55-1.08,17.2,7.1,15.03,16.56-2.72,11.87-18.92,14.16-24.91,3.56-4.62-8.19.47-19.05,9.88-20.11Z"/>
    <path d="M170.17,146.86c11.28-1.27,19.33,10.29,13.62,20.23-6.32,11-23.24,7.75-25.08-4.79-1.06-7.2,4.08-14.6,11.46-15.43Z"/>
    <rect class="s16_Lift_pork_x_c1" x="5.5" y="5.5" width="202.54" height="202.54"/>
  </g>

</g>
</svg>