<svg id="_레이어_2" data-name="레이어 2" xmlns="http://www.w3.org/2000/svg" viewBox="0 0 200.0 200.0">
<g transform="translate(10.00,11.92) scale(0.4624)">

  <defs>
    <style>
      .s17_stack_truck_x_c1 {
        fill: #231815;
      }
    </style>
  </defs>
  <g id="Layer_1" data-name="Layer 1">
    <polygon class="s17_stack_truck_x_c1" points="102.9 18.74 84.16 0 51.46 32.71 18.74 0 0 18.74 32.72 51.45 0 84.16 18.73 102.9 51.45 70.19 84.17 102.9 102.9 84.17 70.19 51.45 102.9 18.74"/>
    <polygon class="s17_stack_truck_x_c1" points="383.3 275.95 375.53 256.14 275.85 295.23 180.86 52.96 180.85 52.96 180.84 52.93 123.74 75.35 131.51 95.17 170.31 79.95 265.28 322.16 383.3 275.95"/>
    <path class="s17_stack_truck_x_c1" d="M248.02,316.3c0,17.5-14.18,31.68-31.68,31.68s-31.68-14.18-31.68-31.68,14.19-31.68,31.68-31.68,31.68,14.18,31.68,31.68Z"/>
    <rect class="s17_stack_truck_x_c1" x="14.02" y="363.78" width="375.28" height="17.21"/>
  </g>

</g>
</svg>