<svg id="_레이어_2" data-name="레이어 2" xmlns="http://www.w3.org/2000/svg" viewBox="0 0 213.54 213.54">
  <defs>
    <style>
      .s18_stack_c1 {
        fill: none;
        stroke: #000;
        stroke-miterlimit: 10;
        stroke-width: 11px;
      }
    </style>
  </defs>
  <g id="Layer_1" data-name="Layer 1">
    <g>
      <path d="M106.77,65.56l35.28-13.22-33.3-12.48c-1.24-.46-2.7-.46-3.94,0l-33.3,12.48,35.28,13.22Z"/>
      <path d="M67.46,72.83l26.17,26.17-23.74-8.5c-1.49-.56-2.44-1.71-2.44-2.96v-14.71Z"/>
      <polygon points="104.24 69.75 104.24 98.87 67.46 62.08 67.46 56.53 104.24 69.75"/>
      <polygon points="146.09 56.53 146.09 62.08 109.3 98.87 109.3 69.75 146.09 56.53"/>
      <path d="M119.91,99l26.17-26.17v14.71c0,1.25-.95,2.39-2.44,2.96l-23.74,8.5Z"/>
    </g>
    <g>
      <polygon points="92.46 115.71 81.03 127.14 71.49 123.57 92.46 115.71"/>
      <polygon points="106.77 112.14 124.7 130.07 106.77 136.79 88.84 130.07 106.77 112.14"/>
      <polygon points="142.05 123.57 132.52 127.14 121.08 115.71 142.05 123.57"/>
      <polygon points="76.98 131.18 67.46 140.71 67.46 127.76 76.98 131.18"/>
      <path d="M104.24,140.98v33.06l-34.35-12.31c-1.49-.56-2.44-1.71-2.44-2.96v-7.31l17.44-17.44,19.35,6.96Z"/>
      <polygon points="146.09 127.76 146.09 140.71 136.56 131.18 146.09 127.76"/>
      <path d="M128.65,134.03l17.44,17.44v7.31c0,1.25-.95,2.39-2.44,2.96l-34.35,12.31v-33.06l19.35-6.95Z"/>
    </g>
    <polygon points="165.49 50.75 162.79 48.05 106.77 104.07 50.75 48.05 48.05 50.75 104.07 106.77 48.05 162.79 50.75 165.49 106.77 109.47 162.79 165.49 165.49 162.79 109.47 106.77 165.49 50.75"/>
    <rect class="s18_stack_c1" x="5.5" y="5.5" width="202.54" height="202.54"/>
  </g>
</svg>