<svg id="_레이어_2" data-name="레이어 2" xmlns="http://www.w3.org/2000/svg" viewBox="0 0 200.0 200.0">
<g transform="translate(10.00,10.00) scale(0.8429)">

  <defs>
    <style>
      .s19_stack_c1 {
        fill: none;
        stroke: #000;
        stroke-miterlimit: 10;
        stroke-width: 11.0px;
      }
    </style>
  </defs>
  <g id="Layer_1" data-name="Layer 1">
    <g>
      <path d="M100.74,155.63c-.09,1.19-.07,2.48-.07,4.34v4.35h-5.07c1.43-2.44,4.14-6.75,5.14-8.69Z"/>
      <path d="M55.94,142.12v40.28h86.42v-40.28H55.94ZM105.35,166.95h-1.71v4.38h-2.97v-4.38h-8.01v-2.85l7.01-10.92h3.97v11.15h2l-.3,2.62Z"/>
    </g>
    <path d="M136.34,97.71l-9.23,9.23,3.11,3.11,12.14-12.14v-.2h-6.01ZM130.22,111.74l-4.8-4.8,9.23-9.23H55.94v40.28h86.42v-38.39l-12.14,12.14ZM98.96,127.03c-3.38,0-5.71-1.67-6.03-5.01h3.14c.31,1.49,1.15,2.49,2.96,2.49,2.25,0,3.06-1.55,3.06-3.8,0-2.08-.91-3.58-3.03-3.58-1.72,0-2.6.8-3.07,2l-2.71-.44c.39-2.16,1.05-7.63,1.28-10.04h10.2l-.38,2.68h-7.29c-.13,1.24-.41,3.51-.55,4.44.63-.64,1.67-1.18,3.41-1.18,3.54,0,5.42,2.57,5.42,5.91,0,3.72-2.01,6.53-6.4,6.53Z"/>
    <g>
      <path d="M107.08,61.91c1.82.52,2.41,2.07,1.81,4.18-.68,2.38-2.07,3.38-3.82,2.88-2.18-.62-2.33-2.72-1.75-4.78.54-1.88,1.78-2.84,3.76-2.28Z"/>
      <path d="M70.81,31.15l-11.05,38.74,73.96,21.08-7.46-7.46-.85-.85.85-.85,3.11-3.11.85-.85.85.85,11.29,11.29,2.15-2.15,9.41-33-83.11-23.69ZM113.79,59.09l-3-.86c0-1.06-.38-1.98-1.85-2.4-2.55-.73-3.99,2.21-4.71,4.59.95-.76,2.37-1.24,4.34-.68,2.72.78,4.53,3.29,3.44,7.09-.98,3.43-3.74,5.63-7.58,4.53-4.74-1.35-5.12-5.24-3.7-10.21,1.4-4.89,4.14-9.03,9.06-7.63,3.38.96,4.27,3.33,4,5.57ZM142.36,91.69l-12.14-12.13-3.11,3.11,8.98,8.98,6.78,1.93.96-3.37-1.48,1.48Z"/>
    </g>
    <polygon points="145.47 94.8 157.6 106.94 154.5 110.04 142.36 97.9 130.22 110.04 127.11 106.94 136.34 97.71 139.25 94.8 127.11 82.66 130.22 79.55 142.36 91.69 143.84 90.21 154.5 79.55 157.6 82.66 145.47 94.8"/>
    <rect class="s19_stack_c1" x="5.5" y="5.5" width="202.54" height="202.54"/>
  </g>

</g>
</svg>