<svg id="_레이어_2" data-name="레이어 2" xmlns="http://www.w3.org/2000/svg" viewBox="0 0 200.0 200.0">
<g transform="translate(10.00,10.00) scale(0.8429)">

  <defs>
    <style>
      .s20_recycle1_c1 {
        fill: none;
        stroke: #000;
        stroke-miterlimit: 10;
        stroke-width: 11.0px;
      }
    </style>
  </defs>
  <g id="Layer_1" data-name="Layer 1">
    <g>
      <path d="M130,130.57v-10.52l-17.28,27.42,17.28,29.3v-12.4h20.66c3.02-.35,11.6-14.75,22.91-36.06-1.35.54-2.55,1.1-3.58,1.68-1.49.83-3.17,1.31-4.88,1.27l-35.11-.7Z"/>
      <path d="M162.67,80.99l-28.55,16.15,16.9,30.42c4.09.37,8.18.47,12.29.29,3.86-.17,7.62-1.65,10.39-4.35,1.74-1.69,3.12-3.79,3.98-6.45.26-2.37.35-4.74.23-7.1-.09-1.79-.63-3.53-1.52-5.09l-13.74-23.87Z"/>
    </g>
    <g>
      <path d="M75.57,111.04l9.11,5.26-15.11-28.67-34.01.31,10.73,6.2-10.33,17.89c-1.21,2.79,6.97,17.42,19.77,37.87.21-1.43.32-2.75.34-3.94.02-1.71.45-3.39,1.34-4.86l18.16-30.06Z"/>
      <path d="M102.17,164.13l.29-32.8-34.8-.57c-2.37,3.35-4.5,6.85-6.39,10.5-1.78,3.43-2.38,7.42-1.43,11.18.6,2.36,1.72,4.6,3.6,6.68,1.92,1.41,3.93,2.67,6.04,3.75,1.59.82,3.37,1.22,5.17,1.23l27.54.04Z"/>
    </g>
    <g>
      <path d="M119.46,73.83l-9.11,5.26,32.39,1.25,16.73-29.61-10.73,6.2-10.33-17.89c-1.81-2.44-18.57-2.67-42.68-1.81,1.14.9,2.22,1.66,3.24,2.26,1.47.88,2.71,2.09,3.54,3.59l16.95,30.76Z"/>
      <path d="M60.18,70.32l28.26,16.65,17.9-29.85c-1.72-3.73-3.69-7.32-5.9-10.79-2.08-3.26-5.24-5.77-8.96-6.83-2.34-.66-4.84-.81-7.58-.22-2.18.96-4.27,2.07-6.27,3.35-1.51.97-2.75,2.31-3.65,3.86l-13.8,23.83Z"/>
    </g>
    <rect class="s20_recycle1_c1" x="5.5" y="5.5" width="202.54" height="202.54"/>
  </g>

</g>
</svg>