<svg id="_레이어_2" data-name="레이어 2" xmlns="http://www.w3.org/2000/svg" viewBox="0 0 51.07 50.19">
  <defs>
    <style>
      .s21_recycle2_c1 {
        fill: #231815;
      }
    </style>
  </defs>
  <g id="_레이어_1-2" data-name="레이어 1">
    <path class="s21_recycle2_c1" d="M22.73,7.28h-3.96c-.18,0-.35.09-.46.23l-5.7,7.6c-.18.25-.14.59.1.79l6.71,5.44c.12.1.27.14.43.13.15-.02.29-.1.39-.22l5.76-7.52,1.99,3.32-3.33,2.11c-.22.14-.32.42-.24.67.09.25.33.41.6.39l9.75-.89c.18-.01.33-.11.43-.26l4.81-7.47c.14-.21.12-.49-.05-.68-.17-.19-.44-.25-.67-.15,0,0-2.35,1.04-3,1.33-.47-.63-3.4-4.57-3.4-4.57-.11-.15-.28-.23-.46-.23h-9.71ZM19.68,20.08c-.74-.6-5.13-4.16-5.82-4.72.57-.76,4.89-6.52,5.19-6.92h3.77l2.54,4.23c-.89,1.16-5.11,6.67-5.68,7.42ZM34.39,18.2c-.39.04-4.49.41-7.1.65.86-.54,1.71-1.09,1.78-1.13h0s.01,0,.01,0c.06-.03.1-.08.14-.13,0-.01.01-.02.02-.04.03-.05.07-.11.08-.18h0s.02-.09.02-.14c0-.02,0-.03,0-.05,0-.02,0-.04,0-.05-.01-.06-.03-.11-.06-.17,0,0,0-.01,0-.02l-5.1-8.5h7.99c.31.42,3.5,4.71,3.5,4.71.16.22.45.29.7.18,0,0,.83-.37,1.66-.74-1.23,1.9-3.4,5.27-3.62,5.62Z"/>
    <path class="s21_recycle2_c1" d="M43.95,31.96l2.03-3.4c.09-.16.11-.35.04-.51l-3.6-8.79c-.12-.29-.44-.43-.73-.32l-8.11,2.97c-.15.05-.27.16-.33.31-.06.14-.07.3-.01.44l3.51,8.81h-3.87s-.1-3.93-.1-3.93c-.01-.26-.2-.49-.46-.55-.26-.05-.52.07-.64.31l-4.24,8.82c-.08.16-.07.35,0,.5l3.95,7.96c.11.23.36.35.61.31.25-.04.44-.25.47-.5,0,0,.31-2.56.39-3.26.78-.08,5.67-.58,5.67-.58.18-.02.34-.12.43-.28l4.62-7.74.36-.6ZM34.52,22.78c.9-.33,6.2-2.27,7.04-2.58.36.88,3.09,7.54,3.28,8.01-.1.16-.91,1.52-1.93,3.24h-4.93c-.54-1.35-3.11-7.8-3.46-8.67ZM28.6,36.37c.17-.36,1.95-4.06,3.09-6.43.02,1.01.05,2.03.05,2.1h0c0,.08.02.14.04.2,0,.01.01.03.02.04.03.06.06.12.11.16,0,0,0,0,0,0,.03.03.07.06.11.08.01,0,.03.01.04.02.02,0,.04.02.05.02.05.02.11.03.17.04,0,0,.01,0,.02,0l9.91-.02c-1.82,3.04-3.94,6.59-4.1,6.86-.52.05-5.83.59-5.83.59-.27.03-.48.24-.51.5,0,0-.11.91-.22,1.81-1.01-2.03-2.79-5.62-2.97-5.99Z"/>
    <path class="s21_recycle2_c1" d="M12.65,38.31l2.42,3.14c.11.14.28.22.46.22l9.49-.11c.31,0,.56-.25.57-.56l.23-8.64c0-.15-.05-.31-.16-.41-.11-.11-.26-.17-.41-.17l-9.48.02,1.42-3.6,3.69,1.35c.25.09.53,0,.68-.22.15-.22.12-.51-.06-.71l-6.65-7.19c-.12-.13-.29-.2-.47-.18l-8.85.74c-.25.02-.46.21-.51.45-.05.25.06.5.29.62,0,0,2.26,1.23,2.88,1.57-.21.76-1.55,5.48-1.55,5.48-.05.18-.01.36.1.51l5.5,7.15.42.55ZM24.65,32.92c-.02.95-.17,6.6-.19,7.5-.95.01-8.15.1-8.65.11-.11-.15-1.08-1.4-2.3-2.99l1.81-4.59c1.46,0,8.4-.02,9.34-.02ZM14.2,22.41c.27.29,3.06,3.31,4.84,5.24-.95-.35-1.91-.7-1.97-.72h0s-.01,0-.01,0c-.06-.02-.13-.03-.19-.03-.02,0-.03,0-.05,0-.06,0-.13.02-.19.04,0,0,0,0,0,0-.04.02-.08.04-.12.07-.01,0-.02.02-.03.04-.01.01-.03.03-.04.04-.04.04-.07.09-.1.15,0,0,0,.01-.01.02l-3.63,9.22c-2.16-2.81-4.68-6.09-4.87-6.33.14-.51,1.6-5.64,1.6-5.64.07-.26-.04-.53-.28-.66,0,0-.8-.43-1.6-.87,2.26-.19,6.25-.52,6.66-.56Z"/>
    <path class="s21_recycle2_c1" d="M6.18,0C2.88-.02.19,2.44.17,5.47L0,44.49c-.01,3.03,2.66,5.51,5.96,5.52l38.98.17c3.27.01,5.95-2.44,5.96-5.47l.17-39.02c.01-3.03-2.64-5.51-5.91-5.52L6.18,0ZM2.19,44.5l.17-39.02c0-1.82,1.71-3.3,3.8-3.29l38.98.17c2.07,0,3.74,1.5,3.73,3.33l-.17,39.02c0,1.82-1.69,3.3-3.76,3.29l-38.98-.17c-2.09,0-3.78-1.5-3.77-3.33Z"/>
  </g>
</svg>