<svg id="_레이어_2" data-name="레이어 2" xmlns="http://www.w3.org/2000/svg" viewBox="0 0 213.54 213.54">
  <defs>
    <style>
      .s22_recycle3_c1 {
        fill: none;
        stroke: #000;
        stroke-miterlimit: 10;
        stroke-width: 11px;
      }
    </style>
  </defs>
  <g id="Layer_1" data-name="Layer 1">
    <path d="M141.8,61.96c-.12.28-.17.57-.3.84-.79,1.69-2.39,4.06-3.44,5.68-.24.37-1.61,2.53-1.81,2.55l-9.05-5.35c-.07-.33.14-.2.34-.27.62-.2,1.3-.24,1.87-.56.26-.39-.23-1.31-.41-1.73-7.09-16.86-30.46-19.54-41.92-5.49-15.38,18.86,2.43,46.37,26.02,40,9.57-2.59,16.79-11.12,18.06-20.92l10.02,1.36c-1.81,14.93-13.45,27.31-28.24,30.04-25.64,4.73-47.49-18.79-40.41-44.06,8.84-31.54,52.05-34.78,65.89-4.89.26.55.96,2.7,1.16,2.94.33.41,1.66-.3,2.21-.15Z"/>
    <path d="M121.14,68.65l9.88,3.88-14.05,8.27-10.47-3.6c-3.11,1.11-6.28,3.11-9.37,4.14-.33.11-.6.27-.97.23-.44-.04-2.1-1.05-2.62-1.34-3.75-2.06-7.32-4.48-11.14-6.41-.08-.1.43-.49.57-.57,2.19-1.31,5.63-2.34,8.04-3.51.17-.08.96-.43.96-.56l-7.12-5.87.12-.52,14.1-8.1c.26-.06.44.08.64.21,2.17,1.39,4.25,3.76,6.4,5.15.17.11.32.23.53.23l7.22-5.86,13.67,7.92.09.38-6.47,5.92ZM93.93,69.4l12.54,6.99,12.53-7.36-12.41-7.19-12.52,7.18-.15.38Z"/>
    <path d="M57.38,144.18c5.63.63,6.65,7.5,3.78,11.38l-1.58,1.08c1.68.46,2.71,1.51,2.89,3.27.29,2.91-.26,6.26,1.07,8.89h-6.38c-.61-1.9-.17-4.02-.31-6-.19-2.89-.73-4.08-3.95-3.72v9.73h-5.93v-24.62h10.41ZM52.9,154.67h2.36c1.73,0,2.47-4.97.38-5.85-.84-.36-1.85-.19-2.74-.23v6.08Z"/>
    <path d="M43.17,127.46h5.78v4.48c0,2.49-2.54,4.62-4.75,5.28-4.8,1.45-10.03.26-10.89-5.3-.46-3.02-.5-12.81.29-15.63,1.91-6.81,15.34-6.12,15.34,1.97v2.58l-.23.23h-5.47l-.23-.23v-2.74c0-.72-.84-1.78-1.61-1.89-3.17-.46-2.27,3.56-2.34,5.54-.1,2.97-.4,6.14-.16,9.12.07.88.18,1.73,1.07,2.12.84.38,1.87.34,2.52-.37.21-.24.68-1.36.68-1.6v-3.57Z"/>
    <path d="M114.9,134.61c-2.48,2.99-6.71,2.74-8.02-1.18-.59-1.76-.51-8.08-.35-10.15.35-4.43,3.8-6.82,7.61-3.95l1.06,1.45v-2.13h4.86v20.14c0,.11-.35,1.04-.43,1.24-1.34,3.23-5.27,3.48-8.32,3.25-3.08-.24-5.03-1.97-4.93-5.17h5.17c.09.94.09,1.67,1.18,1.79.57.06,2.16-.25,2.16-.96v-4.33ZM112.22,131.97c1.16,1.09,2.5,0,2.67-1.41.17-1.41.16-4.78,0-6.2-.14-1.23-.64-2.13-2.03-1.91-.55.09-.75.41-.92.9-.39,1.11-.36,5.89-.23,7.22.04.4.21,1.13.5,1.4Z"/>
    <path d="M180.56,112.42v24.62h-4.86l-.08-1.98c-1.04,1.74-2.46,2.76-4.57,2.59-2.69-.22-3.84-2.84-4.03-5.24-.19-2.46-.22-6.98,0-9.43.36-3.96,3.68-6.43,7.21-3.87l1.14,1.06v-7.75h5.17ZM173.37,122.48c-.81.18-1.08,1.32-1.15,2.04-.18,1.65-.18,5.16-.02,6.82.23,2.35,2.41,2.99,3,.72.37-1.44.35-6.8-.02-8.25-.25-.98-.69-1.58-1.8-1.33Z"/>
    <path d="M137.25,137.04h-5.17l-.38-1.52c-2.53,3.45-8.73,2.78-9.19-1.9-.31-3.11.62-5.5,3.54-6.79,1.46-.64,4.75-1.02,5.38-2.52,1.36-3.21-4.2-3.86-3.45.12h-5.32c-.12-2.6.97-4.8,3.46-5.74,2.79-1.05,8.99-1.07,10.3,2.24,1.09,2.77.1,10.57.38,14.06.06.71.28,1.37.46,2.05ZM131.62,128.22c-1.66.6-3.92,1.45-3.92,3.57,0,1.89,2.22,2.81,3.31,1.37.21-.28.61-1.38.61-1.67v-3.27Z"/>
    <path d="M152.6,160.44h-8.81v4.03s.44.73.5.79c.6.55,2.03.54,2.52-.2.58-.89.05-1.86.55-2.64h5.09c.3,4.01-1.8,6.69-5.85,7-3.16.24-6.97-.47-7.89-3.98-.52-1.99-.46-9.97.2-11.91,1.43-4.24,8.38-4.56,11.6-2.47.81.52,2.08,2.11,2.08,3.09v6.31ZM147.43,156.95c.1-1.33.06-3.57-1.75-3.66-1.93-.09-2.04,2.26-1.9,3.66h3.65Z"/>
    <path d="M79.34,160.44h-8.81v4.03s.32.59.39.67c.5.56,1.62.65,2.25.3,1-.56.42-2.28.93-3.02h5.09c.25,3.98-1.8,6.68-5.85,7-3.85.3-7.79-.82-8.14-5.24-.17-2.22-.25-8.77.43-10.67,1.32-3.7,6.17-4.15,9.48-3.35,1.76.43,4.22,2.13,4.22,4.13v6.16ZM74.17,156.95c.1-1.41-.02-3.65-1.9-3.65-.7,0-1.75.74-1.75,1.45v2.2h3.65Z"/>
    <path d="M164.45,128.68h-8.81v3.88c0,1.25,2.74,2.03,3.24.36.19-.63.17-1.58.25-2.26h5.17c.27,3.3-1.04,5.98-4.41,6.76-3.12.73-8.14.19-9.2-3.42-.64-2.19-.61-9.79,0-12,1.19-4.25,7.63-4.68,11.01-3.12,1.06.49,2.74,2.14,2.74,3.34v6.46ZM159.28,125.18c.12-1.34.07-3.57-1.75-3.66-1.92-.09-2.02,2.27-1.9,3.66h3.65Z"/>
    <path d="M95.45,118.65v13.75s.38.68.46.76c.69.59,2.27-.11,2.27-.6v-13.91h5.32v18.39h-4.86v-2.13l-.83,1.22c-1.55,2.4-6.4,1.92-7.34-.72-.09-.26-.34-1.28-.34-1.49v-15.27h5.32Z"/>
    <path d="M57.88,118.09c3.91-.18,7.1,1.24,7.48,5.5.2,2.24.25,8.83-.49,10.75-1.87,4.9-12.6,4.6-13.19-1.33-.24-2.4-.22-7.31,0-9.73.31-3.56,2.89-5.04,6.2-5.19ZM59.69,133.49c.19-.2.33-.66.36-.94.32-2.87-.24-6.33-.02-9.26-.46-2.04-2.87-1.83-3.16.3-.22,1.64-.22,7.15,0,8.79.2,1.48,1.96,2.05,2.83,1.11Z"/>
    <path d="M102.44,150.41l1.67,11.7,1.97-11.7h5.17c-1.26,5.34-2.16,10.77-3.42,16.11-.5,2.1-1.13,5.83-2.74,7.29-1.61,1.46-4.29,1.37-6.31,1.06v-3.8c1.23.12,2.86.32,2.58-1.44l-4.25-19.23h5.32Z"/>
    <path d="M167.64,155.88h-4.86c-.07-1.08-.13-2.4-1.46-2.58-2.27-.31-2.85,2.11-.62,3.36,2.66,1.51,6.68,2.02,7.21,5.86.53,3.91-1.82,6.53-5.66,6.87-4.38.39-8.51-1.14-8.13-6.23h5.02c-.08,1.78.5,3.05,2.5,2.73,1.19-.19,1.57-1.65.97-2.63-.47-.76-3.93-1.98-5-2.6-2.49-1.46-3.98-3.47-3.3-6.5,1.45-6.46,14.21-5.65,13.33,1.71Z"/>
    <path d="M95.45,157.25h-4.86c-.23-.72-.07-1.47-.19-2.17-.32-1.92-2.81-1.99-3.01.11-.21,2.14-.2,6.68,0,8.83.11,1.21.78,1.84,2.05,1.59.45-.09,1.14-1.07,1.14-1.44v-2.81h5.17c-.2,3.01-.03,6.23-3.35,7.52-3.29,1.28-8.97.9-10.07-3.15-.53-1.95-.43-8.17-.27-10.38.37-4.89,4.22-6.1,8.55-5.35,3.93.68,5.27,3.52,4.83,7.26Z"/>
    <path d="M126.61,157.25h-4.79c-.45-.77-.1-1.82-.45-2.74-.46-1.19-2.29-1.13-2.71.03-.46,1.25-.39,7.28-.26,8.87.11,1.35.55,2.54,2.18,2.17.57-.13,1.17-1.04,1.17-1.56v-2.66h5.02v2.66c0,3.26-2.51,5.16-5.54,5.4-3.03.24-6.71-.18-7.73-3.53-.51-1.68-.44-8.98-.24-10.97.14-1.41.69-2.91,1.82-3.8,2.44-1.93,8.54-1.7,10.47.9.32.43,1.06,2.12,1.06,2.58v2.66Z"/>
    <path d="M145.91,113.33v5.32h2.43v3.8h-2.43v10.26c0,.91,1.84.68,2.43.68v3.57l-.25.2c-2.6.22-6.06.85-7.16-2.21-.07-.19-.34-1.07-.34-1.18v-11.32h-1.98v-3.8h1.98v-5.32h5.32Z"/>
    <path d="M120.38,86.96c-.02.12-.17.29-.27.39-.44.43-2.44,1.44-3.13,1.84-2.67,1.58-5.64,3.47-8.36,4.86-.37.19-.73.46-1.17.43v-15.5l9.36,3.19,3.2-1.65.36.21v6.23Z"/>
    <polygon points="105.79 94.48 92.11 86.81 92.11 81.26 96.12 83.24 105.48 79.2 105.79 79.36 105.79 94.48"/>
    <rect x="130.1" y="144.18" width="5.17" height="24.62"/>
    <path d="M88.16,123.97h-2.81c-.27,0-.99.93-.99,1.14v11.93h-5.32v-18.39h4.86v2.58c.66-.67.77-1.54,1.53-2.19.53-.44,1.7-.99,2.38-.97.19,0,.23.05.34.2v5.7Z"/>
    <path d="M77.06,118.04v5.93h-2.66c-.28,0-.99.85-.99,1.14v11.93h-5.32v-18.39h4.86v2.58c.43-.44.55-1.05.94-1.57.82-1.11,1.83-1.47,3.17-1.62Z"/>
    <rect class="s22_recycle3_c1" x="5.5" y="5.5" width="202.54" height="202.54"/>
  </g>
</svg>