<svg id="_레이어_2" data-name="레이어 2" xmlns="http://www.w3.org/2000/svg" viewBox="0 0 213.54 213.54">
  <defs>
    <style>
      .s23_recycle4_c1 {
        fill: none;
        stroke: #000;
        stroke-miterlimit: 10;
        stroke-width: 11px;
      }
    </style>
  </defs>
  <g id="Layer_1" data-name="Layer 1">
    <path d="M148.37,90.04l28.45,11.16-40.47,23.83-30.15-10.36c-8.96,3.21-18.07,8.96-26.99,11.92-.95.31-1.72.77-2.8.66-1.28-.13-6.04-3.03-7.56-3.86-10.8-5.95-21.08-12.89-32.1-18.46-.22-.29,1.24-1.4,1.64-1.64,6.3-3.78,16.21-6.75,23.17-10.1.5-.24,2.76-1.24,2.76-1.61l-20.5-16.91.34-1.51,40.62-23.32c.75-.17,1.27.24,1.85.61,6.25,4,12.24,10.83,18.43,14.83.48.31.91.66,1.52.68l20.8-16.88,39.36,22.82.25,1.09-18.62,17.06ZM70.02,92.23l36.11,20.12,36.1-21.21-35.75-20.7-36.05,20.68-.42,1.1Z"/>
    <path d="M146.18,142.79c-.06.34-.49.84-.77,1.11-1.26,1.23-7.01,4.14-9.01,5.31-7.69,4.54-16.24,9.99-24.08,14-1.06.54-2.11,1.31-3.36,1.24v-44.65l26.96,9.18,9.21-4.75,1.03.61v17.95Z"/>
    <polygon points="104.16 164.46 64.76 142.35 64.76 126.38 76.33 132.06 103.27 120.44 104.16 120.9 104.16 164.46"/>
    <rect class="s23_recycle4_c1" x="5.5" y="5.5" width="202.54" height="202.54"/>
  </g>
</svg>