<svg id="_레이어_2" data-name="레이어 2" xmlns="http://www.w3.org/2000/svg" viewBox="0 0 200.0 200.0">
<g transform="translate(22.18,10.00) scale(0.2852)">

  <g id="objects">
    <g>
      <g>
        <path d="M426.47,198.86c.15,5.32-5.59,8.72-10.18,6.05l-100.28-58.6c-4.47-2.61-4.47-9.07,0-11.68l27.75-16.24-21.74-37.65c-10.27-17.79-28.66-28.41-49.2-28.41s-38.93,10.62-49.2,28.4l-63.95,110.76-45.46-25.89,64.1-111.03c42.01-72.75,147.02-72.75,189.03,0l21.58,37.39,24-14.04c4.44-2.6,10.04.5,10.19,5.64l3.37,115.31Z"/>
        <path d="M436.34,501.5h-48.77v28.4c0,5.14-5.51,8.4-10.01,5.93l-101.22-55.36c-4.66-2.55-4.7-9.23-.07-11.83l101.22-56.94c4.51-2.54,10.08.72,10.08,5.9v31.57h48.77c20.54,0,38.93-10.62,49.21-28.41,10.26-17.78,10.26-39.02,0-56.81l-65.13-112.8,45.47-25.89,64.97,112.54c42.01,72.75-10.5,163.7-94.51,163.7Z"/>
        <path d="M238.93,449.18v52.32H109.3c-84.01,0-136.52-90.95-94.51-163.7l22.99-39.81-24.15-13.59c-4.48-2.52-4.63-8.92-.27-11.64l97.87-61.08c4.51-2.81,10.35.43,10.35,5.74v116.15c0,5.17-5.58,8.43-10.1,5.89l-28.11-15.82-23.28,40.32c-10.26,17.78-10.26,39.02,0,56.81,10.27,17.79,28.67,28.41,49.21,28.41h129.63Z"/>
      </g>
      <path d="M248.99,350.64h62.11v23.66h-112.01l57.9-70.1c5.69-6.98,10.46-13.03,14.31-18.15,3.85-5.11,6.79-9.4,8.8-12.85,4.1-6.77,6.16-12.85,6.16-18.25,0-7.78-2.74-14.29-8.21-19.55-5.47-5.26-12.24-7.89-20.31-7.89-16.85,0-26.5,9.97-28.95,29.92h-25.06c4.03-35.14,21.78-52.71,53.25-52.71,15.19,0,27.94,4.83,38.24,14.47,10.37,9.65,15.55,21.6,15.55,35.86,0,9.07-2.41,17.97-7.24,26.68-2.45,4.54-6.03,9.92-10.75,16.15-4.72,6.23-10.68,13.59-17.88,22.09l-25.92,30.68Z"/>
      <g>
        <path d="M157.72,586.71h31.4v-28.48h10.99v72.79h-10.99v-33.99h-31.4v33.99h-10.99v-72.79h10.99v28.48Z"/>
        <path d="M217.55,631.03v-72.79h15.28c7.32,0,13.11.72,17.35,2.17,4.56,1.41,8.69,3.82,12.4,7.21,7.51,6.85,11.27,15.86,11.27,27.01s-3.91,20.24-11.74,27.16c-3.93,3.46-8.05,5.86-12.35,7.21-4.02,1.35-9.73,2.03-17.11,2.03h-15.09ZM228.53,620.71h4.95c4.93,0,9.04-.52,12.3-1.56,3.27-1.1,6.22-2.84,8.86-5.23,5.41-4.93,8.11-11.36,8.11-19.28s-2.67-14.46-8.01-19.42c-4.81-4.43-11.9-6.65-21.26-6.65h-4.95v52.14Z"/>
        <path d="M298.64,601.47v29.56h-10.99v-72.79h12.45c6.1,0,10.7.42,13.81,1.27,3.14.85,5.91,2.45,8.3,4.81,4.18,4.09,6.27,9.24,6.27,15.46,0,6.66-2.23,11.94-6.69,15.84-4.46,3.9-10.48,5.85-18.06,5.85h-5.09ZM298.64,591.29h4.1c10.09,0,15.13-3.88,15.13-11.65s-5.2-11.27-15.61-11.27h-3.63v22.91Z"/>
        <path d="M379.96,568.56h-29.18v17.49h28.33v10.32h-28.33v24.33h29.18v10.32h-40.17v-72.79h40.17v10.32Z"/>
      </g>
    </g>
  </g>

</g>
</svg>