<svg id="_레이어_2" data-name="레이어 2" xmlns="http://www.w3.org/2000/svg" viewBox="0 0 200.0 200.0">
<g transform="translate(22.18,10.00) scale(0.2852)">

  <g id="objects">
    <g>
      <g>
        <path d="M426.47,198.86c.15,5.32-5.59,8.72-10.18,6.05l-100.28-58.6c-4.47-2.61-4.47-9.07,0-11.68l27.75-16.24-21.74-37.65c-10.27-17.79-28.66-28.41-49.2-28.41s-38.93,10.62-49.2,28.4l-63.95,110.76-45.46-25.89,64.1-111.03c42.01-72.75,147.02-72.75,189.03,0l21.58,37.39,24-14.04c4.44-2.6,10.04.5,10.19,5.64l3.37,115.31Z"/>
        <path d="M436.34,501.5h-48.77v28.4c0,5.14-5.51,8.4-10.01,5.93l-101.22-55.36c-4.66-2.55-4.7-9.23-.07-11.83l101.22-56.94c4.51-2.54,10.08.72,10.08,5.9v31.57h48.77c20.54,0,38.93-10.62,49.21-28.41,10.26-17.78,10.26-39.02,0-56.81l-65.13-112.8,45.47-25.89,64.97,112.54c42.01,72.75-10.5,163.7-94.51,163.7Z"/>
        <path d="M238.93,449.18v52.32H109.3c-84.01,0-136.52-90.95-94.51-163.7l22.99-39.81-24.15-13.59c-4.48-2.52-4.63-8.92-.27-11.64l97.87-61.08c4.51-2.81,10.35.43,10.35,5.74v116.15c0,5.17-5.58,8.43-10.1,5.89l-28.11-15.82-23.28,40.32c-10.26,17.78-10.26,39.02,0,56.81,10.27,17.79,28.67,28.41,49.21,28.41h129.63Z"/>
      </g>
      <path d="M253.52,231.07h-28.84l13.83-23.55h40.18v166.78h-25.17v-143.23Z"/>
      <g>
        <path d="M204.89,601.47v29.56h-10.98v-72.79h12.45c6.1,0,10.7.42,13.81,1.27,3.14.85,5.91,2.45,8.3,4.81,4.18,4.09,6.27,9.24,6.27,15.46,0,6.66-2.23,11.94-6.69,15.84-4.46,3.9-10.48,5.85-18.06,5.85h-5.09ZM204.89,591.29h4.1c10.09,0,15.13-3.88,15.13-11.65s-5.2-11.27-15.6-11.27h-3.63v22.91Z"/>
        <path d="M286.21,568.56h-29.18v17.49h28.33v10.32h-28.33v24.33h29.18v10.32h-40.17v-72.79h40.17v10.32Z"/>
        <path d="M320.72,568.56v62.47h-10.98v-62.47h-16.74v-10.32h44.41v10.32h-16.69Z"/>
      </g>
    </g>
  </g>

</g>
</svg>