<svg id="_레이어_2" data-name="레이어 2" xmlns="http://www.w3.org/2000/svg" viewBox="0 0 545.64 636.5">
  <g id="objects">
    <g>
      <g>
        <path d="M426.47,198.86c.15,5.32-5.59,8.72-10.18,6.05l-100.28-58.6c-4.47-2.61-4.47-9.07,0-11.68l27.75-16.24-21.74-37.65c-10.27-17.79-28.66-28.41-49.2-28.41s-38.93,10.62-49.2,28.4l-63.95,110.76-45.46-25.89,64.1-111.03c42.01-72.75,147.02-72.75,189.03,0l21.58,37.39,24-14.04c4.44-2.6,10.04.5,10.19,5.64l3.37,115.31Z"/>
        <path d="M436.34,501.5h-48.77v28.4c0,5.14-5.51,8.4-10.01,5.93l-101.22-55.36c-4.66-2.55-4.7-9.23-.07-11.83l101.22-56.94c4.51-2.54,10.08.72,10.08,5.9v31.57h48.77c20.54,0,38.93-10.62,49.21-28.41,10.26-17.78,10.26-39.02,0-56.81l-65.13-112.8,45.47-25.89,64.97,112.54c42.01,72.75-10.5,163.7-94.51,163.7Z"/>
        <path d="M238.93,449.18v52.32H109.3c-84.01,0-136.52-90.95-94.51-163.7l22.99-39.81-24.15-13.59c-4.48-2.52-4.63-8.92-.27-11.64l97.87-61.08c4.51-2.81,10.35.43,10.35,5.74v116.15c0,5.17-5.58,8.43-10.1,5.89l-28.11-15.82-23.28,40.32c-10.26,17.78-10.26,39.02,0,56.81,10.27,17.79,28.67,28.41,49.21,28.41h129.63Z"/>
      </g>
      <path d="M250.82,296.85v-21.5c10.66,0,17.82-1.19,21.5-3.56,6.55-4.18,9.83-10.87,9.83-20.09,0-7.13-2.38-12.92-7.13-17.39-4.68-4.54-10.77-6.81-18.25-6.81-6.99,0-12.39,1.69-16.2,5.08-3.67,3.46-6.41,9.29-8.21,17.5h-25.06c2.59-15.7,7.92-27.2,15.99-34.51,8.06-7.31,19.33-10.96,33.81-10.96s26.53,4.32,35.75,12.96c9.22,8.57,13.83,19.62,13.83,33.16,0,15.27-6.05,27.15-18.15,35.65,13.83,8.14,20.74,21.35,20.74,39.64,0,14.98-5.04,27.22-15.12,36.73-10.08,9.5-23.01,14.26-38.78,14.26-20.09,0-35-7.38-44.72-22.14-4.03-6.19-6.59-14.76-7.67-25.71h24.3c1.3,8.07,4.45,14.24,9.45,18.52,5,4.29,11.54,6.43,19.6,6.43s14.87-2.7,20.2-8.1c5.33-5.54,7.99-12.57,7.99-21.06,0-11.23-4-19.23-11.99-23.98-4.68-2.74-11.92-4.1-21.71-4.1Z"/>
      <g>
        <path d="M190.65,601.47v29.56h-10.99v-72.79h12.45c6.1,0,10.7.42,13.81,1.27,3.14.85,5.91,2.45,8.3,4.81,4.18,4.09,6.27,9.24,6.27,15.46,0,6.66-2.23,11.94-6.69,15.84-4.46,3.9-10.48,5.85-18.06,5.85h-5.09ZM190.65,591.29h4.1c10.09,0,15.13-3.88,15.13-11.65s-5.2-11.27-15.61-11.27h-3.63v22.91Z"/>
        <path d="M235.49,558.24l20.13,50.45,20.41-50.45h12.02l-32.67,78.26-31.92-78.26h12.02Z"/>
        <path d="M347.6,562.15v13.01c-6.35-5.31-12.92-7.97-19.71-7.97-7.48,0-13.78,2.69-18.91,8.06-5.15,5.34-7.73,11.88-7.73,19.61s2.58,14.08,7.73,19.33c5.15,5.25,11.47,7.87,18.95,7.87,3.87,0,7.15-.63,9.85-1.89,1.51-.63,3.07-1.48,4.69-2.55,1.62-1.07,3.32-2.36,5.12-3.87v13.25c-6.29,3.55-12.89,5.33-19.8,5.33-10.4,0-19.28-3.63-26.64-10.89-7.32-7.32-10.98-16.16-10.98-26.5,0-9.27,3.06-17.54,9.19-24.8,7.54-8.89,17.3-13.34,29.28-13.34,6.54,0,12.85,1.78,18.95,5.33Z"/>
      </g>
    </g>
  </g>
</svg>