<svg id="_레이어_2" data-name="레이어 2" xmlns="http://www.w3.org/2000/svg" viewBox="0 0 545.64 631.03">
  <g id="objects">
    <g>
      <g>
        <path d="M426.47,198.86c.15,5.32-5.59,8.72-10.18,6.05l-100.28-58.6c-4.47-2.61-4.47-9.07,0-11.68l27.75-16.24-21.74-37.65c-10.27-17.79-28.66-28.41-49.2-28.41s-38.93,10.62-49.2,28.4l-63.95,110.76-45.46-25.89,64.1-111.03c42.01-72.75,147.02-72.75,189.03,0l21.58,37.39,24-14.04c4.44-2.6,10.04.5,10.19,5.64l3.37,115.31Z"/>
        <path d="M436.34,501.5h-48.77v28.4c0,5.14-5.51,8.4-10.01,5.93l-101.22-55.36c-4.66-2.55-4.7-9.23-.07-11.83l101.22-56.94c4.51-2.54,10.08.72,10.08,5.9v31.57h48.77c20.54,0,38.93-10.62,49.21-28.41,10.26-17.78,10.26-39.02,0-56.81l-65.13-112.8,45.47-25.89,64.97,112.54c42.01,72.75-10.5,163.7-94.51,163.7Z"/>
        <path d="M238.93,449.18v52.32H109.3c-84.01,0-136.52-90.95-94.51-163.7l22.99-39.81-24.15-13.59c-4.48-2.52-4.63-8.92-.27-11.64l97.87-61.08c4.51-2.81,10.35.43,10.35,5.74v116.15c0,5.17-5.58,8.43-10.1,5.89l-28.11-15.82-23.28,40.32c-10.26,17.78-10.26,39.02,0,56.81,10.27,17.79,28.67,28.41,49.21,28.41h129.63Z"/>
      </g>
      <path d="M302.67,327.74h17.71v22.9h-17.71v23.66h-25.17v-23.66h-81.88l107.04-155.54v132.64ZM277.5,327.74v-55.84l-38.45,55.84h38.45Z"/>
      <g>
        <path d="M171.72,558.24v62.47h21.4v10.33h-32.39v-72.79h10.99Z"/>
        <path d="M203.54,631.03v-72.79h15.28c7.32,0,13.11.72,17.35,2.17,4.56,1.42,8.69,3.82,12.4,7.21,7.51,6.85,11.27,15.86,11.27,27.01s-3.91,20.24-11.74,27.16c-3.93,3.46-8.05,5.86-12.35,7.21-4.02,1.35-9.73,2.03-17.11,2.03h-15.09ZM214.53,620.7h4.95c4.93,0,9.04-.52,12.3-1.56,3.27-1.1,6.22-2.84,8.86-5.23,5.41-4.93,8.11-11.36,8.11-19.28s-2.67-14.46-8.01-19.42c-4.81-4.43-11.9-6.65-21.26-6.65h-4.95v52.14Z"/>
        <path d="M284.63,601.47v29.56h-10.99v-72.79h12.45c6.1,0,10.7.42,13.81,1.27,3.14.85,5.91,2.45,8.3,4.81,4.18,4.09,6.27,9.24,6.27,15.46,0,6.66-2.23,11.94-6.69,15.84-4.46,3.9-10.48,5.85-18.06,5.85h-5.09ZM284.63,591.29h4.1c10.09,0,15.13-3.88,15.13-11.65s-5.2-11.27-15.61-11.27h-3.63v22.91Z"/>
        <path d="M365.96,568.56h-29.18v17.49h28.33v10.32h-28.33v24.33h29.18v10.33h-40.17v-72.79h40.17v10.33Z"/>
      </g>
    </g>
  </g>
</svg>