<svg id="_레이어_2" data-name="레이어 2" xmlns="http://www.w3.org/2000/svg" viewBox="0 0 200.0 200.0">
<g transform="translate(22.18,10.00) scale(0.2852)">

  <g id="objects">
    <g>
      <g>
        <path d="M426.47,198.86c.15,5.32-5.59,8.72-10.18,6.05l-100.28-58.6c-4.47-2.61-4.47-9.07,0-11.68l27.75-16.24-21.74-37.65c-10.27-17.79-28.66-28.41-49.2-28.41s-38.93,10.62-49.2,28.4l-63.95,110.76-45.46-25.89,64.1-111.03c42.01-72.75,147.02-72.75,189.03,0l21.58,37.39,24-14.04c4.44-2.6,10.04.5,10.19,5.64l3.37,115.31Z"/>
        <path d="M436.34,501.5h-48.77v28.4c0,5.14-5.51,8.4-10.01,5.93l-101.22-55.36c-4.66-2.55-4.7-9.23-.07-11.83l101.22-56.94c4.51-2.54,10.08.72,10.08,5.9v31.57h48.77c20.54,0,38.93-10.62,49.21-28.41,10.26-17.78,10.26-39.02,0-56.81l-65.13-112.8,45.47-25.89,64.97,112.54c42.01,72.75-10.5,163.7-94.51,163.7Z"/>
        <path d="M238.93,449.18v52.32H109.3c-84.01,0-136.52-90.95-94.51-163.7l22.99-39.81-24.15-13.59c-4.48-2.52-4.63-8.92-.27-11.64l97.87-61.08c4.51-2.81,10.35.43,10.35,5.74v116.15c0,5.17-5.58,8.43-10.1,5.89l-28.11-15.82-23.28,40.32c-10.26,17.78-10.26,39.02,0,56.81,10.27,17.79,28.67,28.41,49.21,28.41h129.63Z"/>
      </g>
      <path d="M309.91,231.07h-51.42l-8.21,27.65c1.22-.14,2.39-.25,3.51-.32,1.12-.07,2.14-.11,3.08-.11,16.2,0,29.49,5.47,39.86,16.42,10.44,10.88,15.66,24.81,15.66,41.8s-5.91,32.04-17.71,43.42c-11.81,11.38-26.68,17.07-44.61,17.07-22.11,0-39.53-10.37-52.28-31.11l19.01-16.09c5.26,8.93,10.55,15.23,15.88,18.9,5.33,3.6,11.84,5.4,19.55,5.4,10.08,0,18.54-3.53,25.38-10.58,6.84-7.27,10.26-16.09,10.26-26.46s-3.39-19.37-10.15-26.14c-6.77-6.98-15.23-10.48-25.38-10.48-11.31,0-21.06,4.93-29.27,14.8h-8.32l26.25-87.71h68.91v23.55Z"/>
      <g>
        <path d="M229.4,601.47v29.56h-10.98v-72.79h12.45c6.1,0,10.7.42,13.81,1.27,3.14.85,5.91,2.45,8.3,4.81,4.18,4.09,6.27,9.24,6.27,15.46,0,6.66-2.23,11.94-6.69,15.84-4.46,3.9-10.48,5.85-18.06,5.85h-5.09ZM229.4,591.29h4.1c10.09,0,15.13-3.88,15.13-11.65s-5.2-11.27-15.6-11.27h-3.63v22.91Z"/>
        <path d="M281.55,601.47v29.56h-10.99v-72.79h12.45c6.1,0,10.7.42,13.81,1.27,3.14.85,5.91,2.45,8.3,4.81,4.18,4.09,6.27,9.24,6.27,15.46,0,6.66-2.23,11.94-6.69,15.84-4.46,3.9-10.48,5.85-18.06,5.85h-5.09ZM281.55,591.29h4.1c10.09,0,15.13-3.88,15.13-11.65s-5.2-11.27-15.61-11.27h-3.63v22.91Z"/>
      </g>
    </g>
  </g>

</g>
</svg>