<svg id="_레이어_2" data-name="레이어 2" xmlns="http://www.w3.org/2000/svg" viewBox="0 0 545.64 632.35">
  <g id="objects">
    <g>
      <g>
        <path d="M426.47,198.86c.15,5.32-5.59,8.72-10.18,6.05l-100.28-58.6c-4.47-2.61-4.47-9.07,0-11.68l27.75-16.24-21.74-37.65c-10.27-17.79-28.66-28.41-49.2-28.41s-38.93,10.62-49.2,28.4l-63.95,110.76-45.46-25.89,64.1-111.03c42.01-72.75,147.02-72.75,189.03,0l21.58,37.39,24-14.04c4.44-2.6,10.04.5,10.19,5.64l3.37,115.31Z"/>
        <path d="M436.34,501.5h-48.77v28.4c0,5.14-5.51,8.4-10.01,5.93l-101.22-55.36c-4.66-2.55-4.7-9.23-.07-11.83l101.22-56.94c4.51-2.54,10.08.72,10.08,5.9v31.57h48.77c20.54,0,38.93-10.62,49.21-28.41,10.26-17.78,10.26-39.02,0-56.81l-65.13-112.8,45.47-25.89,64.97,112.54c42.01,72.75-10.5,163.7-94.51,163.7Z"/>
        <path d="M238.93,449.18v52.32H109.3c-84.01,0-136.52-90.95-94.51-163.7l22.99-39.81-24.15-13.59c-4.48-2.52-4.63-8.92-.27-11.64l97.87-61.08c4.51-2.81,10.35.43,10.35,5.74v116.15c0,5.17-5.58,8.43-10.1,5.89l-28.11-15.82-23.28,40.32c-10.26,17.78-10.26,39.02,0,56.81,10.27,17.79,28.67,28.41,49.21,28.41h129.63Z"/>
      </g>
      <path d="M280.42,201.69l18.47,13.83-39.86,54.22c2.16-.29,4-.5,5.51-.65,1.51-.14,2.7-.22,3.57-.22,13.54,0,25.24,5.18,35.1,15.55,9.79,10.23,14.69,22.54,14.69,36.94,0,15.27-5.47,28.37-16.42,39.32-10.87,10.88-23.94,16.31-39.21,16.31s-28.37-5.36-39.75-16.09c-11.16-10.73-16.74-23.44-16.74-38.13,0-13.18,5.44-27.15,16.31-41.91l58.33-79.18ZM293.38,322.99c0-8.86-3.06-16.35-9.18-22.47-6.19-6.19-13.65-9.29-22.36-9.29s-16.24,3.06-22.36,9.18-9.18,13.54-9.18,22.25,3.06,16.13,9.18,22.25c6.12,6.12,13.61,9.18,22.47,9.18s16.02-3.06,22.14-9.18c6.19-6.19,9.29-13.5,9.29-21.93Z"/>
      <g>
        <path d="M227.33,601.47v29.56h-10.99v-72.79h12.45c6.1,0,10.7.42,13.81,1.27,3.14.85,5.91,2.45,8.3,4.81,4.18,4.09,6.27,9.24,6.27,15.46,0,6.66-2.23,11.94-6.69,15.84-4.46,3.9-10.48,5.85-18.06,5.85h-5.09ZM227.33,591.29h4.1c10.09,0,15.13-3.88,15.13-11.65s-5.2-11.27-15.61-11.27h-3.63v22.91Z"/>
        <path d="M309.65,569.08l-8.91,5.28c-1.67-2.89-3.25-4.78-4.76-5.66-1.57-1.01-3.6-1.51-6.08-1.51-3.05,0-5.58.87-7.59,2.59-2.01,1.7-3.02,3.83-3.02,6.41,0,3.55,2.64,6.41,7.92,8.58l7.26,2.97c5.91,2.39,10.23,5.3,12.96,8.75s4.1,7.66,4.1,12.66c0,6.69-2.23,12.23-6.69,16.59-4.5,4.4-10.07,6.6-16.74,6.6-6.32,0-11.54-1.87-15.65-5.61-4.05-3.74-6.58-9-7.59-15.79l11.13-2.45c.5,4.27,1.38,7.23,2.64,8.86,2.26,3.14,5.56,4.71,9.9,4.71,3.43,0,6.27-1.15,8.53-3.44,2.26-2.29,3.39-5.2,3.39-8.72,0-1.41-.2-2.71-.59-3.89-.39-1.18-1.01-2.26-1.84-3.25-.83-.99-1.91-1.92-3.23-2.78-1.32-.86-2.89-1.69-4.71-2.48l-7.02-2.92c-9.96-4.21-14.95-10.37-14.95-18.48,0-5.47,2.09-10.04,6.27-13.72,4.18-3.71,9.38-5.56,15.6-5.56,8.39,0,14.95,4.09,19.66,12.26Z"/>
      </g>
    </g>
  </g>
</svg>