<svg id="s2_umbreller1__레이어_2"  xmlns="http://www.w3.org/2000/svg" viewBox="0 0 200.0 200.0">
<g transform="translate(10.00,14.31) scale(3.3956)">

  <defs>
    <style>
      .s2_umbreller1_c1, .s2_umbreller1_c2 {
        fill: #231815;
      }

      .s2_umbreller1_c2 {
        stroke: #231815;
        stroke-width: .44px;
      }
    </style>
  </defs>
  <g id="s2_umbreller1__레이어_1-2" >
    <path class="s2_umbreller1_c2" d="M27.78,9.38l-.41-2.46s.01-.61-.66-.63c-.48-.02-.62.56-.62.56l-.51,2.64C8.39,11.54,8.78,25.92,8.78,25.92c0,0,.48-4.16,4.69-3.84,4.21.31,4.41,3.34,4.41,3.34.83-3.09,4-3.4,4-3.4,3.17-.06,4.21,1.76,4.21,1.76v16.06c0,1.76-1.24,3.28-4.48,3.28s-3.72-3.46-3.72-3.46h-1.52c.28,4.6,5.45,4.98,5.45,4.98,5.72-.57,5.79-4.66,5.79-4.66v-16.25s1.31-1.64,3.45-1.64c4.21,0,4.76,3.4,4.76,3.4,0,0,.62-3.28,4.55-3.4,3.93-.13,4.69,3.91,4.69,3.91-1.07-14.65-13.83-16.4-17.28-16.6Z"/>
    <rect x="1.5" y="1.5" width="50.01" height="47.47" fill="none" stroke="#231815" stroke-width="3"/>
  </g>

</g>
</svg>