<svg id="_레이어_2" data-name="레이어 2" xmlns="http://www.w3.org/2000/svg" viewBox="0 0 200.0 200.0">
<g transform="translate(22.34,10.00) scale(0.2847)">

  <g id="objects">
    <g>
      <g>
        <path d="M426.47,198.86c.15,5.32-5.59,8.72-10.18,6.05l-100.28-58.6c-4.47-2.61-4.47-9.07,0-11.68l27.75-16.24-21.74-37.65c-10.27-17.79-28.66-28.41-49.2-28.41s-38.93,10.62-49.2,28.4l-63.95,110.76-45.46-25.89,64.1-111.03c42.01-72.75,147.02-72.75,189.03,0l21.58,37.39,24-14.04c4.44-2.6,10.04.5,10.19,5.64l3.37,115.31Z"/>
        <path d="M436.34,501.5h-48.77v28.4c0,5.14-5.51,8.4-10.01,5.93l-101.22-55.36c-4.66-2.55-4.7-9.23-.07-11.83l101.22-56.94c4.51-2.54,10.08.72,10.08,5.9v31.57h48.77c20.54,0,38.93-10.62,49.21-28.41,10.26-17.78,10.26-39.02,0-56.81l-65.13-112.8,45.47-25.89,64.97,112.54c42.01,72.75-10.5,163.7-94.51,163.7Z"/>
        <path d="M238.93,449.18v52.32H109.3c-84.01,0-136.52-90.95-94.51-163.7l22.99-39.81-24.15-13.59c-4.48-2.52-4.63-8.92-.27-11.64l97.87-61.08c4.51-2.81,10.35.43,10.35,5.74v116.15c0,5.17-5.58,8.43-10.1,5.89l-28.11-15.82-23.28,40.32c-10.26,17.78-10.26,39.02,0,56.81,10.27,17.79,28.67,28.41,49.21,28.41h129.63Z"/>
      </g>
      <path d="M287.33,231.07h-82.31v-23.55h124.33l-105.21,172.5-19.98-12.64,83.17-136.32Z"/>
      <g>
        <path d="M110.03,594.31c0-10.25,3.75-19.05,11.27-26.4,7.48-7.35,16.47-11.03,26.97-11.03s19.27,3.71,26.68,11.13c7.45,7.42,11.17,16.33,11.17,26.73s-3.74,19.35-11.22,26.64c-7.51,7.32-16.58,10.99-27.2,10.99-9.4,0-17.84-3.25-25.32-9.76-8.23-7.2-12.35-16.63-12.35-28.29ZM121.11,594.45c0,8.05,2.7,14.66,8.11,19.85,5.37,5.19,11.58,7.78,18.62,7.78,7.64,0,14.08-2.64,19.33-7.92,5.25-5.34,7.87-11.85,7.87-19.52s-2.59-14.27-7.78-19.52c-5.16-5.28-11.54-7.92-19.14-7.92s-13.97,2.64-19.19,7.92c-5.22,5.22-7.83,11.66-7.83,19.33Z"/>
        <path d="M217.43,568.56v62.47h-10.98v-62.47h-16.74v-10.33h44.41v10.33h-16.69Z"/>
        <path d="M254.91,586.72h31.4v-28.48h10.99v72.79h-10.99v-33.99h-31.4v33.99h-10.99v-72.79h10.99v28.48Z"/>
        <path d="M354.91,568.56h-29.18v17.49h28.33v10.32h-28.33v24.33h29.18v10.33h-40.17v-72.79h40.17v10.33Z"/>
        <path d="M393.99,600.01l22.54,31.02h-13.44l-20.79-29.8h-1.98v29.8h-10.99v-72.79h12.87c9.62,0,16.56,1.81,20.84,5.42,4.71,4.02,7.07,9.33,7.07,15.94,0,5.16-1.48,9.59-4.43,13.29-2.96,3.71-6.85,6.08-11.69,7.12ZM380.32,591.67h3.49c10.4,0,15.61-3.98,15.61-11.93,0-7.45-5.06-11.17-15.18-11.17h-3.91v23.1Z"/>
      </g>
    </g>
  </g>

</g>
</svg>