<svg id="_레이어_2" data-name="레이어 2" xmlns="http://www.w3.org/2000/svg" viewBox="0 0 200.0 200.0">
<g transform="translate(10.00,10.00) scale(0.8429)">

  <defs>
    <style>
      .s32_stack6_c1 {
        fill: none;
        stroke: #000;
        stroke-miterlimit: 10;
        stroke-width: 11.0px;
      }
    </style>
  </defs>
  <g id="Layer_1" data-name="Layer 1">
    <rect x="42.85" y="155.29" width="127.85" height="19.22"/>
    <polygon points="170.7 146.04 42.85 146.04 42.85 127.09 43.12 126.82 170.42 126.82 170.7 127.09 170.7 146.04"/>
    <path d="M117.02,55.39c-1.1-3.93-3.5-6.92-9.38-6.92-10.2,0-12.4,12.38-12.54,21.92,2.69-3.8,7.44-7.09,15.33-7.09,10.87,0,20.18,7.37,20.18,22.57,0,13.71-7.89,24.72-23.24,24.72-18.94,0-24.43-13.95-24.43-33.82s5.8-37.74,25.43-37.74c13.5,0,19.3,7.81,20.63,16.36h-11.97ZM118.23,86.45c0-8.44-3.81-13.55-11.08-13.55-7.91,0-11.5,4.87-11.5,12.4,0,8.24,2.77,15.82,11.49,15.82,7.01,0,11.09-5.17,11.09-14.67Z"/>
    <rect class="s32_stack6_c1" x="5.5" y="5.5" width="202.54" height="202.54"/>
  </g>

</g>
</svg>