<svg id="_레이어_2" data-name="레이어 2" xmlns="http://www.w3.org/2000/svg" viewBox="0 0 213.54 213.54">
  <defs>
    <style>
      .s33_stack8_c1 {
        fill: none;
        stroke: #000;
        stroke-miterlimit: 10;
        stroke-width: 11px;
      }
    </style>
  </defs>
  <g id="Layer_1" data-name="Layer 1">
    <rect x="42.85" y="155.29" width="127.85" height="19.22"/>
    <polygon points="170.7 146.04 42.85 146.04 42.85 127.09 43.12 126.82 170.42 126.82 170.7 127.09 170.7 146.04"/>
    <path d="M117.94,71.33c-.16.21,1.68.92,1.93,1.06,8.87,4.76,11.61,13.93,8.85,23.42-6.34,21.83-43.34,18.71-44.89-4.25-.61-9.04,3.07-16.39,11.43-20.14-13.48-5.34-12.6-24.32.06-30.22,6.61-3.08,17.41-2.94,23.75.79,11.27,6.62,11.45,24.27-1.14,29.35ZM104.85,49.8c-8.99,1.08-8.9,15.94.3,16.64,5.12.39,9.29-1.87,9.72-7.35.51-6.49-3.7-10.05-10.02-9.3ZM105.39,77.19c-7.53.75-9.73,9.51-7.71,15.76,2.9,8.95,15.49,9.12,18.13-.08,2.21-7.72-1.24-16.6-10.42-15.68Z"/>
    <rect class="s33_stack8_c1" x="5.5" y="5.5" width="202.54" height="202.54"/>
  </g>
</svg>