<svg id="_레이어_2" data-name="레이어 2" xmlns="http://www.w3.org/2000/svg" viewBox="0 0 213.54 213.54">
  <defs>
    <style>
      .s34_ce_c1 {
        fill: none;
        stroke: #000;
        stroke-miterlimit: 10;
        stroke-width: 11px;
      }
    </style>
  </defs>
  <g id="Layer_1" data-name="Layer 1">
    <path d="M176.29,53.45v15.89c-19.19-2.89-38.31,10.35-42.1,29.32h30.8v16.38h-30.8c2.78,13.14,13,23.96,25.8,27.85,5.29,1.61,10.81,2.02,16.3,1.31v15.89c-18.19,1.73-36.13-5.96-47.34-20.24-18.82-23.99-13.95-58.51,10.59-76.39,10.6-7.73,23.62-11.22,36.75-10.02Z"/>
    <path d="M96.02,53.45v15.89c-14.51-2.06-29.01,4.72-36.93,16.89-7.9,12.15-8.13,27.94-.49,40.27,7.87,12.72,22.46,19.76,37.42,17.71v15.89c-18.44,1.76-36.56-6.23-47.74-20.82-14.32-18.7-14.73-44.42-1.05-63.6,11.02-15.45,29.76-24.07,48.79-22.23Z"/>
    <rect class="s34_ce_c1" x="5.5" y="5.5" width="202.54" height="202.54"/>
  </g>
</svg>