<svg id="_레이어_2" data-name="레이어 2" xmlns="http://www.w3.org/2000/svg" viewBox="0 0 200.0 200.0">
<g transform="translate(10.00,10.00) scale(0.8429)">

  <defs>
    <style>
      .s35_FSC_c1 {
        fill: none;
        stroke: #000;
        stroke-miterlimit: 10;
        stroke-width: 11.0px;
      }
    </style>
  </defs>
  <g id="Layer_1" data-name="Layer 1">
    <path d="M124.28,114.87c.23-1.72,1.98-3.52,3.7-3.75,5.5-.75,11.76,4.48,17.73,5.12,9.59,1.04,17.45-6.79,15.68-16.44-1.22-6.65-7.04-10.68-12.66-13.54,1.31-1.48,2.55-3.02,3.38-4.84,4.38-9.52-1.65-22.03-12.22-23.48-.76-.11-1.57-.07-2.29-.23-.03-3.75-.88-7.45-2.81-10.67-4.72-7.87-15.23-11.34-23.76-7.91-10.19,4.09-17.42,19.27-21.43,28.89-6.59,15.82-11.09,32.9-15.13,49.55-.72,2.97-1.26,6.19-2.08,9.1-1.12,3.97-4.5,5.86-8.06,3.12l-21.87-21.76c-3.32-4.6,2.62-10.23,6.91-6.36l15.51,15.46c4.48-16.69,8.48-33.66,14.72-49.8,5.88-15.21,15.86-35.41,33.73-38.4,14.76-2.47,28.99,6.62,32.69,21.08,13.26,4.57,20.69,20.38,15.34,33.52,5.36,3.94,9,10.1,9.63,16.77,1.07,11.35-6.23,21.55-17.1,24.55-6.74,1.87-14.25.46-20.28-2.9v15.51c0,1.95-2.58,4.27-4.54,4.22l-21.91-.02c-1.43.09-4.23-2.18-4.23-3.55v-17.05l-10.46,1.32c-5.95.33-7.69-6.67-2.42-9.11,5.59-.52,11.53-1.86,17.11-2.19,2.42-.14,5.1,1.55,5.1,4.22v17.05h12.06v-17.49Z"/>
    <path d="M78.02,167.77c2.27-.1,4.68.24,6.91-.27.73-.17,1.91-.53,2.29-1.22.47-.86.49-3.72,1.71-3.88,1.21-.16,2.04-.06,2.15,1.26.23,2.67-.1,5.72,0,8.45.03.78.42,2.44.14,3.09-.32.74-2.03.75-2.55.19-.86-.91-.27-3.59-2.19-4.5-.8-.38-2.33-.45-3.24-.49-1.73-.08-3.48.06-5.21,0,.05,2.28-.07,4.58,0,6.86.03.95.05,2,.12,2.95.02.22.1,1.01.16,1.15.44,1,4.29.68,5.26.77.95.09,1.82.35,1.77,1.46-.07,1.8-3.11,1.07-4.29,1.05-4.27-.06-8.57-.06-12.83,0-1.17.02-3.6.74-3.56-1.14.04-1.83,2.23-1.29,3.46-1.37.58-.04,2.28-.2,2.58-.71.36-.6.18-2.62.21-3.41.22-6.02.22-12.17,0-18.19-.03-.91.21-2.83-.32-3.51-.77-.99-3.74-.56-4.87-.72-1.46-.21-1.36-2.29-.29-2.57,6.92.02,13.85.1,20.78.06,2.87-.02,6.98-.48,9.72-.09.5.07.77.18,1.02.62.96,1.69,1.5,4.18,2.52,5.92.41,1.34-1.04,1.67-2.06,1.29-.82-.3-2.86-2.17-3.77-2.81-4.04-2.83-4.68-2.43-9.51-2.32-1.55.03-3.66-.1-5.15.12-.24.03-.44.08-.6.28-.12.14-.34.93-.34,1.08v10.58Z"/>
    <path d="M127.03,161.51c-.87-4.82-4.21-6.43-8.84-6.13-5.61.36-8.72,4.2-2.68,7.63,4.58,2.6,15.31,6.3,17.04,11.57.59,1.78.19,3.65-.84,5.18-4.32,6.42-17.95,5.76-24.55,4.21-1.01-.24-1.85-.39-2.25-1.48-.43-1.17-1.34-4.8-1.45-6-.09-.96.05-1.64,1.09-1.87.33-.07,1.6-.23,1.83-.06.13.1.57,1.39.72,1.69,2.42,4.95,6.43,6.35,11.77,5.99,3.09-.21,7.51-2.3,5.97-6.09-1.92-4.72-13.78-8.06-17.98-11.84-2.42-2.18-3.12-5.33-.77-7.9,4.09-4.47,16.52-4.36,21.95-2.87,1.73.48,1.75.99,1.95,2.65.17,1.37.21,2.78.32,4.16-.45,1.39-2.1,1.16-3.27,1.15Z"/>
    <path d="M166.16,161.29c-.34-6.07-6.74-6.43-11.43-5.66-8.5,1.4-12.88,7.81-10.77,16.3,2.38,9.58,12.93,11.68,21.3,8.91.87-.29,2.43-1.33,3.21-.75l1.31,1.54c-.03.12-1.87,1.01-2.15,1.14-10.3,4.64-28.27,2.53-31.2-10.42-2.41-10.63,6.81-17.39,16.13-19.13,4.01-.75,10.88-.97,14.82.02.85.21,1.37.54,1.5,1.46.15,1.03.16,4.3.02,5.33-.19,1.4-1.63,1.18-2.72,1.26Z"/>
    <path d="M163.78,30.27c-4.57,0-8.28,3.71-8.28,8.28s3.71,8.28,8.28,8.28,8.28-3.71,8.28-8.28-3.71-8.28-8.28-8.28ZM169.3,41.31c-.11.22-.77,1.24-1.17,1.54-.18.18-.37.35-.57.51-.11.16-.41.35-.58.45-2.13,1.27-5.08,1.22-6.98-.46h.02c-.1-.08-.2-.16-.3-.25-.63-.53-1.18-1.19-1.53-1.94-1.68-3.6.53-7.92,4.42-8.63,5-.92,8.98,4.18,6.7,8.78Z"/>
    <path d="M167.42,42.52c-.64-1.18-1.33-2.38-2.27-3.35,1.83-.69,2.36-3.34.65-4.47-.4-.26-1.38-.53-1.84-.53h-4.08s-.05,8.88,0,8.77h2.06v-3.41c1.95-.33,2.31,2.27,3.35,3.41,0,0,2.16.04,2.39,0,.07-.01-.23-.38-.27-.41ZM164.22,37.51c-.55.21-1.77.27-2.27,0v-1.5h1.81c.85,0,1.41,1.14.47,1.5Z"/>
    <rect class="s35_FSC_c1" x="5.5" y="5.5" width="202.54" height="202.54"/>
  </g>

</g>
</svg>