<svg id="_레이어_2" data-name="레이어 2" xmlns="http://www.w3.org/2000/svg" viewBox="0 0 200.0 200.0">
<g transform="translate(20.76,10.00) scale(0.4436)">

  <defs>
    <style>
      .s36_food_safe_c1 {
        fill: #231815;
      }
    </style>
  </defs>
  <g id="Layer_1" data-name="Layer 1">
    <rect class="s36_food_safe_c1" x="271.45" y=".12" width="18.71" height="89.55"/>
    <rect class="s36_food_safe_c1" x="305.09" y=".12" width="18.71" height="89.32"/>
    <path class="s36_food_safe_c1" d="M338.74.12v118.7c-.18,16.16-10.21,29.86-24.19,35.26-4.07,1.51-8.5,2.36-13.05,2.36v249.13h18.52v-233.63c21.93-7.19,37.24-28.35,37.24-52.74V0l-18.52.12Z"/>
    <path class="s36_food_safe_c1" d="M0,.11v148.95c0,57.85,44.42,108.89,100.56,117.76v38.38c0,45.37-37.04,82.03-81.66,82.03-.62,0-1.23.04-1.83.12v18.33c.55.06,1.04.08,1.45.08,55.2,0,100.56-45.37,100.56-100.55v-44.62c.56-6.05-2.84-10.78-7.36-11.14-49.91-5.3-93-44.62-93-100.38V18.83h219.27v130.23c0,47.07-30.72,82.42-70.32,95.55-7.27,2.36-14.94,4.07-22.68,4.83-4.54.37-7.94,5.09-7.38,11.14v44.62c0,27.88,11.54,53.29,30.06,71.54,17.59,17.31,41.32,28.2,67.56,28.96v-18.52c-49.94-1.46-78.3-43.55-79.09-81.99v-38.38c3.87-.56,7.75-1.42,11.53-2.45,50.56-13.61,89.03-61.43,89.03-115.31V.11H0Z"/>
  </g>

</g>
</svg>