<svg id="_레이어_2" data-name="레이어 2" xmlns="http://www.w3.org/2000/svg" viewBox="0 0 200.0 200.0">
<g transform="translate(10.00,25.79) scale(0.3809)">

  <defs>
    <style>
      .s37esd_safe_c1 {
        fill: #050000;
      }
    </style>
  </defs>
  <g id="Layer_1" data-name="Layer 1">
    <g>
      <path class="s37esd_safe_c1" d="M75.75,389.62c-38.09-39.86-61.48-93.87-61.48-153.35C14.27,113.66,113.67,14.27,236.28,14.27s222,99.38,222,222c0,59.48-23.39,113.49-61.48,153.35h19.21c35.25-41.27,56.55-94.83,56.55-153.35C472.55,105.78,366.76,0,236.28,0S0,105.78,0,236.28c0,58.52,21.3,112.07,56.55,153.35h19.21Z"/>
      <path class="s37esd_safe_c1" d="M236.28,52.82L65.33,348.96h341.9l-80.16-138.83c-34.82,35.3-39.33,45.59-67.16,64.97-19.96,13.88-31.93,34.01-34.74,34.11-2.82.1-.41-7.04-11.23-7.81-10.82-.75-16.42,17.88-18.31,17.61-1.91-.27-.44-5.31.43-20.55.87-15.26,28.56-32.75,28.68-40.64.07-5.21-10.48-7.79-15.79-12.01-5.29-4.22-12.23-9.02-16.65-9.02s-14.92,16.37-16.98,20.48c-1.31,2.59,1.26,15.21-.36,31.66-.58,5.94,6.33,3.66,8.78,17.33,1.7,9.42-3.11,19.46-6.79,23.04-3.69,3.57-5.05-9.9-8.01-18.07-3.67-10.17-9.34-3.05-12.47-5.75-5.9-5.1-6.65-18.41-11.65-37.19-3.47-12.98-.88-14.71,1.7-18.61,11.55-17.3,18.6-32.03,35.47-55.83,16.72-23.56,71.16-8.27,114-37.49l-59.71-103.53h0ZM194.48,243.24c.48,0,.9.18,1.28.7,1.94,2.71-.95,2.83-5.29,11.59-4.32,8.76-3.69,9.61,1.84,20.98,5.51,11.36-3.98,19.51-7.47,19.7-2.25.12-4.76-6.82-4.66-11.14.1-4.34,2.92-7.78.97-17.84-1.94-10.05.48-9.77,4.66-15.14,3.44-4.41,6.57-8.78,8.68-8.83ZM201.81,248.75c.68-.03,1.31.27,1.84.94,2.26,2.5.22,4.2-1.96,6.14-2.16,1.96-3.57,1.21-1.09,9.75,2.5,8.56.46,14.39-1.7,14.49-2.16.12-5.95-6.28-6.06-14.59-.1-7.04,5.27-16.52,8.96-16.72h0ZM209.07,252.17c.14-.02.31,0,.42,0,2.06.12,2.69,1.39,2.81,3.35.1,1.94-2.72,1.29-2.72,5.08s1.87,2.71,1.97,5.94c.12,3.25-2.72,4.78-3.91,4.68-1.19-.12-3.35-2.72-3.45-9.1,0-6.79,2.84-9.7,4.88-9.95h0ZM212.61,304.63c1.67-.15,3.37.61,5.44,2.13,2.42,1.77,5.72,8.03-1.99,16.55-7.95,8.79-11.55,9.05-13.75,7.26-2.21-1.77-6.21-8.85.73-17.1,4.15-5.89,6.81-8.61,9.56-8.85ZM160.17,308.54c2.38-.02,5.63,1.1,7.11,5.48,3.23,9.54,4.39,15.04,2.13,15.4-2.24.36-2.87.49-8.73-8.47-4.49-7.86-4.01-10.72-3.3-11.62.26-.34,1.36-.77,2.79-.78Z"/>
    </g>
  </g>

</g>
</svg>