<svg id="_레이어_2" data-name="레이어 2" xmlns="http://www.w3.org/2000/svg" viewBox="0 0 408.46 439.8">
  <defs>
    <style>
      .s38_kite_mark_c1 {
        fill: #050000;
      }
    </style>
  </defs>
  <g id="Layer_1" data-name="Layer 1">
    <path class="s38_kite_mark_c1" d="M334.09,112.33h-140.7c0-3.93,0-14.05,0-14.05l.05-3.07c0-38.49,31.54-69.79,70.33-69.79s70.32,31.3,70.32,69.79v17.12h0ZM236.99,292.1c.05-1.12.09-2.23.09-3.36,0-38.82-25.7-55.14-48.38-69.57-19.37-12.31-36.11-22.94-36.11-44.95,0-15.9,11.44-31.27,26.08-35.16.91,0,139.65.25,149.08.26-4.56,7.68-79.26,133.42-90.76,152.77M179.92,389.05c-7.38-12.41-14.77-24.82-22.17-37.22,4.17.88,8.41,1.46,12.7,1.46,13.76,0,27.01-4.51,38.11-12.6-9.66,16.31-23.18,39.14-28.64,48.36M114.93,280.2S45.53,163.81,31.22,139.8c8.84.01,95.27.05,104.5.06-6.43,9.99-10.22,21.95-10.22,33.81,0,35.78,24.1,51.7,45.35,65.74,19.31,12.76,37.55,24.8,37.55,49.85,0,20.55-16.81,36.05-39.11,36.05-13.02,0-26.89-6.08-37.18-16.26-.41-.7-17.19-28.85-17.19-28.85M27.26,95.21c0-38.49,31.53-69.79,70.29-69.79s70.33,31.31,70.33,69.79l.11,5.22s.13,8.15.2,11.89H27.26v-17.12h0ZM359.65,95.21c0-52.5-43.01-95.21-95.88-95.21-34.74,0-66.04,18.41-83.11,48.12C163.57,18.41,132.29,0,97.55,0,43.78,0,.03,42.71.03,95.21l-.03,42.26,179.89,302.33,179.76-303.38v-41.21M391.6,117.86h4.4l4.07,10.48,3.99-10.48h4.4v15.52h-2.83v-11.86h-.07l-4.37,11.86h-2.31l-4.36-11.86h-.07v11.86h-2.83v-15.52ZM380.33,120.47h-4.78v-2.61h12.38v2.61h-4.77v12.91h-2.83v-12.91Z"/>
  </g>
</svg>