<svg id="s3_nife6__레이어_2"  xmlns="http://www.w3.org/2000/svg" viewBox="0 0 200.0 200.0">
<g transform="translate(10.00,10.00) scale(2.5003)">

  <defs>
    <style>
      .s3_nife6_c1 {
        fill: #231815;
      }

      .s3_nife6_c2 {
        fill: none;
        stroke: #231815;
        stroke-width: 3.71px;
      }
    </style>
  </defs>
  <g id="s3_nife6__레이어_1-2" >
    <rect class="s3_nife6_c2" x=".92" y=".92" width="70.14" height="70.14"/>
    <path class="s3_nife6_c1" d="M61.71,58.05l-12.56-13.56v-3.36l-8.92-8.88,1.19-1.3,7.72,7.69v-12.75l-1.59-1.63,14.02-15.29-2.17-1.99-13.91,15.17L28.99,5.25v13.31l1.42,1.41v-11.18l4.49,4.36v11.28l4.46,4.44-1.2,1.31-3.26-3.25v2.16l-4.49-4.84v-1.79l-1.42-1.41v1.67L14.5,7.09l-2.16,2,16.65,17.97v9.56l1.42,1.39v-9.42l4.49,4.84v.3l-5.39,5.87-.51-.5v1.06l-16.52,18.02,2.17,1.99,14.35-15.65v5.78h-2.01v20.17h24.54v-19.09l8.04,8.67,2.16-2ZM44.09,69.04l-10.78-10.35,1.22-1.28,10.78,10.35-1.22,1.28ZM44.31,54.15l-9.42-9.26v5.17h-4.49v-7.09l4.49-4.89v4.32l10.66,10.47-1.24,1.26Z"/>
  </g>

</g>
</svg>