<svg id="s4_nife1__레이어_2"  xmlns="http://www.w3.org/2000/svg" viewBox="0 0 53.01 50.47">
  <defs>
    <style>
      .s4_nife1_c1 {
        fill: #fff;
      }
    </style>
  </defs>
  <g id="s4_nife1__레이어_1-2" >
    <polygon points="37.09 22.73 37.09 30.79 43.23 36.4 43.23 17.12 37.09 22.73"/>
    <polygon points="0 0 0 50.47 53.01 50.47 53.01 48.79 51.33 48.79 49.65 48.79 49.65 47.11 3.36 47.11 3.36 3.36 49.65 3.36 49.65 47.11 51.33 47.11 51.33 48.79 53.01 48.79 53.01 0 0 0"/>
    <rect x="49.65" y="47.11" width="1.68" height="1.68"/>
    <path d="M27.3,37.33c-1.65-.06-2.34-.5-2.34-.5,0,0-.28-.5-1.31-.5-.62,0-1.47.21-2.18.69l-.66.6c-.19.23-.35.48-.47.79-.55,1.51-.97,3.21-.97,3.21h17.32l-5.47-5c-.91.4-2.23.78-3.92.71Z"/>
    <path d="M33.02,6.46c-4.55-.5-10,.57-12.9,4.41,0,0,4.07-2.58,9.03-1.13,3.31.97,4.93,2.63,5.75,3.8l4.91-4.49c-1.39-.92-3.86-2.26-6.8-2.59Z"/>
    <path class="s4_nife1_c1" d="M20.8,37.61l.66-.6c-.25.17-.47.37-.66.6Z"/>
    <polygon points="42.97 45.87 45.02 43.63 42.97 45.87 42.97 45.87"/>
    <polygon points="42.97 7.65 42.97 7.65 45.02 9.89 42.97 7.65"/>
    <polygon points="10.14 45.87 10.14 45.87 8.09 43.63 10.14 45.87"/>
    <polygon points="10.14 7.65 8.09 9.89 10.14 7.65 10.14 7.65"/>
    <polygon points="37.09 32.27 31.87 27.5 31.06 26.76 31.87 26.02 37.09 21.25 43.23 15.64 47.07 12.13 45.02 9.89 42.97 7.65 40.73 9.69 35.49 14.49 27.37 21.91 26.56 22.64 25.75 21.91 10.14 7.65 8.09 9.89 6.04 12.13 21.24 26.02 22.05 26.76 21.24 27.5 6.04 41.39 8.09 43.63 10.14 45.87 25.75 31.61 26.56 30.87 27.37 31.61 32.24 36.07 38.31 41.61 42.97 45.87 45.02 43.63 47.07 41.39 43.23 37.88 37.09 32.27"/>
  </g>
</svg>