<svg id="s5_hand__레이어_2"  xmlns="http://www.w3.org/2000/svg" viewBox="0 0 51.09 49.84">
  <defs>
    <style>
      .s5_hand_c1 {
        fill: #231815;
      }
    </style>
  </defs>
  <g id="s5_hand__레이어_1-2" >
    <path class="s5_hand_c1" d="M47.79.2L3.53,0C1.69,0,.2,1.47.19,3.31L0,46.31c0,1.83,1.47,3.33,3.3,3.34l44.26.2c1.83,0,3.33-1.47,3.34-3.31l.19-43.01c0-1.83-1.47-3.33-3.3-3.33ZM40.55,12.76c0-1.13,1.09-1.76,1.96-1.76,1.17,0,1.84.88,1.84,1.8v10.12h-1.05c-.66-2.47-2.75-2.72-2.75-2.72v-7.44ZM8.07,12.8c0-.92.67-1.8,1.84-1.8.88,0,1.96.63,1.96,1.76v7.44s-2.09.25-2.76,2.72h-1.05v-10.12ZM23.58,44.45h-7.32v-7.19h7.32v7.19ZM23.58,35.75h-7.74s-7.06-8.86-7.6-9.62c-.55-.75-.42-1.38-.17-1.63.25-.25.62-.46,1.09.09.46.54,5.36,5.18,5.36,5.18,0,0,.62.54.96.16.34-.38-.09-.96-.09-.96l-4.34-4.35s-1.01-1.26.42-2.47c1.08-.92,2.38.17,2.38.17,0,0,6.65,6.23,7.65,7.27,1.01,1.05,2.46,2.89,2.09,6.15ZM25.54,27.01l-8.28-4.64v-9.74l8.28,4.68v9.7ZM17.3,11.67l8.65-4.8,8.7,4.8-8.65,4.85-8.7-4.85ZM26.5,17.36l8.32-4.81v9.66l-8.23,4.85-.09-9.7ZM36.16,44.45h-7.32v-7.19h7.32v7.19ZM44.18,26.14c-.54.75-7.61,9.62-7.61,9.62h-7.74c-.37-3.26,1.09-5.1,2.09-6.15,1.01-1.04,7.65-7.27,7.65-7.27,0,0,1.29-1.09,2.38-.17,1.42,1.21.41,2.47.41,2.47l-4.34,4.35s-.42.59-.08.96c.33.38.96-.16.96-.16,0,0,4.9-4.64,5.36-5.18.46-.54.84-.34,1.09-.09.25.25.38.88-.17,1.63Z"/>
  </g>
</svg>