<svg id="_레이어_2" data-name="레이어 2" xmlns="http://www.w3.org/2000/svg" viewBox="0 0 200.0 200.0">
<g transform="translate(10.00,10.00) scale(0.8429)">

  <defs>
    <style>
      .s5_hand_c1 {
        fill: none;
        stroke: #000;
        stroke-miterlimit: 10;
        stroke-width: 11.0px;
      }
    </style>
  </defs>
  <g id="Layer_1" data-name="Layer 1">
    <g>
      <path d="M106.6,69.9l32.34-16.17-30.53-15.27c-1.14-.57-2.48-.57-3.62,0l-30.53,15.27,32.34,16.17Z"/>
      <g>
        <path d="M102.9,76.41l-32.34-16.17v37.92c0,1.53.87,2.93,2.23,3.62l30.1,15.05v-40.42Z"/>
        <path d="M110.31,76.41v40.42l30.1-15.05c1.37-.69,2.23-2.08,2.23-3.62v-37.92l-32.34,16.17Z"/>
      </g>
    </g>
    <g id="Handle_With_Care" data-name="Handle With Care">
      <path d="M175.76,82.53c0-2.25-1.87-4.05-4.12-4.04-.06,0-.12,0-.18,0-6.88.09-12.34,5.87-12.38,12.75l-.18,30.69c-.01,1.6-1.16,2.81-1.18,2.83l-21.41,21.42c-1.58,1.58-4.14,1.58-5.72,0-1.58-1.58-1.58-4.14,0-5.72l20.24-20.24v-2.6c.03-1.94-1.34-3.61-3.24-3.98-6.5-1.29-13.7.69-18.41,5.4l-16.9,16.9c-.76.76-1.18,1.79-1.18,2.86v32.66c0,2.23,1.81,4.04,4.04,4.04h24.25c2.23,0,4.04-1.81,4.04-4.04v-7.21l31.24-33.19c.7-.75,1.1-1.74,1.1-2.77v-45.76Z"/>
      <path d="M102.46,138.8c0-1.07-.43-2.1-1.18-2.86l-16.9-16.9c-3.87-3.87-9.41-5.9-14.87-5.79-3.79.08-6.81,3.18-6.79,6.97l20.24,20.24c1.58,1.58,1.58,4.14,0,5.72-1.58,1.58-4.14,1.58-5.72,0l-21.41-21.42c-.57-.57-1.18-1.72-1.18-2.83l-.2-30.73c-.04-6.86-5.5-12.62-12.36-12.71-.06,0-.12,0-.18,0-2.25,0-4.12,1.79-4.12,4.04v45.76c0,1.03.39,2.02,1.1,2.77l31.24,33.19v7.21c0,2.23,1.81,4.04,4.04,4.04h24.25c2.23,0,4.04-1.81,4.04-4.04v-32.66Z"/>
    </g>
    <rect class="s5_hand_c1" x="5.5" y="5.5" width="202.54" height="202.54"/>
  </g>

</g>
</svg>