<svg id="s6_fire1__레이어_2"  xmlns="http://www.w3.org/2000/svg" viewBox="0 0 200.0 200.0">
<g transform="translate(10.00,11.54) scale(3.0227)">

  <defs>
    <style>
      .s6_fire1_c1, .s6_fire1_c2 {
        fill: #231815;
      }

      .s6_fire1_c2 {
        fill-rule: evenodd;
      }
    </style>
  </defs>
  <g id="s6_fire1__레이어_1-2" >
    <path class="s6_fire1_c2" d="M17.97,47.73h23.66v3.7h-23.66v-3.7h0ZM29.79,27.26l-3.24-3.68h0c.66-1.43.9-2.54.4-4.92,3.33,1.23,2.82,5.54,2.84,8.61h0ZM17.29,32.24c1.97,1.28,3.09,2.14,5.48,2.05,1.1-2.88,1.36-5.34.57-8.44h0l4.16,4.08h0c-2.59,2.54-5.92,5.18-8.51,7.72-.67-.85-1.97-2.65-1.69-5.41h0ZM17.6,29.33c-2.31-1.73-4.62-5.04-6.4-8.46-.27,6.15.41,9.65,3,15.91-2.11-2.01-3.17-3.92-5.17-6.77-.66,6.6,2.27,9.71,5.09,12.3h0l-6.31,6.28,2.37,2.76,7.31-6.8h0c2.51,1.84,5.12,1.88,7.41,1.39-2.3-1.11-3.66-2.44-3.95-4.61h0l9.4-8.55h0c2.57,2.65,5.04,5.19,7.61,7.85-.5,2.23-2.48,4.03-4.67,4.36,2.42.57,5.48.61,7.58-1.25h0l7.8,7.61,3.06-2.61-7.84-7.82h0c3.76-5.33-.07-15.94,5.7-23.06-12.34,3.83-6.41,14.53-9.56,19.21h0l-7.39-7.06,3-2.98h0c.88,1.91.67,4.66-.28,7,2.7-2.22,5.4-7.41,3.67-10.48h0l12.58-13.22-2.51-3.21-11.38,11.8h0c-1.02-2.8-.76-6.12.53-9.54-2.3-1.19-6.69,5.86-7.37,8.62-.7-3.26-2.49-9.37-4.73-10.02-.05,3.14-.94,6.48-2.89,8.88-.93-3.11-1.54-7.27-4.26-9.75.51,3.07.92,6.55.17,8.77h0L10.76,7.12l-2.43,2.68h0c3.48,3.59,6.75,7.19,10.22,10.79.74,3.76-.1,6.88-.95,8.74h0Z"/>
    <rect x="1.5" y="1.5" width="56.55" height="55.53" fill="none" stroke="#231815" stroke-width="3"/>
  </g>

</g>
</svg>