<svg id="s7_shoes2__레이어_2"  xmlns="http://www.w3.org/2000/svg" viewBox="0 0 71.66 71.66">
  <defs>
    <style>
      .s7_shoes2_c1 {
        fill: #231815;
      }

      .s7_shoes2_c2 {
        fill: #fff;
      }

      .s7_shoes2_c3 {
        stroke-width: 1.11px;
      }

      .s7_shoes2_c3, .s7_shoes2_c4 {
        fill: none;
        stroke: #231815;
      }

      .s7_shoes2_c4 {
        stroke-width: 1.66px;
      }
    </style>
  </defs>
  <g id="s7_shoes2__레이어_1-2" >
    <rect class="s7_shoes2_c4" x=".83" y=".83" width="70" height="70"/>
    <polygon class="s7_shoes2_c1" points="62.77 13.28 58.38 8.89 35.83 31.44 13.28 8.89 8.88 13.28 31.44 35.83 8.88 58.38 13.28 62.77 35.83 40.22 58.38 62.77 62.77 58.38 40.22 35.83 62.77 13.28"/>
    <polygon class="s7_shoes2_c3" points="15.23 50.23 7.11 46.35 9.62 42.77 18.44 47.01 15.23 50.23"/>
    <polygon class="s7_shoes2_c3" points="23.13 54.59 30.41 58.35 29.72 56.55 32.15 56.55 30.33 54.72 32.94 54.72 26.33 51.39 23.13 54.59"/>
    <polygon class="s7_shoes2_c3" points="55.64 49.7 62.53 46.35 59.81 42.65 52.31 46.3 55.64 49.7"/>
    <polygon class="s7_shoes2_c3" points="44.41 50.5 38.42 53.71 40.75 53.71 39.23 55.54 41.2 55.54 40.48 57.75 47.74 53.9 44.41 50.5"/>
    <path class="s7_shoes2_c1" d="M15.21,41.06h10.04l5.17-5.17-6.34-6.31s-8.87,1.2-8.87,11.47Z"/>
    <path class="s7_shoes2_c1" d="M41.41,35.82l14.22-14.24-.47,7.46s4.4,7.98,2.06,13.35h-9.29v-2.17l-3.15-1.06-3.37-3.34Z"/>
    <path class="s7_shoes2_c1" d="M35.92,30.25l17.54-17.38h-10.78s-2.44-.17-2.81,3.24c-.03.28-.1,1.45-.38,2.26-.67,1.97-1.26,7.3-6.71,8.78l3.13,3.11Z"/>
    <path class="s7_shoes2_c2" d="M39.5,18.33c.71.34,1.63.75,2.46.98l-.4.58s-1-.24-2.31-.87"/>
    <path class="s7_shoes2_c2" d="M38.6,20.31c.66.31,1.28.59,2.01.79l-.4.58s-.75-.18-2-.77"/>
    <path class="s7_shoes2_c2" d="M37.16,22.18c.59.27,1.27.54,1.89.71l-.4.58s-.87-.21-2.05-.75"/>
  </g>
</svg>