<svg id="s8_sun__레이어_2"  xmlns="http://www.w3.org/2000/svg" viewBox="0 0 55.53 55.53">
  <defs>
    <style>
      .s8_sun_c1 {
        fill: #231815;
      }
    </style>
  </defs>
  <g id="s8_sun__레이어_1-2" >
    <path class="s8_sun_c1" d="M3.02,0l52.51,51.42V0H3.02ZM53.4,21.88s-.05,0-.12,0l.05,3.88-1.86.02-.05-4.03c-.64-.08-1.42-.22-2.3-.44l-.43,3.53-1.84-.22.46-3.85c-1.02-.35-1.74-.54-2.88-1.15l-1.48,3.64-1.61-.77,1.39-3.84.16.04c-.5-.32-1.33-.91-1.84-1.28l-2.21,3.14-1.52-1.06,2.28-3.24c-.28-.24-.56-.47-.83-.73,0,0-.3-.19-.77-.66l-3.21,2.31-1.09-1.5,3.13-2.26c-.35-.51-.73-1.15-1.11-1.92l-3.82,1.67-.74-1.69,3.82-1.66c-.27-.68-.53-1.43-.78-2.26l-4.37.58-.24-1.83,4.12-.55c-.16-.66-.3-1.37-.44-2.11h-4v-1.84h4.54v.13l1.65-.13s-.21,16.41,17.94,17.43v2.67ZM53.19,17.37c-8.65,0-15.67-6.98-15.67-15.59h15.88l-.21,15.59Z"/>
    <path class="s8_sun_c1" d="M0,4.1v51.42h52.5L0,4.1ZM5.89,49.71l-.21-10.09,8.08,3.74.21,10.09-8.08-3.73ZM6.6,38.29l8.87-3.28,8.04,4.31-8.66,3.08-8.25-4.11ZM15.46,44.04l8.66-2.87.21,8.82-8.66,3.28-.21-9.23Z"/>
  </g>
</svg>