<svg id="s9_stack__레이어_2"  xmlns="http://www.w3.org/2000/svg" viewBox="0 0 56.29 57.03">
  <defs>
    <style>
      .s9_stack_c1 {
        fill: #231815;
      }
    </style>
  </defs>
  <g id="s9_stack__레이어_1-2" >
    <path class="s9_stack_c1" d="M0,0v57.03h56.29V0H0ZM33.66,15.95c-1.42,0-2.7.72-3.62,2.02l-2.12-.12,1.48-11.38h10.15v2.6h-8.31l-.83,5.82c.83-.7,2.03-1.33,3.79-1.33,3.18,0,6.44,2.41,6.44,6.79,0,2.36-.98,7.45-7.11,7.45-2.56,0-5.85-1.12-6.33-5.85h2.54c.25,2.47,1.95,3.56,4.15,3.56,2.54,0,4.13-2.2,4.13-4.86,0-3.05-1.93-4.71-4.35-4.71ZM13.62,10.07c3.18-.24,4.49-.57,5.27-4.04h1.92v21.22h-2.62v-15.06h-4.57v-2.11ZM45.46,51.01H10.83v-7.63h34.63v7.63ZM45.46,38.96H10.83v-7.63h34.63v7.63Z"/>
  </g>
</svg>